<?xml version="1.0" encoding="utf-8"?>
<!-- Generated with Wordclouds.com -->
<!DOCTYPE svg PUBLIC "-//W3C//DTD SVG 1.1//EN" "http://www.w3.org/Graphics/SVG/1.1/DTD/svg11.dtd">
<svg xmlns="http://www.w3.org/2000/svg" xmlns:xlink="http://www.w3.org/1999/xlink" x="0" y="0" width="90" height="60" viewBox="0 0 90 60" xml:space="preserve">
<desc>Created @ WordClouds.com</desc>

<rect x="0" y="0" width="90" height="60" fill="#000000" opacity="0" />
<path transform="rotate(0, 45, 30)" fill="#2a4ed0" opacity="1" d="M12.22 47.28L2.65 47.28L2.65 12.72L12.41 12.72Q16.91 12.72 20.38 14.72Q23.84 16.71 25.73 20.39Q27.62 24.07 27.64 28.84L27.64 28.84L27.64 31.04Q27.64 35.93 25.75 39.61Q23.87 43.29 20.37 45.26Q16.87 47.23 12.22 47.28L12.22 47.28ZM12.52 16.47L7.21 16.47L7.21 43.55L12.00 43.55Q17.27 43.55 20.20 40.28Q23.13 37.00 23.13 30.95L23.13 30.95L23.13 28.93Q23.13 23.05 20.37 19.78Q17.60 16.52 12.52 16.47L12.52 16.47ZM44.09 47.28L34.52 47.28L34.52 12.72L44.28 12.72Q48.79 12.72 52.25 14.72Q55.71 16.71 57.60 20.39Q59.49 24.07 59.51 28.84L59.51 28.84L59.51 31.04Q59.51 35.93 57.62 39.61Q55.74 43.29 52.24 45.26Q48.74 47.23 44.09 47.28L44.09 47.28ZM44.39 16.47L39.08 16.47L39.08 43.55L43.87 43.55Q49.14 43.55 52.07 40.28Q55.00 37.00 55.00 30.95L55.00 30.95L55.00 28.93Q55.00 23.05 52.24 19.78Q49.47 16.52 44.39 16.47L44.39 16.47ZM70.97 12.72L70.97 43.55L87.35 43.55L87.35 47.28L66.39 47.28L66.39 12.72L70.97 12.72Z" />
<path transform="rotate(0, 42, 52)" fill="#a13838" opacity="1" d="M28.62 56.09L23.97 56.09L23.97 47.79L24.94 47.79L24.94 55.23L28.62 55.23L28.62 56.09ZM32.29 49.76L32.29 49.76Q33.09 49.76 33.66 50.11Q34.22 50.46 34.53 51.09Q34.83 51.73 34.83 52.57L34.83 52.57L34.83 53.16L30.53 53.16Q30.55 54.25 31.07 54.83Q31.60 55.40 32.56 55.40L32.56 55.40Q33.15 55.40 33.61 55.29Q34.06 55.19 34.55 54.97L34.55 54.97L34.55 55.80Q34.08 56.01 33.61 56.11Q33.15 56.21 32.52 56.21L32.52 56.21Q31.62 56.21 30.96 55.84Q30.29 55.47 29.92 54.76Q29.55 54.06 29.55 53.03L29.55 53.03Q29.55 52.02 29.89 51.29Q30.23 50.55 30.84 50.15Q31.46 49.76 32.29 49.76ZM32.28 50.53L32.28 50.53Q31.53 50.53 31.08 51.02Q30.63 51.52 30.55 52.40L30.55 52.40L33.84 52.40Q33.83 51.85 33.67 51.42Q33.50 51.00 33.16 50.77Q32.82 50.53 32.28 50.53ZM39.25 49.76L39.25 49.76Q39.44 49.76 39.65 49.78Q39.85 49.80 40.01 49.83L40.01 49.83L39.89 50.71Q39.74 50.67 39.55 50.64Q39.36 50.62 39.20 50.62L39.20 50.62Q38.82 50.62 38.49 50.77Q38.16 50.92 37.91 51.20Q37.66 51.48 37.52 51.88Q37.38 52.27 37.38 52.76L37.38 52.76L37.38 56.09L36.43 56.09L36.43 49.87L37.21 49.87L37.31 51.02L37.35 51.02Q37.55 50.67 37.82 50.38Q38.09 50.10 38.45 49.93Q38.81 49.76 39.25 49.76ZM44.13 49.76L44.13 49.76Q45.23 49.76 45.80 50.30Q46.37 50.84 46.37 52.04L46.37 52.04L46.37 56.09L45.44 56.09L45.44 52.10Q45.44 51.32 45.08 50.94Q44.73 50.55 44.00 50.55L44.00 50.55Q42.96 50.55 42.54 51.14Q42.12 51.72 42.12 52.83L42.12 52.83L42.12 56.09L41.18 56.09L41.18 49.87L41.94 49.87L42.08 50.77L42.13 50.77Q42.33 50.44 42.64 50.21Q42.95 49.99 43.33 49.87Q43.71 49.76 44.13 49.76ZM50.71 49.76L50.71 49.76Q51.50 49.76 52.07 50.11Q52.64 50.46 52.94 51.09Q53.24 51.73 53.24 52.57L53.24 52.57L53.24 53.16L48.94 53.16Q48.96 54.25 49.49 54.83Q50.01 55.40 50.97 55.40L50.97 55.40Q51.56 55.40 52.02 55.29Q52.47 55.19 52.96 54.97L52.96 54.97L52.96 55.80Q52.49 56.01 52.03 56.11Q51.56 56.21 50.93 56.21L50.93 56.21Q50.04 56.21 49.37 55.84Q48.70 55.47 48.33 54.76Q47.96 54.06 47.96 53.03L47.96 53.03Q47.96 52.02 48.30 51.29Q48.64 50.55 49.26 50.15Q49.87 49.76 50.71 49.76ZM50.69 50.53L50.69 50.53Q49.94 50.53 49.49 51.02Q49.04 51.52 48.96 52.40L48.96 52.40L52.25 52.40Q52.24 51.85 52.08 51.42Q51.91 51.00 51.57 50.77Q51.23 50.53 50.69 50.53ZM57.79 49.76L57.79 49.76Q58.89 49.76 59.46 50.30Q60.03 50.84 60.03 52.04L60.03 52.04L60.03 56.09L59.10 56.09L59.10 52.10Q59.10 51.32 58.74 50.94Q58.39 50.55 57.66 50.55L57.66 50.55Q56.62 50.55 56.20 51.14Q55.78 51.72 55.78 52.83L55.78 52.83L55.78 56.09L54.84 56.09L54.84 49.87L55.60 49.87L55.74 50.77L55.79 50.77Q55.99 50.44 56.30 50.21Q56.61 49.99 56.99 49.87Q57.37 49.76 57.79 49.76Z" />
<path transform="rotate(0, 45, 7)" fill="#ea0303" opacity="1" d="M34.67 6.84L34.67 6.84Q34.67 8.50 34.06 9.61Q33.46 10.73 32.31 11.29Q31.16 11.85 29.53 11.85L29.53 11.85L26.86 11.85L26.86 2.01L29.82 2.01Q31.32 2.01 32.41 2.56Q33.49 3.11 34.08 4.18Q34.67 5.26 34.67 6.84ZM33.46 6.88L33.46 6.88Q33.46 5.55 33.02 4.69Q32.58 3.83 31.73 3.41Q30.88 2.99 29.65 2.99L29.65 2.99L28.00 2.99L28.00 10.87L29.39 10.87Q31.42 10.87 32.44 9.87Q33.46 8.86 33.46 6.88ZM39.45 4.36L39.45 4.36Q40.76 4.36 41.40 4.95Q42.04 5.54 42.04 6.84L42.04 6.84L42.04 11.85L41.23 11.85L41.01 10.76L40.96 10.76Q40.65 11.17 40.31 11.44Q39.98 11.71 39.54 11.85Q39.10 11.99 38.46 11.99L38.46 11.99Q37.78 11.99 37.26 11.75Q36.74 11.51 36.44 11.04Q36.14 10.56 36.14 9.83L36.14 9.83Q36.14 8.72 37.02 8.13Q37.89 7.54 39.68 7.48L39.68 7.48L40.95 7.43L40.95 6.98Q40.95 6.02 40.54 5.64Q40.13 5.26 39.38 5.26L39.38 5.26Q38.81 5.26 38.28 5.43Q37.76 5.59 37.29 5.82L37.29 5.82L36.94 4.97Q37.44 4.72 38.09 4.54Q38.73 4.36 39.45 4.36ZM40.94 8.90L40.94 8.22L39.82 8.27Q38.44 8.32 37.87 8.72Q37.31 9.11 37.31 9.84L37.31 9.84Q37.31 10.47 37.69 10.77Q38.07 11.08 38.71 11.08L38.71 11.08Q39.69 11.08 40.31 10.53Q40.94 9.99 40.94 8.90L40.94 8.90ZM46.73 11.07L46.73 11.07Q47.00 11.07 47.29 11.02Q47.58 10.98 47.76 10.91L47.76 10.91L47.76 11.78Q47.57 11.86 47.22 11.93Q46.87 11.99 46.54 11.99L46.54 11.99Q45.96 11.99 45.48 11.78Q45.00 11.58 44.72 11.08Q44.43 10.59 44.43 9.73L44.43 9.73L44.43 5.35L43.38 5.35L43.38 4.81L44.44 4.37L44.88 2.77L45.56 2.77L45.56 4.48L47.72 4.48L47.72 5.35L45.56 5.35L45.56 9.69Q45.56 10.38 45.87 10.73Q46.19 11.07 46.73 11.07ZM52.10 4.34L52.10 4.34Q53.04 4.34 53.71 4.76Q54.38 5.18 54.74 5.93Q55.10 6.68 55.10 7.68L55.10 7.68L55.10 8.37L50.00 8.37Q50.02 9.67 50.65 10.35Q51.27 11.03 52.41 11.03L52.41 11.03Q53.11 11.03 53.65 10.90Q54.19 10.77 54.77 10.53L54.77 10.53L54.77 11.51Q54.21 11.76 53.66 11.87Q53.11 11.99 52.36 11.99L52.36 11.99Q51.30 11.99 50.51 11.55Q49.72 11.12 49.28 10.28Q48.85 9.44 48.85 8.22L48.85 8.22Q48.85 7.03 49.25 6.16Q49.65 5.28 50.38 4.81Q51.11 4.34 52.10 4.34ZM52.08 5.26L52.08 5.26Q51.19 5.26 50.66 5.84Q50.12 6.43 50.02 7.48L50.02 7.48L53.93 7.48Q53.92 6.82 53.72 6.32Q53.52 5.82 53.12 5.54Q52.71 5.26 52.08 5.26ZM60.49 4.34L60.49 4.34Q61.80 4.34 62.47 4.98Q63.14 5.63 63.14 7.05L63.14 7.05L63.14 11.85L62.04 11.85L62.04 7.12Q62.04 6.20 61.62 5.74Q61.20 5.28 60.33 5.28L60.33 5.28Q59.11 5.28 58.61 5.98Q58.11 6.67 58.11 7.99L58.11 7.99L58.11 11.85L56.99 11.85L56.99 4.48L57.90 4.48L58.06 5.54L58.12 5.54Q58.36 5.15 58.72 4.88Q59.09 4.62 59.54 4.48Q59.99 4.34 60.49 4.34Z" />
<path transform="rotate(-90, 77, 18)" fill="#9e15bf" opacity="1" d="M63.28 21.45L63.28 21.45Q62.55 21.45 62.15 21.17Q61.76 20.90 61.76 20.42L61.76 20.42Q61.76 20.07 61.98 19.82Q62.20 19.58 62.59 19.50L62.59 19.50Q62.45 19.43 62.34 19.30Q62.24 19.16 62.24 18.99L62.24 18.99Q62.24 18.78 62.35 18.63Q62.47 18.48 62.70 18.34L62.70 18.34Q62.41 18.22 62.23 17.94Q62.05 17.66 62.05 17.28L62.05 17.28Q62.05 16.89 62.22 16.61Q62.38 16.32 62.69 16.18Q63.01 16.03 63.45 16.03L63.45 16.03Q63.55 16.03 63.65 16.04Q63.75 16.05 63.84 16.06Q63.93 16.08 64.00 16.10L64.00 16.10L65.26 16.10L65.26 16.46L64.58 16.54Q64.68 16.67 64.75 16.86Q64.82 17.04 64.82 17.27L64.82 17.27Q64.82 17.82 64.44 18.14Q64.07 18.47 63.42 18.47L63.42 18.47Q63.26 18.47 63.10 18.44L63.10 18.44Q62.94 18.53 62.85 18.64Q62.76 18.75 62.76 18.90L62.76 18.90Q62.76 19.01 62.83 19.07Q62.89 19.13 63.02 19.16Q63.14 19.19 63.32 19.19L63.32 19.19L63.97 19.19Q64.57 19.19 64.89 19.44Q65.21 19.70 65.21 20.18L65.21 20.18Q65.21 20.79 64.72 21.12Q64.22 21.45 63.28 21.45ZM63.29 21.01L63.29 21.01Q63.75 21.01 64.05 20.92Q64.35 20.82 64.50 20.65Q64.65 20.48 64.65 20.24L64.65 20.24Q64.65 20.02 64.55 19.90Q64.45 19.79 64.25 19.75Q64.06 19.71 63.78 19.71L63.78 19.71L63.14 19.71Q62.89 19.71 62.70 19.79Q62.52 19.87 62.42 20.02Q62.32 20.17 62.32 20.40L62.32 20.40Q62.32 20.69 62.57 20.85Q62.82 21.01 63.29 21.01ZM63.44 18.06L63.44 18.06Q63.84 18.06 64.04 17.86Q64.24 17.66 64.24 17.27L64.24 17.27Q64.24 16.86 64.04 16.65Q63.83 16.44 63.43 16.44L63.43 16.44Q63.05 16.44 62.84 16.66Q62.63 16.87 62.63 17.28L62.63 17.28Q62.63 17.66 62.84 17.86Q63.05 18.06 63.44 18.06ZM67.41 16.04L67.41 16.04Q67.88 16.04 68.21 16.24Q68.55 16.45 68.73 16.83Q68.91 17.20 68.91 17.70L68.91 17.70L68.91 18.05L66.36 18.05Q66.37 18.70 66.68 19.04Q67.00 19.38 67.56 19.38L67.56 19.38Q67.91 19.38 68.18 19.32Q68.45 19.25 68.74 19.13L68.74 19.13L68.74 19.62Q68.46 19.74 68.19 19.80Q67.91 19.86 67.54 19.86L67.54 19.86Q67.01 19.86 66.61 19.64Q66.22 19.42 66.00 19.00Q65.78 18.58 65.78 17.97L65.78 17.97Q65.78 17.38 65.98 16.94Q66.18 16.51 66.55 16.27Q66.91 16.04 67.41 16.04ZM67.40 16.49L67.40 16.49Q66.95 16.49 66.69 16.79Q66.42 17.08 66.37 17.60L66.37 17.60L68.32 17.60Q68.32 17.27 68.22 17.02Q68.12 16.77 67.92 16.63Q67.72 16.49 67.40 16.49ZM70.42 14.55L70.42 19.79L69.86 19.79L69.86 14.55L70.42 14.55ZM73.01 16.04L73.01 16.04Q73.49 16.04 73.82 16.24Q74.16 16.45 74.34 16.83Q74.52 17.20 74.52 17.70L74.52 17.70L74.52 18.05L71.97 18.05Q71.98 18.70 72.29 19.04Q72.60 19.38 73.17 19.38L73.17 19.38Q73.52 19.38 73.79 19.32Q74.06 19.25 74.35 19.13L74.35 19.13L74.35 19.62Q74.07 19.74 73.80 19.80Q73.52 19.86 73.15 19.86L73.15 19.86Q72.62 19.86 72.22 19.64Q71.83 19.42 71.61 19.00Q71.39 18.58 71.39 17.97L71.39 17.97Q71.39 17.38 71.59 16.94Q71.79 16.51 72.16 16.27Q72.52 16.04 73.01 16.04ZM73.01 16.49L73.01 16.49Q72.56 16.49 72.29 16.79Q72.03 17.08 71.98 17.60L71.98 17.60L73.93 17.60Q73.93 17.27 73.83 17.02Q73.73 16.77 73.53 16.63Q73.32 16.49 73.01 16.49ZM75.46 16.10L76.02 16.10L76.02 19.79L75.46 19.79L75.46 16.10ZM75.75 14.72L75.75 14.72Q75.89 14.72 75.99 14.81Q76.09 14.90 76.09 15.09L76.09 15.09Q76.09 15.27 75.99 15.37Q75.89 15.46 75.75 15.46L75.75 15.46Q75.61 15.46 75.51 15.37Q75.41 15.27 75.41 15.09L75.41 15.09Q75.41 14.90 75.51 14.81Q75.61 14.72 75.75 14.72ZM78.39 19.40L78.39 19.40Q78.53 19.40 78.68 19.38Q78.82 19.35 78.91 19.32L78.91 19.32L78.91 19.75Q78.82 19.80 78.64 19.83Q78.47 19.86 78.30 19.86L78.30 19.86Q78.01 19.86 77.77 19.75Q77.53 19.65 77.39 19.41Q77.25 19.16 77.25 18.73L77.25 18.73L77.25 16.54L76.72 16.54L76.72 16.27L77.25 16.05L77.47 15.25L77.81 15.25L77.81 16.10L78.89 16.10L78.89 16.54L77.81 16.54L77.81 18.71Q77.81 19.06 77.97 19.23Q78.13 19.40 78.39 19.40ZM81.08 16.04L81.08 16.04Q81.55 16.04 81.89 16.24Q82.22 16.45 82.40 16.83Q82.58 17.20 82.58 17.70L82.58 17.70L82.58 18.05L80.03 18.05Q80.04 18.70 80.36 19.04Q80.67 19.38 81.24 19.38L81.24 19.38Q81.59 19.38 81.86 19.32Q82.13 19.25 82.41 19.13L82.41 19.13L82.41 19.62Q82.14 19.74 81.86 19.80Q81.59 19.86 81.21 19.86L81.21 19.86Q80.68 19.86 80.29 19.64Q79.89 19.42 79.67 19.00Q79.45 18.58 79.45 17.97L79.45 17.97Q79.45 17.38 79.65 16.94Q79.85 16.51 80.22 16.27Q80.58 16.04 81.08 16.04ZM81.07 16.49L81.07 16.49Q80.63 16.49 80.36 16.79Q80.09 17.08 80.04 17.60L80.04 17.60L81.99 17.60Q81.99 17.27 81.89 17.02Q81.79 16.77 81.59 16.63Q81.39 16.49 81.07 16.49ZM84.72 19.40L84.72 19.40Q84.86 19.40 85.00 19.38Q85.15 19.35 85.24 19.32L85.24 19.32L85.24 19.75Q85.14 19.80 84.97 19.83Q84.79 19.86 84.63 19.86L84.63 19.86Q84.34 19.86 84.10 19.75Q83.86 19.65 83.72 19.41Q83.57 19.16 83.57 18.73L83.57 18.73L83.57 16.54L83.05 16.54L83.05 16.27L83.58 16.05L83.80 15.25L84.13 15.25L84.13 16.10L85.21 16.10L85.21 16.54L84.13 16.54L84.13 18.71Q84.13 19.06 84.29 19.23Q84.45 19.40 84.72 19.40ZM87.40 16.04L87.40 16.04Q87.88 16.04 88.21 16.24Q88.55 16.45 88.73 16.83Q88.90 17.20 88.90 17.70L88.90 17.70L88.90 18.05L86.36 18.05Q86.37 18.70 86.68 19.04Q86.99 19.38 87.56 19.38L87.56 19.38Q87.91 19.38 88.18 19.32Q88.45 19.25 88.74 19.13L88.74 19.13L88.74 19.62Q88.46 19.74 88.19 19.80Q87.91 19.86 87.54 19.86L87.54 19.86Q87.01 19.86 86.61 19.64Q86.22 19.42 86.00 19.00Q85.78 18.58 85.78 17.97L85.78 17.97Q85.78 17.38 85.98 16.94Q86.18 16.51 86.54 16.27Q86.91 16.04 87.40 16.04ZM87.40 16.49L87.40 16.49Q86.95 16.49 86.68 16.79Q86.42 17.08 86.37 17.60L86.37 17.60L88.32 17.60Q88.32 17.27 88.22 17.02Q88.12 16.77 87.92 16.63Q87.71 16.49 87.40 16.49ZM92.24 18.78L92.24 18.78Q92.24 19.13 92.06 19.37Q91.89 19.61 91.56 19.74Q91.23 19.86 90.78 19.86L90.78 19.86Q90.39 19.86 90.11 19.80Q89.82 19.74 89.61 19.62L89.61 19.62L89.61 19.11Q89.84 19.22 90.15 19.31Q90.46 19.40 90.79 19.40L90.79 19.40Q91.27 19.40 91.48 19.25Q91.70 19.09 91.70 18.83L91.70 18.83Q91.70 18.68 91.61 18.56Q91.53 18.44 91.32 18.33Q91.12 18.23 90.77 18.09L90.77 18.09Q90.41 17.96 90.15 17.83Q89.90 17.69 89.76 17.50Q89.62 17.31 89.62 17.00L89.62 17.00Q89.62 16.54 90.00 16.29Q90.38 16.04 90.99 16.04L90.99 16.04Q91.32 16.04 91.61 16.10Q91.91 16.17 92.16 16.28L92.16 16.28L91.97 16.72Q91.74 16.63 91.48 16.56Q91.22 16.49 90.95 16.49L90.95 16.49Q90.57 16.49 90.36 16.62Q90.15 16.75 90.15 16.97L90.15 16.97Q90.15 17.14 90.25 17.25Q90.34 17.36 90.56 17.46Q90.77 17.56 91.12 17.69L91.12 17.69Q91.46 17.82 91.71 17.95Q91.97 18.09 92.10 18.28Q92.24 18.48 92.24 18.78Z" />
<path transform="rotate(-90, 85, 19)" fill="#a13838" opacity="1" d="M74.97 22.07L71.48 22.07L71.48 15.84L72.20 15.84L72.20 21.42L74.97 21.42L74.97 22.07ZM77.72 17.32L77.72 17.32Q78.32 17.32 78.74 17.58Q79.17 17.85 79.39 18.32Q79.62 18.80 79.62 19.43L79.62 19.43L79.62 19.87L76.40 19.87Q76.41 20.69 76.81 21.12Q77.20 21.55 77.92 21.55L77.92 21.55Q78.36 21.55 78.70 21.47Q79.05 21.39 79.41 21.23L79.41 21.23L79.41 21.85Q79.06 22.01 78.71 22.08Q78.36 22.16 77.89 22.16L77.89 22.16Q77.22 22.16 76.72 21.88Q76.22 21.61 75.94 21.07Q75.66 20.54 75.66 19.77L75.66 19.77Q75.66 19.02 75.92 18.47Q76.17 17.91 76.63 17.62Q77.09 17.32 77.72 17.32ZM77.71 17.90L77.71 17.90Q77.15 17.90 76.81 18.27Q76.47 18.64 76.41 19.30L76.41 19.30L78.88 19.30Q78.87 18.89 78.75 18.57Q78.62 18.25 78.37 18.07Q78.11 17.90 77.71 17.90ZM82.94 17.32L82.94 17.32Q83.08 17.32 83.24 17.33Q83.39 17.35 83.51 17.37L83.51 17.37L83.42 18.03Q83.30 18.00 83.16 17.98Q83.02 17.97 82.90 17.97L82.90 17.97Q82.62 17.97 82.37 18.08Q82.12 18.19 81.93 18.40Q81.74 18.61 81.64 18.91Q81.53 19.20 81.53 19.57L81.53 19.57L81.53 22.07L80.82 22.07L80.82 17.40L81.41 17.40L81.48 18.26L81.51 18.26Q81.66 18.00 81.86 17.79Q82.07 17.57 82.34 17.45Q82.61 17.32 82.94 17.32ZM86.59 17.32L86.59 17.32Q87.42 17.32 87.85 17.72Q88.28 18.13 88.28 19.03L88.28 19.03L88.28 22.07L87.58 22.07L87.58 19.08Q87.58 18.49 87.31 18.20Q87.05 17.91 86.50 17.91L86.50 17.91Q85.72 17.91 85.41 18.35Q85.09 18.79 85.09 19.63L85.09 19.63L85.09 22.07L84.38 22.07L84.38 17.40L84.96 17.40L85.06 18.08L85.10 18.08Q85.25 17.83 85.48 17.66Q85.71 17.49 85.99 17.41Q86.28 17.32 86.59 17.32ZM91.53 17.32L91.53 17.32Q92.13 17.32 92.55 17.58Q92.98 17.85 93.20 18.32Q93.43 18.80 93.43 19.43L93.43 19.43L93.43 19.87L90.21 19.87Q90.22 20.69 90.61 21.12Q91.01 21.55 91.73 21.55L91.73 21.55Q92.17 21.55 92.51 21.47Q92.85 21.39 93.22 21.23L93.22 21.23L93.22 21.85Q92.87 22.01 92.52 22.08Q92.17 22.16 91.70 22.16L91.70 22.16Q91.03 22.16 90.53 21.88Q90.03 21.61 89.75 21.07Q89.47 20.54 89.47 19.77L89.47 19.77Q89.47 19.02 89.73 18.47Q89.98 17.91 90.44 17.62Q90.90 17.32 91.53 17.32ZM91.52 17.90L91.52 17.90Q90.95 17.90 90.62 18.27Q90.28 18.64 90.22 19.30L90.22 19.30L92.69 19.30Q92.68 18.89 92.56 18.57Q92.43 18.25 92.18 18.07Q91.92 17.90 91.52 17.90ZM96.84 17.32L96.84 17.32Q97.67 17.32 98.10 17.72Q98.52 18.13 98.52 19.03L98.52 19.03L98.52 22.07L97.82 22.07L97.82 19.08Q97.82 18.49 97.56 18.20Q97.29 17.91 96.74 17.91L96.74 17.91Q95.97 17.91 95.65 18.35Q95.34 18.79 95.34 19.63L95.34 19.63L95.34 22.07L94.63 22.07L94.63 17.40L95.20 17.40L95.31 18.08L95.34 18.08Q95.49 17.83 95.72 17.66Q95.95 17.49 96.24 17.41Q96.52 17.32 96.84 17.32Z" />
<path transform="rotate(0, 74, 54)" fill="#ea0303" opacity="1" d="M68.19 53.91L68.19 53.91Q68.19 54.84 67.85 55.47Q67.51 56.10 66.86 56.41Q66.22 56.73 65.30 56.73L65.30 56.73L63.79 56.73L63.79 51.20L65.46 51.20Q66.31 51.20 66.92 51.50Q67.53 51.81 67.86 52.42Q68.19 53.02 68.19 53.91ZM67.51 53.93L67.51 53.93Q67.51 53.19 67.26 52.70Q67.01 52.22 66.54 51.98Q66.06 51.74 65.36 51.74L65.36 51.74L64.44 51.74L64.44 56.18L65.22 56.18Q66.36 56.18 66.94 55.61Q67.51 55.05 67.51 53.93ZM70.88 52.51L70.88 52.51Q71.62 52.51 71.98 52.85Q72.34 53.18 72.34 53.91L72.34 53.91L72.34 56.73L71.88 56.73L71.76 56.12L71.73 56.12Q71.55 56.34 71.36 56.50Q71.17 56.65 70.93 56.73Q70.68 56.80 70.32 56.80L70.32 56.80Q69.94 56.80 69.65 56.67Q69.35 56.54 69.19 56.27Q69.02 56.00 69.02 55.59L69.02 55.59Q69.02 54.97 69.51 54.64Q70.00 54.30 71.01 54.27L71.01 54.27L71.72 54.24L71.72 53.99Q71.72 53.45 71.49 53.24Q71.26 53.02 70.84 53.02L70.84 53.02Q70.52 53.02 70.22 53.11Q69.93 53.21 69.66 53.34L69.66 53.34L69.47 52.86Q69.75 52.72 70.11 52.61Q70.47 52.51 70.88 52.51ZM71.72 55.07L71.72 54.69L71.08 54.71Q70.31 54.74 69.99 54.97Q69.67 55.19 69.67 55.60L69.67 55.60Q69.67 55.95 69.89 56.12Q70.10 56.29 70.46 56.29L70.46 56.29Q71.01 56.29 71.36 55.99Q71.72 55.68 71.72 55.07L71.72 55.07ZM74.97 56.29L74.97 56.29Q75.13 56.29 75.29 56.26Q75.45 56.24 75.55 56.20L75.55 56.20L75.55 56.69Q75.44 56.74 75.25 56.77Q75.05 56.80 74.87 56.80L74.87 56.80Q74.54 56.80 74.27 56.69Q74.00 56.57 73.84 56.30Q73.68 56.02 73.68 55.53L73.68 55.53L73.68 53.07L73.09 53.07L73.09 52.77L73.68 52.52L73.93 51.62L74.31 51.62L74.31 52.58L75.53 52.58L75.53 53.07L74.31 53.07L74.31 55.51Q74.31 55.90 74.49 56.10Q74.67 56.29 74.97 56.29ZM77.99 52.50L77.99 52.50Q78.52 52.50 78.90 52.74Q79.28 52.97 79.48 53.40Q79.68 53.82 79.68 54.38L79.68 54.38L79.68 54.77L76.81 54.77Q76.83 55.50 77.18 55.88Q77.53 56.27 78.17 56.27L78.17 56.27Q78.56 56.27 78.87 56.20Q79.17 56.12 79.49 55.98L79.49 55.98L79.49 56.54Q79.18 56.68 78.87 56.74Q78.56 56.80 78.14 56.80L78.14 56.80Q77.54 56.80 77.10 56.56Q76.66 56.32 76.41 55.84Q76.16 55.37 76.16 54.69L76.16 54.69Q76.16 54.02 76.39 53.52Q76.61 53.03 77.02 52.77Q77.43 52.50 77.99 52.50ZM77.98 53.02L77.98 53.02Q77.48 53.02 77.18 53.35Q76.88 53.68 76.83 54.27L76.83 54.27L79.02 54.27Q79.02 53.90 78.91 53.62Q78.79 53.33 78.57 53.18Q78.34 53.02 77.98 53.02ZM82.71 52.50L82.71 52.50Q83.45 52.50 83.83 52.87Q84.21 53.23 84.21 54.03L84.21 54.03L84.21 56.73L83.59 56.73L83.59 54.07Q83.59 53.55 83.35 53.29Q83.11 53.03 82.62 53.03L82.62 53.03Q81.94 53.03 81.65 53.42Q81.37 53.81 81.37 54.56L81.37 54.56L81.37 56.73L80.75 56.73L80.75 52.58L81.25 52.58L81.35 53.18L81.38 53.18Q81.51 52.96 81.72 52.81Q81.92 52.66 82.18 52.58Q82.43 52.50 82.71 52.50Z" />
<path transform="rotate(0, 14, 10)" fill="#4ac6d2" opacity="1" d="M6.28 11.94L6.28 11.94Q5.87 11.94 5.65 11.79Q5.43 11.63 5.43 11.36L5.43 11.36Q5.43 11.16 5.55 11.03Q5.68 10.89 5.90 10.84L5.90 10.84Q5.81 10.80 5.76 10.73Q5.70 10.65 5.70 10.55L5.70 10.55Q5.70 10.44 5.76 10.35Q5.83 10.27 5.96 10.19L5.96 10.19Q5.79 10.12 5.69 9.96Q5.59 9.81 5.59 9.60L5.59 9.60Q5.59 9.37 5.68 9.22Q5.78 9.06 5.95 8.97Q6.13 8.89 6.38 8.89L6.38 8.89Q6.43 8.89 6.49 8.90Q6.54 8.90 6.60 8.91Q6.65 8.92 6.68 8.93L6.68 8.93L7.40 8.93L7.40 9.13L7.01 9.18Q7.07 9.25 7.11 9.36Q7.15 9.46 7.15 9.59L7.15 9.59Q7.15 9.90 6.94 10.08Q6.73 10.26 6.36 10.26L6.36 10.26Q6.27 10.26 6.18 10.25L6.18 10.25Q6.09 10.30 6.04 10.36Q5.99 10.42 5.99 10.51L5.99 10.51Q5.99 10.57 6.03 10.60Q6.07 10.64 6.14 10.65Q6.21 10.67 6.30 10.67L6.30 10.67L6.67 10.67Q7.01 10.67 7.19 10.81Q7.37 10.95 7.37 11.23L7.37 11.23Q7.37 11.57 7.09 11.75Q6.81 11.94 6.28 11.94ZM6.29 11.69L6.29 11.69Q6.55 11.69 6.72 11.64Q6.89 11.59 6.97 11.49Q7.05 11.39 7.05 11.26L7.05 11.26Q7.05 11.13 7.00 11.07Q6.94 11.01 6.83 10.99Q6.72 10.96 6.56 10.96L6.56 10.96L6.20 10.96Q6.06 10.96 5.96 11.01Q5.85 11.05 5.80 11.14Q5.74 11.22 5.74 11.35L5.74 11.35Q5.74 11.52 5.88 11.60Q6.03 11.69 6.29 11.69ZM6.37 10.03L6.37 10.03Q6.60 10.03 6.71 9.92Q6.82 9.81 6.82 9.59L6.82 9.59Q6.82 9.36 6.71 9.24Q6.59 9.12 6.37 9.12L6.37 9.12Q6.15 9.12 6.03 9.24Q5.92 9.36 5.92 9.60L5.92 9.60Q5.92 9.81 6.04 9.92Q6.15 10.03 6.37 10.03ZM8.60 8.89L8.60 8.89Q8.87 8.89 9.06 9.01Q9.25 9.13 9.35 9.34Q9.45 9.55 9.45 9.83L9.45 9.83L9.45 10.03L8.02 10.03Q8.02 10.39 8.20 10.58Q8.37 10.78 8.69 10.78L8.69 10.78Q8.89 10.78 9.04 10.74Q9.19 10.70 9.35 10.63L9.35 10.63L9.35 10.91Q9.20 10.98 9.04 11.01Q8.89 11.04 8.68 11.04L8.68 11.04Q8.38 11.04 8.16 10.92Q7.94 10.80 7.81 10.56Q7.69 10.33 7.69 9.98L7.69 9.98Q7.69 9.65 7.80 9.40Q7.91 9.16 8.12 9.03Q8.33 8.89 8.60 8.89ZM8.60 9.15L8.60 9.15Q8.35 9.15 8.20 9.32Q8.05 9.48 8.02 9.78L8.02 9.78L9.12 9.78Q9.12 9.59 9.06 9.45Q9.00 9.31 8.89 9.23Q8.78 9.15 8.60 9.15ZM10.30 8.06L10.30 11.01L9.98 11.01L9.98 8.06L10.30 8.06ZM11.76 8.89L11.76 8.89Q12.02 8.89 12.21 9.01Q12.40 9.13 12.50 9.34Q12.60 9.55 12.60 9.83L12.60 9.83L12.60 10.03L11.17 10.03Q11.18 10.39 11.35 10.58Q11.53 10.78 11.85 10.78L11.85 10.78Q12.04 10.78 12.20 10.74Q12.35 10.70 12.51 10.63L12.51 10.63L12.51 10.91Q12.35 10.98 12.20 11.01Q12.04 11.04 11.83 11.04L11.83 11.04Q11.54 11.04 11.31 10.92Q11.09 10.80 10.97 10.56Q10.84 10.33 10.84 9.98L10.84 9.98Q10.84 9.65 10.96 9.40Q11.07 9.16 11.27 9.03Q11.48 8.89 11.76 8.89ZM11.75 9.15L11.75 9.15Q11.50 9.15 11.35 9.32Q11.20 9.48 11.18 9.78L11.18 9.78L12.27 9.78Q12.27 9.59 12.22 9.45Q12.16 9.31 12.05 9.23Q11.93 9.15 11.75 9.15ZM13.14 8.93L13.45 8.93L13.45 11.01L13.14 11.01L13.14 8.93ZM13.30 8.16L13.30 8.16Q13.37 8.16 13.43 8.21Q13.49 8.26 13.49 8.36L13.49 8.36Q13.49 8.47 13.43 8.52Q13.37 8.57 13.30 8.57L13.30 8.57Q13.22 8.57 13.16 8.52Q13.11 8.47 13.11 8.36L13.11 8.36Q13.11 8.26 13.16 8.21Q13.22 8.16 13.30 8.16ZM14.78 10.79L14.78 10.79Q14.86 10.79 14.94 10.77Q15.02 10.76 15.08 10.74L15.08 10.74L15.08 10.99Q15.02 11.01 14.92 11.03Q14.83 11.04 14.73 11.04L14.73 11.04Q14.57 11.04 14.43 10.99Q14.30 10.93 14.22 10.79Q14.14 10.65 14.14 10.41L14.14 10.41L14.14 9.18L13.84 9.18L13.84 9.03L14.14 8.90L14.27 8.45L14.46 8.45L14.46 8.93L15.06 8.93L15.06 9.18L14.46 9.18L14.46 10.40Q14.46 10.59 14.55 10.69Q14.63 10.79 14.78 10.79ZM16.29 8.89L16.29 8.89Q16.56 8.89 16.75 9.01Q16.94 9.13 17.04 9.34Q17.14 9.55 17.14 9.83L17.14 9.83L17.14 10.03L15.71 10.03Q15.71 10.39 15.89 10.58Q16.06 10.78 16.38 10.78L16.38 10.78Q16.58 10.78 16.73 10.74Q16.88 10.70 17.05 10.63L17.05 10.63L17.05 10.91Q16.89 10.98 16.73 11.01Q16.58 11.04 16.37 11.04L16.37 11.04Q16.07 11.04 15.85 10.92Q15.63 10.80 15.50 10.56Q15.38 10.33 15.38 9.98L15.38 9.98Q15.38 9.65 15.49 9.40Q15.61 9.16 15.81 9.03Q16.02 8.89 16.29 8.89ZM16.29 9.15L16.29 9.15Q16.04 9.15 15.89 9.32Q15.74 9.48 15.71 9.78L15.71 9.78L16.81 9.78Q16.81 9.59 16.75 9.45Q16.70 9.31 16.58 9.23Q16.47 9.15 16.29 9.15ZM18.34 10.79L18.34 10.79Q18.42 10.79 18.50 10.77Q18.58 10.76 18.63 10.74L18.63 10.74L18.63 10.99Q18.58 11.01 18.48 11.03Q18.38 11.04 18.29 11.04L18.29 11.04Q18.13 11.04 17.99 10.99Q17.86 10.93 17.78 10.79Q17.70 10.65 17.70 10.41L17.70 10.41L17.70 9.18L17.40 9.18L17.40 9.03L17.70 8.90L17.82 8.45L18.01 8.45L18.01 8.93L18.62 8.93L18.62 9.18L18.01 9.18L18.01 10.40Q18.01 10.59 18.10 10.69Q18.19 10.79 18.34 10.79ZM19.85 8.89L19.85 8.89Q20.12 8.89 20.31 9.01Q20.50 9.13 20.60 9.34Q20.70 9.55 20.70 9.83L20.70 9.83L20.70 10.03L19.26 10.03Q19.27 10.39 19.45 10.58Q19.62 10.78 19.94 10.78L19.94 10.78Q20.14 10.78 20.29 10.74Q20.44 10.70 20.60 10.63L20.60 10.63L20.60 10.91Q20.45 10.98 20.29 11.01Q20.14 11.04 19.93 11.04L19.93 11.04Q19.63 11.04 19.41 10.92Q19.18 10.80 19.06 10.56Q18.94 10.33 18.94 9.98L18.94 9.98Q18.94 9.65 19.05 9.40Q19.16 9.16 19.37 9.03Q19.57 8.89 19.85 8.89ZM19.85 9.15L19.85 9.15Q19.60 9.15 19.45 9.32Q19.30 9.48 19.27 9.78L19.27 9.78L20.37 9.78Q20.37 9.59 20.31 9.45Q20.25 9.31 20.14 9.23Q20.03 9.15 19.85 9.15ZM22.57 10.44L22.57 10.44Q22.57 10.64 22.47 10.77Q22.37 10.91 22.19 10.98Q22.00 11.04 21.75 11.04L21.75 11.04Q21.53 11.04 21.37 11.01Q21.21 10.98 21.09 10.91L21.09 10.91L21.09 10.62Q21.22 10.69 21.40 10.74Q21.57 10.79 21.76 10.79L21.76 10.79Q22.02 10.79 22.15 10.70Q22.27 10.62 22.27 10.47L22.27 10.47Q22.27 10.38 22.22 10.32Q22.17 10.25 22.06 10.19Q21.94 10.13 21.74 10.05L21.74 10.05Q21.54 9.98 21.40 9.90Q21.25 9.83 21.18 9.72Q21.10 9.61 21.10 9.44L21.10 9.44Q21.10 9.18 21.31 9.04Q21.52 8.89 21.87 8.89L21.87 8.89Q22.06 8.89 22.22 8.93Q22.38 8.97 22.53 9.03L22.53 9.03L22.42 9.28Q22.29 9.23 22.15 9.19Q22.00 9.15 21.85 9.15L21.85 9.15Q21.63 9.15 21.51 9.22Q21.40 9.30 21.40 9.42L21.40 9.42Q21.40 9.52 21.45 9.58Q21.51 9.64 21.63 9.70Q21.74 9.75 21.94 9.83L21.94 9.83Q22.13 9.90 22.28 9.97Q22.42 10.05 22.50 10.16Q22.57 10.27 22.57 10.44Z" />
<path transform="rotate(-90, 45, 30)" fill="#a13838" opacity="1" d="M37.47 32.30L34.86 32.30L34.86 27.63L35.40 27.63L35.40 31.82L37.47 31.82L37.47 32.30ZM39.54 28.74L39.54 28.74Q39.99 28.74 40.31 28.94Q40.63 29.13 40.80 29.49Q40.96 29.85 40.96 30.32L40.96 30.32L40.96 30.65L38.55 30.65Q38.56 31.27 38.85 31.59Q39.15 31.91 39.69 31.91L39.69 31.91Q40.02 31.91 40.28 31.85Q40.53 31.79 40.81 31.67L40.81 31.67L40.81 32.14Q40.54 32.26 40.28 32.31Q40.02 32.37 39.67 32.37L39.67 32.37Q39.16 32.37 38.79 32.16Q38.41 31.95 38.21 31.56Q38.00 31.16 38.00 30.58L38.00 30.58Q38.00 30.01 38.19 29.60Q38.38 29.19 38.72 28.96Q39.07 28.74 39.54 28.74ZM39.53 29.17L39.53 29.17Q39.11 29.17 38.86 29.45Q38.60 29.73 38.56 30.23L38.56 30.23L40.41 30.23Q40.41 29.91 40.31 29.68Q40.22 29.44 40.03 29.31Q39.83 29.17 39.53 29.17ZM43.46 28.74L43.46 28.74Q43.56 28.74 43.68 28.75Q43.79 28.76 43.88 28.78L43.88 28.78L43.81 29.27Q43.73 29.25 43.62 29.24Q43.52 29.22 43.42 29.22L43.42 29.22Q43.21 29.22 43.03 29.31Q42.84 29.39 42.70 29.55Q42.56 29.71 42.48 29.93Q42.40 30.15 42.40 30.42L42.40 30.42L42.40 32.30L41.87 32.30L41.87 28.80L42.31 28.80L42.36 29.45L42.39 29.45Q42.49 29.25 42.65 29.09Q42.80 28.93 43.00 28.83Q43.21 28.74 43.46 28.74ZM46.20 28.74L46.20 28.74Q46.82 28.74 47.14 29.04Q47.46 29.35 47.46 30.02L47.46 30.02L47.46 32.30L46.93 32.30L46.93 30.06Q46.93 29.62 46.73 29.40Q46.53 29.19 46.12 29.19L46.12 29.19Q45.54 29.19 45.30 29.51Q45.07 29.84 45.07 30.47L45.07 30.47L45.07 32.30L44.54 32.30L44.54 28.80L44.97 28.80L45.05 29.31L45.08 29.31Q45.19 29.12 45.36 29.00Q45.53 28.87 45.75 28.80Q45.96 28.74 46.20 28.74ZM49.90 28.74L49.90 28.74Q50.34 28.74 50.66 28.94Q50.98 29.13 51.15 29.49Q51.32 29.85 51.32 30.32L51.32 30.32L51.32 30.65L48.90 30.65Q48.91 31.27 49.21 31.59Q49.51 31.91 50.05 31.91L50.05 31.91Q50.38 31.91 50.63 31.85Q50.89 31.79 51.17 31.67L51.17 31.67L51.17 32.14Q50.90 32.26 50.64 32.31Q50.38 32.37 50.03 32.37L50.03 32.37Q49.52 32.37 49.15 32.16Q48.77 31.95 48.56 31.56Q48.35 31.16 48.35 30.58L48.35 30.58Q48.35 30.01 48.54 29.60Q48.73 29.19 49.08 28.96Q49.43 28.74 49.90 28.74ZM49.89 29.17L49.89 29.17Q49.47 29.17 49.21 29.45Q48.96 29.73 48.91 30.23L48.91 30.23L50.77 30.23Q50.76 29.91 50.67 29.68Q50.57 29.44 50.38 29.31Q50.19 29.17 49.89 29.17ZM53.88 28.74L53.88 28.74Q54.50 28.74 54.82 29.04Q55.14 29.35 55.14 30.02L55.14 30.02L55.14 32.30L54.62 32.30L54.62 30.06Q54.62 29.62 54.42 29.40Q54.22 29.19 53.81 29.19L53.81 29.19Q53.22 29.19 52.99 29.51Q52.75 29.84 52.75 30.47L52.75 30.47L52.75 32.30L52.22 32.30L52.22 28.80L52.65 28.80L52.73 29.31L52.76 29.31Q52.87 29.12 53.04 29.00Q53.22 28.87 53.43 28.80Q53.64 28.74 53.88 28.74Z" />
<path transform="rotate(0, 12, 51)" fill="#ea0303" opacity="1" d="M7.64 50.93L7.64 50.93Q7.64 51.63 7.39 52.10Q7.13 52.57 6.65 52.81Q6.16 53.05 5.47 53.05L5.47 53.05L4.35 53.05L4.35 48.90L5.60 48.90Q6.23 48.90 6.69 49.13Q7.14 49.36 7.39 49.81Q7.64 50.26 7.64 50.93ZM7.13 50.95L7.13 50.95Q7.13 50.39 6.95 50.03Q6.76 49.66 6.40 49.49Q6.04 49.31 5.52 49.31L5.52 49.31L4.83 49.31L4.83 52.63L5.42 52.63Q6.27 52.63 6.70 52.21Q7.13 51.79 7.13 50.95ZM9.66 49.88L9.66 49.88Q10.21 49.88 10.48 50.13Q10.75 50.38 10.75 50.93L10.75 50.93L10.75 53.05L10.41 53.05L10.32 52.59L10.30 52.59Q10.16 52.76 10.02 52.87Q9.88 52.99 9.69 53.05Q9.51 53.10 9.24 53.10L9.24 53.10Q8.96 53.10 8.74 53.00Q8.52 52.90 8.39 52.70Q8.26 52.50 8.26 52.19L8.26 52.19Q8.26 51.73 8.63 51.48Q9.00 51.23 9.76 51.20L9.76 51.20L10.29 51.18L10.29 50.99Q10.29 50.59 10.12 50.43Q9.95 50.26 9.63 50.26L9.63 50.26Q9.39 50.26 9.17 50.34Q8.94 50.41 8.75 50.50L8.75 50.50L8.60 50.15Q8.81 50.04 9.08 49.96Q9.36 49.88 9.66 49.88ZM10.29 51.80L10.29 51.51L9.81 51.53Q9.23 51.56 8.99 51.72Q8.75 51.89 8.75 52.20L8.75 52.20Q8.75 52.46 8.92 52.59Q9.08 52.72 9.34 52.72L9.34 52.72Q9.76 52.72 10.02 52.49Q10.29 52.26 10.29 51.80L10.29 51.80ZM12.73 52.72L12.73 52.72Q12.84 52.72 12.97 52.70Q13.09 52.68 13.17 52.65L13.17 52.65L13.17 53.02Q13.08 53.05 12.94 53.08Q12.79 53.10 12.65 53.10L12.65 53.10Q12.40 53.10 12.20 53.02Q12.00 52.93 11.88 52.72Q11.76 52.52 11.76 52.15L11.76 52.15L11.76 50.30L11.32 50.30L11.32 50.07L11.76 49.89L11.95 49.21L12.23 49.21L12.23 49.94L13.15 49.94L13.15 50.30L12.23 50.30L12.23 52.14Q12.23 52.43 12.37 52.57Q12.50 52.72 12.73 52.72ZM14.99 49.88L14.99 49.88Q15.39 49.88 15.67 50.05Q15.96 50.23 16.11 50.55Q16.26 50.86 16.26 51.29L16.26 51.29L16.26 51.58L14.11 51.58Q14.12 52.13 14.38 52.41Q14.65 52.70 15.13 52.70L15.13 52.70Q15.42 52.70 15.65 52.65Q15.88 52.59 16.12 52.49L16.12 52.49L16.12 52.90Q15.88 53.01 15.65 53.06Q15.42 53.10 15.11 53.10L15.11 53.10Q14.66 53.10 14.32 52.92Q13.99 52.74 13.81 52.38Q13.62 52.03 13.62 51.51L13.62 51.51Q13.62 51.01 13.79 50.64Q13.96 50.28 14.27 50.08Q14.58 49.88 14.99 49.88ZM14.99 50.26L14.99 50.26Q14.61 50.26 14.39 50.51Q14.16 50.76 14.12 51.20L14.12 51.20L15.77 51.20Q15.76 50.92 15.68 50.71Q15.60 50.50 15.42 50.38Q15.25 50.26 14.99 50.26ZM18.53 49.88L18.53 49.88Q19.09 49.88 19.37 50.15Q19.65 50.42 19.65 51.02L19.65 51.02L19.65 53.05L19.19 53.05L19.19 51.05Q19.19 50.66 19.01 50.47Q18.83 50.28 18.47 50.28L18.47 50.28Q17.95 50.28 17.74 50.57Q17.53 50.86 17.53 51.42L17.53 51.42L17.53 53.05L17.06 53.05L17.06 49.94L17.44 49.94L17.51 50.38L17.54 50.38Q17.64 50.22 17.79 50.11Q17.94 50.00 18.13 49.94Q18.32 49.88 18.53 49.88Z" />
<path transform="rotate(-90, 50, 30)" fill="#4ac6d2" opacity="1" d="M44.21 31.45L44.21 31.45Q43.90 31.45 43.74 31.34Q43.57 31.22 43.57 31.02L43.57 31.02Q43.57 30.87 43.66 30.77Q43.76 30.67 43.92 30.63L43.92 30.63Q43.86 30.60 43.82 30.55Q43.77 30.49 43.77 30.42L43.77 30.42Q43.77 30.33 43.82 30.27Q43.87 30.20 43.97 30.14L43.97 30.14Q43.85 30.09 43.77 29.97Q43.69 29.86 43.69 29.70L43.69 29.70Q43.69 29.53 43.76 29.41Q43.83 29.29 43.96 29.23Q44.10 29.17 44.28 29.17L44.28 29.17Q44.32 29.17 44.37 29.17Q44.41 29.18 44.45 29.18Q44.49 29.19 44.51 29.20L44.51 29.20L45.05 29.20L45.05 29.35L44.76 29.38Q44.80 29.44 44.83 29.52Q44.86 29.60 44.86 29.69L44.86 29.69Q44.86 29.92 44.70 30.06Q44.54 30.20 44.27 30.20L44.27 30.20Q44.20 30.20 44.14 30.19L44.14 30.19Q44.07 30.22 44.03 30.27Q43.99 30.32 43.99 30.38L43.99 30.38Q43.99 30.42 44.02 30.45Q44.05 30.48 44.10 30.49Q44.15 30.50 44.23 30.50L44.23 30.50L44.50 30.50Q44.76 30.50 44.89 30.61Q45.03 30.72 45.03 30.92L45.03 30.92Q45.03 31.18 44.82 31.32Q44.61 31.45 44.21 31.45ZM44.22 31.27L44.22 31.27Q44.41 31.27 44.54 31.23Q44.66 31.19 44.73 31.12Q44.79 31.04 44.79 30.94L44.79 30.94Q44.79 30.85 44.75 30.80Q44.71 30.76 44.62 30.74Q44.54 30.72 44.42 30.72L44.42 30.72L44.15 30.72Q44.05 30.72 43.97 30.76Q43.89 30.79 43.85 30.85Q43.81 30.92 43.81 31.01L43.81 31.01Q43.81 31.14 43.91 31.20Q44.02 31.27 44.22 31.27ZM44.28 30.03L44.28 30.03Q44.45 30.03 44.53 29.94Q44.62 29.86 44.62 29.69L44.62 29.69Q44.62 29.52 44.53 29.43Q44.44 29.34 44.28 29.34L44.28 29.34Q44.11 29.34 44.03 29.43Q43.94 29.52 43.94 29.70L43.94 29.70Q43.94 29.86 44.03 29.94Q44.11 30.03 44.28 30.03ZM45.95 29.17L45.95 29.17Q46.15 29.17 46.29 29.26Q46.44 29.35 46.51 29.51Q46.59 29.66 46.59 29.88L46.59 29.88L46.59 30.02L45.51 30.02Q45.52 30.30 45.65 30.44Q45.78 30.58 46.02 30.58L46.02 30.58Q46.17 30.58 46.28 30.55Q46.39 30.53 46.52 30.48L46.52 30.48L46.52 30.68Q46.40 30.74 46.28 30.76Q46.17 30.78 46.01 30.78L46.01 30.78Q45.79 30.78 45.62 30.69Q45.45 30.60 45.36 30.42Q45.27 30.25 45.27 29.99L45.27 29.99Q45.27 29.74 45.35 29.55Q45.44 29.37 45.59 29.27Q45.74 29.17 45.95 29.17ZM45.95 29.36L45.95 29.36Q45.76 29.36 45.65 29.49Q45.54 29.61 45.52 29.83L45.52 29.83L46.34 29.83Q46.34 29.69 46.30 29.59Q46.25 29.48 46.17 29.42Q46.08 29.36 45.95 29.36ZM47.22 28.55L47.22 30.76L46.99 30.76L46.99 28.55L47.22 28.55ZM48.32 29.17L48.32 29.17Q48.52 29.17 48.66 29.26Q48.80 29.35 48.88 29.51Q48.95 29.66 48.95 29.88L48.95 29.88L48.95 30.02L47.88 30.02Q47.88 30.30 48.01 30.44Q48.15 30.58 48.39 30.58L48.39 30.58Q48.53 30.58 48.65 30.55Q48.76 30.53 48.88 30.48L48.88 30.48L48.88 30.68Q48.76 30.74 48.65 30.76Q48.53 30.78 48.38 30.78L48.38 30.78Q48.15 30.78 47.98 30.69Q47.82 30.60 47.73 30.42Q47.63 30.25 47.63 29.99L47.63 29.99Q47.63 29.74 47.72 29.55Q47.80 29.37 47.96 29.27Q48.11 29.17 48.32 29.17ZM48.32 29.36L48.32 29.36Q48.13 29.36 48.02 29.49Q47.90 29.61 47.88 29.83L47.88 29.83L48.70 29.83Q48.70 29.69 48.66 29.59Q48.62 29.48 48.53 29.42Q48.45 29.36 48.32 29.36ZM49.35 29.20L49.59 29.20L49.59 30.76L49.35 30.76L49.35 29.20ZM49.47 28.62L49.47 28.62Q49.53 28.62 49.57 28.66Q49.61 28.69 49.61 28.77L49.61 28.77Q49.61 28.85 49.57 28.89Q49.53 28.93 49.47 28.93L49.47 28.93Q49.41 28.93 49.37 28.89Q49.33 28.85 49.33 28.77L49.33 28.77Q49.33 28.69 49.37 28.66Q49.41 28.62 49.47 28.62ZM50.59 30.59L50.59 30.59Q50.65 30.59 50.71 30.58Q50.77 30.57 50.81 30.56L50.81 30.56L50.81 30.74Q50.77 30.76 50.69 30.77Q50.62 30.78 50.55 30.78L50.55 30.78Q50.43 30.78 50.33 30.74Q50.22 30.70 50.16 30.59Q50.10 30.49 50.10 30.31L50.10 30.31L50.10 29.38L49.88 29.38L49.88 29.27L50.11 29.18L50.20 28.84L50.34 28.84L50.34 29.20L50.80 29.20L50.80 29.38L50.34 29.38L50.34 30.30Q50.34 30.45 50.41 30.52Q50.48 30.59 50.59 30.59ZM51.72 29.17L51.72 29.17Q51.92 29.17 52.06 29.26Q52.20 29.35 52.28 29.51Q52.35 29.66 52.35 29.88L52.35 29.88L52.35 30.02L51.28 30.02Q51.28 30.30 51.42 30.44Q51.55 30.58 51.79 30.58L51.79 30.58Q51.94 30.58 52.05 30.55Q52.16 30.53 52.28 30.48L52.28 30.48L52.28 30.68Q52.17 30.74 52.05 30.76Q51.94 30.78 51.78 30.78L51.78 30.78Q51.55 30.78 51.39 30.69Q51.22 30.60 51.13 30.42Q51.04 30.25 51.04 29.99L51.04 29.99Q51.04 29.74 51.12 29.55Q51.20 29.37 51.36 29.27Q51.51 29.17 51.72 29.17ZM51.72 29.36L51.72 29.36Q51.53 29.36 51.42 29.49Q51.31 29.61 51.28 29.83L51.28 29.83L52.11 29.83Q52.11 29.69 52.06 29.59Q52.02 29.48 51.94 29.42Q51.85 29.36 51.72 29.36ZM53.26 30.59L53.26 30.59Q53.31 30.59 53.38 30.58Q53.44 30.57 53.48 30.56L53.48 30.56L53.48 30.74Q53.43 30.76 53.36 30.77Q53.29 30.78 53.22 30.78L53.22 30.78Q53.09 30.78 52.99 30.74Q52.89 30.70 52.83 30.59Q52.77 30.49 52.77 30.31L52.77 30.31L52.77 29.38L52.55 29.38L52.55 29.27L52.77 29.18L52.87 28.84L53.01 28.84L53.01 29.20L53.47 29.20L53.47 29.38L53.01 29.38L53.01 30.30Q53.01 30.45 53.08 30.52Q53.14 30.59 53.26 30.59ZM54.39 29.17L54.39 29.17Q54.59 29.17 54.73 29.26Q54.87 29.35 54.95 29.51Q55.02 29.66 55.02 29.88L55.02 29.88L55.02 30.02L53.95 30.02Q53.95 30.30 54.08 30.44Q54.22 30.58 54.46 30.58L54.46 30.58Q54.60 30.58 54.72 30.55Q54.83 30.53 54.95 30.48L54.95 30.48L54.95 30.68Q54.83 30.74 54.72 30.76Q54.60 30.78 54.45 30.78L54.45 30.78Q54.22 30.78 54.06 30.69Q53.89 30.60 53.80 30.42Q53.70 30.25 53.70 29.99L53.70 29.99Q53.70 29.74 53.79 29.55Q53.87 29.37 54.03 29.27Q54.18 29.17 54.39 29.17ZM54.39 29.36L54.39 29.36Q54.20 29.36 54.09 29.49Q53.97 29.61 53.95 29.83L53.95 29.83L54.78 29.83Q54.77 29.69 54.73 29.59Q54.69 29.48 54.61 29.42Q54.52 29.36 54.39 29.36ZM56.43 30.33L56.43 30.33Q56.43 30.48 56.35 30.58Q56.28 30.68 56.14 30.73Q56.00 30.78 55.81 30.78L55.81 30.78Q55.65 30.78 55.53 30.76Q55.41 30.73 55.32 30.69L55.32 30.69L55.32 30.47Q55.42 30.52 55.55 30.55Q55.68 30.59 55.82 30.59L55.82 30.59Q56.02 30.59 56.11 30.53Q56.20 30.46 56.20 30.35L56.20 30.35Q56.20 30.29 56.16 30.24Q56.13 30.19 56.04 30.14Q55.96 30.10 55.81 30.04L55.81 30.04Q55.66 29.98 55.55 29.93Q55.44 29.87 55.38 29.79Q55.32 29.71 55.32 29.58L55.32 29.58Q55.32 29.38 55.48 29.28Q55.64 29.17 55.90 29.17L55.90 29.17Q56.04 29.17 56.17 29.20Q56.29 29.23 56.39 29.27L56.39 29.27L56.32 29.46Q56.22 29.42 56.11 29.39Q56.00 29.36 55.89 29.36L55.89 29.36Q55.72 29.36 55.64 29.42Q55.55 29.47 55.55 29.57L55.55 29.57Q55.55 29.64 55.59 29.68Q55.63 29.73 55.72 29.77Q55.81 29.81 55.95 29.87L55.95 29.87Q56.10 29.92 56.21 29.98Q56.31 30.04 56.37 30.12Q56.43 30.20 56.43 30.33Z" />
<path transform="rotate(0, 13, 57)" fill="#a13838" opacity="1" d="M7.36 58.73L5.39 58.73L5.39 55.23L5.80 55.23L5.80 58.36L7.36 58.36L7.36 58.73ZM8.91 56.05L8.91 56.05Q9.24 56.05 9.48 56.20Q9.72 56.35 9.85 56.62Q9.97 56.89 9.97 57.24L9.97 57.24L9.97 57.49L8.16 57.49Q8.17 57.95 8.39 58.19Q8.61 58.43 9.02 58.43L9.02 58.43Q9.27 58.43 9.46 58.39Q9.65 58.34 9.86 58.26L9.86 58.26L9.86 58.60Q9.66 58.69 9.46 58.73Q9.27 58.77 9.00 58.77L9.00 58.77Q8.62 58.77 8.34 58.62Q8.06 58.47 7.90 58.17Q7.75 57.87 7.75 57.43L7.75 57.43Q7.75 57.01 7.89 56.70Q8.03 56.39 8.29 56.22Q8.55 56.05 8.91 56.05ZM8.90 56.38L8.90 56.38Q8.58 56.38 8.39 56.59Q8.20 56.80 8.17 57.17L8.17 57.17L9.56 57.17Q9.55 56.94 9.48 56.76Q9.41 56.58 9.27 56.48Q9.13 56.38 8.90 56.38ZM11.84 56.05L11.84 56.05Q11.92 56.05 12.01 56.06Q12.09 56.07 12.16 56.09L12.16 56.09L12.11 56.45Q12.05 56.44 11.97 56.43Q11.89 56.42 11.82 56.42L11.82 56.42Q11.66 56.42 11.52 56.48Q11.38 56.54 11.27 56.66Q11.17 56.78 11.11 56.95Q11.05 57.11 11.05 57.32L11.05 57.32L11.05 58.73L10.65 58.73L10.65 56.10L10.98 56.10L11.02 56.59L11.04 56.59Q11.12 56.44 11.24 56.32Q11.35 56.20 11.50 56.13Q11.66 56.05 11.84 56.05ZM13.90 56.05L13.90 56.05Q14.36 56.05 14.60 56.28Q14.84 56.51 14.84 57.02L14.84 57.02L14.84 58.73L14.45 58.73L14.45 57.04Q14.45 56.71 14.30 56.55Q14.15 56.39 13.84 56.39L13.84 56.39Q13.41 56.39 13.23 56.64Q13.05 56.88 13.05 57.35L13.05 57.35L13.05 58.73L12.65 58.73L12.65 56.10L12.97 56.10L13.03 56.48L13.06 56.48Q13.14 56.34 13.27 56.25Q13.40 56.15 13.56 56.10Q13.72 56.05 13.90 56.05ZM16.67 56.05L16.67 56.05Q17.01 56.05 17.25 56.20Q17.49 56.35 17.61 56.62Q17.74 56.89 17.74 57.24L17.74 57.24L17.74 57.49L15.93 57.49Q15.94 57.95 16.16 58.19Q16.38 58.43 16.79 58.43L16.79 58.43Q17.03 58.43 17.23 58.39Q17.42 58.34 17.62 58.26L17.62 58.26L17.62 58.60Q17.43 58.69 17.23 58.73Q17.03 58.77 16.77 58.77L16.77 58.77Q16.39 58.77 16.11 58.62Q15.83 58.47 15.67 58.17Q15.52 57.87 15.52 57.43L15.52 57.43Q15.52 57.01 15.66 56.70Q15.80 56.39 16.06 56.22Q16.32 56.05 16.67 56.05ZM16.67 56.38L16.67 56.38Q16.35 56.38 16.16 56.59Q15.97 56.80 15.94 57.17L15.94 57.17L17.32 57.17Q17.32 56.94 17.25 56.76Q17.18 56.58 17.04 56.48Q16.89 56.38 16.67 56.38ZM19.66 56.05L19.66 56.05Q20.13 56.05 20.37 56.28Q20.61 56.51 20.61 57.02L20.61 57.02L20.61 58.73L20.21 58.73L20.21 57.04Q20.21 56.71 20.06 56.55Q19.91 56.39 19.60 56.39L19.60 56.39Q19.17 56.39 18.99 56.64Q18.81 56.88 18.81 57.35L18.81 57.35L18.81 58.73L18.42 58.73L18.42 56.10L18.74 56.10L18.80 56.48L18.82 56.48Q18.90 56.34 19.03 56.25Q19.16 56.15 19.32 56.10Q19.48 56.05 19.66 56.05Z" />
<path transform="rotate(-90, 14, 28)" fill="#ea0303" opacity="1" d="M9.64 27.93L9.64 27.93Q9.64 28.63 9.39 29.10Q9.13 29.57 8.65 29.81Q8.16 30.05 7.47 30.05L7.47 30.05L6.35 30.05L6.35 25.90L7.60 25.90Q8.23 25.90 8.69 26.13Q9.14 26.36 9.39 26.81Q9.64 27.26 9.64 27.93ZM9.13 27.95L9.13 27.95Q9.13 27.39 8.95 27.03Q8.76 26.66 8.40 26.49Q8.04 26.31 7.52 26.31L7.52 26.31L6.83 26.31L6.83 29.63L7.42 29.63Q8.27 29.63 8.70 29.21Q9.13 28.79 9.13 27.95ZM11.66 26.88L11.66 26.88Q12.21 26.88 12.48 27.13Q12.75 27.38 12.75 27.93L12.75 27.93L12.75 30.05L12.41 30.05L12.32 29.59L12.30 29.59Q12.16 29.76 12.02 29.87Q11.88 29.99 11.69 30.05Q11.51 30.10 11.24 30.10L11.24 30.10Q10.96 30.10 10.74 30.00Q10.52 29.90 10.39 29.70Q10.26 29.50 10.26 29.19L10.26 29.19Q10.26 28.73 10.63 28.48Q11.00 28.23 11.76 28.20L11.76 28.20L12.29 28.18L12.29 27.99Q12.29 27.59 12.12 27.43Q11.95 27.26 11.63 27.26L11.63 27.26Q11.39 27.26 11.17 27.34Q10.94 27.41 10.75 27.50L10.75 27.50L10.60 27.15Q10.81 27.04 11.08 26.96Q11.36 26.88 11.66 26.88ZM12.29 28.80L12.29 28.51L11.81 28.53Q11.23 28.56 10.99 28.72Q10.75 28.89 10.75 29.20L10.75 29.20Q10.75 29.46 10.92 29.59Q11.08 29.72 11.34 29.72L11.34 29.72Q11.76 29.72 12.02 29.49Q12.29 29.26 12.29 28.80L12.29 28.80ZM14.73 29.72L14.73 29.72Q14.84 29.72 14.97 29.70Q15.09 29.68 15.17 29.65L15.17 29.65L15.17 30.02Q15.08 30.05 14.94 30.08Q14.79 30.10 14.65 30.10L14.65 30.10Q14.40 30.10 14.20 30.02Q14.00 29.93 13.88 29.72Q13.76 29.52 13.76 29.15L13.76 29.15L13.76 27.30L13.32 27.30L13.32 27.07L13.76 26.89L13.95 26.21L14.23 26.21L14.23 26.94L15.15 26.94L15.15 27.30L14.23 27.30L14.23 29.14Q14.23 29.43 14.37 29.57Q14.50 29.72 14.73 29.72ZM16.99 26.88L16.99 26.88Q17.39 26.88 17.67 27.05Q17.96 27.23 18.11 27.55Q18.26 27.86 18.26 28.29L18.26 28.29L18.26 28.58L16.11 28.58Q16.12 29.13 16.38 29.41Q16.65 29.70 17.13 29.70L17.13 29.70Q17.42 29.70 17.65 29.65Q17.88 29.59 18.12 29.49L18.12 29.49L18.12 29.90Q17.88 30.01 17.65 30.06Q17.42 30.10 17.11 30.10L17.11 30.10Q16.66 30.10 16.32 29.92Q15.99 29.74 15.81 29.38Q15.62 29.03 15.62 28.51L15.62 28.51Q15.62 28.01 15.79 27.64Q15.96 27.28 16.27 27.08Q16.58 26.88 16.99 26.88ZM16.99 27.26L16.99 27.26Q16.61 27.26 16.39 27.51Q16.16 27.76 16.12 28.20L16.12 28.20L17.77 28.20Q17.76 27.92 17.68 27.71Q17.60 27.50 17.42 27.38Q17.25 27.26 16.99 27.26ZM20.53 26.88L20.53 26.88Q21.09 26.88 21.37 27.15Q21.65 27.42 21.65 28.02L21.65 28.02L21.65 30.05L21.19 30.05L21.19 28.05Q21.19 27.66 21.01 27.47Q20.83 27.28 20.47 27.28L20.47 27.28Q19.95 27.28 19.74 27.57Q19.53 27.86 19.53 28.42L19.53 28.42L19.53 30.05L19.06 30.05L19.06 26.94L19.44 26.94L19.51 27.38L19.54 27.38Q19.64 27.22 19.79 27.11Q19.94 27.00 20.13 26.94Q20.32 26.88 20.53 26.88Z" />
<path transform="rotate(0, 16, 4)" fill="#4ac6d2" opacity="1" d="M10.21 5.45L10.21 5.45Q9.90 5.45 9.74 5.34Q9.57 5.22 9.57 5.02L9.57 5.02Q9.57 4.87 9.66 4.77Q9.76 4.67 9.92 4.63L9.92 4.63Q9.86 4.60 9.82 4.55Q9.77 4.49 9.77 4.42L9.77 4.42Q9.77 4.33 9.82 4.27Q9.87 4.20 9.97 4.14L9.97 4.14Q9.85 4.09 9.77 3.97Q9.69 3.86 9.69 3.70L9.69 3.70Q9.69 3.53 9.76 3.41Q9.83 3.29 9.96 3.23Q10.10 3.17 10.28 3.17L10.28 3.17Q10.32 3.17 10.37 3.17Q10.41 3.18 10.45 3.18Q10.49 3.19 10.51 3.20L10.51 3.20L11.05 3.20L11.05 3.35L10.76 3.38Q10.80 3.44 10.83 3.52Q10.86 3.60 10.86 3.69L10.86 3.69Q10.86 3.92 10.70 4.06Q10.54 4.20 10.27 4.20L10.27 4.20Q10.20 4.20 10.14 4.19L10.14 4.19Q10.07 4.22 10.03 4.27Q9.99 4.32 9.99 4.38L9.99 4.38Q9.99 4.42 10.02 4.45Q10.05 4.48 10.10 4.49Q10.15 4.50 10.23 4.50L10.23 4.50L10.50 4.50Q10.76 4.50 10.89 4.61Q11.03 4.72 11.03 4.92L11.03 4.92Q11.03 5.18 10.82 5.32Q10.61 5.45 10.21 5.45ZM10.22 5.27L10.22 5.27Q10.41 5.27 10.54 5.23Q10.66 5.19 10.73 5.12Q10.79 5.04 10.79 4.94L10.79 4.94Q10.79 4.85 10.75 4.80Q10.71 4.76 10.62 4.74Q10.54 4.72 10.42 4.72L10.42 4.72L10.15 4.72Q10.05 4.72 9.97 4.76Q9.89 4.79 9.85 4.85Q9.81 4.92 9.81 5.01L9.81 5.01Q9.81 5.14 9.91 5.20Q10.02 5.27 10.22 5.27ZM10.28 4.03L10.28 4.03Q10.45 4.03 10.53 3.94Q10.62 3.86 10.62 3.69L10.62 3.69Q10.62 3.52 10.53 3.43Q10.44 3.34 10.28 3.34L10.28 3.34Q10.11 3.34 10.03 3.43Q9.94 3.52 9.94 3.70L9.94 3.70Q9.94 3.86 10.03 3.94Q10.11 4.03 10.28 4.03ZM11.95 3.17L11.95 3.17Q12.15 3.17 12.29 3.26Q12.44 3.35 12.51 3.51Q12.59 3.66 12.59 3.88L12.59 3.88L12.59 4.02L11.51 4.02Q11.52 4.30 11.65 4.44Q11.78 4.58 12.02 4.58L12.02 4.58Q12.17 4.58 12.28 4.55Q12.39 4.53 12.52 4.48L12.52 4.48L12.52 4.68Q12.40 4.74 12.28 4.76Q12.17 4.78 12.01 4.78L12.01 4.78Q11.79 4.78 11.62 4.69Q11.45 4.60 11.36 4.42Q11.27 4.25 11.27 3.99L11.27 3.99Q11.27 3.74 11.35 3.55Q11.44 3.37 11.59 3.27Q11.74 3.17 11.95 3.17ZM11.95 3.36L11.95 3.36Q11.76 3.36 11.65 3.49Q11.54 3.61 11.52 3.83L11.52 3.83L12.34 3.83Q12.34 3.69 12.30 3.59Q12.25 3.48 12.17 3.42Q12.08 3.36 11.95 3.36ZM13.22 2.55L13.22 4.76L12.99 4.76L12.99 2.55L13.22 2.55ZM14.32 3.17L14.32 3.17Q14.52 3.17 14.66 3.26Q14.80 3.35 14.88 3.51Q14.95 3.66 14.95 3.88L14.95 3.88L14.95 4.02L13.88 4.02Q13.88 4.30 14.01 4.44Q14.15 4.58 14.39 4.58L14.39 4.58Q14.53 4.58 14.65 4.55Q14.76 4.53 14.88 4.48L14.88 4.48L14.88 4.68Q14.76 4.74 14.65 4.76Q14.53 4.78 14.38 4.78L14.38 4.78Q14.15 4.78 13.98 4.69Q13.82 4.60 13.73 4.42Q13.63 4.25 13.63 3.99L13.63 3.99Q13.63 3.74 13.72 3.55Q13.80 3.37 13.96 3.27Q14.11 3.17 14.32 3.17ZM14.32 3.36L14.32 3.36Q14.13 3.36 14.02 3.49Q13.90 3.61 13.88 3.83L13.88 3.83L14.70 3.83Q14.70 3.69 14.66 3.59Q14.62 3.48 14.53 3.42Q14.45 3.36 14.32 3.36ZM15.35 3.20L15.59 3.20L15.59 4.76L15.35 4.76L15.35 3.20ZM15.47 2.62L15.47 2.62Q15.53 2.62 15.57 2.66Q15.61 2.69 15.61 2.77L15.61 2.77Q15.61 2.85 15.57 2.89Q15.53 2.93 15.47 2.93L15.47 2.93Q15.41 2.93 15.37 2.89Q15.33 2.85 15.33 2.77L15.33 2.77Q15.33 2.69 15.37 2.66Q15.41 2.62 15.47 2.62ZM16.59 4.59L16.59 4.59Q16.65 4.59 16.71 4.58Q16.77 4.57 16.81 4.56L16.81 4.56L16.81 4.74Q16.77 4.76 16.69 4.77Q16.62 4.78 16.55 4.78L16.55 4.78Q16.43 4.78 16.33 4.74Q16.22 4.70 16.16 4.59Q16.10 4.49 16.10 4.31L16.10 4.31L16.10 3.38L15.88 3.38L15.88 3.27L16.11 3.18L16.20 2.84L16.34 2.84L16.34 3.20L16.80 3.20L16.80 3.38L16.34 3.38L16.34 4.30Q16.34 4.45 16.41 4.52Q16.48 4.59 16.59 4.59ZM17.72 3.17L17.72 3.17Q17.92 3.17 18.06 3.26Q18.20 3.35 18.28 3.51Q18.35 3.66 18.35 3.88L18.35 3.88L18.35 4.02L17.28 4.02Q17.28 4.30 17.42 4.44Q17.55 4.58 17.79 4.58L17.79 4.58Q17.94 4.58 18.05 4.55Q18.16 4.53 18.28 4.48L18.28 4.48L18.28 4.68Q18.17 4.74 18.05 4.76Q17.94 4.78 17.78 4.78L17.78 4.78Q17.55 4.78 17.39 4.69Q17.22 4.60 17.13 4.42Q17.04 4.25 17.04 3.99L17.04 3.99Q17.04 3.74 17.12 3.55Q17.20 3.37 17.36 3.27Q17.51 3.17 17.72 3.17ZM17.72 3.36L17.72 3.36Q17.53 3.36 17.42 3.49Q17.31 3.61 17.28 3.83L17.28 3.83L18.11 3.83Q18.11 3.69 18.06 3.59Q18.02 3.48 17.94 3.42Q17.85 3.36 17.72 3.36ZM19.26 4.59L19.26 4.59Q19.31 4.59 19.38 4.58Q19.44 4.57 19.48 4.56L19.48 4.56L19.48 4.74Q19.43 4.76 19.36 4.77Q19.29 4.78 19.22 4.78L19.22 4.78Q19.09 4.78 18.99 4.74Q18.89 4.70 18.83 4.59Q18.77 4.49 18.77 4.31L18.77 4.31L18.77 3.38L18.55 3.38L18.55 3.27L18.77 3.18L18.87 2.84L19.01 2.84L19.01 3.20L19.47 3.20L19.47 3.38L19.01 3.38L19.01 4.30Q19.01 4.45 19.08 4.52Q19.14 4.59 19.26 4.59ZM20.39 3.17L20.39 3.17Q20.59 3.17 20.73 3.26Q20.87 3.35 20.95 3.51Q21.02 3.66 21.02 3.88L21.02 3.88L21.02 4.02L19.95 4.02Q19.95 4.30 20.08 4.44Q20.22 4.58 20.46 4.58L20.46 4.58Q20.60 4.58 20.72 4.55Q20.83 4.53 20.95 4.48L20.95 4.48L20.95 4.68Q20.83 4.74 20.72 4.76Q20.60 4.78 20.45 4.78L20.45 4.78Q20.22 4.78 20.06 4.69Q19.89 4.60 19.80 4.42Q19.70 4.25 19.70 3.99L19.70 3.99Q19.70 3.74 19.79 3.55Q19.87 3.37 20.03 3.27Q20.18 3.17 20.39 3.17ZM20.39 3.36L20.39 3.36Q20.20 3.36 20.09 3.49Q19.97 3.61 19.95 3.83L19.95 3.83L20.78 3.83Q20.77 3.69 20.73 3.59Q20.69 3.48 20.61 3.42Q20.52 3.36 20.39 3.36ZM22.43 4.33L22.43 4.33Q22.43 4.48 22.35 4.58Q22.28 4.68 22.14 4.73Q22.00 4.78 21.81 4.78L21.81 4.78Q21.65 4.78 21.53 4.76Q21.41 4.73 21.32 4.69L21.32 4.69L21.32 4.47Q21.42 4.52 21.55 4.55Q21.68 4.59 21.82 4.59L21.82 4.59Q22.02 4.59 22.11 4.53Q22.20 4.46 22.20 4.35L22.20 4.35Q22.20 4.29 22.16 4.24Q22.13 4.19 22.04 4.14Q21.96 4.10 21.81 4.04L21.81 4.04Q21.66 3.98 21.55 3.93Q21.44 3.87 21.38 3.79Q21.32 3.71 21.32 3.58L21.32 3.58Q21.32 3.38 21.48 3.28Q21.64 3.17 21.90 3.17L21.90 3.17Q22.04 3.17 22.17 3.20Q22.29 3.23 22.39 3.27L22.39 3.27L22.32 3.46Q22.22 3.42 22.11 3.39Q22.00 3.36 21.89 3.36L21.89 3.36Q21.72 3.36 21.64 3.42Q21.55 3.47 21.55 3.57L21.55 3.57Q21.55 3.64 21.59 3.68Q21.63 3.73 21.72 3.77Q21.81 3.81 21.95 3.87L21.95 3.87Q22.10 3.92 22.21 3.98Q22.31 4.04 22.37 4.12Q22.43 4.20 22.43 4.33Z" />
<path transform="rotate(0, 53, 59)" fill="#a13838" opacity="1" d="M49.83 59.97L48.72 59.97L48.72 58.00L48.95 58.00L48.95 59.77L49.83 59.77L49.83 59.97ZM50.70 58.47L50.70 58.47Q50.89 58.47 51.02 58.55Q51.15 58.63 51.23 58.79Q51.30 58.94 51.30 59.14L51.30 59.14L51.30 59.27L50.28 59.27Q50.28 59.53 50.41 59.67Q50.53 59.81 50.76 59.81L50.76 59.81Q50.90 59.81 51.01 59.78Q51.12 59.76 51.23 59.71L51.23 59.71L51.23 59.90Q51.12 59.95 51.01 59.98Q50.90 60.00 50.75 60.00L50.75 60.00Q50.54 60.00 50.38 59.91Q50.22 59.82 50.13 59.66Q50.05 59.49 50.05 59.24L50.05 59.24Q50.05 59.01 50.13 58.83Q50.21 58.66 50.35 58.56Q50.50 58.47 50.70 58.47ZM50.69 58.65L50.69 58.65Q50.51 58.65 50.41 58.77Q50.30 58.89 50.28 59.10L50.28 59.10L51.06 59.10Q51.06 58.96 51.02 58.86Q50.98 58.76 50.90 58.71Q50.82 58.65 50.69 58.65ZM52.35 58.47L52.35 58.47Q52.39 58.47 52.44 58.47Q52.49 58.48 52.53 58.49L52.53 58.49L52.50 58.69Q52.46 58.68 52.42 58.68Q52.37 58.67 52.34 58.67L52.34 58.67Q52.25 58.67 52.17 58.71Q52.09 58.74 52.03 58.81Q51.97 58.88 51.94 58.97Q51.90 59.06 51.90 59.18L51.90 59.18L51.90 59.97L51.68 59.97L51.68 58.49L51.86 58.49L51.89 58.77L51.90 58.77Q51.94 58.68 52.01 58.62Q52.07 58.55 52.16 58.51Q52.24 58.47 52.35 58.47ZM53.50 58.47L53.50 58.47Q53.77 58.47 53.90 58.60Q54.04 58.73 54.04 59.01L54.04 59.01L54.04 59.97L53.82 59.97L53.82 59.02Q53.82 58.84 53.73 58.75Q53.65 58.66 53.47 58.66L53.47 58.66Q53.23 58.66 53.13 58.80Q53.03 58.93 53.03 59.20L53.03 59.20L53.03 59.97L52.81 59.97L52.81 58.49L52.99 58.49L53.02 58.71L53.03 58.71Q53.08 58.63 53.15 58.58Q53.22 58.52 53.31 58.50Q53.40 58.47 53.50 58.47ZM55.07 58.47L55.07 58.47Q55.25 58.47 55.39 58.55Q55.52 58.63 55.60 58.79Q55.67 58.94 55.67 59.14L55.67 59.14L55.67 59.27L54.65 59.27Q54.65 59.53 54.78 59.67Q54.90 59.81 55.13 59.81L55.13 59.81Q55.27 59.81 55.38 59.78Q55.49 59.76 55.60 59.71L55.60 59.71L55.60 59.90Q55.49 59.95 55.38 59.98Q55.27 60.00 55.12 60.00L55.12 60.00Q54.91 60.00 54.75 59.91Q54.59 59.82 54.50 59.66Q54.42 59.49 54.42 59.24L54.42 59.24Q54.42 59.01 54.50 58.83Q54.58 58.66 54.72 58.56Q54.87 58.47 55.07 58.47ZM55.06 58.65L55.06 58.65Q54.88 58.65 54.78 58.77Q54.67 58.89 54.65 59.10L54.65 59.10L55.43 59.10Q55.43 58.96 55.39 58.86Q55.35 58.76 55.27 58.71Q55.19 58.65 55.06 58.65ZM56.75 58.47L56.75 58.47Q57.01 58.47 57.14 58.60Q57.28 58.73 57.28 59.01L57.28 59.01L57.28 59.97L57.06 59.97L57.06 59.02Q57.06 58.84 56.97 58.75Q56.89 58.66 56.72 58.66L56.72 58.66Q56.47 58.66 56.37 58.80Q56.27 58.93 56.27 59.20L56.27 59.20L56.27 59.97L56.05 59.97L56.05 58.49L56.23 58.49L56.26 58.71L56.27 58.71Q56.32 58.63 56.39 58.58Q56.47 58.52 56.56 58.50Q56.65 58.47 56.75 58.47Z" />
<path transform="rotate(-90, 31, 21)" fill="#ea0303" opacity="1" d="M28.55 20.96L28.55 20.96Q28.55 21.36 28.40 21.62Q28.26 21.88 27.99 22.02Q27.72 22.15 27.33 22.15L27.33 22.15L26.69 22.15L26.69 19.82L27.40 19.82Q27.75 19.82 28.01 19.95Q28.27 20.08 28.41 20.33Q28.55 20.59 28.55 20.96ZM28.26 20.97L28.26 20.97Q28.26 20.66 28.16 20.45Q28.05 20.25 27.85 20.15Q27.65 20.05 27.36 20.05L27.36 20.05L26.97 20.05L26.97 21.92L27.30 21.92Q27.78 21.92 28.02 21.68Q28.26 21.44 28.26 20.97ZM29.68 20.37L29.68 20.37Q29.99 20.37 30.15 20.51Q30.30 20.65 30.30 20.96L30.30 20.96L30.30 22.15L30.11 22.15L30.05 21.89L30.04 21.89Q29.97 21.99 29.89 22.05Q29.81 22.12 29.70 22.15Q29.60 22.18 29.45 22.18L29.45 22.18Q29.29 22.18 29.16 22.13Q29.04 22.07 28.97 21.96Q28.90 21.84 28.90 21.67L28.90 21.67Q28.90 21.41 29.11 21.27Q29.31 21.13 29.74 21.11L29.74 21.11L30.04 21.10L30.04 21.00Q30.04 20.77 29.94 20.68Q29.84 20.59 29.67 20.59L29.67 20.59Q29.53 20.59 29.41 20.63Q29.28 20.67 29.17 20.72L29.17 20.72L29.09 20.52Q29.21 20.46 29.36 20.42Q29.51 20.37 29.68 20.37ZM30.04 21.45L30.04 21.29L29.77 21.30Q29.44 21.31 29.31 21.41Q29.17 21.50 29.17 21.67L29.17 21.67Q29.17 21.82 29.27 21.90Q29.36 21.97 29.51 21.97L29.51 21.97Q29.74 21.97 29.89 21.84Q30.04 21.71 30.04 21.45L30.04 21.45ZM31.41 21.97L31.41 21.97Q31.48 21.97 31.54 21.95Q31.61 21.94 31.66 21.93L31.66 21.93L31.66 22.13Q31.61 22.15 31.53 22.17Q31.44 22.18 31.37 22.18L31.37 22.18Q31.23 22.18 31.11 22.13Q31.00 22.09 30.93 21.97Q30.87 21.85 30.87 21.65L30.87 21.65L30.87 20.61L30.62 20.61L30.62 20.48L30.87 20.38L30.97 20.00L31.13 20.00L31.13 20.40L31.64 20.40L31.64 20.61L31.13 20.61L31.13 21.64Q31.13 21.80 31.21 21.88Q31.28 21.97 31.41 21.97ZM32.68 20.37L32.68 20.37Q32.91 20.37 33.07 20.47Q33.23 20.57 33.31 20.75Q33.40 20.92 33.40 21.16L33.40 21.16L33.40 21.33L32.19 21.33Q32.19 21.63 32.34 21.80Q32.49 21.96 32.76 21.96L32.76 21.96Q32.92 21.96 33.05 21.93Q33.18 21.90 33.32 21.84L33.32 21.84L33.32 22.07Q33.19 22.13 33.06 22.16Q32.92 22.18 32.75 22.18L32.75 22.18Q32.50 22.18 32.31 22.08Q32.12 21.98 32.02 21.78Q31.91 21.58 31.91 21.29L31.91 21.29Q31.91 21.01 32.01 20.80Q32.10 20.59 32.28 20.48Q32.45 20.37 32.68 20.37ZM32.68 20.59L32.68 20.59Q32.47 20.59 32.34 20.73Q32.22 20.86 32.19 21.11L32.19 21.11L33.12 21.11Q33.12 20.96 33.07 20.84Q33.02 20.72 32.93 20.65Q32.83 20.59 32.68 20.59ZM34.67 20.37L34.67 20.37Q34.99 20.37 35.15 20.52Q35.31 20.67 35.31 21.01L35.31 21.01L35.31 22.15L35.04 22.15L35.04 21.03Q35.04 20.81 34.94 20.70Q34.84 20.59 34.64 20.59L34.64 20.59Q34.35 20.59 34.23 20.76Q34.11 20.92 34.11 21.23L34.11 21.23L34.11 22.15L33.85 22.15L33.85 20.40L34.06 20.40L34.10 20.65L34.11 20.65Q34.17 20.56 34.26 20.50Q34.34 20.43 34.45 20.40Q34.56 20.37 34.67 20.37Z" />
<path transform="rotate(-90, 62, 43)" fill="#4ac6d2" opacity="1" d="M57.66 44.09L57.66 44.09Q57.43 44.09 57.30 44.00Q57.18 43.92 57.18 43.76L57.18 43.76Q57.18 43.65 57.25 43.58Q57.32 43.50 57.44 43.47L57.44 43.47Q57.40 43.45 57.36 43.41Q57.33 43.37 57.33 43.31L57.33 43.31Q57.33 43.25 57.37 43.20Q57.40 43.15 57.48 43.11L57.48 43.11Q57.38 43.07 57.33 42.98Q57.27 42.89 57.27 42.77L57.27 42.77Q57.27 42.65 57.32 42.56Q57.37 42.47 57.47 42.42Q57.57 42.38 57.71 42.38L57.71 42.38Q57.74 42.38 57.77 42.38Q57.81 42.38 57.84 42.39Q57.86 42.39 57.89 42.40L57.89 42.40L58.29 42.40L58.29 42.51L58.07 42.54Q58.10 42.58 58.12 42.64Q58.14 42.70 58.14 42.77L58.14 42.77Q58.14 42.94 58.03 43.05Q57.91 43.15 57.70 43.15L57.70 43.15Q57.65 43.15 57.60 43.14L57.60 43.14Q57.55 43.17 57.52 43.20Q57.50 43.24 57.50 43.28L57.50 43.28Q57.50 43.32 57.52 43.34Q57.54 43.36 57.58 43.37Q57.62 43.38 57.67 43.38L57.67 43.38L57.88 43.38Q58.07 43.38 58.17 43.46Q58.27 43.54 58.27 43.69L58.27 43.69Q58.27 43.88 58.11 43.99Q57.96 44.09 57.66 44.09ZM57.66 43.95L57.66 43.95Q57.81 43.95 57.90 43.92Q58.00 43.89 58.05 43.84Q58.09 43.78 58.09 43.71L58.09 43.71Q58.09 43.64 58.06 43.60Q58.03 43.57 57.97 43.55Q57.91 43.54 57.82 43.54L57.82 43.54L57.61 43.54Q57.53 43.54 57.48 43.57Q57.42 43.59 57.39 43.64Q57.36 43.69 57.36 43.76L57.36 43.76Q57.36 43.85 57.43 43.90Q57.51 43.95 57.66 43.95ZM57.71 43.02L57.71 43.02Q57.84 43.02 57.90 42.96Q57.96 42.89 57.96 42.77L57.96 42.77Q57.96 42.64 57.90 42.57Q57.83 42.51 57.71 42.51L57.71 42.51Q57.58 42.51 57.52 42.57Q57.45 42.64 57.45 42.77L57.45 42.77Q57.45 42.89 57.52 42.96Q57.59 43.02 57.71 43.02ZM58.96 42.38L58.96 42.38Q59.11 42.38 59.22 42.44Q59.33 42.51 59.38 42.63Q59.44 42.75 59.44 42.91L59.44 42.91L59.44 43.02L58.63 43.02Q58.64 43.22 58.74 43.33Q58.83 43.44 59.01 43.44L59.01 43.44Q59.13 43.44 59.21 43.42Q59.30 43.40 59.39 43.36L59.39 43.36L59.39 43.51Q59.30 43.55 59.21 43.57Q59.13 43.59 59.01 43.59L59.01 43.59Q58.84 43.59 58.71 43.52Q58.59 43.45 58.52 43.32Q58.45 43.18 58.45 42.99L58.45 42.99Q58.45 42.80 58.51 42.67Q58.58 42.53 58.69 42.45Q58.81 42.38 58.96 42.38ZM58.96 42.52L58.96 42.52Q58.82 42.52 58.74 42.62Q58.65 42.71 58.64 42.87L58.64 42.87L59.25 42.87Q59.25 42.77 59.22 42.69Q59.19 42.61 59.13 42.57Q59.06 42.52 58.96 42.52ZM59.92 41.91L59.92 43.57L59.74 43.57L59.74 41.91L59.92 41.91ZM60.74 42.38L60.74 42.38Q60.89 42.38 60.99 42.44Q61.10 42.51 61.16 42.63Q61.21 42.75 61.21 42.91L61.21 42.91L61.21 43.02L60.41 43.02Q60.41 43.22 60.51 43.33Q60.61 43.44 60.79 43.44L60.79 43.44Q60.90 43.44 60.98 43.42Q61.07 43.40 61.16 43.36L61.16 43.36L61.16 43.51Q61.07 43.55 60.99 43.57Q60.90 43.59 60.78 43.59L60.78 43.59Q60.61 43.59 60.49 43.52Q60.36 43.45 60.29 43.32Q60.22 43.18 60.22 42.99L60.22 42.99Q60.22 42.80 60.29 42.67Q60.35 42.53 60.47 42.45Q60.58 42.38 60.74 42.38ZM60.74 42.52L60.74 42.52Q60.60 42.52 60.51 42.62Q60.43 42.71 60.41 42.87L60.41 42.87L61.03 42.87Q61.03 42.77 61.00 42.69Q60.96 42.61 60.90 42.57Q60.84 42.52 60.74 42.52ZM61.51 42.40L61.69 42.40L61.69 43.57L61.51 43.57L61.51 42.40ZM61.60 41.96L61.60 41.96Q61.65 41.96 61.68 41.99Q61.71 42.02 61.71 42.08L61.71 42.08Q61.71 42.14 61.68 42.17Q61.65 42.20 61.60 42.20L61.60 42.20Q61.56 42.20 61.53 42.17Q61.50 42.14 61.50 42.08L61.50 42.08Q61.50 42.02 61.53 41.99Q61.56 41.96 61.60 41.96ZM62.44 43.44L62.44 43.44Q62.48 43.44 62.53 43.44Q62.58 43.43 62.61 43.42L62.61 43.42L62.61 43.55Q62.57 43.57 62.52 43.58Q62.46 43.59 62.41 43.59L62.41 43.59Q62.32 43.59 62.24 43.56Q62.17 43.52 62.12 43.44Q62.08 43.37 62.08 43.23L62.08 43.23L62.08 42.54L61.91 42.54L61.91 42.45L62.08 42.38L62.15 42.13L62.26 42.13L62.26 42.40L62.60 42.40L62.60 42.54L62.26 42.54L62.26 43.22Q62.26 43.33 62.31 43.39Q62.36 43.44 62.44 43.44ZM63.29 42.38L63.29 42.38Q63.44 42.38 63.55 42.44Q63.65 42.51 63.71 42.63Q63.77 42.75 63.77 42.91L63.77 42.91L63.77 43.02L62.96 43.02Q62.96 43.22 63.06 43.33Q63.16 43.44 63.34 43.44L63.34 43.44Q63.45 43.44 63.54 43.42Q63.62 43.40 63.71 43.36L63.71 43.36L63.71 43.51Q63.62 43.55 63.54 43.57Q63.45 43.59 63.33 43.59L63.33 43.59Q63.17 43.59 63.04 43.52Q62.91 43.45 62.85 43.32Q62.78 43.18 62.78 42.99L62.78 42.99Q62.78 42.80 62.84 42.67Q62.90 42.53 63.02 42.45Q63.13 42.38 63.29 42.38ZM63.29 42.52L63.29 42.52Q63.15 42.52 63.06 42.62Q62.98 42.71 62.96 42.87L62.96 42.87L63.58 42.87Q63.58 42.77 63.55 42.69Q63.52 42.61 63.45 42.57Q63.39 42.52 63.29 42.52ZM64.44 43.44L64.44 43.44Q64.49 43.44 64.53 43.44Q64.58 43.43 64.61 43.42L64.61 43.42L64.61 43.55Q64.58 43.57 64.52 43.58Q64.47 43.59 64.41 43.59L64.41 43.59Q64.32 43.59 64.25 43.56Q64.17 43.52 64.12 43.44Q64.08 43.37 64.08 43.23L64.08 43.23L64.08 42.54L63.91 42.54L63.91 42.45L64.08 42.38L64.15 42.13L64.26 42.13L64.26 42.40L64.60 42.40L64.60 42.54L64.26 42.54L64.26 43.22Q64.26 43.33 64.31 43.39Q64.36 43.44 64.44 43.44ZM65.29 42.38L65.29 42.38Q65.44 42.38 65.55 42.44Q65.65 42.51 65.71 42.63Q65.77 42.75 65.77 42.91L65.77 42.91L65.77 43.02L64.96 43.02Q64.96 43.22 65.06 43.33Q65.16 43.44 65.34 43.44L65.34 43.44Q65.45 43.44 65.54 43.42Q65.62 43.40 65.71 43.36L65.71 43.36L65.71 43.51Q65.63 43.55 65.54 43.57Q65.45 43.59 65.33 43.59L65.33 43.59Q65.17 43.59 65.04 43.52Q64.92 43.45 64.85 43.32Q64.78 43.18 64.78 42.99L64.78 42.99Q64.78 42.80 64.84 42.67Q64.90 42.53 65.02 42.45Q65.14 42.38 65.29 42.38ZM65.29 42.52L65.29 42.52Q65.15 42.52 65.06 42.62Q64.98 42.71 64.96 42.87L64.96 42.87L65.58 42.87Q65.58 42.77 65.55 42.69Q65.52 42.61 65.45 42.57Q65.39 42.52 65.29 42.52ZM66.82 43.25L66.82 43.25Q66.82 43.36 66.77 43.43Q66.71 43.51 66.61 43.55Q66.50 43.59 66.36 43.59L66.36 43.59Q66.24 43.59 66.15 43.57Q66.06 43.55 65.99 43.51L65.99 43.51L65.99 43.35Q66.06 43.39 66.16 43.42Q66.26 43.44 66.36 43.44L66.36 43.44Q66.51 43.44 66.58 43.39Q66.65 43.35 66.65 43.26L66.65 43.26Q66.65 43.21 66.62 43.18Q66.60 43.14 66.53 43.11Q66.47 43.07 66.36 43.03L66.36 43.03Q66.24 42.99 66.16 42.95Q66.08 42.90 66.04 42.84Q65.99 42.78 65.99 42.68L65.99 42.68Q65.99 42.54 66.11 42.46Q66.23 42.38 66.43 42.38L66.43 42.38Q66.53 42.38 66.62 42.40Q66.72 42.42 66.80 42.45L66.80 42.45L66.74 42.60Q66.66 42.57 66.58 42.54Q66.50 42.52 66.42 42.52L66.42 42.52Q66.29 42.52 66.23 42.56Q66.16 42.60 66.16 42.67L66.16 42.67Q66.16 42.73 66.19 42.76Q66.22 42.80 66.29 42.83Q66.36 42.86 66.47 42.90L66.47 42.90Q66.58 42.94 66.66 42.99Q66.74 43.03 66.78 43.09Q66.82 43.15 66.82 43.25Z" />
<path transform="rotate(0, 31, 59)" fill="#a13838" opacity="1" d="M28.62 59.73L27.79 59.73L27.79 58.25L27.96 58.25L27.96 59.57L28.62 59.57L28.62 59.73ZM29.27 58.60L29.27 58.60Q29.41 58.60 29.52 58.66Q29.62 58.73 29.67 58.84Q29.72 58.95 29.72 59.10L29.72 59.10L29.72 59.21L28.96 59.21Q28.96 59.40 29.06 59.50Q29.15 59.61 29.32 59.61L29.32 59.61Q29.43 59.61 29.51 59.59Q29.59 59.57 29.67 59.53L29.67 59.53L29.67 59.68Q29.59 59.71 29.51 59.73Q29.43 59.75 29.31 59.75L29.31 59.75Q29.15 59.75 29.03 59.68Q28.92 59.62 28.85 59.49Q28.78 59.37 28.78 59.18L28.78 59.18Q28.78 59.00 28.84 58.87Q28.90 58.74 29.01 58.67Q29.12 58.60 29.27 58.60ZM29.27 58.74L29.27 58.74Q29.14 58.74 29.06 58.83Q28.98 58.91 28.96 59.07L28.96 59.07L29.55 59.07Q29.55 58.97 29.52 58.90Q29.49 58.82 29.43 58.78Q29.37 58.74 29.27 58.74ZM30.51 58.60L30.51 58.60Q30.54 58.60 30.58 58.60Q30.62 58.61 30.65 58.61L30.65 58.61L30.62 58.77Q30.60 58.76 30.56 58.76Q30.53 58.75 30.50 58.75L30.50 58.75Q30.43 58.75 30.38 58.78Q30.32 58.81 30.27 58.86Q30.23 58.91 30.20 58.98Q30.18 59.05 30.18 59.13L30.18 59.13L30.18 59.73L30.01 59.73L30.01 58.62L30.15 58.62L30.17 58.83L30.17 58.83Q30.21 58.76 30.26 58.71Q30.30 58.66 30.37 58.63Q30.43 58.60 30.51 58.60ZM31.38 58.60L31.38 58.60Q31.58 58.60 31.68 58.70Q31.78 58.79 31.78 59.01L31.78 59.01L31.78 59.73L31.61 59.73L31.61 59.02Q31.61 58.88 31.55 58.81Q31.49 58.74 31.36 58.74L31.36 58.74Q31.17 58.74 31.10 58.85Q31.02 58.95 31.02 59.15L31.02 59.15L31.02 59.73L30.85 59.73L30.85 58.62L30.99 58.62L31.01 58.78L31.02 58.78Q31.06 58.72 31.11 58.68Q31.17 58.64 31.24 58.62Q31.30 58.60 31.38 58.60ZM32.55 58.60L32.55 58.60Q32.69 58.60 32.79 58.66Q32.89 58.73 32.95 58.84Q33.00 58.95 33.00 59.10L33.00 59.10L33.00 59.21L32.24 59.21Q32.24 59.40 32.33 59.50Q32.43 59.61 32.60 59.61L32.60 59.61Q32.70 59.61 32.78 59.59Q32.86 59.57 32.95 59.53L32.95 59.53L32.95 59.68Q32.87 59.71 32.78 59.73Q32.70 59.75 32.59 59.75L32.59 59.75Q32.43 59.75 32.31 59.68Q32.19 59.62 32.13 59.49Q32.06 59.37 32.06 59.18L32.06 59.18Q32.06 59.00 32.12 58.87Q32.18 58.74 32.29 58.67Q32.40 58.60 32.55 58.60ZM32.55 58.74L32.55 58.74Q32.41 58.74 32.33 58.83Q32.25 58.91 32.24 59.07L32.24 59.07L32.82 59.07Q32.82 58.97 32.79 58.90Q32.76 58.82 32.70 58.78Q32.64 58.74 32.55 58.74ZM33.81 58.60L33.81 58.60Q34.01 58.60 34.11 58.70Q34.21 58.79 34.21 59.01L34.21 59.01L34.21 59.73L34.04 59.73L34.04 59.02Q34.04 58.88 33.98 58.81Q33.92 58.74 33.79 58.74L33.79 58.74Q33.60 58.74 33.53 58.85Q33.45 58.95 33.45 59.15L33.45 59.15L33.45 59.73L33.29 59.73L33.29 58.62L33.42 58.62L33.45 58.78L33.45 58.78Q33.49 58.72 33.54 58.68Q33.60 58.64 33.67 58.62Q33.73 58.60 33.81 58.60Z" />
<path transform="rotate(0, 69, 3)" fill="#ea0303" opacity="1" d="M67.16 2.97L67.16 2.97Q67.16 3.27 67.05 3.47Q66.95 3.66 66.74 3.76Q66.54 3.86 66.25 3.86L66.25 3.86L65.77 3.86L65.77 2.11L66.30 2.11Q66.57 2.11 66.76 2.21Q66.95 2.31 67.06 2.50Q67.16 2.69 67.16 2.97ZM66.95 2.98L66.95 2.98Q66.95 2.74 66.87 2.59Q66.79 2.44 66.64 2.36Q66.49 2.29 66.27 2.29L66.27 2.29L65.97 2.29L65.97 3.69L66.22 3.69Q66.58 3.69 66.77 3.51Q66.95 3.33 66.95 2.98ZM68.01 2.53L68.01 2.53Q68.25 2.53 68.36 2.63Q68.47 2.74 68.47 2.97L68.47 2.97L68.47 3.86L68.33 3.86L68.29 3.67L68.28 3.67Q68.23 3.74 68.17 3.79Q68.11 3.84 68.03 3.86Q67.95 3.89 67.84 3.89L67.84 3.89Q67.72 3.89 67.62 3.85Q67.53 3.80 67.48 3.72Q67.42 3.63 67.42 3.50L67.42 3.50Q67.42 3.31 67.58 3.20Q67.73 3.10 68.05 3.09L68.05 3.09L68.28 3.08L68.28 3.00Q68.28 2.83 68.21 2.76Q68.13 2.69 68.00 2.69L68.00 2.69Q67.90 2.69 67.80 2.72Q67.71 2.75 67.63 2.79L67.63 2.79L67.57 2.64Q67.65 2.59 67.77 2.56Q67.88 2.53 68.01 2.53ZM68.28 3.34L68.28 3.22L68.08 3.23Q67.83 3.23 67.73 3.31Q67.63 3.38 67.63 3.51L67.63 3.51Q67.63 3.62 67.70 3.67Q67.77 3.73 67.88 3.73L67.88 3.73Q68.05 3.73 68.17 3.63Q68.28 3.53 68.28 3.34L68.28 3.34ZM69.31 3.72L69.31 3.72Q69.36 3.72 69.41 3.72Q69.46 3.71 69.49 3.70L69.49 3.70L69.49 3.85Q69.46 3.87 69.40 3.88Q69.33 3.89 69.27 3.89L69.27 3.89Q69.17 3.89 69.09 3.85Q69.00 3.81 68.95 3.73Q68.90 3.64 68.90 3.49L68.90 3.49L68.90 2.71L68.71 2.71L68.71 2.61L68.90 2.53L68.98 2.25L69.10 2.25L69.10 2.55L69.48 2.55L69.48 2.71L69.10 2.71L69.10 3.48Q69.10 3.60 69.16 3.66Q69.21 3.72 69.31 3.72ZM70.26 2.53L70.26 2.53Q70.43 2.53 70.55 2.60Q70.67 2.68 70.73 2.81Q70.80 2.94 70.80 3.12L70.80 3.12L70.80 3.24L69.89 3.24Q69.89 3.48 70.01 3.60Q70.12 3.72 70.32 3.72L70.32 3.72Q70.44 3.72 70.54 3.69Q70.64 3.67 70.74 3.63L70.74 3.63L70.74 3.80Q70.64 3.85 70.54 3.87Q70.44 3.89 70.31 3.89L70.31 3.89Q70.12 3.89 69.98 3.81Q69.84 3.73 69.76 3.58Q69.68 3.43 69.68 3.22L69.68 3.22Q69.68 3.00 69.76 2.85Q69.83 2.69 69.96 2.61Q70.09 2.53 70.26 2.53ZM70.26 2.69L70.26 2.69Q70.10 2.69 70.01 2.79Q69.91 2.90 69.89 3.09L69.89 3.09L70.59 3.09Q70.59 2.97 70.55 2.88Q70.52 2.79 70.44 2.74Q70.37 2.69 70.26 2.69ZM71.76 2.53L71.76 2.53Q71.99 2.53 72.11 2.64Q72.23 2.76 72.23 3.01L72.23 3.01L72.23 3.86L72.03 3.86L72.03 3.02Q72.03 2.86 71.96 2.78Q71.88 2.69 71.73 2.69L71.73 2.69Q71.51 2.69 71.42 2.82Q71.33 2.94 71.33 3.18L71.33 3.18L71.33 3.86L71.13 3.86L71.13 2.55L71.30 2.55L71.33 2.74L71.34 2.74Q71.38 2.67 71.44 2.62Q71.51 2.58 71.59 2.55Q71.67 2.53 71.76 2.53Z" />
<path transform="rotate(-90, 88, 55)" fill="#9e15bf" opacity="1" d="M83.66 56.09L83.66 56.09Q83.43 56.09 83.30 56.00Q83.18 55.92 83.18 55.76L83.18 55.76Q83.18 55.65 83.25 55.58Q83.32 55.50 83.44 55.47L83.44 55.47Q83.40 55.45 83.36 55.41Q83.33 55.37 83.33 55.31L83.33 55.31Q83.33 55.25 83.37 55.20Q83.40 55.15 83.48 55.11L83.48 55.11Q83.38 55.07 83.33 54.98Q83.27 54.89 83.27 54.77L83.27 54.77Q83.27 54.65 83.32 54.56Q83.37 54.47 83.47 54.42Q83.57 54.38 83.71 54.38L83.71 54.38Q83.74 54.38 83.77 54.38Q83.81 54.38 83.84 54.39Q83.86 54.39 83.89 54.40L83.89 54.40L84.29 54.40L84.29 54.51L84.07 54.54Q84.10 54.58 84.12 54.64Q84.14 54.70 84.14 54.77L84.14 54.77Q84.14 54.94 84.03 55.05Q83.91 55.15 83.70 55.15L83.70 55.15Q83.65 55.15 83.60 55.14L83.60 55.14Q83.55 55.17 83.52 55.20Q83.50 55.24 83.50 55.28L83.50 55.28Q83.50 55.32 83.52 55.34Q83.54 55.36 83.58 55.37Q83.62 55.38 83.67 55.38L83.67 55.38L83.88 55.38Q84.07 55.38 84.17 55.46Q84.27 55.54 84.27 55.69L84.27 55.69Q84.27 55.88 84.11 55.99Q83.96 56.09 83.66 56.09ZM83.66 55.95L83.66 55.95Q83.81 55.95 83.90 55.92Q84.00 55.89 84.05 55.84Q84.09 55.78 84.09 55.71L84.09 55.71Q84.09 55.64 84.06 55.60Q84.03 55.57 83.97 55.55Q83.91 55.54 83.82 55.54L83.82 55.54L83.61 55.54Q83.53 55.54 83.48 55.57Q83.42 55.59 83.39 55.64Q83.36 55.69 83.36 55.76L83.36 55.76Q83.36 55.85 83.43 55.90Q83.51 55.95 83.66 55.95ZM83.71 55.02L83.71 55.02Q83.84 55.02 83.90 54.96Q83.96 54.89 83.96 54.77L83.96 54.77Q83.96 54.64 83.90 54.57Q83.83 54.51 83.71 54.51L83.71 54.51Q83.58 54.51 83.52 54.57Q83.45 54.64 83.45 54.77L83.45 54.77Q83.45 54.89 83.52 54.96Q83.59 55.02 83.71 55.02ZM84.96 54.38L84.96 54.38Q85.11 54.38 85.22 54.44Q85.33 54.51 85.38 54.63Q85.44 54.75 85.44 54.91L85.44 54.91L85.44 55.02L84.63 55.02Q84.64 55.22 84.74 55.33Q84.83 55.44 85.01 55.44L85.01 55.44Q85.13 55.44 85.21 55.42Q85.30 55.40 85.39 55.36L85.39 55.36L85.39 55.51Q85.30 55.55 85.21 55.57Q85.13 55.59 85.01 55.59L85.01 55.59Q84.84 55.59 84.71 55.52Q84.59 55.45 84.52 55.32Q84.45 55.18 84.45 54.99L84.45 54.99Q84.45 54.80 84.51 54.67Q84.58 54.53 84.69 54.45Q84.81 54.38 84.96 54.38ZM84.96 54.52L84.96 54.52Q84.82 54.52 84.74 54.62Q84.65 54.71 84.64 54.87L84.64 54.87L85.25 54.87Q85.25 54.77 85.22 54.69Q85.19 54.61 85.13 54.57Q85.06 54.52 84.96 54.52ZM85.92 53.91L85.92 55.57L85.74 55.57L85.74 53.91L85.92 53.91ZM86.74 54.38L86.74 54.38Q86.89 54.38 86.99 54.44Q87.10 54.51 87.16 54.63Q87.21 54.75 87.21 54.91L87.21 54.91L87.21 55.02L86.41 55.02Q86.41 55.22 86.51 55.33Q86.61 55.44 86.79 55.44L86.79 55.44Q86.90 55.44 86.98 55.42Q87.07 55.40 87.16 55.36L87.16 55.36L87.16 55.51Q87.07 55.55 86.99 55.57Q86.90 55.59 86.78 55.59L86.78 55.59Q86.61 55.59 86.49 55.52Q86.36 55.45 86.29 55.32Q86.22 55.18 86.22 54.99L86.22 54.99Q86.22 54.80 86.29 54.67Q86.35 54.53 86.47 54.45Q86.58 54.38 86.74 54.38ZM86.74 54.52L86.74 54.52Q86.60 54.52 86.51 54.62Q86.43 54.71 86.41 54.87L86.41 54.87L87.03 54.87Q87.03 54.77 87.00 54.69Q86.96 54.61 86.90 54.57Q86.84 54.52 86.74 54.52ZM87.51 54.40L87.69 54.40L87.69 55.57L87.51 55.57L87.51 54.40ZM87.60 53.96L87.60 53.96Q87.65 53.96 87.68 53.99Q87.71 54.02 87.71 54.08L87.71 54.08Q87.71 54.14 87.68 54.17Q87.65 54.20 87.60 54.20L87.60 54.20Q87.56 54.20 87.53 54.17Q87.50 54.14 87.50 54.08L87.50 54.08Q87.50 54.02 87.53 53.99Q87.56 53.96 87.60 53.96ZM88.44 55.44L88.44 55.44Q88.48 55.44 88.53 55.44Q88.58 55.43 88.61 55.42L88.61 55.42L88.61 55.55Q88.57 55.57 88.52 55.58Q88.46 55.59 88.41 55.59L88.41 55.59Q88.32 55.59 88.24 55.56Q88.17 55.52 88.12 55.44Q88.08 55.37 88.08 55.23L88.08 55.23L88.08 54.54L87.91 54.54L87.91 54.45L88.08 54.38L88.15 54.13L88.26 54.13L88.26 54.40L88.60 54.40L88.60 54.54L88.26 54.54L88.26 55.22Q88.26 55.33 88.31 55.39Q88.36 55.44 88.44 55.44ZM89.29 54.38L89.29 54.38Q89.44 54.38 89.55 54.44Q89.65 54.51 89.71 54.63Q89.77 54.75 89.77 54.91L89.77 54.91L89.77 55.02L88.96 55.02Q88.96 55.22 89.06 55.33Q89.16 55.44 89.34 55.44L89.34 55.44Q89.45 55.44 89.54 55.42Q89.62 55.40 89.71 55.36L89.71 55.36L89.71 55.51Q89.62 55.55 89.54 55.57Q89.45 55.59 89.33 55.59L89.33 55.59Q89.17 55.59 89.04 55.52Q88.91 55.45 88.85 55.32Q88.78 55.18 88.78 54.99L88.78 54.99Q88.78 54.80 88.84 54.67Q88.90 54.53 89.02 54.45Q89.13 54.38 89.29 54.38ZM89.29 54.52L89.29 54.52Q89.15 54.52 89.06 54.62Q88.98 54.71 88.96 54.87L88.96 54.87L89.58 54.87Q89.58 54.77 89.55 54.69Q89.52 54.61 89.45 54.57Q89.39 54.52 89.29 54.52ZM90.44 55.44L90.44 55.44Q90.49 55.44 90.53 55.44Q90.58 55.43 90.61 55.42L90.61 55.42L90.61 55.55Q90.58 55.57 90.52 55.58Q90.47 55.59 90.41 55.59L90.41 55.59Q90.32 55.59 90.25 55.56Q90.17 55.52 90.12 55.44Q90.08 55.37 90.08 55.23L90.08 55.23L90.08 54.54L89.91 54.54L89.91 54.45L90.08 54.38L90.15 54.13L90.26 54.13L90.26 54.40L90.60 54.40L90.60 54.54L90.26 54.54L90.26 55.22Q90.26 55.33 90.31 55.39Q90.36 55.44 90.44 55.44ZM91.29 54.38L91.29 54.38Q91.44 54.38 91.55 54.44Q91.65 54.51 91.71 54.63Q91.77 54.75 91.77 54.91L91.77 54.91L91.77 55.02L90.96 55.02Q90.96 55.22 91.06 55.33Q91.16 55.44 91.34 55.44L91.34 55.44Q91.45 55.44 91.54 55.42Q91.62 55.40 91.71 55.36L91.71 55.36L91.71 55.51Q91.63 55.55 91.54 55.57Q91.45 55.59 91.33 55.59L91.33 55.59Q91.17 55.59 91.04 55.52Q90.92 55.45 90.85 55.32Q90.78 55.18 90.78 54.99L90.78 54.99Q90.78 54.80 90.84 54.67Q90.90 54.53 91.02 54.45Q91.14 54.38 91.29 54.38ZM91.29 54.52L91.29 54.52Q91.15 54.52 91.06 54.62Q90.98 54.71 90.96 54.87L90.96 54.87L91.58 54.87Q91.58 54.77 91.55 54.69Q91.52 54.61 91.45 54.57Q91.39 54.52 91.29 54.52ZM92.82 55.25L92.82 55.25Q92.82 55.36 92.77 55.43Q92.71 55.51 92.61 55.55Q92.50 55.59 92.36 55.59L92.36 55.59Q92.24 55.59 92.15 55.57Q92.06 55.55 91.99 55.51L91.99 55.51L91.99 55.35Q92.06 55.39 92.16 55.42Q92.26 55.44 92.36 55.44L92.36 55.44Q92.51 55.44 92.58 55.39Q92.65 55.35 92.65 55.26L92.65 55.26Q92.65 55.21 92.62 55.18Q92.60 55.14 92.53 55.11Q92.47 55.07 92.36 55.03L92.36 55.03Q92.24 54.99 92.16 54.95Q92.08 54.90 92.04 54.84Q91.99 54.78 91.99 54.68L91.99 54.68Q91.99 54.54 92.11 54.46Q92.23 54.38 92.43 54.38L92.43 54.38Q92.53 54.38 92.62 54.40Q92.72 54.42 92.80 54.45L92.80 54.45L92.74 54.60Q92.66 54.57 92.58 54.54Q92.50 54.52 92.42 54.52L92.42 54.52Q92.29 54.52 92.23 54.56Q92.16 54.60 92.16 54.67L92.16 54.67Q92.16 54.73 92.19 54.76Q92.22 54.80 92.29 54.83Q92.36 54.86 92.47 54.90L92.47 54.90Q92.58 54.94 92.66 54.99Q92.74 55.03 92.78 55.09Q92.82 55.15 92.82 55.25Z" />
<path transform="rotate(-90, 32, 36)" fill="#a13838" opacity="1" d="M29.62 36.73L28.79 36.73L28.79 35.25L28.96 35.25L28.96 36.57L29.62 36.57L29.62 36.73ZM30.27 35.60L30.27 35.60Q30.41 35.60 30.52 35.66Q30.62 35.73 30.67 35.84Q30.72 35.95 30.72 36.10L30.72 36.10L30.72 36.21L29.96 36.21Q29.96 36.40 30.06 36.50Q30.15 36.61 30.32 36.61L30.32 36.61Q30.43 36.61 30.51 36.59Q30.59 36.57 30.67 36.53L30.67 36.53L30.67 36.68Q30.59 36.71 30.51 36.73Q30.43 36.75 30.31 36.75L30.31 36.75Q30.15 36.75 30.03 36.68Q29.92 36.62 29.85 36.49Q29.78 36.37 29.78 36.18L29.78 36.18Q29.78 36.00 29.84 35.87Q29.90 35.74 30.01 35.67Q30.12 35.60 30.27 35.60ZM30.27 35.74L30.27 35.74Q30.14 35.74 30.06 35.83Q29.98 35.91 29.96 36.07L29.96 36.07L30.55 36.07Q30.55 35.97 30.52 35.90Q30.49 35.82 30.43 35.78Q30.37 35.74 30.27 35.74ZM31.51 35.60L31.51 35.60Q31.54 35.60 31.58 35.60Q31.62 35.61 31.65 35.61L31.65 35.61L31.62 35.77Q31.60 35.76 31.56 35.76Q31.53 35.75 31.50 35.75L31.50 35.75Q31.43 35.75 31.38 35.78Q31.32 35.81 31.27 35.86Q31.23 35.91 31.20 35.98Q31.18 36.05 31.18 36.13L31.18 36.13L31.18 36.73L31.01 36.73L31.01 35.62L31.15 35.62L31.17 35.83L31.17 35.83Q31.21 35.76 31.26 35.71Q31.30 35.66 31.37 35.63Q31.43 35.60 31.51 35.60ZM32.38 35.60L32.38 35.60Q32.58 35.60 32.68 35.70Q32.78 35.79 32.78 36.01L32.78 36.01L32.78 36.73L32.61 36.73L32.61 36.02Q32.61 35.88 32.55 35.81Q32.49 35.74 32.36 35.74L32.36 35.74Q32.17 35.74 32.10 35.85Q32.02 35.95 32.02 36.15L32.02 36.15L32.02 36.73L31.85 36.73L31.85 35.62L31.99 35.62L32.01 35.78L32.02 35.78Q32.06 35.72 32.11 35.68Q32.17 35.64 32.24 35.62Q32.30 35.60 32.38 35.60ZM33.55 35.60L33.55 35.60Q33.69 35.60 33.79 35.66Q33.89 35.73 33.95 35.84Q34.00 35.95 34.00 36.10L34.00 36.10L34.00 36.21L33.24 36.21Q33.24 36.40 33.33 36.50Q33.43 36.61 33.60 36.61L33.60 36.61Q33.70 36.61 33.78 36.59Q33.86 36.57 33.95 36.53L33.95 36.53L33.95 36.68Q33.87 36.71 33.78 36.73Q33.70 36.75 33.59 36.75L33.59 36.75Q33.43 36.75 33.31 36.68Q33.19 36.62 33.13 36.49Q33.06 36.37 33.06 36.18L33.06 36.18Q33.06 36.00 33.12 35.87Q33.18 35.74 33.29 35.67Q33.40 35.60 33.55 35.60ZM33.55 35.74L33.55 35.74Q33.41 35.74 33.33 35.83Q33.25 35.91 33.24 36.07L33.24 36.07L33.82 36.07Q33.82 35.97 33.79 35.90Q33.76 35.82 33.70 35.78Q33.64 35.74 33.55 35.74ZM34.81 35.60L34.81 35.60Q35.01 35.60 35.11 35.70Q35.21 35.79 35.21 36.01L35.21 36.01L35.21 36.73L35.04 36.73L35.04 36.02Q35.04 35.88 34.98 35.81Q34.92 35.74 34.79 35.74L34.79 35.74Q34.60 35.74 34.53 35.85Q34.45 35.95 34.45 36.15L34.45 36.15L34.45 36.73L34.29 36.73L34.29 35.62L34.42 35.62L34.45 35.78L34.45 35.78Q34.49 35.72 34.54 35.68Q34.60 35.64 34.67 35.62Q34.73 35.60 34.81 35.60Z" />
<path transform="rotate(-90, 3, 6)" fill="#ea0303" opacity="1" d="M1.16 5.97L1.16 5.97Q1.16 6.27 1.05 6.47Q0.95 6.66 0.74 6.76Q0.54 6.86 0.25 6.86L0.25 6.86L-0.23 6.86L-0.23 5.11L0.30 5.11Q0.57 5.11 0.76 5.21Q0.95 5.31 1.06 5.50Q1.16 5.69 1.16 5.97ZM0.95 5.98L0.95 5.98Q0.95 5.74 0.87 5.59Q0.79 5.44 0.64 5.36Q0.49 5.29 0.27 5.29L0.27 5.29L-0.03 5.29L-0.03 6.69L0.22 6.69Q0.58 6.69 0.77 6.51Q0.95 6.33 0.95 5.98ZM2.01 5.53L2.01 5.53Q2.25 5.53 2.36 5.63Q2.47 5.74 2.47 5.97L2.47 5.97L2.47 6.86L2.33 6.86L2.29 6.67L2.28 6.67Q2.23 6.74 2.17 6.79Q2.11 6.84 2.03 6.86Q1.95 6.89 1.84 6.89L1.84 6.89Q1.72 6.89 1.62 6.85Q1.53 6.80 1.48 6.72Q1.42 6.63 1.42 6.50L1.42 6.50Q1.42 6.31 1.58 6.20Q1.73 6.10 2.05 6.09L2.05 6.09L2.28 6.08L2.28 6.00Q2.28 5.83 2.21 5.76Q2.13 5.69 2.00 5.69L2.00 5.69Q1.90 5.69 1.80 5.72Q1.71 5.75 1.63 5.79L1.63 5.79L1.57 5.64Q1.65 5.59 1.77 5.56Q1.88 5.53 2.01 5.53ZM2.28 6.34L2.28 6.22L2.08 6.23Q1.83 6.23 1.73 6.31Q1.63 6.38 1.63 6.51L1.63 6.51Q1.63 6.62 1.70 6.67Q1.77 6.73 1.88 6.73L1.88 6.73Q2.05 6.73 2.17 6.63Q2.28 6.53 2.28 6.34L2.28 6.34ZM3.31 6.72L3.31 6.72Q3.36 6.72 3.41 6.72Q3.46 6.71 3.49 6.70L3.49 6.70L3.49 6.85Q3.46 6.87 3.40 6.88Q3.33 6.89 3.27 6.89L3.27 6.89Q3.17 6.89 3.09 6.85Q3.00 6.81 2.95 6.73Q2.90 6.64 2.90 6.49L2.90 6.49L2.90 5.71L2.71 5.71L2.71 5.61L2.90 5.53L2.98 5.25L3.10 5.25L3.10 5.55L3.48 5.55L3.48 5.71L3.10 5.71L3.10 6.48Q3.10 6.60 3.16 6.66Q3.21 6.72 3.31 6.72ZM4.26 5.53L4.26 5.53Q4.43 5.53 4.55 5.60Q4.67 5.68 4.73 5.81Q4.80 5.94 4.80 6.12L4.80 6.12L4.80 6.24L3.89 6.24Q3.89 6.48 4.01 6.60Q4.12 6.72 4.32 6.72L4.32 6.72Q4.44 6.72 4.54 6.69Q4.64 6.67 4.74 6.63L4.74 6.63L4.74 6.80Q4.64 6.85 4.54 6.87Q4.44 6.89 4.31 6.89L4.31 6.89Q4.12 6.89 3.98 6.81Q3.84 6.73 3.76 6.58Q3.68 6.43 3.68 6.22L3.68 6.22Q3.68 6.00 3.76 5.85Q3.83 5.69 3.96 5.61Q4.09 5.53 4.26 5.53ZM4.26 5.69L4.26 5.69Q4.10 5.69 4.01 5.79Q3.91 5.90 3.89 6.09L3.89 6.09L4.59 6.09Q4.59 5.97 4.55 5.88Q4.52 5.79 4.44 5.74Q4.37 5.69 4.26 5.69ZM5.76 5.53L5.76 5.53Q5.99 5.53 6.11 5.64Q6.23 5.76 6.23 6.01L6.23 6.01L6.23 6.86L6.03 6.86L6.03 6.02Q6.03 5.86 5.96 5.78Q5.88 5.69 5.73 5.69L5.73 5.69Q5.51 5.69 5.42 5.82Q5.33 5.94 5.33 6.18L5.33 6.18L5.33 6.86L5.13 6.86L5.13 5.55L5.30 5.55L5.33 5.74L5.34 5.74Q5.38 5.67 5.44 5.62Q5.51 5.58 5.59 5.55Q5.67 5.53 5.76 5.53Z" />
</svg>