<?xml version="1.0" encoding="UTF-8"?>
<svg version="1.1" xmlns="http://www.w3.org/2000/svg" width="2900" height="644">
<path d="M0 0 C957 0 1914 0 2900 0 C2900 212.52 2900 425.04 2900 644 C1943 644 986 644 0 644 C0 431.48 0 218.96 0 0 Z " fill="#FEFEFE" transform="translate(0,0)"/>
<path d="M0 0 C1.08565247 -0.01956757 2.17130493 -0.03913513 3.28985596 -0.05929565 C6.86205243 -0.11884462 10.4341018 -0.16186474 14.0065918 -0.19970703 C15.2322051 -0.21285069 16.45781841 -0.22599434 17.72057152 -0.23953629 C24.20412967 -0.30455524 30.68762424 -0.35350549 37.17138672 -0.39257812 C42.52320028 -0.42590581 47.87317366 -0.496403 53.22412109 -0.59765625 C59.70457556 -0.71824779 66.18307937 -0.77954946 72.66460228 -0.79892349 C75.12585394 -0.81599639 77.58705588 -0.85354544 80.04766273 -0.91241074 C101.59815419 -1.40035888 101.59815419 -1.40035888 108.9206543 4.65820312 C116.45207693 13.84350572 114.25960258 28.59950086 114.00864387 39.68306065 C113.93931789 43.26623813 113.93337466 46.84954391 113.92036438 50.43328857 C113.88633577 57.20183047 113.79629812 63.96839013 113.68551999 70.73606372 C113.56205628 78.44812651 113.50196139 86.16029002 113.44687021 93.87309694 C113.33225835 109.72236808 113.13910409 125.5696675 112.89331055 141.41748047 C111.79600113 141.75652908 110.69869171 142.0955777 109.56813049 142.44490051 C108.11342886 142.89637228 106.65875396 143.34793017 105.20410156 143.79956055 C104.48264198 144.02222847 103.7611824 144.24489639 103.01786041 144.47431183 C97.83045001 146.08749646 92.78469247 147.86410984 87.83081055 150.10498047 C87.08605469 150.44110352 86.34129883 150.77722656 85.57397461 151.12353516 C55.32387146 165.25055225 31.85404705 192.06478593 20.03393555 223.10888672 C19.49636567 224.62437795 18.9697919 226.14382755 18.45581055 227.66748047 C18.23320557 228.32643311 18.01060059 228.98538574 17.78125 229.66430664 C13.67440073 242.7407551 12.31303439 255.43729215 12.39331055 269.04248047 C12.3947406 269.82884888 12.39617065 270.61521729 12.39764404 271.42541504 C12.45553117 284.32345135 13.71334664 296.13969868 17.89331055 308.41748047 C18.12324707 309.13194336 18.35318359 309.84640625 18.59008789 310.58251953 C24.98473611 330.26880387 35.72134816 346.37418585 49.89331055 361.41748047 C50.49272461 362.08134766 51.09213867 362.74521484 51.7097168 363.42919922 C60.17440253 372.44235271 70.90848635 379.82871027 81.89331055 385.41748047 C81.89331055 385.74748047 81.89331055 386.07748047 81.89331055 386.41748047 C69.58381563 386.53369429 57.27445276 386.62235791 44.9645195 386.67654133 C39.2475512 386.70255606 33.5309602 386.73780534 27.81420898 386.79467773 C22.28987201 386.84928755 16.76589634 386.878962 11.24131012 386.89186668 C9.14110889 386.90105473 7.04092585 386.91899614 4.94087982 386.94613075 C-12.12846214 387.15776953 -24.77765014 384.70506101 -37.84887695 372.83544922 C-47.69046808 362.35644934 -50.40908324 349.66360839 -50.38084412 335.85641479 C-50.38608079 334.58962139 -50.39131747 333.32282799 -50.39671284 332.01764691 C-50.41085136 328.51264944 -50.41255692 325.00774082 -50.41211593 321.50271893 C-50.41376783 317.71794501 -50.42684135 313.9332073 -50.43830872 310.14845276 C-50.46112968 301.87759752 -50.46907629 293.60676798 -50.47413516 285.33588552 C-50.47739575 280.16756529 -50.48392045 274.99925247 -50.49113655 269.83093643 C-50.51069919 255.50996834 -50.5271052 241.18900714 -50.53001308 226.86802483 C-50.53020065 225.95211388 -50.53038822 225.03620294 -50.53058148 224.09253711 C-50.53094772 222.23590954 -50.53131142 220.37928197 -50.53167259 218.5226544 C-50.5318554 217.601072 -50.53203821 216.67948961 -50.53222656 215.72998047 C-50.53249739 214.3459115 -50.53249739 214.3459115 -50.53277368 212.93388154 C-50.53631385 197.98920174 -50.56332789 183.04466617 -50.60072445 168.10003637 C-50.63884728 152.74174574 -50.65817085 137.38352659 -50.6584726 122.02518761 C-50.65905629 113.40803505 -50.66749155 104.79105453 -50.69647026 96.17394638 C-50.72103747 88.83509632 -50.7282312 81.49648104 -50.71322273 74.15760092 C-50.70607537 70.41712774 -50.7068162 66.67711766 -50.72963333 62.93669701 C-50.7541961 58.87094394 -50.73952697 54.80623494 -50.72142029 50.740448 C-50.73462026 49.57300485 -50.74782022 48.40556171 -50.76142019 47.2027415 C-50.62273182 33.50696058 -45.43720835 22.93911159 -36.0090332 13.26513672 C-25.47985686 3.29305966 -14.18430101 0.16368377 0 0 Z " fill="#0C1013" transform="translate(50.106689453125,111.58251953125)"/>
<path d="M0 0 C2.4665797 0.0122501 4.93318719 0.01973957 7.39979553 0.02270508 C12.5575743 0.04106422 17.71283604 0.09853331 22.86987305 0.1875 C29.45463276 0.30056927 36.03741514 0.34434601 42.62305355 0.36222839 C48.93645261 0.3829324 55.24936428 0.44103747 61.5625 0.5 C62.75402113 0.50752289 63.94554226 0.51504578 65.17317009 0.52279663 C83.1819023 0.66967855 98.5589418 1.67255747 112.53515625 14.4375 C123.16360427 25.84486501 126.31668839 39.0278177 126.22860718 54.17822266 C126.23328715 55.42942713 126.23796712 56.6806316 126.24278891 57.96975136 C126.25522011 61.41262715 126.24916492 64.85525092 126.23983026 68.29812717 C126.23300747 72.02280376 126.24353691 75.74743877 126.25177002 79.47210693 C126.26507528 86.75686145 126.26224397 94.04152298 126.2535321 101.32628107 C126.24674329 107.24936845 126.245844 113.17242986 126.24910355 119.09552002 C126.24956325 119.94011422 126.25002294 120.78470842 126.25049657 121.65489638 C126.2514558 123.37093847 126.25242844 125.08698055 126.25341435 126.80302262 C126.26195885 142.8756725 126.25214889 158.94827096 126.23601325 175.02091241 C126.22261092 188.79717047 126.22493928 202.57335268 126.23876953 216.34960938 C126.25484198 232.36669093 126.26113496 248.38372747 126.25193274 264.40081596 C126.25097714 266.11037063 126.25003403 267.8199253 126.24910355 269.52947998 C126.24864072 270.37050502 126.24817789 271.21153007 126.24770104 272.07804072 C126.24511614 277.99061647 126.24947134 283.90316355 126.25654221 289.81573486 C126.26497592 297.02605497 126.26263785 304.23627717 126.24669997 311.44658613 C126.23884235 315.1219137 126.23568253 318.7970783 126.24564743 322.47240448 C126.25630577 326.46400257 126.24353719 330.45519296 126.22860718 334.44677734 C126.23529934 335.59786295 126.24199151 336.74894855 126.24888647 337.93491554 C126.14040876 352.92466031 121.35616385 365.52235735 110.84765625 376.3125 C101.65621299 383.52551601 91.80621472 387.96658056 80.08349609 387.76660156 C79.1652002 387.76718567 78.2469043 387.76776978 77.30078125 387.76837158 C74.30298397 387.76561248 71.30621462 387.7346245 68.30859375 387.703125 C66.21538842 387.69565486 64.12217604 387.68996558 62.02896118 387.68597412 C56.54783461 387.67077871 51.06713913 387.63154976 45.58618164 387.5871582 C39.98199289 387.54607356 34.37773378 387.52793502 28.7734375 387.5078125 C17.79798878 387.46504932 6.82285851 387.39687239 -4.15234375 387.3125 C-1.68280387 384.75133094 0.79118051 383.02671651 3.84765625 381.1875 C34.89796991 361.61318693 54.26651786 330.95181885 62.3046875 295.53515625 C68.23340049 260.34675179 61.74237223 224.11422336 41.09765625 194.75 C39.70389104 192.91983082 38.28504389 191.10861176 36.84765625 189.3125 C36.40405762 188.75675293 35.96045898 188.20100586 35.50341797 187.62841797 C28.98090208 179.53218764 22.26721288 172.49924603 13.84765625 166.3125 C12.35492188 165.19101562 12.35492188 165.19101562 10.83203125 164.046875 C-0.66998361 155.71782975 -12.68117567 149.94445054 -26.18359375 145.5703125 C-27.1468457 145.25392822 -28.11009766 144.93754395 -29.10253906 144.61157227 C-31.45108952 143.84086309 -33.80099004 143.07460468 -36.15234375 142.3125 C-36.40998914 125.70052557 -36.60361048 109.08920494 -36.72227764 92.47571182 C-36.77885686 84.76063258 -36.85590488 77.04679889 -36.98217773 69.33251953 C-37.09226285 62.60394181 -37.16288686 55.87626647 -37.18731719 49.14681315 C-37.2015867 45.58724958 -37.23479605 42.03026599 -37.31537437 38.47153473 C-37.87680837 12.50687269 -37.87680837 12.50687269 -32.15722656 5.55761719 C-23.22671295 -1.8315161 -10.9443574 -0.23777905 0 0 Z " fill="#0D1114" transform="translate(271.15234375,110.6875)"/>
<path d="M0 0 C81.18 0 162.36 0 246 0 C246 35.44597701 246 35.44597701 242 49 C241.79101074 49.74604492 241.58202148 50.49208984 241.36669922 51.26074219 C232.56546738 82.23316704 212.60305498 108.03597751 184.625 124.0234375 C175.437921 129.1160641 166.62168255 133.27524413 155.98535156 133.35400391 C155.20384232 133.3671463 154.42233307 133.3802887 153.61714172 133.39382935 C151.04163119 133.43309879 148.46635402 133.45658846 145.890625 133.4765625 C144.5590247 133.48878908 144.5590247 133.48878908 143.20052338 133.50126266 C138.4919276 133.54292184 133.78344692 133.57153984 129.07470703 133.59033203 C124.25997672 133.61232309 119.44713063 133.6809716 114.63306046 133.76067543 C110.89043261 133.81352624 107.14823377 133.82976154 103.40526581 133.83689499 C101.63371965 133.84651113 99.86218487 133.86940062 98.09101105 133.90697098 C73.60837221 134.39358057 53.42603452 121.36241974 36 105 C15.60315547 85.10788088 3.53024957 58.05619393 0 30 C0 20.1 0 10.2 0 0 Z " fill="#BCE300" transform="translate(76,365)"/>
<path d="M0 0 C1.02175827 -0.00671722 2.04351654 -0.01343445 3.09623718 -0.02035522 C6.47200391 -0.0393435 9.84757187 -0.04325994 13.22338867 -0.04541016 C15.57362449 -0.05183776 17.9238595 -0.05856609 20.27409363 -0.06558228 C25.20097712 -0.07755731 30.12779048 -0.08126288 35.0546875 -0.08007812 C41.35958288 -0.07987499 47.66402726 -0.10717136 53.9688158 -0.14162254 C58.82364455 -0.16389026 63.67836478 -0.16791569 68.53323936 -0.16685867 C70.85720053 -0.16921503 73.18116467 -0.17804049 75.50507545 -0.19352341 C78.76021267 -0.21317892 82.01437746 -0.20734622 85.26953125 -0.1953125 C86.2240921 -0.20655151 87.17865295 -0.21779053 88.16213989 -0.22937012 C95.68528647 -0.15890736 100.82177886 1.76184764 106.57885742 6.60302734 C111.58887169 12.58721105 113.92282283 18.19259686 113.98999023 26.02978516 C113.99959778 26.94133362 114.00920532 27.85288208 114.019104 28.79205322 C114.02547882 30.25309479 114.02547882 30.25309479 114.03198242 31.74365234 C114.0376825 32.75844666 114.04338257 33.77324097 114.04925537 34.81878662 C114.05868706 36.96381595 114.06523206 39.10885966 114.0690918 41.25390625 C114.07878179 44.51507215 114.10981667 47.77560335 114.14135742 51.03662109 C114.1478898 53.12646112 114.15313935 55.21630564 114.15698242 57.30615234 C114.16932922 58.27208313 114.18167603 59.23801392 114.19439697 60.23321533 C114.16904677 68.03954622 113.05431278 76.06127065 107.41366577 81.9535675 C97.93373055 89.95093367 87.30534789 88.94330634 75.60229492 88.77880859 C73.64361478 88.76946961 71.68492286 88.76235863 69.72622681 88.75737 C64.60006808 88.73838567 59.47463084 88.68935958 54.34875488 88.6338501 C49.10654456 88.58247184 43.86421633 88.55981645 38.62182617 88.53466797 C28.35713715 88.48123156 18.09317049 88.39336666 7.82885742 88.29052734 C7.82885742 94.23052734 7.82885742 100.17052734 7.82885742 106.29052734 C42.47885742 106.29052734 77.12885742 106.29052734 112.82885742 106.29052734 C112.82885742 117.84052734 112.82885742 129.39052734 112.82885742 141.29052734 C96.92980727 141.38092607 81.03096173 141.45456637 65.13172913 141.49777603 C57.74893981 141.51837498 50.36632187 141.54644417 42.98364258 141.59228516 C36.54663347 141.63223507 30.10974851 141.65797955 23.67261887 141.66688132 C20.2661883 141.67208239 16.86011281 141.68425012 13.45379639 141.71344757 C9.64500953 141.74251898 5.83695628 141.74648158 2.02807617 141.74462891 C0.90669754 141.75901001 -0.21468109 141.77339111 -1.37004089 141.78820801 C-9.0867625 141.74764002 -14.33281007 140.52423756 -20.37817383 135.43115234 C-21.17288086 134.49529297 -21.17288086 134.49529297 -21.98364258 133.54052734 C-22.79768555 132.62013672 -22.79768555 132.62013672 -23.62817383 131.68115234 C-27.90369558 125.05679966 -28.61359877 118.94700187 -28.57519531 111.26953125 C-28.58205856 110.29931534 -28.58892181 109.32909943 -28.59599304 108.32948303 C-28.61420196 105.14186715 -28.61043156 101.95474628 -28.60473633 98.76708984 C-28.60930125 96.53803346 -28.61460774 94.30897848 -28.62062073 92.07992554 C-28.62954049 87.41471631 -28.62714188 82.74967837 -28.6171875 78.08447266 C-28.60570487 72.12397082 -28.62590483 66.16406204 -28.65510464 60.20363808 C-28.67350538 55.60177898 -28.67316633 51.00006096 -28.66746712 46.39817429 C-28.66731435 44.20147241 -28.6733217 42.0047607 -28.68575859 39.80809402 C-28.70073818 36.72846196 -28.68993966 33.64991213 -28.67285156 30.5703125 C-28.68251953 29.67440903 -28.6921875 28.77850555 -28.70214844 27.85545349 C-28.61556561 20.35404634 -26.81496062 13.50662085 -21.98754883 7.63427734 C-21.24375977 7.02583984 -20.4999707 6.41740234 -19.73364258 5.79052734 C-18.62182617 4.84693359 -18.62182617 4.84693359 -17.48754883 3.88427734 C-11.79127571 -0.03491225 -6.70849812 -0.00632957 0 0 Z " fill="#0D1114" transform="translate(1389.171142578125,342.70947265625)"/>
<path d="M0 0 C1.00952225 -0.0087616 2.01904449 -0.01752319 3.05915833 -0.02655029 C6.36605982 -0.04839358 9.6716027 -0.03404447 12.97851562 -0.01708984 C15.29439549 -0.02046229 17.61027362 -0.02531846 19.92614746 -0.03158569 C24.76783178 -0.03893666 29.60905329 -0.02830828 34.45068359 -0.00488281 C40.63772171 0.0236031 46.82367514 0.00718969 53.01067352 -0.02274513 C57.78928713 -0.04086575 62.56764617 -0.0350381 67.3462677 -0.02210617 C69.62669505 -0.01878536 71.90714598 -0.02281227 74.18754578 -0.03450394 C77.38215822 -0.04729078 80.5750463 -0.02772479 83.76953125 0 C84.69969559 -0.01012115 85.62985992 -0.02024231 86.58821106 -0.03067017 C94.11019441 0.08946532 100.77548419 2.23667565 106.33548737 7.49014854 C110.43303637 12.03743678 112.62504952 15.80112469 112.67529297 22.02294922 C112.68805267 23.09796692 112.70081238 24.17298462 112.71395874 25.28057861 C112.71618439 26.4378949 112.71841003 27.59521118 112.72070312 28.78759766 C112.73068832 30.58182159 112.73068832 30.58182159 112.74087524 32.41229248 C112.75100155 34.94411685 112.75569227 37.4759679 112.75537109 40.0078125 C112.7597334 43.86845338 112.79602579 47.72794111 112.83398438 51.58837891 C112.83985476 54.05061459 112.84382267 56.51285569 112.84570312 58.97509766 C112.86007416 60.12431702 112.87444519 61.27353638 112.88925171 62.45758057 C112.84457478 70.35450156 111.76944591 75.78453432 106.41992188 81.88916016 C105.76894531 82.42798828 105.11796875 82.96681641 104.44726562 83.52197266 C103.79886719 84.07626953 103.15046875 84.63056641 102.48242188 85.20166016 C97.42220294 88.68821697 92.74330361 88.92766335 86.73901367 88.87402344 C85.87996933 88.87431549 85.02092499 88.87460754 84.135849 88.87490845 C81.30595684 88.87351886 78.47633035 88.85797511 75.64648438 88.84228516 C73.68065027 88.83855371 71.7148143 88.83570736 69.74897766 88.83370972 C64.5819279 88.82608365 59.41499107 88.80644393 54.24798584 88.78430176 C48.9726311 88.76382124 43.69725806 88.75470328 38.421875 88.74462891 C28.07611435 88.7231971 17.73046706 88.68802327 7.38476562 88.64697266 C7.38476562 94.58697266 7.38476562 100.52697266 7.38476562 106.64697266 C42.03476562 106.64697266 76.68476562 106.64697266 112.38476562 106.64697266 C112.38476562 118.19697266 112.38476562 129.74697266 112.38476562 141.64697266 C96.38985446 141.78265838 80.395438 141.89308085 64.40011024 141.95784569 C56.9724218 141.98872266 49.54511755 142.03078381 42.11767578 142.09960938 C35.64036011 142.15960185 29.16332281 142.19816655 22.68573701 142.21150362 C19.25892742 142.21929432 15.83291387 142.23747144 12.40636063 142.281353 C8.57137583 142.32506606 4.73802686 142.33089999 0.90283203 142.328125 C-0.22070679 142.34969666 -1.34424561 142.37126831 -2.50183105 142.39349365 C-10.2404758 142.33311325 -15.53536985 140.505041 -21.61523438 135.64697266 C-27.93007954 128.81483855 -28.9145803 121.67688224 -28.90576172 112.65356445 C-28.91247894 111.66252716 -28.91919617 110.67148987 -28.92611694 109.65042114 C-28.94507589 106.3822932 -28.94902014 103.11437088 -28.95117188 99.84619141 C-28.95760138 97.56704118 -28.96432986 95.28789179 -28.97134399 93.00874329 C-28.9833116 88.23326708 -28.98702535 83.45786319 -28.98583984 78.68237305 C-28.98563672 72.57601642 -29.01293509 66.47012552 -29.04738426 60.3638792 C-29.06966879 55.65655912 -29.07367689 50.94935083 -29.07262039 46.24198341 C-29.07497414 43.99141651 -29.08378486 41.74084641 -29.09928513 39.49033165 C-29.11897535 36.33608158 -29.11309455 33.18283211 -29.10107422 30.02856445 C-29.11231323 29.10722214 -29.12355225 28.18587982 -29.13513184 27.23661804 C-29.06281522 19.73374732 -26.76782774 14.28982297 -22.99023438 7.89697266 C-16.3466132 1.60301576 -8.8914654 -0.09674839 0 0 Z " fill="#0D1114" transform="translate(887.615234375,342.35302734375)"/>
<path d="M0 0 C1.64428734 -0.01279495 1.64428734 -0.01279495 3.3217926 -0.02584839 C4.51978989 -0.02494202 5.71778717 -0.02403564 6.9520874 -0.02310181 C8.21753891 -0.02981903 9.48299042 -0.03653625 10.78678894 -0.04345703 C14.25600621 -0.0611162 17.7251248 -0.06581247 21.19438267 -0.0670886 C23.36406286 -0.06851123 25.53371805 -0.07278303 27.70339203 -0.07808304 C35.27930796 -0.09658564 42.85515354 -0.10475369 50.43109131 -0.10317993 C57.4816218 -0.10197965 64.5318456 -0.12305884 71.58229852 -0.15466726 C77.64361512 -0.18086813 83.70483183 -0.19154558 89.7662046 -0.19026911 C93.38268041 -0.18976043 96.99888386 -0.19539053 100.61530304 -0.21662521 C104.65355678 -0.23968903 108.69112948 -0.23046355 112.72943115 -0.21841431 C114.51428169 -0.23527283 114.51428169 -0.23527283 116.33518982 -0.25247192 C124.06637805 -0.19390897 129.92856232 0.63823443 135.65814209 6.30258179 C136.11318115 6.97160522 136.56822021 7.64062866 137.03704834 8.32992554 C137.51013428 9.0015271 137.98322021 9.67312866 138.47064209 10.36508179 C140.60900377 13.96848018 140.73821521 16.98060858 140.77655029 21.08065796 C140.79580315 22.87348457 140.79580315 22.87348457 140.81544495 24.70252991 C140.82283188 25.99625015 140.83021881 27.2899704 140.83782959 28.62289429 C140.84190512 29.28314417 140.84598064 29.94339405 140.85017967 30.6236515 C140.87102555 34.12119862 140.88533128 37.61870673 140.89471436 41.11630249 C140.90575092 44.71300728 140.94012197 48.30908863 140.97988605 51.90557384 C141.00615103 54.68443376 141.01441505 57.46314765 141.01799583 60.24212074 C141.02518141 62.20736662 141.05158107 64.17251228 141.0783844 66.1375885 C141.05862732 74.31562526 140.26816293 79.83772307 134.92376709 86.29086304 C134.3836499 86.73687866 133.84353271 87.18289429 133.28704834 87.64242554 C132.48847412 88.3346521 132.48847412 88.3346521 131.67376709 89.04086304 C125.19214412 92.87368717 118.270422 92.54314323 110.97283936 92.49447632 C109.24492409 92.4949144 109.24492409 92.4949144 107.48210144 92.49536133 C103.68914151 92.49397228 99.89638004 92.47843079 96.10345459 92.46273804 C93.46787117 92.45900641 90.83228636 92.45616014 88.19670105 92.4541626 C81.97785635 92.44796045 75.75908244 92.43156689 69.54026884 92.41146362 C61.76121416 92.38686553 53.98214786 92.37595686 46.20306396 92.36508179 C32.33517036 92.34563447 18.4674311 92.30556486 4.59954834 92.26742554 C4.59954834 114.70742554 4.59954834 137.14742554 4.59954834 160.26742554 C-3.32045166 160.26742554 -11.24045166 160.26742554 -19.40045166 160.26742554 C-19.49312471 141.49997795 -19.56446955 122.73259517 -19.60770035 103.96496582 C-19.62830844 95.25043946 -19.65639542 86.53605806 -19.70220947 77.82162476 C-19.74213103 70.22438616 -19.76789722 62.62725257 -19.77680564 55.02991199 C-19.78201142 51.00870067 -19.79421002 46.98778969 -19.82337189 42.9666748 C-19.85062529 39.17783733 -19.85887681 35.38942248 -19.85288239 31.60049629 C-19.85397821 30.21380882 -19.8618732 28.82710646 -19.87727356 27.44050407 C-19.96462623 19.16609919 -20.00093766 12.06792845 -13.95300674 5.75704956 C-9.4494123 1.79859859 -5.9619234 0.02099088 0 0 Z " fill="#101417" transform="translate(981.4004516601563,122.73257446289063)"/>
<path d="M0 0 C1.56272141 -0.00412399 1.56272141 -0.00412399 3.15701294 -0.0083313 C4.2891774 -0.00114075 5.42134186 0.0060498 6.58781433 0.01345825 C7.78823364 0.0131662 8.98865295 0.01287415 10.22544861 0.01257324 C13.50817421 0.0137261 16.79072831 0.02374213 20.07341981 0.03772116 C23.50738416 0.05024146 26.94135204 0.05140004 30.37533569 0.05377197 C36.87403156 0.05998293 43.37265996 0.07638852 49.87132615 0.09647095 C57.27153363 0.11884194 64.67174437 0.1298264 72.07197726 0.13986182 C87.29108778 0.16075511 102.51010541 0.19742651 117.72917175 0.24050903 C117.72917175 12.12050903 117.72917175 24.00050903 117.72917175 36.24050903 C82.74917175 36.24050903 47.76917175 36.24050903 11.72917175 36.24050903 C11.72917175 41.85050903 11.72917175 47.46050903 11.72917175 53.24050903 C14.38335144 53.21956177 17.03753113 53.1986145 19.7721405 53.17703247 C28.55707885 53.11065222 37.34202848 53.06652959 46.12715149 53.03326035 C51.45182092 53.01241605 56.77623265 52.98415594 62.10075378 52.93875122 C67.24251324 52.89518109 72.38402533 52.87134818 77.5259552 52.86100006 C79.48430778 52.85362874 81.44264734 52.83923427 83.40089417 52.81758881 C86.15123896 52.78840636 88.9005712 52.78455921 91.65104675 52.78640747 C92.85622704 52.76483582 92.85622704 52.76483582 94.08575439 52.74282837 C100.76554351 52.79116624 105.92970729 54.78731979 110.97135925 59.20535278 C111.51018738 59.85632935 112.0490155 60.50730591 112.60417175 61.17800903 C113.15846863 61.82640747 113.7127655 62.47480591 114.28385925 63.14285278 C117.05037032 67.15803236 117.9794335 70.76594058 118.05143738 75.60647583 C118.07065247 76.65494186 118.08986755 77.7034079 118.10966492 78.78364563 C118.11816467 79.90765274 118.12666443 81.03165985 118.13542175 82.18972778 C118.1468219 83.35752274 118.15822205 84.52531769 118.16996765 85.72850037 C118.18884334 88.19885651 118.20192598 90.66926274 118.2096405 93.13967896 C118.22901448 96.89750353 118.29106098 100.65312135 118.35417175 104.41043091 C118.36723704 106.81601694 118.37773594 109.22161855 118.38542175 111.62722778 C118.41011536 112.74111374 118.43480896 113.85499969 118.46025085 115.00263977 C118.41598625 122.85102922 116.54224642 128.01972592 111.72917175 134.24050903 C109.22917175 136.67800903 109.22917175 136.67800903 106.72917175 138.24050903 C105.93642853 138.76071121 105.1436853 139.28091339 104.32691956 139.81687927 C99.10027669 141.88506324 94.23651308 141.63389309 88.66520691 141.58108521 C87.454888 141.58152328 86.24456909 141.58196136 84.99757385 141.58241272 C81.69202687 141.58068516 78.38704728 141.56567699 75.08160067 141.54469085 C71.62229375 141.52589175 68.16297866 141.52417107 64.70362854 141.52061462 C58.15888515 141.51130361 51.61429274 141.48670274 45.06961572 141.45656615 C37.61619355 141.42299264 30.16276403 141.40652874 22.70928502 141.39147985 C7.38247838 141.36015221 -7.9441204 141.30515211 -23.27082825 141.24050903 C-23.27082825 129.69050903 -23.27082825 118.14050903 -23.27082825 106.24050903 C11.70917175 106.24050903 46.68917175 106.24050903 82.72917175 106.24050903 C82.72917175 100.30050903 82.72917175 94.36050903 82.72917175 88.24050903 C80.11575867 88.26669312 77.50234558 88.2928772 74.80973816 88.31985474 C66.1485853 88.40292215 57.48741428 88.45801972 48.82596779 88.49956989 C43.57750397 88.52559805 38.32945033 88.56087183 33.08122253 88.6177063 C28.01076128 88.67226837 22.9406931 88.70198052 17.86996078 88.71489525 C15.94114881 88.72409183 14.01235692 88.74205037 12.08371353 88.76915932 C-8.73077684 89.04993503 -8.73077684 89.04993503 -16.8556366 81.83274841 C-23.30802912 74.8339587 -23.73787763 67.56726268 -23.73957825 58.53347778 C-23.74719177 57.41290482 -23.7548053 56.29233185 -23.76264954 55.13780212 C-23.77342511 52.77354147 -23.77631403 50.40923331 -23.77180481 48.04495239 C-23.77083413 44.4498142 -23.81245503 40.85682305 -23.85676575 37.26199341 C-23.86197466 34.95665928 -23.86466091 32.65131779 -23.86457825 30.34597778 C-23.88097351 29.28211349 -23.89736877 28.21824921 -23.91426086 27.12214661 C-23.84807823 19.88377956 -22.44747986 14.24424977 -18.27082825 8.24050903 C-12.94576809 3.18466095 -7.47829855 -0.01527742 0 0 Z " fill="#0D1114" transform="translate(467.2708282470703,342.7594909667969)"/>
<path d="M0 0 C1.64428734 -0.01279495 1.64428734 -0.01279495 3.3217926 -0.02584839 C4.51978989 -0.02494202 5.71778717 -0.02403564 6.9520874 -0.02310181 C8.21753891 -0.02981903 9.48299042 -0.03653625 10.78678894 -0.04345703 C14.25600621 -0.0611162 17.7251248 -0.06581247 21.19438267 -0.0670886 C23.36406286 -0.06851123 25.53371805 -0.07278303 27.70339203 -0.07808304 C35.27930796 -0.09658564 42.85515354 -0.10475369 50.43109131 -0.10317993 C57.4816218 -0.10197965 64.5318456 -0.12305884 71.58229852 -0.15466726 C77.64361512 -0.18086813 83.70483183 -0.19154558 89.7662046 -0.19026911 C93.38268041 -0.18976043 96.99888386 -0.19539053 100.61530304 -0.21662521 C104.65355678 -0.23968903 108.69112948 -0.23046355 112.72943115 -0.21841431 C114.51428169 -0.23527283 114.51428169 -0.23527283 116.33518982 -0.25247192 C124.10302297 -0.19363139 129.71930956 0.45736929 135.39251518 6.02796268 C140.67166121 12.65030833 140.41555134 19.56254221 140.28070068 27.6914978 C140.27900544 29.13122995 140.2799637 30.57096727 140.28335571 32.01069641 C140.28506809 35.89479898 140.24994361 39.77777609 140.20791197 43.66161847 C140.17024977 47.72945688 140.16686748 51.79732481 140.15975952 55.86531067 C140.14115589 63.55760625 140.09198032 71.2493865 140.03166258 78.94145578 C139.96445714 87.70321437 139.9315733 96.46499835 139.90148997 105.22695076 C139.83887667 123.24074198 139.73221254 141.25402332 139.59954834 159.26742554 C132.00954834 159.26742554 124.41954834 159.26742554 116.59954834 159.26742554 C116.59954834 114.38742554 116.59954834 69.50742554 116.59954834 23.26742554 C101.74954834 23.26742554 86.89954834 23.26742554 71.59954834 23.26742554 C71.59954834 68.14742554 71.59954834 113.02742554 71.59954834 159.26742554 C64.00954834 159.26742554 56.41954834 159.26742554 48.59954834 159.26742554 C48.59954834 114.38742554 48.59954834 69.50742554 48.59954834 23.26742554 C33.74954834 23.26742554 18.89954834 23.26742554 3.59954834 23.26742554 C3.59954834 68.14742554 3.59954834 113.02742554 3.59954834 159.26742554 C-3.99045166 159.26742554 -11.58045166 159.26742554 -19.40045166 159.26742554 C-19.49309562 140.48270717 -19.56445467 121.69805344 -19.60770035 102.91315365 C-19.62831488 94.19075169 -19.65641421 85.4684944 -19.70220947 76.7461853 C-19.74211128 69.14273037 -19.76789254 61.53938023 -19.77680564 53.9358235 C-19.78201476 49.91073194 -19.7942347 45.88594013 -19.82337189 41.86094475 C-19.85059403 38.06964812 -19.85888308 34.27877369 -19.85288239 30.48738861 C-19.8539796 29.09866857 -19.86189333 27.7099339 -19.87727356 26.3212986 C-19.96734846 17.76651378 -19.78033638 12.0524496 -13.83795166 5.56039429 C-9.07395104 1.89677424 -6.05523678 0.02131942 0 0 Z " fill="#0C1013" transform="translate(766.4004516601563,122.73257446289063)"/>
<path d="M0 0 C1.22417633 -0.00137466 2.44835266 -0.00274933 3.70962524 -0.00416565 C5.06828333 -0.00062652 6.42694116 0.00300829 7.78559875 0.00672913 C9.2145945 0.00701116 10.6435904 0.00685294 12.07258606 0.00628662 C15.95452867 0.00599929 19.83644048 0.01188568 23.71837592 0.01886058 C27.77429534 0.02510477 31.83021543 0.02569876 35.88613892 0.02688599 C43.56776914 0.02999615 51.24938515 0.03820531 58.93100911 0.04823548 C67.67577129 0.05940636 76.42053414 0.06490953 85.16530168 0.06993091 C103.15503464 0.08038818 121.14475351 0.09818259 139.13447571 0.12025452 C139.13447571 7.71025452 139.13447571 15.30025452 139.13447571 23.12025452 C94.25447571 23.12025452 49.37447571 23.12025452 3.13447571 23.12025452 C3.13447571 37.97025452 3.13447571 52.82025452 3.13447571 68.12025452 C8.62310242 68.08883362 8.62310242 68.08883362 14.22261047 68.05677795 C26.31245607 67.99049776 38.40228896 67.94611112 50.49226475 67.91300583 C57.82239622 67.89239971 65.15235529 67.86431674 72.4823761 67.8184967 C78.87286384 67.77856882 85.2632267 67.75280752 91.65383571 67.74390054 C95.03620202 67.73869575 98.41821114 67.72650417 101.80046272 67.69733429 C105.58071698 67.66829639 109.36023137 67.66429888 113.14057922 67.66615295 C114.25620239 67.65177185 115.37182556 67.63739075 116.52125549 67.62257385 C124.00582949 67.66229313 128.48526565 68.74001014 134.09541321 73.93666077 C134.56205383 74.5128717 135.02869446 75.08908264 135.50947571 75.68275452 C136.23263977 76.55093811 136.23263977 76.55093811 136.97041321 77.43666077 C139.36010671 80.89289532 139.27024319 84.08312703 139.29560852 88.14881897 C139.30521606 89.3905336 139.31482361 90.63224823 139.32472229 91.91159058 C139.32957077 93.26890377 139.33384948 94.6262191 139.33760071 95.98353577 C139.34335534 97.37734987 139.34911304 98.77116395 139.35487366 100.16497803 C139.36537533 103.08781807 139.37122323 106.01063069 139.37471008 108.93348694 C139.38018867 112.66927223 139.40420617 116.40469193 139.43268204 120.14036274 C139.45135557 123.02036581 139.45651654 125.90028171 139.45804596 128.78034019 C139.46106314 130.15698937 139.46906003 131.53363735 139.48223114 132.91022682 C139.49938599 134.84124601 139.49555299 136.77241664 139.49092102 138.70350647 C139.49638947 140.34873039 139.49638947 140.34873039 139.50196838 142.02719116 C138.77392842 148.15486082 135.72151922 152.17326359 131.13447571 156.12025452 C126.88118721 158.60287289 123.81798462 159.49378184 118.90818787 159.48101807 C117.67988754 159.48514206 116.45158722 159.48926605 115.18606567 159.49351501 C113.83830038 159.48289981 112.49053734 159.47199541 111.14277649 159.46083069 C109.7133384 159.45998382 108.283899 159.46046074 106.85446167 159.4621582 C102.98499059 159.46301724 99.11579976 159.44540653 95.24639368 159.42443633 C91.19851263 159.40565414 87.15062481 159.40391788 83.10270691 159.40036011 C75.44237119 159.39104416 67.78216425 159.36643652 60.12188518 159.33631164 C51.39883467 159.30275357 42.67577794 159.28627809 33.95267892 159.27122533 C16.01320287 159.23988653 -1.92614563 159.18652894 -19.86552429 159.12025452 C-19.86552429 151.53025452 -19.86552429 143.94025452 -19.86552429 136.12025452 C25.01447571 136.12025452 69.89447571 136.12025452 116.13447571 136.12025452 C116.13447571 121.27025452 116.13447571 106.42025452 116.13447571 91.12025452 C110.60826477 91.15953064 110.60826477 91.15953064 104.97041321 91.19960022 C92.79278544 91.28247976 80.61517735 91.33794546 68.43734741 91.37931538 C61.05450534 91.40506424 53.67193104 91.44015062 46.28926086 91.49745178 C39.85225108 91.54738918 33.41543527 91.57956965 26.97823715 91.59069699 C23.57171861 91.5971985 20.16575486 91.61240774 16.75941467 91.6489048 C12.95050779 91.68524521 9.14274705 91.69019741 5.33369446 91.68788147 C4.21231583 91.70585785 3.09093719 91.72383423 1.93557739 91.74235535 C-4.88856435 91.6975109 -9.66108114 90.72323269 -14.86552429 86.12025452 C-18.8237522 81.04560335 -19.98459077 77.37978218 -20.05839539 71.03163147 C-20.07445831 69.77635147 -20.09052124 68.52107147 -20.10707092 67.22775269 C-20.11856077 65.8546873 -20.12916891 64.4816143 -20.13896179 63.10853577 C-20.14428547 62.4151882 -20.14960915 61.72184063 -20.15509415 61.00748253 C-20.18180337 57.33487938 -20.2011821 53.66230989 -20.21562195 49.98963928 C-20.22893854 46.9603592 -20.25675019 43.93175638 -20.2976532 40.90272522 C-20.34716297 37.2357545 -20.37176529 33.56939596 -20.37884903 29.90210533 C-20.38553202 28.51031495 -20.40067685 27.11853665 -20.42473984 25.72693825 C-20.55508256 17.73045244 -20.56411038 11.19681897 -14.86552429 5.12025452 C-9.86014323 1.21605729 -6.26642813 -0.0054161 0 0 Z " fill="#0C1013" transform="translate(472.8655242919922,122.87974548339844)"/>
<path d="M0 0 C1.20056534 -0.00029205 2.40113068 -0.00058411 3.63807678 -0.00088501 C6.91661143 0.00026658 10.19497362 0.01027193 13.47347403 0.02426291 C16.90476317 0.03679631 20.33605599 0.03794282 23.7673645 0.04031372 C30.25894396 0.04652084 36.75045575 0.06292121 43.24200547 0.0830127 C50.63498111 0.10539566 58.02796004 0.11637115 65.42096114 0.12640357 C80.62329528 0.14728816 95.82554159 0.18395475 111.02783203 0.22705078 C111.02783203 12.10705078 111.02783203 23.98705078 111.02783203 36.22705078 C75.71783203 36.22705078 40.40783203 36.22705078 4.02783203 36.22705078 C4.02783203 59.32705078 4.02783203 82.42705078 4.02783203 106.22705078 C39.00783203 106.22705078 73.98783203 106.22705078 110.02783203 106.22705078 C110.02783203 117.77705078 110.02783203 129.32705078 110.02783203 141.22705078 C94.12878188 141.31744951 78.22993634 141.3910898 62.33070374 141.43429947 C54.94791442 141.45489841 47.56529648 141.48296761 40.18261719 141.52880859 C33.74560808 141.56875851 27.30872312 141.59450298 20.87159348 141.60340476 C17.4651629 141.60860583 14.05908742 141.62077356 10.652771 141.64997101 C6.84398414 141.67904242 3.03593089 141.68300501 -0.77294922 141.68115234 C-1.89432785 141.69553345 -3.01570648 141.70991455 -4.17106628 141.72473145 C-12.2524785 141.68224623 -17.5276032 140.12361661 -23.72216797 134.91455078 C-27.91954799 129.90101354 -31.07600346 124.70604959 -31.12606812 118.02330017 C-31.13466858 117.16696991 -31.14326904 116.31063965 -31.15213013 115.42835999 C-31.15639008 114.49173019 -31.16065002 113.5551004 -31.16503906 112.59008789 C-31.17321655 111.60109497 -31.18139404 110.61210205 -31.18981934 109.59313965 C-31.21467026 106.31356408 -31.23119153 103.0340319 -31.24560547 99.75439453 C-31.25092915 98.63327333 -31.25625282 97.51215214 -31.26173782 96.35705757 C-31.28847218 90.41927906 -31.30784342 84.48152156 -31.32226562 78.54370117 C-31.33558907 73.63660985 -31.36341254 68.7299359 -31.40429688 63.82299805 C-31.45370313 57.89318989 -31.47839714 51.96375954 -31.48549271 46.03375435 C-31.49219229 43.77840618 -31.50738044 41.523066 -31.53138351 39.26783562 C-31.56315345 36.10137363 -31.56305324 32.93635621 -31.55566406 29.76977539 C-31.5720694 28.84731522 -31.58847473 27.92485504 -31.6053772 26.97444153 C-31.53102403 19.14386429 -28.96088922 12.82042662 -23.94482422 6.78955078 C-23.31447266 6.27392578 -22.68412109 5.75830078 -22.03466797 5.22705078 C-21.40689453 4.69080078 -20.77912109 4.15455078 -20.13232422 3.60205078 C-13.78394117 -0.43887297 -7.26303971 -0.04627564 0 0 Z " fill="#0D1114" transform="translate(1225.97216796875,342.77294921875)"/>
<path d="M0 0 C1.56272141 -0.00412399 1.56272141 -0.00412399 3.15701294 -0.0083313 C4.2891774 -0.00114075 5.42134186 0.0060498 6.58781433 0.01345825 C7.78823364 0.0131662 8.98865295 0.01287415 10.22544861 0.01257324 C13.50817421 0.0137261 16.79072831 0.02374213 20.07341981 0.03772116 C23.50738416 0.05024146 26.94135204 0.05140004 30.37533569 0.05377197 C36.87403156 0.05998293 43.37265996 0.07638852 49.87132615 0.09647095 C57.27153363 0.11884194 64.67174437 0.1298264 72.07197726 0.13986182 C87.29108778 0.16075511 102.51010541 0.19742651 117.72917175 0.24050903 C117.72917175 12.12050903 117.72917175 24.00050903 117.72917175 36.24050903 C82.74917175 36.24050903 47.76917175 36.24050903 11.72917175 36.24050903 C11.72917175 59.34050903 11.72917175 82.44050903 11.72917175 106.24050903 C46.70917175 106.24050903 81.68917175 106.24050903 117.72917175 106.24050903 C117.72917175 117.79050903 117.72917175 129.34050903 117.72917175 141.24050903 C101.69973379 141.33090583 85.67051435 141.40454691 69.64089203 141.44775772 C62.19756933 141.46835715 54.75441659 141.49642729 47.311203 141.54226685 C40.82145619 141.58221525 34.33183251 141.60796088 27.84196615 141.61686301 C24.40759119 141.62206433 20.9735684 141.63423371 17.53930664 141.66342926 C13.69938848 141.69249834 9.86019801 141.69646336 6.02018738 141.6946106 C4.88945801 141.7089917 3.75872864 141.7233728 2.59373474 141.7381897 C-5.16901094 141.69770544 -10.47615647 140.5063067 -16.51301575 135.31082153 C-17.05184387 134.66886841 -17.590672 134.02691528 -18.14582825 133.36550903 C-18.70012512 132.72871216 -19.254422 132.09191528 -19.82551575 131.43582153 C-23.65909833 125.61292043 -23.57254888 119.69325026 -23.57722473 112.97171021 C-23.58554825 111.9514122 -23.59387177 110.9311142 -23.60244751 109.87989807 C-23.62649908 106.51438557 -23.63531373 103.14906706 -23.641922 99.78347778 C-23.65089186 97.43706709 -23.66001377 95.09065697 -23.66928101 92.74424744 C-23.6857603 87.82754121 -23.69346923 82.910903 -23.69636536 77.99417114 C-23.70174852 71.7061294 -23.73943138 65.41873023 -23.78510952 59.13086987 C-23.81490827 54.28457832 -23.82208954 49.438441 -23.82309151 44.59206581 C-23.82728801 42.2744992 -23.83969923 39.95693188 -23.86060905 37.6394558 C-23.88758102 34.3916587 -23.88267977 31.1453448 -23.87019348 27.89749146 C-23.88502777 26.94809692 -23.89986206 25.99870239 -23.91514587 25.02053833 C-23.83247117 17.43693526 -21.53846079 11.60097205 -16.20832825 6.11941528 C-15.56895325 5.68500122 -14.92957825 5.25058716 -14.27082825 4.80300903 C-13.63145325 4.3505481 -12.99207825 3.89808716 -12.33332825 3.43191528 C-8.20780715 1.04880177 -4.77060101 -0.00974587 0 0 Z " fill="#0D1114" transform="translate(635.2708282470703,342.7594909667969)"/>
<path d="M0 0 C0.87315857 -0.00860046 1.74631714 -0.01720093 2.64593506 -0.02606201 C3.60126633 -0.03032196 4.5565976 -0.03458191 5.5408783 -0.03897095 C6.54937836 -0.04714844 7.55787842 -0.05532593 8.59693909 -0.06375122 C11.941446 -0.08860376 15.28591037 -0.10512372 18.63047791 -0.11953735 C20.34525739 -0.12752287 20.34525739 -0.12752287 22.09467888 -0.13566971 C28.14916692 -0.16240461 34.20363434 -0.18177578 40.25816345 -0.19619751 C45.26225626 -0.20952182 50.26593987 -0.23734688 55.2698822 -0.27822876 C61.31639859 -0.32762811 67.36254451 -0.35232819 73.40925407 -0.35942459 C75.70925882 -0.36612523 78.00925568 -0.38131612 80.30914497 -0.4053154 C83.53786468 -0.43707627 86.76516719 -0.43698641 89.9940033 -0.42959595 C90.93516495 -0.44600128 91.8763266 -0.46240662 92.8460083 -0.47930908 C99.68193686 -0.41562366 105.03780794 1.28882542 110.72032166 5.15390015 C115.78091829 10.46934235 118.97609403 15.95332342 118.96083069 23.42472839 C118.96495468 24.9874498 118.96495468 24.9874498 118.96916199 26.58174133 C118.95837616 28.27998802 118.95837616 28.27998802 118.94737244 30.01254272 C118.94766449 31.21296204 118.94795654 32.41338135 118.94825745 33.650177 C118.94710459 36.93290261 118.93708856 40.21545671 118.92310953 43.4981482 C118.91058922 46.93211255 118.90943065 50.36608043 118.90705872 53.80006409 C118.90084776 60.29875995 118.88444217 66.79738835 118.86435974 73.29605454 C118.84198875 80.69626202 118.83100429 88.09647276 118.82096887 95.49670565 C118.80007558 110.71581617 118.76340418 125.9348338 118.72032166 141.15390015 C107.17032166 141.15390015 95.62032166 141.15390015 83.72032166 141.15390015 C83.72032166 106.17390015 83.72032166 71.19390015 83.72032166 35.15390015 C60.62032166 35.15390015 37.52032166 35.15390015 13.72032166 35.15390015 C13.72032166 70.13390015 13.72032166 105.11390015 13.72032166 141.15390015 C1.84032166 141.15390015 -10.03967834 141.15390015 -22.27967834 141.15390015 C-22.37007707 125.25484999 -22.44371737 109.35600445 -22.48692703 93.45677185 C-22.50752598 86.07398254 -22.53559517 78.6913646 -22.58143616 71.3086853 C-22.62138607 64.87167619 -22.64713055 58.43479124 -22.65603232 51.99766159 C-22.66123339 48.59123102 -22.67340112 45.18515554 -22.70259857 41.77883911 C-22.73166998 37.97005226 -22.73563258 34.161999 -22.73377991 30.3531189 C-22.74816101 29.23174026 -22.76254211 28.11036163 -22.77735901 26.95500183 C-22.73484079 18.86731252 -21.2088814 13.54560895 -15.90467834 7.40390015 C-10.9166598 3.12845568 -6.67938066 0.04906649 0 0 Z " fill="#0C1013" transform="translate(1051.2796783447266,342.8460998535156)"/>
<path d="M0 0 C7.92 0 15.84 0 24 0 C24 22.44 24 44.88 24 68 C60.96 68 97.92 68 136 68 C136 45.56 136 23.12 136 0 C143.92 0 151.84 0 160 0 C160.09267305 18.76744759 160.16401789 37.53483036 160.20724869 56.30245972 C160.22785678 65.01698607 160.25594376 73.73136748 160.30175781 82.44580078 C160.34167937 90.04303938 160.36744556 97.64017297 160.37635398 105.23751354 C160.38155976 109.25872487 160.39375836 113.27963585 160.42292023 117.30075073 C160.45017363 121.0895882 160.45842515 124.87800306 160.45243073 128.66692924 C160.45352655 130.05361672 160.46142154 131.44031907 160.4768219 132.82692146 C160.63187068 147.51378096 160.63187068 147.51378096 156 153 C151.35224808 157.71912519 146.94597292 159.34493175 140.37498474 159.7215271 C137.7703909 159.73884011 135.17896978 159.72433402 132.57592773 159.68115234 C131.13619559 159.6794571 129.69645827 159.68041536 128.25672913 159.68380737 C124.37262656 159.68551975 120.48964945 159.65039527 116.60580707 159.60836363 C112.53796866 159.57070144 108.47010073 159.56731914 104.40211487 159.56021118 C96.70981928 159.54160755 89.01803903 159.49243198 81.32596976 159.43211424 C72.56421117 159.3649088 63.80242719 159.33202496 55.04047477 159.30194163 C37.02668355 159.23932833 19.01340222 159.1326642 1 159 C1 151.41 1 143.82 1 136 C45.88 136 90.76 136 137 136 C137 121.15 137 106.3 137 91 C131.47378906 91.03927612 131.47378906 91.03927612 125.8359375 91.0793457 C113.65830973 91.16222524 101.48070164 91.21769094 89.3028717 91.25906086 C81.92002963 91.28480973 74.53745533 91.3198961 67.15478516 91.37719727 C60.71777537 91.42713467 54.28095956 91.45931514 47.84376144 91.47044247 C44.4372429 91.47694398 41.03127916 91.49215322 37.62493896 91.52865028 C33.81603208 91.56499069 30.00827134 91.56994289 26.19921875 91.56762695 C25.07784012 91.58560333 23.95646149 91.60357971 22.80110168 91.62210083 C15.89657912 91.57672817 11.33377902 90.50532663 6 86 C0.65165669 80.51091081 -0.25224841 74.91777659 -0.22705078 67.43408203 C-0.22734283 66.70168808 -0.22763489 65.96929413 -0.22793579 65.21470642 C-0.22655094 62.81228471 -0.21102997 60.41017952 -0.1953125 58.0078125 C-0.19157936 56.33487111 -0.18873381 54.66192752 -0.18673706 52.98898315 C-0.1791243 48.59954728 -0.15949619 44.2102451 -0.1373291 39.82086182 C-0.11681976 35.33632211 -0.10772448 30.85176066 -0.09765625 26.3671875 C-0.07624794 17.578057 -0.04108514 8.78906057 0 0 Z " fill="#0D1114" transform="translate(1343,123)"/>
<path d="M0 0 C7.92 0 15.84 0 24 0 C24 44.88 24 89.76 24 136 C52.38 136 80.76 136 110 136 C110 143.59 110 151.18 110 159 C97.60406128 159.09042799 85.20834223 159.16378949 72.81214809 159.20724869 C67.05587429 159.22810864 61.29983818 159.2563977 55.54370117 159.30175781 C49.98698152 159.3452716 44.43049026 159.36914909 38.87361336 159.37950897 C36.75534534 159.38689035 34.63708958 159.40130448 32.51891899 159.42292023 C29.54806542 159.45202727 26.57815134 159.45595288 23.60717773 159.45410156 C22.73467377 159.46848267 21.8621698 159.48286377 20.96322632 159.49768066 C14.44252685 159.45381486 10.24609536 157.90440112 5.29296875 153.47265625 C1.26568995 148.33538541 -0.25186725 144.44586587 -0.24050903 137.93193054 C-0.24325836 136.71341904 -0.24600769 135.49490753 -0.24884033 134.23947144 C-0.24176306 132.89752098 -0.23449346 131.55557153 -0.22705078 130.21362305 C-0.22648636 128.79418445 -0.22680383 127.37474527 -0.22793579 125.95530701 C-0.22850911 122.10856701 -0.21675816 118.26195199 -0.20278788 114.415241 C-0.19027708 110.39270395 -0.18910974 106.37016398 -0.18673706 102.34761047 C-0.18052332 94.73331642 -0.16411393 87.11907986 -0.14403808 79.50481111 C-0.12167579 70.83497703 -0.11068482 62.16514019 -0.10064721 53.49528444 C-0.07974761 35.66348947 -0.04417035 17.83175147 0 0 Z " fill="#0E1316" transform="translate(1180,123)"/>
<path d="M0 0 C37.62 0 75.24 0 114 0 C114 14.85 114 29.7 114 45 C76.38 45 38.76 45 0 45 C0 30.15 0 15.3 0 0 Z " fill="#FAFAFA" transform="translate(985,146)"/>
<path d="M0 0 C11.88 0 23.76 0 36 0 C36 46.53 36 93.06 36 141 C24.12 141 12.24 141 0 141 C0 94.47 0 47.94 0 0 Z " fill="#0D1114" transform="translate(789,343)"/>
<path d="M0 0 C1.24179016 -0.00960754 2.48358032 -0.01921509 3.76300049 -0.02911377 C5.12552711 -0.03396262 6.48805586 -0.03824123 7.85058594 -0.04199219 C9.24582928 -0.04774502 10.64107261 -0.05350274 12.03631592 -0.05926514 C14.96513233 -0.06977735 17.89392128 -0.07561801 20.82275391 -0.07910156 C24.56641499 -0.0845752 28.30971033 -0.10857757 32.05325699 -0.13707352 C34.93755125 -0.15574959 37.82175848 -0.16090821 40.70610809 -0.16243744 C42.08554831 -0.16545524 43.46498732 -0.17345427 44.84436798 -0.18662262 C46.78028605 -0.20377887 48.7163552 -0.19994427 50.65234375 -0.1953125 C51.7521759 -0.19895813 52.85200806 -0.20260376 53.98516846 -0.20635986 C57.60682852 0.22300228 59.98295095 1.26410418 63.08496094 3.16113281 C65.50023691 6.78404677 65.42448915 9.52172371 65.45605469 13.71582031 C65.46508316 14.45438263 65.47411163 15.19294495 65.4834137 15.95388794 C65.49791124 17.51560415 65.50680172 19.07738103 65.51049805 20.63916016 C65.52238657 23.02123101 65.57156211 25.40070311 65.62207031 27.78222656 C65.63153613 29.3017452 65.63877041 30.82127972 65.64355469 32.34082031 C65.66308701 33.04931122 65.68261932 33.75780212 65.70274353 34.48776245 C65.67159118 37.92525798 65.10675857 40.12252979 63.41455078 43.11938477 C57.99349592 46.44364652 52.4788003 45.77220214 46.25292969 45.64941406 C44.89245404 45.64008093 43.53196152 45.63296718 42.17146301 45.62797546 C38.60194976 45.60894412 35.0334644 45.55987961 31.46435547 45.50445557 C27.81784977 45.45317785 24.17117689 45.43044343 20.52441406 45.40527344 C13.37747061 45.35175465 6.23139129 45.26385228 -0.91503906 45.16113281 C-0.91503906 52.09113281 -0.91503906 59.02113281 -0.91503906 66.16113281 C21.19496094 66.16113281 43.30496094 66.16113281 66.08496094 66.16113281 C66.08496094 70.12113281 66.08496094 74.08113281 66.08496094 78.16113281 C56.65336293 78.25386178 47.22192213 78.32491229 37.78996754 78.3683815 C33.41018878 78.38924587 29.03072216 78.41754216 24.65112305 78.46289062 C20.42359542 78.50638994 16.19636782 78.53027858 11.96863365 78.54064178 C10.35667893 78.54802587 8.7447404 78.56244548 7.13291359 78.58405304 C4.87283629 78.61314259 2.61399452 78.61708669 0.35375977 78.61523438 C-1.57484138 78.62855804 -1.57484138 78.62855804 -3.54240417 78.64215088 C-7.48983498 78.07915322 -9.11697723 76.94382346 -11.91503906 74.16113281 C-13.30670659 71.37779775 -13.07317333 69.0690575 -13.10791016 65.95483398 C-13.12397308 64.64975388 -13.14003601 63.34467377 -13.15658569 62.00004578 C-13.1680725 60.56807099 -13.17868115 59.13608892 -13.18847656 57.70410156 C-13.19380024 56.98402735 -13.19912392 56.26395313 -13.20460892 55.52205849 C-13.23133583 51.71027313 -13.25071162 47.89852046 -13.26513672 44.08666992 C-13.28177889 40.15211467 -13.32655276 36.218398 -13.37750816 32.28415966 C-13.41118779 29.2566483 -13.42271481 26.22933577 -13.4283638 23.20165443 C-13.43507504 21.75156563 -13.45029415 20.30148985 -13.47425461 18.85158348 C-13.50591316 16.81982458 -13.50294072 14.78761599 -13.49853516 12.75561523 C-13.50662201 11.60026779 -13.51470886 10.44492035 -13.52304077 9.25456238 C-12.73047387 5.22209035 -11.02838293 3.74744979 -7.91503906 1.16113281 C-5.19772839 -0.19752252 -3.04212832 0.01894102 0 0 Z " fill="#13181B" transform="translate(1175.9150390625,557.8388671875)"/>
<path d="M0 0 C1.2650386 -0.00960754 2.53007721 -0.01921509 3.83345032 -0.02911377 C5.22124044 -0.03396205 6.60903265 -0.03824081 7.99682617 -0.04199219 C9.4168854 -0.04774432 10.8369446 -0.05350205 12.25700378 -0.05926514 C15.23709475 -0.06977644 18.21715873 -0.07561796 21.19726562 -0.07910156 C25.01052416 -0.08458053 28.82342457 -0.10859479 32.63657093 -0.13707352 C35.57143687 -0.15572686 38.50621711 -0.16090696 41.44113731 -0.16243744 C42.84652345 -0.16545945 44.25190824 -0.17347277 45.6572361 -0.18662262 C47.62688728 -0.20373421 49.5966862 -0.19995067 51.56640625 -0.1953125 C53.24613274 -0.20078094 53.24613274 -0.20078094 54.95979309 -0.20635986 C58.38828163 0.21118567 60.22663128 1.10186652 62.97729492 3.16113281 C65.3925709 6.78404677 65.31682313 9.52172371 65.34838867 13.71582031 C65.35741714 14.45438263 65.36644562 15.19294495 65.37574768 15.95388794 C65.39024522 17.51560415 65.3991357 19.07738103 65.40283203 20.63916016 C65.41472055 23.02123101 65.46389609 25.40070311 65.5144043 27.78222656 C65.52387011 29.3017452 65.53110439 30.82127972 65.53588867 32.34082031 C65.55542099 33.04931122 65.57495331 33.75780212 65.59507751 34.48776245 C65.56392516 37.92525798 64.99909255 40.12252979 63.30688477 43.11938477 C57.8858299 46.44364652 52.37113429 45.77220214 46.14526367 45.64941406 C44.78478803 45.64008093 43.4242955 45.63296718 42.063797 45.62797546 C38.49428375 45.60894412 34.92579839 45.55987961 31.35668945 45.50445557 C27.71018375 45.45317785 24.06351087 45.43044343 20.41674805 45.40527344 C13.2698046 45.35175465 6.12372527 45.26385228 -1.02270508 45.16113281 C-1.02270508 52.42113281 -1.02270508 59.68113281 -1.02270508 67.16113281 C20.75729492 67.16113281 42.53729492 67.16113281 64.97729492 67.16113281 C64.97729492 70.79113281 64.97729492 74.42113281 64.97729492 78.16113281 C55.67611958 78.27704857 46.37519334 78.3658587 37.07345295 78.42019367 C32.75411252 78.44627363 28.4352667 78.48164151 24.11621094 78.53833008 C19.94701982 78.59270839 15.77830404 78.6225654 11.60878563 78.63551903 C10.01913152 78.6447486 8.42950306 78.66277238 6.84005165 78.6897831 C4.61089767 78.72615376 2.38370044 78.73107526 0.15429688 78.72875977 C-1.11367233 78.73986282 -2.38164154 78.75096588 -3.68803406 78.7624054 C-7.90710746 78.00166674 -9.35150163 76.43329389 -12.02270508 73.16113281 C-13.39024637 70.42605022 -13.18024498 68.2159094 -13.21557617 65.15429688 C-13.2316391 63.89248596 -13.24770203 62.63067505 -13.26425171 61.33062744 C-13.2757399 59.94601108 -13.28634831 58.56138719 -13.29614258 57.17675781 C-13.30146626 56.47999687 -13.30678993 55.78323593 -13.31227493 55.06536102 C-13.33900459 51.37561646 -13.35837785 47.68590566 -13.37280273 43.99609375 C-13.38613051 40.94630867 -13.41395984 37.89719454 -13.45483398 34.84765625 C-13.50422793 31.16239649 -13.52893203 27.4777443 -13.53602982 23.79216766 C-13.54273123 22.39035156 -13.55792474 20.98854842 -13.58192062 19.58692169 C-13.78112633 7.24438613 -13.78112633 7.24438613 -10.61499023 3.31640625 C-6.78983065 0.1360984 -4.91886387 0.03005646 0 0 Z " fill="#13171A" transform="translate(843.022705078125,557.8388671875)"/>
<path d="M0 0 C1.24179016 -0.00960754 2.48358032 -0.01921509 3.76300049 -0.02911377 C5.12552711 -0.03396262 6.48805586 -0.03824123 7.85058594 -0.04199219 C9.24582928 -0.04774502 10.64107261 -0.05350274 12.03631592 -0.05926514 C14.96513233 -0.06977735 17.89392128 -0.07561801 20.82275391 -0.07910156 C24.56641499 -0.0845752 28.30971033 -0.10857757 32.05325699 -0.13707352 C34.93755125 -0.15574959 37.82175848 -0.16090821 40.70610809 -0.16243744 C42.08554831 -0.16545524 43.46498732 -0.17345427 44.84436798 -0.18662262 C46.78028605 -0.20377887 48.7163552 -0.19994427 50.65234375 -0.1953125 C51.7521759 -0.19895813 52.85200806 -0.20260376 53.98516846 -0.20635986 C57.60682852 0.22300228 59.98295095 1.26410418 63.08496094 3.16113281 C65.46151455 6.72596323 65.42389643 9.33904371 65.45605469 13.46191406 C65.46508316 14.17590866 65.47411163 14.88990326 65.4834137 15.62553406 C65.4979113 17.13597425 65.50680174 18.64647718 65.51049805 20.15698242 C65.52236824 22.45568258 65.57152671 24.75167325 65.62207031 27.04980469 C65.63153847 28.52049477 65.63877163 29.99120128 65.64355469 31.46191406 C65.66308701 32.1433699 65.68261932 32.82482574 65.70274353 33.52693176 C65.66750592 37.2986985 65.04211221 39.67397212 62.73754883 42.57983398 C58.99994887 46.21698487 56.43208901 46.28553005 51.42016602 46.2746582 C50.259189 46.27458267 49.09821198 46.27450714 47.90205383 46.27442932 C46.64885849 46.26926804 45.39566315 46.26410675 44.10449219 46.25878906 C42.82136642 46.25737411 41.53824066 46.25595917 40.2162323 46.25450134 C36.80825853 46.25068687 33.40032751 46.24086572 29.99237061 46.22979736 C26.51347441 46.21956025 23.0345711 46.21494398 19.55566406 46.20996094 C12.73205862 46.19977341 5.90857051 46.18019909 -0.91503906 46.16113281 C-0.91503906 57.05113281 -0.91503906 67.94113281 -0.91503906 79.16113281 C-4.87503906 79.16113281 -8.83503906 79.16113281 -12.91503906 79.16113281 C-13.03102869 69.87722846 -13.11980239 60.59357457 -13.17409992 51.30910301 C-13.20016381 46.99763725 -13.23550221 42.68666819 -13.29223633 38.37548828 C-13.34667213 34.21277632 -13.37648374 30.05054127 -13.38942528 25.88750076 C-13.39864455 24.30146402 -13.41664821 22.7154526 -13.44368935 21.1296196 C-13.48013653 18.90306516 -13.48497833 16.67846621 -13.48266602 14.45166016 C-13.49376907 13.18591156 -13.50487213 11.92016296 -13.51631165 10.61605835 C-12.7199266 6.04001227 -11.16116307 4.42896689 -7.91503906 1.16113281 C-5.19772839 -0.19752252 -3.04212832 0.01894102 0 0 Z " fill="#191D20" transform="translate(276.9150390625,557.8388671875)"/>
<path d="M0 0 C7.92 0 15.84 0 24 0 C24 52.47 24 104.94 24 159 C16.08 159 8.16 159 0 159 C0 106.53 0 54.06 0 0 Z " fill="#0D1114" transform="translate(670,123)"/>
<path d="M0 0 C0.69294159 -0.00014603 1.38588318 -0.00029205 2.099823 -0.0004425 C4.38860207 0.00025376 6.67729961 0.00803279 8.96606445 0.01586914 C10.55361385 0.01773434 12.14116381 0.01915776 13.72871399 0.02015686 C17.9060729 0.02397405 22.08339702 0.03379753 26.26074219 0.04486084 C30.52383961 0.05509211 34.78694266 0.05965816 39.05004883 0.06469727 C47.41399708 0.0754205 55.77791706 0.09248736 64.1418457 0.11352539 C64.1418457 4.07352539 64.1418457 8.03352539 64.1418457 12.11352539 C42.3618457 12.11352539 20.5818457 12.11352539 -1.8581543 12.11352539 C-1.8581543 19.04352539 -1.8581543 25.97352539 -1.8581543 33.11352539 C-0.09705322 33.09781494 1.66404785 33.08210449 3.47851562 33.06591797 C9.30587218 33.01748658 15.13322179 32.98304564 20.96071911 32.95808887 C24.49297036 32.94245196 28.02500329 32.92125038 31.55712891 32.88720703 C35.62054507 32.84828936 39.68373291 32.83379992 43.74731445 32.82055664 C45.012061 32.80507278 46.27680756 32.78958893 47.57987976 32.77363586 C48.76072647 32.77340927 49.94157318 32.77318268 51.15820312 32.77294922 C52.19522873 32.76628738 53.23225433 32.75962555 54.30070496 32.75276184 C57.59500529 33.17106688 59.46309154 34.18676949 62.1418457 36.11352539 C65.73838826 40.94948138 64.51372317 48.03826207 64.51245117 53.8125 C64.51682518 56.04057212 64.55316882 58.26666272 64.59106445 60.49438477 C64.59693324 61.91820615 64.60090222 63.3420369 64.6027832 64.76586914 C64.61100098 66.05485107 64.61921875 67.34383301 64.62768555 68.671875 C64.05753749 72.71075798 63.03768201 74.28994176 60.1418457 77.11352539 C56.55636845 79.47389337 53.39517568 79.35555848 49.17016602 79.34057617 C48.4770784 79.34086823 47.78399078 79.34116028 47.06990051 79.34146118 C44.78646178 79.34007147 42.50335221 79.32452745 40.2199707 79.30883789 C38.63385191 79.30510648 37.04773081 79.30226011 35.46160889 79.30026245 C31.29243577 79.29263607 27.1234026 79.27299617 22.95428467 79.25085449 C18.69781385 79.2303746 14.44132037 79.22125615 10.18481445 79.21118164 C1.83708691 79.18974928 -6.51050015 79.15457529 -14.8581543 79.11352539 C-14.8581543 74.82352539 -14.8581543 70.53352539 -14.8581543 66.11352539 C7.2518457 66.11352539 29.3618457 66.11352539 52.1418457 66.11352539 C52.1418457 59.18352539 52.1418457 52.25352539 52.1418457 45.11352539 C50.32015869 45.13970947 48.49847168 45.16589355 46.62158203 45.19287109 C40.59468388 45.27358027 34.56793896 45.33098598 28.54066944 45.37258625 C24.88715678 45.39865234 21.2342301 45.43399316 17.58105469 45.49072266 C14.05375623 45.54515304 10.52702043 45.57496841 6.99933434 45.58791161 C5.00228168 45.60161178 3.00545464 45.64062833 1.00874329 45.68000793 C-9.09332598 45.68313279 -9.09332598 45.68313279 -12.16015625 42.83300781 C-15.85660835 36.91283816 -15.14636219 30.58585812 -15.20825195 23.7512207 C-15.23298981 21.7518197 -15.28960844 19.75289675 -15.34643555 17.75415039 C-15.44519167 6.9348683 -15.44519167 6.9348683 -12.5222168 3.26196289 C-8.34100325 -0.10998352 -5.22550359 -0.00924868 0 0 Z " fill="#181C1F" transform="translate(22.858154296875,557.886474609375)"/>
<path d="M0 0 C1.2650386 -0.00960754 2.53007721 -0.01921509 3.83345032 -0.02911377 C5.22124044 -0.03396205 6.60903265 -0.03824081 7.99682617 -0.04199219 C9.4168854 -0.04774432 10.8369446 -0.05350205 12.25700378 -0.05926514 C15.23709475 -0.06977644 18.21715873 -0.07561796 21.19726562 -0.07910156 C25.01052416 -0.08458053 28.82342457 -0.10859479 32.63657093 -0.13707352 C35.57143687 -0.15572686 38.50621711 -0.16090696 41.44113731 -0.16243744 C42.84652345 -0.16545945 44.25190824 -0.17347277 45.6572361 -0.18662262 C47.62688728 -0.20373421 49.5966862 -0.19995067 51.56640625 -0.1953125 C53.24613274 -0.20078094 53.24613274 -0.20078094 54.95979309 -0.20635986 C58.38828163 0.21118567 60.22663128 1.10186652 62.97729492 3.16113281 C65.44542658 6.86333029 65.21976687 8.69292032 65.2043457 13.11108398 C65.20463776 13.81377914 65.20492981 14.5164743 65.20523071 15.24046326 C65.203838 17.56180188 65.18827979 19.88281905 65.17260742 22.20410156 C65.16887708 23.81406987 65.16603021 25.42404045 65.16403198 27.03401184 C65.15639719 31.27060213 65.13675005 35.50705521 65.11462402 39.74359131 C65.09416227 44.06699772 65.08502956 48.39042631 65.07495117 52.71386719 C65.05350398 61.19635202 65.01936993 69.67872534 64.97729492 78.16113281 C61.01729492 78.16113281 57.05729492 78.16113281 52.97729492 78.16113281 C52.97729492 56.38113281 52.97729492 34.60113281 52.97729492 12.16113281 C46.04729492 12.16113281 39.11729492 12.16113281 31.97729492 12.16113281 C31.97729492 34.27113281 31.97729492 56.38113281 31.97729492 79.16113281 C28.01729492 79.16113281 24.05729492 79.16113281 19.97729492 79.16113281 C19.97729492 56.72113281 19.97729492 34.28113281 19.97729492 11.16113281 C13.04729492 11.16113281 6.11729492 11.16113281 -1.02270508 11.16113281 C-1.02270508 33.60113281 -1.02270508 56.04113281 -1.02270508 79.16113281 C-4.98270508 79.16113281 -8.94270508 79.16113281 -13.02270508 79.16113281 C-13.13861583 69.7295722 -13.22742848 60.29825719 -13.28176594 50.86613941 C-13.30784695 46.48626845 -13.34321688 42.10688519 -13.39990234 37.72729492 C-13.45427671 33.49974979 -13.48413687 29.27267338 -13.49709129 25.04480553 C-13.50632156 23.43282378 -13.52434666 21.82086736 -13.55135536 20.20908546 C-13.58772055 17.94880618 -13.59264772 15.69045696 -13.59033203 13.42993164 C-13.60143509 12.14419754 -13.61253815 10.85846344 -13.62397766 9.5337677 C-12.86672071 5.28619135 -11.31956006 3.84519048 -8.02270508 1.16113281 C-5.27949365 -0.2104729 -3.07050656 0.01876217 0 0 Z " fill="#13171A" transform="translate(170.022705078125,557.8388671875)"/>
<path d="M0 0 C0.69308762 -0.00029205 1.38617523 -0.00058411 2.1002655 -0.00088501 C4.38370423 0.0005047 6.66681381 0.01604872 8.95019531 0.03173828 C10.5363141 0.03546969 12.12243521 0.03831606 13.70855713 0.04031372 C17.87773024 0.0479401 22.04676342 0.06758 26.21588135 0.08972168 C30.47235216 0.11020157 34.72884565 0.11932002 38.98535156 0.12939453 C47.33307194 0.15082687 55.68067871 0.18495076 64.02832031 0.22705078 C64.02832031 4.18705078 64.02832031 8.14705078 64.02832031 12.22705078 C42.24832031 12.22705078 20.46832031 12.22705078 -1.97167969 12.22705078 C-1.97167969 19.15705078 -1.97167969 26.08705078 -1.97167969 33.22705078 C-0.2461084 33.21134033 1.47946289 33.19562988 3.25732422 33.17944336 C8.97291912 33.13097365 14.68848439 33.09655377 20.40423012 33.07161427 C23.86807409 33.05599037 27.33169471 33.03481283 30.79541016 33.00073242 C34.7818734 32.96175618 38.76824771 32.94731441 42.75488281 32.93408203 C43.9925943 32.91859818 45.23030579 32.90311432 46.50552368 32.88716125 C57.43248931 32.88502817 57.43248931 32.88502817 62.02832031 36.22705078 C64.42804387 39.82663611 64.31820235 42.44110937 64.29394531 46.59814453 C64.29585876 47.31688248 64.29777222 48.03562042 64.29974365 48.77613831 C64.30110348 50.29501699 64.29742111 51.81390738 64.2890625 53.33276367 C64.27837532 55.65261089 64.28895607 57.971681 64.30175781 60.29150391 C64.30043587 61.76871915 64.29787277 63.24593392 64.29394531 64.72314453 C64.29799377 65.41492294 64.30204224 66.10670135 64.30621338 66.81944275 C64.271182 70.43520149 64.14909229 73.22763537 62.02832031 76.22705078 C58.30671285 78.70812242 56.43085599 78.4694003 51.98657227 78.45410156 C51.27412354 78.45439362 50.5616748 78.45468567 49.82763672 78.45498657 C47.47383424 78.45359374 45.12034871 78.43803497 42.76660156 78.42236328 C41.13421298 78.41863298 39.50182216 78.41578609 37.86943054 78.41378784 C33.57365738 78.40615272 29.27801952 78.3865053 24.9822998 78.36437988 C20.59857005 78.34391883 16.21481843 78.33478557 11.83105469 78.32470703 C3.23008115 78.30325927 -5.37078244 78.26912482 -13.97167969 78.22705078 C-13.97167969 74.26705078 -13.97167969 70.30705078 -13.97167969 66.22705078 C8.13832031 66.22705078 30.24832031 66.22705078 53.02832031 66.22705078 C53.02832031 59.29705078 53.02832031 52.36705078 53.02832031 45.22705078 C51.2066333 45.24799805 49.38494629 45.26894531 47.50805664 45.29052734 C41.48113231 45.35509497 35.45430606 45.40101984 29.42714405 45.43429947 C25.77374216 45.45515171 22.12071534 45.48342486 18.4675293 45.52880859 C14.94025182 45.57235264 11.41333451 45.59620567 7.88580894 45.60655975 C5.88882432 45.61751952 3.89198408 45.64873226 1.8952179 45.68023682 C0.67432968 45.68053894 -0.54655853 45.68084106 -1.80444336 45.68115234 C-3.41327644 45.69447601 -3.41327644 45.69447601 -5.05461121 45.70806885 C-8.71074123 45.10518119 -10.36294924 43.81429703 -12.97167969 41.22705078 C-14.70280409 36.03367759 -14.19714576 30.46795872 -14.21191406 25.03076172 C-14.22161433 22.86663293 -14.25264736 20.70345659 -14.28417969 18.53955078 C-14.29071096 17.1567439 -14.29596095 15.77393025 -14.29980469 14.39111328 C-14.31382324 12.51093506 -14.31382324 12.51093506 -14.328125 10.59277344 C-13.93985733 6.92656924 -13.25282123 5.09876454 -10.97167969 2.22705078 C-7.41484876 -0.1590116 -4.20426247 -0.01490873 0 0 Z " fill="#14181B" transform="translate(582.9716796875,557.77294921875)"/>
<path d="M0 0 C4.29 0 8.58 0 13 0 C13 10.89 13 21.78 13 33 C30.82 33 48.64 33 67 33 C67 22.11 67 11.22 67 0 C70.63 0 74.26 0 78 0 C78.11591075 9.43156061 78.2047234 18.86287562 78.25906086 28.2949934 C78.28514188 32.67486436 78.3205118 37.05424762 78.37719727 41.43383789 C78.43157163 45.66138302 78.46143179 49.88845943 78.47438622 54.11632729 C78.48361648 55.72830903 78.50164159 57.34026545 78.52865028 58.95204735 C78.56501547 61.21232664 78.56994264 63.47067585 78.56762695 65.73120117 C78.57873001 67.01693527 78.58983307 68.30266937 78.60127258 69.62736511 C77.84401563 73.87494146 76.29685498 75.31594233 73 78 C70.07917545 79.46041228 67.51698631 79.11928796 64.25537109 79.11352539 C63.21617775 79.11374443 63.21617775 79.11374443 62.1559906 79.1139679 C59.86177459 79.11327018 57.56763936 79.10548442 55.2734375 79.09765625 C53.68445887 79.09579157 52.09547966 79.0943679 50.50650024 79.09336853 C46.32090675 79.08954731 42.13534787 79.07972039 37.94976807 79.06866455 C33.68005847 79.05844194 29.4103433 79.05386909 25.140625 79.04882812 C16.760399 79.03809778 8.38020779 79.02050416 0 79 C0 74.71 0 70.42 0 66 C22.11 66 44.22 66 67 66 C67 59.07 67 52.14 67 45 C65.17831299 45.02618408 63.35662598 45.05236816 61.47973633 45.0793457 C55.45283818 45.16005488 49.42609325 45.21746059 43.39882374 45.25906086 C39.74531107 45.28512695 36.0923844 45.32046776 32.43920898 45.37719727 C28.91191052 45.43162765 25.38517473 45.46144302 21.85748863 45.47438622 C19.86043598 45.48808639 17.86360894 45.52710294 15.86689758 45.56648254 C5.76764208 45.56960653 5.76764208 45.56960653 2.69799805 42.59448242 C-0.22940063 38.12151826 -0.13054164 34.72247193 -0.09765625 29.4921875 C-0.0962413 28.65156769 -0.09482635 27.81094788 -0.09336853 26.94485474 C-0.08776237 24.25486725 -0.07520886 21.56496241 -0.0625 18.875 C-0.05748579 17.05338662 -0.05292275 15.23177193 -0.04882812 13.41015625 C-0.03779094 8.94007223 -0.0205222 4.47005014 0 0 Z " fill="#171C1F" transform="translate(459,558)"/>
<path d="M0 0 C4.29 0 8.58 0 13 0 C13 10.89 13 21.78 13 33 C30.82 33 48.64 33 67 33 C67 22.11 67 11.22 67 0 C70.96 0 74.92 0 79 0 C79 25.74 79 51.48 79 78 C75.04 78 71.08 78 67 78 C67 67.11 67 56.22 67 45 C48.85 45 30.7 45 12 45 C12 56.22 12 67.44 12 79 C8.04 79 4.08 79 0 79 C0 52.93 0 26.86 0 0 Z " fill="#14181B" transform="translate(1433,558)"/>
<path d="M0 0 C1.03919334 -0.00021904 1.03919334 -0.00021904 2.09938049 -0.0004425 C4.3935965 0.00025521 6.68773173 0.00804097 8.98193359 0.01586914 C10.57091223 0.01773382 12.15989144 0.01915749 13.74887085 0.02015686 C17.93446434 0.02397808 22.12002323 0.033805 26.30560303 0.04486084 C30.57531262 0.05508345 34.8450278 0.0596563 39.11474609 0.06469727 C47.49497032 0.07542761 55.87516641 0.09249931 64.25537109 0.11352539 C64.25537109 4.07352539 64.25537109 8.03352539 64.25537109 12.11352539 C42.47537109 12.11352539 20.69537109 12.11352539 -1.74462891 12.11352539 C-1.74462891 29.93352539 -1.74462891 47.75352539 -1.74462891 66.11352539 C20.03537109 66.11352539 41.81537109 66.11352539 64.25537109 66.11352539 C64.25537109 70.40352539 64.25537109 74.69352539 64.25537109 79.11352539 C55.23213792 79.18138233 46.20907505 79.23638819 37.18564415 79.26896191 C32.99541089 79.284598 28.80536171 79.30579845 24.61523438 79.33984375 C20.56926293 79.37251092 16.52346821 79.39039388 12.47737503 79.39815712 C10.93604374 79.40368746 9.3947218 79.41448693 7.85346603 79.43071556 C5.68953524 79.45258832 3.52632877 79.45548831 1.36230469 79.45410156 C0.13208588 79.4607634 -1.09813293 79.46742523 -2.3656311 79.47428894 C-6.14724772 79.07053922 -8.52558016 78.11426798 -11.74462891 76.11352539 C-14.12440281 72.54386453 -14.01241197 70.94258255 -14.05102539 66.7019043 C-14.05934891 66.05600845 -14.06767242 65.41011261 -14.07624817 64.74464417 C-14.10034036 62.60973072 -14.10911919 60.47512286 -14.11572266 58.34008789 C-14.12468983 56.85419626 -14.13381169 55.36830555 -14.14308167 53.88241577 C-14.15957222 50.76704718 -14.16727183 47.65178607 -14.17016602 44.53637695 C-14.17554913 40.54911526 -14.21322411 36.56286705 -14.25891018 32.57589149 C-14.28869035 29.50632055 -14.29588976 26.43699334 -14.29689217 23.3672905 C-14.30109288 21.89768203 -14.31352151 20.42807274 -14.33440971 18.95860672 C-14.36134704 16.89963078 -14.35649538 14.84299922 -14.34399414 12.78393555 C-14.34906479 11.61383942 -14.35413544 10.44374329 -14.35935974 9.2381897 C-13.56207489 5.18560703 -11.87659518 3.71056571 -8.74462891 1.11352539 C-5.82380435 -0.34688689 -3.26161522 -0.00576257 0 0 Z " fill="#191D20" transform="translate(1063.74462890625,557.886474609375)"/>
<path d="M0 0 C1.24179016 -0.00960754 2.48358032 -0.01921509 3.76300049 -0.02911377 C5.12552711 -0.03396262 6.48805586 -0.03824123 7.85058594 -0.04199219 C9.24582928 -0.04774502 10.64107261 -0.05350274 12.03631592 -0.05926514 C14.96513233 -0.06977735 17.89392128 -0.07561801 20.82275391 -0.07910156 C24.56641499 -0.0845752 28.30971033 -0.10857757 32.05325699 -0.13707352 C34.93755125 -0.15574959 37.82175848 -0.16090821 40.70610809 -0.16243744 C42.08554831 -0.16545524 43.46498732 -0.17345427 44.84436798 -0.18662262 C46.78028605 -0.20377887 48.7163552 -0.19994427 50.65234375 -0.1953125 C51.7521759 -0.19895813 52.85200806 -0.20260376 53.98516846 -0.20635986 C57.60682852 0.22300228 59.98295095 1.26410418 63.08496094 3.16113281 C65.56603258 6.88274027 65.32731046 8.75859714 65.31201172 13.20288086 C65.31230377 13.91532959 65.31259583 14.62777832 65.31289673 15.36181641 C65.3115039 17.71561888 65.29594513 20.06910442 65.28027344 22.42285156 C65.27654314 24.05524014 65.27369624 25.68763096 65.271698 27.32002258 C65.26406288 31.61579575 65.24441546 35.9114336 65.22229004 40.20715332 C65.20182899 44.59088307 65.19269573 48.97463469 65.18261719 53.35839844 C65.16116943 61.95937198 65.12703498 70.56023556 65.08496094 79.16113281 C61.12496094 79.16113281 57.16496094 79.16113281 53.08496094 79.16113281 C53.08496094 57.05113281 53.08496094 34.94113281 53.08496094 12.16113281 C35.26496094 12.16113281 17.44496094 12.16113281 -0.91503906 12.16113281 C-0.91503906 34.27113281 -0.91503906 56.38113281 -0.91503906 79.16113281 C-4.87503906 79.16113281 -8.83503906 79.16113281 -12.91503906 79.16113281 C-13.03094981 69.7295722 -13.11976246 60.29825719 -13.17409992 50.86613941 C-13.20018094 46.48626845 -13.23555087 42.10688519 -13.29223633 37.72729492 C-13.34661069 33.49974979 -13.37647086 29.27267338 -13.38942528 25.04480553 C-13.39865554 23.43282378 -13.41668065 21.82086736 -13.44368935 20.20908546 C-13.48005453 17.94880618 -13.4849817 15.69045696 -13.48266602 13.42993164 C-13.49376907 12.14419754 -13.50487213 10.85846344 -13.51631165 9.5337677 C-12.7590547 5.28619135 -11.21189404 3.84519048 -7.91503906 1.16113281 C-5.19772839 -0.19752252 -3.04212832 0.01894102 0 0 Z " fill="#161A1D" transform="translate(955.9150390625,557.8388671875)"/>
<path d="M0 0 C1.03919334 -0.00021904 1.03919334 -0.00021904 2.09938049 -0.0004425 C4.3935965 0.00025521 6.68773173 0.00804097 8.98193359 0.01586914 C10.57091223 0.01773382 12.15989144 0.01915749 13.74887085 0.02015686 C17.93446434 0.02397808 22.12002323 0.033805 26.30560303 0.04486084 C30.57531262 0.05508345 34.8450278 0.0596563 39.11474609 0.06469727 C47.49497032 0.07542761 55.87516641 0.09249931 64.25537109 0.11352539 C64.25537109 4.07352539 64.25537109 8.03352539 64.25537109 12.11352539 C42.47537109 12.11352539 20.69537109 12.11352539 -1.74462891 12.11352539 C-1.74462891 29.93352539 -1.74462891 47.75352539 -1.74462891 66.11352539 C20.03537109 66.11352539 41.81537109 66.11352539 64.25537109 66.11352539 C64.25537109 70.07352539 64.25537109 74.03352539 64.25537109 78.11352539 C54.8065022 78.20619638 45.35778967 78.27727539 35.90856552 78.32077408 C31.52091167 78.3416511 27.13356868 78.36997049 22.74609375 78.4152832 C18.51208693 78.4587374 14.27837916 78.48266163 10.04416656 78.49303436 C8.42859438 78.50042656 6.8130386 78.51486189 5.19759369 78.53644562 C2.93491727 78.56547521 0.67347715 78.56948177 -1.58935547 78.56762695 C-3.52128754 78.58095062 -3.52128754 78.58095062 -5.49224854 78.59454346 C-9.30200422 78.03109112 -10.42902848 77.11912487 -12.74462891 74.11352539 C-14.13629644 71.33019033 -13.90276317 69.02145007 -13.9375 65.90722656 C-13.95356293 64.60214645 -13.96962585 63.29706635 -13.98617554 61.95243835 C-13.99766234 60.52046356 -14.00827099 59.0884815 -14.01806641 57.65649414 C-14.02339008 56.93641993 -14.02871376 56.21634571 -14.03419876 55.47445107 C-14.06092567 51.6626657 -14.08030147 47.85091304 -14.09472656 44.0390625 C-14.11136874 40.10450725 -14.1561426 36.17079058 -14.20709801 32.23655224 C-14.24077763 29.20904087 -14.25230465 26.18172835 -14.25795364 23.15404701 C-14.26466488 21.70395821 -14.279884 20.25388243 -14.30384445 18.80397606 C-14.335503 16.77221716 -14.33253057 14.74000857 -14.328125 12.70800781 C-14.33621185 11.55266037 -14.34429871 10.39731293 -14.35263062 9.20695496 C-13.56006371 5.17448292 -11.85797278 3.69984237 -8.74462891 1.11352539 C-5.82380435 -0.34688689 -3.26161522 -0.00576257 0 0 Z " fill="#14181B" transform="translate(690.74462890625,557.886474609375)"/>
<path d="M0 0 C1.03919334 -0.00021904 1.03919334 -0.00021904 2.09938049 -0.0004425 C4.3935965 0.00025521 6.68773173 0.00804097 8.98193359 0.01586914 C10.57091223 0.01773382 12.15989144 0.01915749 13.74887085 0.02015686 C17.93446434 0.02397808 22.12002323 0.033805 26.30560303 0.04486084 C30.57531262 0.05508345 34.8450278 0.0596563 39.11474609 0.06469727 C47.49497032 0.07542761 55.87516641 0.09249931 64.25537109 0.11352539 C64.25537109 4.07352539 64.25537109 8.03352539 64.25537109 12.11352539 C42.47537109 12.11352539 20.69537109 12.11352539 -1.74462891 12.11352539 C-1.74462891 29.93352539 -1.74462891 47.75352539 -1.74462891 66.11352539 C20.03537109 66.11352539 41.81537109 66.11352539 64.25537109 66.11352539 C64.25537109 70.07352539 64.25537109 74.03352539 64.25537109 78.11352539 C54.82385618 78.25261762 45.39269489 78.35919209 35.96037769 78.42439842 C31.58039406 78.45569645 27.20111266 78.49813972 22.8215332 78.56616211 C18.59396669 78.63141168 14.36707504 78.66724294 10.13904381 78.68278885 C8.52702904 78.69386539 6.91505075 78.7154964 5.30332375 78.74790573 C3.04279774 78.79154872 0.78505024 78.79745699 -1.47583008 78.79467773 C-3.40443123 78.81466324 -3.40443123 78.81466324 -5.37199402 78.83505249 C-8.74462891 78.11352539 -8.74462891 78.11352539 -11.65849304 75.48722839 C-13.97542799 71.74027666 -14.37644124 69.81329167 -14.39160156 65.453125 C-14.40736237 64.14834702 -14.42312317 62.84356903 -14.43936157 61.49925232 C-14.43041218 60.08811594 -14.42015729 58.67698732 -14.40869141 57.26586914 C-14.41206313 55.8066823 -14.41691871 54.3474982 -14.42318726 52.88832092 C-14.43053971 49.83770881 -14.41990561 46.7878311 -14.39648438 43.73730469 C-14.36797038 39.83404439 -14.38442479 35.93250118 -14.41434669 32.02930355 C-14.43244318 29.0188358 -14.42665171 26.00877309 -14.41370773 22.99829292 C-14.41038144 21.55943153 -14.41443352 20.12053291 -14.4261055 18.68171501 C-14.43885184 16.66932793 -14.41596736 14.65681119 -14.39160156 12.64453125 C-14.3876236 11.50124863 -14.38364563 10.357966 -14.37954712 9.18003845 C-13.55201612 5.18324871 -11.8337554 3.68840539 -8.74462891 1.11352539 C-5.82380435 -0.34688689 -3.26161522 -0.00576257 0 0 Z " fill="#171B1E" transform="translate(1334.74462890625,557.886474609375)"/>
<path d="M0 0 C4.95104491 3.57857866 9.37674222 8.21863827 11.6875 13.9375 C12.68689127 22.41285715 11.21734713 28.91122561 5.9375 35.6875 C1.94411235 40.01124089 -1.60969554 41.69489682 -7.40234375 42.21484375 C-13.77174945 42.39724368 -18.88980927 42.40802207 -24.3125 38.9375 C-29.19061407 34.30980246 -32.78863984 29.9353802 -33.68359375 23.10546875 C-33.84244667 15.97577597 -33.11002098 11.33772462 -28.3125 5.9375 C-20.97913818 -1.70283976 -9.86253474 -5.75472276 0 0 Z " fill="#BCE302" transform="translate(235.3125,2.0625)"/>
<path d="M0 0 C4.29 0 8.58 0 13 0 C13 21.78 13 43.56 13 66 C26.86 66 40.72 66 55 66 C55 69.96 55 73.92 55 78 C48.11326645 78.12366365 41.22718013 78.21437198 34.33959961 78.2746582 C31.99703716 78.29979125 29.65455305 78.33390308 27.31225586 78.37719727 C23.94365101 78.43789928 20.57608351 78.46622251 17.20703125 78.48828125 C15.63801811 78.52699089 15.63801811 78.52699089 14.03730774 78.56648254 C6.76242676 78.56928418 6.76242676 78.56928418 2.86206055 75.65698242 C-0.10385195 71.42490878 -0.12260486 68.29090453 -0.11352539 63.23364258 C-0.11367142 62.55045456 -0.11381744 61.86726654 -0.1139679 61.16337585 C-0.11327169 58.90706193 -0.10549296 56.65083074 -0.09765625 54.39453125 C-0.09579103 52.82940211 -0.09436762 51.26427239 -0.09336853 49.69914246 C-0.08955152 45.58096707 -0.07972818 41.46282698 -0.06866455 37.34466553 C-0.05843291 33.14189125 -0.05386715 28.93911127 -0.04882812 24.73632812 C-0.03810519 16.49086742 -0.02051498 8.24544217 0 0 Z " fill="#1A1E21" transform="translate(372,558)"/>
<path d="M0 0 C23.1 0 46.2 0 70 0 C70 5.61 70 11.22 70 17 C46.9 17 23.8 17 0 17 C0 11.39 0 5.78 0 0 Z " fill="#F7F7F8" transform="translate(1397,379)"/>
<path d="M0 0 C23.1 0 46.2 0 70 0 C70 5.61 70 11.22 70 17 C46.9 17 23.8 17 0 17 C0 11.39 0 5.78 0 0 Z " fill="#F7F7F8" transform="translate(895,379)"/>
<path d="M0 0 C17.82 0 35.64 0 54 0 C54 6.93 54 13.86 54 21 C36.18 21 18.36 21 0 21 C0 14.07 0 7.14 0 0 Z " fill="#FFFFFF" transform="translate(1175,570)"/>
<path d="M0 0 C17.82 0 35.64 0 54 0 C54 6.93 54 13.86 54 21 C36.18 21 18.36 21 0 21 C0 14.07 0 7.14 0 0 Z " fill="#FFFFFF" transform="translate(843,570)"/>
<path d="M0 0 C17.82 0 35.64 0 54 0 C54 6.93 54 13.86 54 21 C36.18 21 18.36 21 0 21 C0 14.07 0 7.14 0 0 Z " fill="#FFFFFF" transform="translate(276,570)"/>
<path d="M0 0 C3.96 0 7.92 0 12 0 C12 25.74 12 51.48 12 78 C8.04 78 4.08 78 0 78 C0 52.26 0 26.52 0 0 Z " fill="#0F1316" transform="translate(117,558)"/>
<path d="M0 0 C3.63 0 7.26 0 11 0 C11 25.41 11 50.82 11 77 C7.37 77 3.74 77 0 77 C0 51.59 0 26.18 0 0 Z " fill="#0C1013" transform="translate(791,559)"/>
<path d="M0 0 C4.38253554 2.19126777 7.16669816 4.41674539 9 9 C9.70599788 13.70665253 9.45316426 17.0588127 7.375 21.375 C3.76076668 25.36967893 0.35559774 27.1206612 -5 27.4375 C-9.24630623 27.25887909 -11.76068611 25.7873166 -15 23 C-18.16205748 19.31093294 -18.52383784 15.92109268 -18.3515625 11.21484375 C-17.63443905 6.69696599 -15.18268822 4.01373276 -11.8125 1.125 C-7.79880044 -0.48047982 -4.26304489 -0.67667379 0 0 Z " fill="#BDE304" transform="translate(185,41)"/>
<path d="M0 0 C2.97551795 1.77603298 5.42755188 3.85510377 7 7 C7.34708476 12.29304255 7.51351894 15.73358414 4 20 C-0.19607564 22.54090721 -4.21235424 22.71686675 -9 22 C-11.87029869 20.20606332 -13.49131638 19.01736724 -15 16 C-15.64060222 10.82942493 -15.89905059 7.19063457 -12.6875 2.9375 C-8.46215553 -0.10867857 -5.13724549 -0.52243174 0 0 Z " fill="#BCE303" transform="translate(206,82)"/>
<path d="M0 0 C3.96 0 7.92 0 12 0 C12 6.6 12 13.2 12 20 C8.04 20 4.08 20 0 20 C0 13.4 0 6.8 0 0 Z " fill="#1A1F22" transform="translate(1275,624)"/>
</svg>
