<?xml version="1.0" encoding="UTF-8" standalone="no"?>
<svg
   id="Ebene_15"
   data-name="Ebene 15"
   viewBox="0 0 454.82819 76.663383"
   version="1.1"
   sodipodi:docname="logo_internet_abc.svg"
   width="454.82819"
   height="76.663383"
   inkscape:version="1.2.2 (b0a8486541, 2022-12-01)"
   xmlns:inkscape="http://www.inkscape.org/namespaces/inkscape"
   xmlns:sodipodi="http://sodipodi.sourceforge.net/DTD/sodipodi-0.dtd"
   xmlns="http://www.w3.org/2000/svg"
   xmlns:svg="http://www.w3.org/2000/svg">
  <sodipodi:namedview
     id="namedview414"
     pagecolor="#ffffff"
     bordercolor="#000000"
     borderopacity="0.25"
     inkscape:showpageshadow="2"
     inkscape:pageopacity="0.0"
     inkscape:pagecheckerboard="0"
     inkscape:deskcolor="#d1d1d1"
     showgrid="false"
     inkscape:zoom="2.62"
     inkscape:cx="227.48092"
     inkscape:cy="38.740458"
     inkscape:window-width="1854"
     inkscape:window-height="1011"
     inkscape:window-x="0"
     inkscape:window-y="0"
     inkscape:window-maximized="1"
     inkscape:current-layer="Ebene_15" />
  <defs
     id="defs262">
    <style
       id="style260">
      .cls-1 {
        fill: #f5b1b5;
      }

      .cls-1, .cls-2, .cls-3, .cls-4, .cls-5, .cls-6, .cls-7, .cls-8, .cls-9, .cls-10, .cls-11, .cls-12, .cls-13, .cls-14, .cls-15, .cls-16 {
        stroke-width: 0px;
      }

      .cls-2 {
        fill: #fdca17;
      }

      .cls-3 {
        fill: #e47a2f;
      }

      .cls-4 {
        fill: #f9b000;
      }

      .cls-5 {
        fill: #e42624;
      }

      .cls-6 {
        fill: #dfb430;
      }

      .cls-7 {
        fill: #ffec00;
      }

      .cls-8 {
        fill: #e84e0f;
      }

      .cls-9 {
        fill: #e3c12c;
      }

      .cls-10 {
        fill: #fdf0ec;
      }

      .cls-11 {
        fill: #1d1d1b;
      }

      .cls-12 {
        fill: #f6a500;
      }

      .cls-13 {
        fill: #815e50;
      }

      .cls-14 {
        fill: #e8d9d6;
      }

      .cls-15 {
        fill: #009640;
      }

      .cls-16 {
        fill: #fff;
      }
    </style>
  </defs>
  <g
     id="Internet-ABC"
     transform="translate(-22.591813,-86.672713)">
    <g
       id="g410">
      <path
         class="cls-11"
         d="m 75.81,90.45 c -2.36,-1.06 -5,-1.81 -7.87,-2.19 l -4.56,0.46 v 0.06 c 0,0 -0.18,-0.05 -0.18,-0.05 l -7.59,0.63 -0.07,-0.18 4.35,17.2 h 0.06 c 0,0 1.03,0.5 1.03,0.5 v 0.24 c -0.06,-0.12 -0.06,-0.18 0,-0.24 l -1.03,-0.5 h -0.06 c 0,0 -4.35,-17.2 -4.35,-17.2 h 0.06 c 0,0 0,0.18 0,0.18 l 7.59,-0.63 h 0.18 c 0,0 4.56,-0.47 4.56,-0.47 C 61.36,87.29 55.67,87.91 50.81,90 42.67,93.47 36,98.32 30.75,104.51 c -1.37,1.55 -2.44,3.33 -3.21,5.22 -1.76,4.08 -3.03,8.51 -3.81,13.28 l 1.58,7.87 h 0.18 c 0,0 -0.18,0 -0.18,0 l -1.58,-7.87 c -0.19,8.11 1.05,14.61 3.78,19.62 4.13,7.54 9.98,13.22 17.54,17.1 3.69,1.91 8.13,3.08 13.32,3.5 4.05,0.28 7.97,0.02 11.74,-0.95 1.48,-0.35 2.95,-0.76 4.29,-1.29 l -7.75,1.17 v 0.24 c 0,0 -3.32,-16.88 -3.32,-16.88 h -0.06 c 0,0 0.06,0 0.06,0 l 3.33,16.88 v -0.24 c 0,0 7.74,-1.17 7.74,-1.17 7.16,-2.53 12.79,-6.51 16.94,-11.88 1.25,-1.66 2.44,-3.33 3.63,-5.11 0.45,-0.68 0.84,-1.41 1.23,-2.15 1.56,-3 2.5,-6.57 2.96,-10.67 l -0.87,-4.59 -11.89,-1.63 -0.18,-0.05 h 0.18 c 0,0 0,0.05 0,0.05 l 11.89,1.63 v -0.18 c 0,0 0,0.18 0,0.18 l 0.87,4.59 c 0.4,-3.98 0.2,-7.81 -0.64,-11.45 -0.85,-3.75 -1.97,-7.14 -3.45,-10.27 -1.03,-2.25 -2.23,-4.31 -3.55,-6.24 -1.57,-2.23 -3.3,-4.21 -5.2,-5.94 C 83.31,94.5 79.84,92.22 75.8,90.44"
         id="path264" />
      <path
         class="cls-11"
         d="m 74.66,89.3 c -2.36,-1.06 -5,-1.81 -7.92,-2.18 -6.57,-0.97 -12.26,-0.35 -17.06,1.74 -8.14,3.47 -14.81,8.32 -20.06,14.51 l 0.3,1.85 C 36.06,97.14 43.89,91.58 53.47,88.48 l 1,-0.27 -0.07,-0.18 c 2.36,-0.44 4.91,-0.59 7.59,-0.45 h 0.18 c 0,0 0,0.05 0,0.05 -1.19,3.22 -2.2,6.68 -3.03,10.25 l -0.05,0.18 v -0.12 c -1.72,-3.06 -3.26,-6.31 -4.63,-9.75 l -1,0.27 4.71,10.64 -0.99,0.46 c -0.18,0 -0.36,0.07 -0.47,0.14 -0.18,0 -0.29,0.07 -0.47,0.14 l -3.11,1.07 c -0.76,0.33 -1.53,0.59 -2.23,0.92 l -0.23,0.13 c -0.12,0.06 -0.18,0.13 -0.23,0.13 -0.53,0.26 -1,0.46 -1.4,0.71 l -0.12,0.06 c -0.12,0.06 -0.23,0.13 -0.29,0.19 l -0.18,0.07 -4.76,3.17 c -0.06,0.12 -0.17,0.19 -0.29,0.25 l -0.06,0.06 -4.87,5.1 0.72,0.15 c 2.22,-2.78 4.99,-5.1 8.2,-6.95 l 0.18,-0.07 c 0.32,0.59 0.69,1.12 1.07,1.64 0.06,0.12 0.13,0.24 0.19,0.42 l 0.12,0.17 c 0.06,0.12 0.13,0.23 0.25,0.35 l 0.76,-0.45 c -0.06,-0.12 -0.13,-0.24 -0.19,-0.36 -0.12,-0.17 -0.25,-0.35 -0.32,-0.59 -0.32,-0.53 -0.63,-1.06 -0.89,-1.65 l -0.07,-0.18 c 2.75,-1.36 5.68,-2.48 8.86,-3.43 0.35,-0.07 0.71,-0.15 1.12,-0.16 l 1.12,-0.22 c 3.73,-0.37 6.9,0.12 9.5,1.47 0.36,0.17 0.73,0.39 1.09,0.62 h 0.18 c 0,0 0.97,0.56 0.97,0.56 3.57,1.8 6.46,4.46 8.6,7.81 l 0.07,0.18 0.45,0.95 c 2.52,2.37 4.07,5.86 4.64,10.4 l 0.11,1.38 v 0.06 c 0,5.1 -1.04,9.34 -3.12,12.6 0,0 -0.06,0.06 -0.05,0.18 v -0.06 c -3.28,-1.87 -6.55,-3.73 -9.83,-5.66 l 0.04,1.02 c 3.04,1.81 6.01,3.57 8.93,5.45 h 0.18 c 0,0 -0.06,0.06 -0.06,0.06 -2.09,3.26 -4.91,5.88 -8.28,7.92 l -0.18,0.07 -0.81,0.45 0.06,0.12 c -2.43,1.95 -5.61,2.72 -9.61,2.38 -0.06,0 -0.06,-0.12 -0.07,-0.3 1.03,-4.48 1.7,-9.31 2.11,-14.48 h 0.06 c 2.35,4.24 4.81,8.36 7.45,12.29 l 0.81,-0.45 -0.12,-0.18 c -2.88,-4.1 -5.54,-8.63 -7.9,-13.41 h -0.12 c 0,0 -1.15,-0.56 -1.15,-0.56 -0.32,4.46 -0.76,8.79 -1.32,13.14 H 62.1 C 61.84,138.69 61.4,133 60.97,127.49 l -0.07,-0.18 0.12,0.11 -1.33,-0.55 c 0.38,0.53 0.58,1.3 0.68,2.38 0.09,2.7 0.25,5.39 0.4,8.09 0.09,2.7 0.08,5.58 0,8.47 -1.13,-5 -2.19,-9.95 -3.32,-14.95 v -0.18 c 0.66,-1.23 1.39,-2.51 2.06,-3.74 l 0.05,-0.18 -0.8,-0.81 c -0.26,1.15 -0.81,2.31 -1.72,3.48 l -0.05,0.12 c -0.83,0.03 -1.79,-0.18 -2.82,-0.56 l -0.06,-0.12 c 1.57,-0.95 3.08,-1.97 4.53,-2.98 l -1.03,-0.38 c -1.63,1.08 -3.19,2.15 -4.88,3.17 l -0.14,1.21 c 1.25,0.13 2.39,0.33 3.47,0.72 v 0.12 c -2.26,5 -4.88,9.96 -7.79,14.92 l -0.05,0.18 0.78,0.21 c 2.46,-4.47 4.92,-8.88 7.5,-13.23 l 0.05,-0.18 v 0.18 c 1.38,5.36 2.76,10.77 4.14,16.07 v 0.18 c -4.86,0.11 -8.76,-0.83 -11.63,-2.9 L 49,146.04 48.22,145.83 c -3.62,-1.49 -6.56,-3.85 -8.63,-7.02 v -0.18 c 0,0 -0.45,-0.76 -0.45,-0.76 h -0.18 c -2.35,-2.55 -3.61,-6.35 -3.67,-11.39 l -1.13,0.04 c 0.48,5.39 1.94,9.72 4.32,13 0.56,0.76 1.18,1.46 1.86,2.16 0.12,0.06 0.18,0.17 0.31,0.23 2.52,2.31 5.44,4.25 8.71,5.76 3.56,1.56 7.4,2.44 11.56,2.54 -0.77,3.57 -1.83,7.21 -3.18,10.92 l 1.11,-0.4 c 0.96,-3.15 1.98,-6.19 3.07,-9.17 l 0.05,-0.18 0.06,0.12 c 1.35,2.95 2.53,6.16 3.49,9.54 v 0.24 c -2.6,0.27 -4.8,0.11 -6.61,-0.43 l -0.07,-0.12 -1.11,0.4 v 0.18 c -10.02,-1.09 -17.87,-4.66 -23.43,-10.59 -3.03,-3.2 -5.47,-6.89 -7.47,-11.15 -1.22,-2.6 -2.16,-5.51 -2.8,-8.67 l 0.14,-1.15 c -0.3,-1.79 -0.54,-3.52 -0.72,-5.38 v -0.18 c 0.12,-1.39 1,-1.72 2.52,-0.99 2.05,0.83 4.27,1.53 6.61,2.05 0.3,0.05 0.54,0.1 0.78,0.15 -0.23,0.13 -0.47,0.26 -0.76,0.39 -2.69,1.36 -5.44,2.65 -8.24,3.95 h -0.18 c 0,0 -0.14,1.15 -0.14,1.15 2.8,-1.36 5.67,-2.66 8.6,-3.84 0.47,-0.14 0.94,-0.33 1.35,-0.53 h 0.18 c 0,0 1.13,-0.05 1.13,-0.05 v -0.18 c 0,0 0.05,0 0.05,0 5.39,1.01 10.66,2.15 15.93,3.34 v 0.12 c -4.25,2.55 -8.26,5.21 -12.14,8.11 l 0.44,0.76 c 4.12,-3.03 8.47,-5.94 13.02,-8.62 v -0.12 c 0,0 0.13,-1.21 0.13,-1.21 l -0.18,0.07 C 48.43,128.16 44.23,127.29 40.09,126 v -0.12 c 5.76,-0.2 11.57,-0.41 17.52,-0.49 v 0.12 c 0,0 1.03,0.38 1.03,0.38 l 0.12,-0.06 v 0.12 c 0,0 0.81,0.81 0.81,0.81 l 0.06,0.12 h 0.06 c 0,0 1.33,0.55 1.33,0.55 1.05,0.98 1.86,2.28 2.39,3.82 h 0.12 c 0,0 1.15,0.56 1.15,0.56 l -0.05,-1.56 v -0.18 c 0,0 -0.98,-0.75 -0.98,-0.75 h -0.18 c -0.45,-0.88 -0.95,-1.76 -1.4,-2.65 v -0.18 c 0,0 0.11,0.06 0.11,0.06 1.2,0.44 2.41,1 3.39,1.68 q 0.06,0.06 0.18,0.05 l -0.12,0.07 c -0.7,0.32 -1.29,0.64 -1.99,0.97 l 0.98,0.75 c 0.76,-0.45 1.52,-0.77 2.46,-1.05 h 0.24 c 1.64,0.95 3.28,1.92 4.92,2.88 l -0.04,-1.02 c -1.21,-0.74 -2.49,-1.47 -3.76,-2.21 v -0.12 c 1.17,-0.34 2.41,-0.75 3.64,-1.09 l -0.03,-1.02 c -1.59,0.48 -3.24,1.02 -4.82,1.55 l -0.18,0.07 c -1.64,-1.08 -3.4,-2.05 -5.22,-3 v -0.12 c 3.26,-0.11 6.7,-0.29 10.15,-0.36 l -0.03,-0.96 c -3.27,0.11 -6.42,0.1 -9.39,0.09 l -0.06,-0.12 c 1.64,-0.78 3.21,-1.73 4.54,-2.8 l -1.03,-0.45 c -1.33,1.07 -2.79,1.9 -4.43,2.56 l -0.06,0.06 v -0.12 c 0.5,-0.8 1.01,-1.72 1.39,-2.57 l 0.05,-0.18 c 0.95,0.09 1.97,0.11 3.04,0.19 v 0.06 c 0,0 1.03,0.45 1.03,0.45 l 0.18,-0.07 c 1.5,0.37 3.12,0.67 4.67,0.98 2.69,0.51 5.38,0.95 8.19,1.39 v 0.06 c -2.78,0.22 -5.51,0.37 -8.13,0.47 l 0.03,0.96 6.95,-0.24 h 0.24 c -0.12,0 -0.18,0 -0.24,0.06 -2.3,0.62 -4.59,1.3 -6.88,2.04 l 0.03,1.02 c 4.29,-1.29 8.59,-2.52 12.95,-3.64 l 0.18,-0.07 -0.11,-1.38 h -0.12 c -4.47,-0.2 -8.89,-0.82 -13.14,-1.75 -1.02,-0.21 -2.1,-0.47 -3.12,-0.79 l -0.06,-0.12 c 1.05,-0.7 2.09,-1.33 3.08,-1.97 2.91,-1.9 5.75,-3.8 8.54,-5.7 l 0.18,-0.07 -0.45,-0.95 c -2.73,1.9 -5.51,3.8 -8.3,5.64 -1.34,0.89 -2.67,1.77 -4.01,2.66 h -0.18 c -1.24,0.23 -2.43,0.09 -3.58,-0.47 l -0.06,-0.12 c 2.25,-5.36 4.69,-10.49 7.37,-15.45 l 0.06,-0.06 0.05,-0.18 -0.97,-0.57 c -2.15,4.82 -4.42,9.52 -6.76,14.17 v 0.18 c 0,0 -0.06,-0.18 -0.06,-0.18 -1.35,-4.52 -2.52,-9.16 -3.52,-14.05 -0.14,-0.66 -0.29,-1.37 -0.43,-2.03 v -0.18 c 0,0 -1.13,0.22 -1.13,0.22 l -0.05,0.18 c 0,0 0,0.06 -0.05,0.18 l -0.15,0.91 v 0.12 c -0.05,0.18 -0.1,0.36 -0.09,0.54 -0.1,0.42 -0.21,0.85 -0.25,1.27 l -0.05,0.12 c 0,0.18 -0.05,0.36 -0.04,0.48 l 0.92,0.81 h 0.12 c 0,0 0.97,0.5 0.97,0.5 0,0.06 0,0.12 0.07,0.24 0.86,4.23 1.84,8.46 2.82,12.63 0.06,0 0.06,0.06 0.07,0.18 -0.62,1.04 -1.18,2.08 -1.79,3.19 v 0.06 c 0,0 0,-0.06 0,-0.06 -0.36,-5.09 -0.72,-10.42 -1.15,-15.99 v -0.24 c 0,0 -0.98,-0.51 -0.98,-0.51 0.5,5.87 0.76,11.62 0.79,17.32 v 0.18 c 0,0 -0.06,-0.12 -0.06,-0.12 -1.35,-1.15 -2.18,-2.93 -2.56,-5.19 v -0.18 c 0.44,-4.1 1.02,-8.08 1.71,-12.01 l -0.92,-0.81 -0.3,1.63 v 0.12 c -0.05,0.18 -0.04,0.3 -0.1,0.48 l -1.05,8.99 c -0.05,0.36 -0.09,0.78 -0.13,1.2 v 0.24 c 0,0 -0.12,-0.18 -0.12,-0.18 l -0.12,-0.18 c -0.25,-0.35 -0.5,-0.7 -0.69,-1.05 l -2.83,-4.4 -0.06,-0.12 v -0.12 c 0,0 -0.76,-1.23 -0.76,-1.23 -0.44,-0.71 -0.88,-1.47 -1.33,-2.23 -0.13,-0.24 -0.25,-0.41 -0.32,-0.59 l -0.76,0.45 c 0,0.06 0.07,0.18 0.13,0.3 l 2.02,3.41 c 0.12,0.18 0.25,0.41 0.38,0.65 1.34,2.53 2.68,5.07 3.9,7.73 0,0.12 0.07,0.3 0.08,0.66 -0.16,0.49 -0.63,0.62 -1.28,0.65 -0.12,-0.06 -0.18,-0.05 -0.24,-0.05 -2.48,-1.35 -4.97,-2.71 -7.4,-4.12 -1.64,-0.96 -3.28,-1.93 -4.86,-2.95 -0.18,-0.11 -0.36,-0.23 -0.55,-0.34 -0.24,-0.11 -0.42,-0.22 -0.61,-0.34 -0.55,-0.34 -1.03,-0.68 -1.52,-0.97 l -0.06,-0.18 -0.72,-0.15 -0.06,0.06 -0.06,0.06 -0.06,0.06 -0.06,0.06 -0.06,0.12 -0.06,0.06 -0.11,0.12 v 0.06 c 0,0 0.45,0.76 0.45,0.76 h 0.06 c 0.48,0.22 0.97,0.51 1.45,0.79 l 0.37,0.23 c 0.18,0.11 0.36,0.23 0.6,0.28 l 1.88,1.08 c 1.21,0.68 2.43,1.36 3.64,2.03 l 5.64,3.16 c 0.18,0.11 0.42,0.23 0.61,0.4 h 0.18 c 0,0 -0.12,0.06 -0.12,0.06 -2.63,1.17 -5.64,2.06 -9.06,2.72 h -0.18 c 0,0 -0.98,0.88 -0.98,0.88 4.14,-0.74 8.21,-1.61 12.1,-2.52 l 1.52,-0.71 v -0.18 c 0.38,-0.98 0.79,-1.11 1.17,-0.34 0.32,0.53 0.57,1.12 0.78,1.83 -0.78,-0.33 -1.39,-0.79 -1.95,-1.31 l -1.52,0.71 0.17,-0.07 c 1.15,0.56 2.3,1.18 3.33,1.74 l 0.18,0.05 -0.12,0.06 c -0.94,0.39 -2.18,0.68 -3.66,0.67 -4.16,0.09 -8.2,0.11 -12.01,0.06 l 0.98,-0.87 c -1.36,0.29 -2.66,0.45 -4.02,0.56 -0.3,0.07 -0.59,0.08 -0.89,0.15 h -0.12 c 0,0 -0.65,0.03 -0.65,0.03 h -0.06 c 0,0 -0.06,0 -0.06,0 -0.41,0.08 -0.83,0.09 -1.24,0.1 l -1.19,0.04 h -0.06 c 0,0 0.05,-0.18 0.05,-0.18 -0.02,-0.48 -0.09,-0.78 -0.27,-0.95 0.39,-4.22 1.52,-7.62 3.44,-10.39 v -0.12 c 0,0 -0.45,-0.76 -0.45,-0.76 -0.23,0.31 -0.4,0.55 -0.63,0.8 -1.58,2.4 -2.61,5.38 -3.08,8.87 -0.09,0.78 -0.18,1.57 -0.21,2.41 -0.24,0 -0.47,-0.03 -0.78,-0.09 l -9,-2.27 c -0.06,-0.12 -0.13,-0.3 -0.13,-0.42 0.09,-6.01 1.98,-11.48 5.73,-16.41 l -0.3,-1.85 c -1.37,1.55 -2.44,3.33 -3.27,5.22 -1.7,4.08 -2.97,8.51 -3.75,13.28 -0.19,8.11 1.11,14.61 3.84,19.62 4.07,7.54 9.92,13.22 17.42,17.1 3.75,1.91 8.19,3.08 13.32,3.49 4.11,0.28 7.97,0.02 11.74,-0.95 1.47,-0.35 2.95,-0.76 4.3,-1.29 l -0.02,-0.54 -0.76,0.27 c -0.12,0.06 -0.24,0.07 -0.35,0.13 -0.12,0 -0.24,0.07 -0.35,0.13 l -2.77,0.7 -0.12,0.06 c -0.71,0.14 -1.42,0.29 -2.19,0.37 -0.13,-0.35 -0.26,-0.77 -0.4,-1.13 l -3.56,-9.9 c 7.17,-0.67 13.01,-3.82 17.63,-9.38 3.99,-4.82 5.93,-10.48 5.89,-16.84 l 9.79,2.84 c 0.24,0.05 0.54,0.16 0.78,0.21 l 0.18,0.05 c 0.03,4.32 -0.61,8.19 -2.03,11.6 -0.27,0.67 -0.55,1.34 -0.88,1.95 -3.9,7.52 -9.64,13.31 -17.23,17.3 -1.1,0.64 -2.34,1.16 -3.63,1.63 l 0.02,0.54 c 7.16,-2.53 12.79,-6.51 16.94,-11.88 1.25,-1.66 2.44,-3.33 3.63,-5.11 0.45,-0.68 0.84,-1.41 1.23,-2.14 1.56,-3 2.51,-6.57 2.96,-10.67 0.39,-3.98 0.2,-7.81 -0.64,-11.44 -0.85,-3.75 -1.97,-7.14 -3.45,-10.27 -1.03,-2.25 -2.23,-4.31 -3.55,-6.24 -1.56,-2.23 -3.3,-4.21 -5.2,-5.94 l -1.18,0.34 c 6.39,5.9 10.57,13.08 12.53,21.66 l 0.03,0.96 c 0.55,2.02 0.74,4.06 0.63,6.16 l -0.05,0.18 c -0.9,-0.09 -1.73,-0.24 -2.63,-0.39 -2.28,-0.52 -4.56,-1.16 -6.73,-2.05 l -0.06,-0.12 c 2.23,-0.98 4.45,-1.9 6.62,-2.82 0.7,-0.32 1.35,-0.65 2.05,-0.91 l 0.18,-0.07 -0.03,-0.96 -1.93,0.85 c -0.12,0.07 -0.18,0.07 -0.29,0.13 -0.12,0.06 -0.29,0.13 -0.47,0.19 l -7.44,3.14 v 0.12 c 0,0 -0.06,-0.12 -0.06,-0.12 -0.14,-0.6 -0.28,-1.07 -0.47,-1.66 -2.04,-7.25 -6.1,-12.99 -12.31,-17.16 -4.26,-2.85 -8.84,-4.49 -13.79,-4.98 l 3.42,-11.11 c 7.99,0.5 14.93,3.5 20.82,8.94 l 1.18,-0.34 C 82.16,93.31 78.69,91.03 74.7,89.25"
         id="path266" />
      <path
         class="cls-5"
         d="m 62.23,87.56 -0.27,-0.02 c -2.68,-0.15 -5.21,0.04 -7.57,0.48 l 0.07,0.18 c 1.37,3.43 2.95,6.74 4.66,9.8 l 0.06,-0.15 c 0.81,-3.58 1.81,-6.91 3.01,-10.13"
         id="path268" />
      <path
         class="cls-14"
         d="m 59.58,100.44 v 0.18 c 0.15,0.64 0.29,1.35 0.43,1.99 l 6.19,0.25 2.88,-0.99 c -2.6,-1.32 -5.77,-1.8 -9.5,-1.43"
         id="path270" />
      <path
         class="cls-10"
         d="m 68.9,101.91 -2.7,0.95 -6.19,-0.26 c 1,4.89 2.18,9.53 3.52,14.05 h 0.06 c 2.34,-4.65 4.56,-9.27 6.71,-14.09 l -0.13,-0.07 c -0.36,-0.23 -0.75,-0.45 -1.12,-0.62"
         id="path272" />
      <polygon
         class="cls-16"
         points="63.59,116.64 63.53,116.64 63.6,116.82 "
         id="polygon274" />
      <path
         class="cls-12"
         d="m 59.76,105.8 v 0.17 c 0.45,5.57 0.81,10.9 1.17,15.99 0.62,-1.1 1.17,-2.14 1.79,-3.18 0,-0.12 0,-0.18 -0.07,-0.18 -0.98,-4.17 -1.95,-8.35 -2.81,-12.59"
         id="path276" />
      <polygon
         class="cls-16"
         points="60.93,122.01 60.93,121.95 "
         id="polygon278" />
      <path
         class="cls-10"
         d="m 71.21,103.28 c -2.68,4.96 -5.12,10.09 -7.37,15.45 l 0.06,0.12 c 1.15,0.56 2.34,0.7 3.58,0.47 h 0.18 c 1.34,-0.89 2.67,-1.78 4.01,-2.67 2.79,-1.84 5.58,-3.74 8.3,-5.64 l -0.07,-0.18 c -2.14,-3.35 -5.03,-6.01 -8.6,-7.81 l -0.05,0.13"
         id="path280" />
      <path
         class="cls-7"
         d="m 65.98,120.33 v -0.06 c -1.07,-0.08 -2.09,-0.11 -3.04,-0.19 l -0.05,0.18 c -0.39,0.85 -0.89,1.77 -1.4,2.57 l 0.06,0.06 c 1.64,-0.66 3.1,-1.49 4.43,-2.56"
         id="path282" />
      <polygon
         class="cls-16"
         points="61.5,122.95 61.55,122.89 61.49,122.83 "
         id="polygon284" />
      <path
         class="cls-7"
         d="m 62.47,123.58 0.06,0.12 c 2.97,0.02 6.12,0.02 9.39,-0.09 2.61,-0.09 5.34,-0.25 8.13,-0.47 v -0.06 c -2.81,-0.44 -5.5,-0.89 -8.19,-1.39 -1.56,-0.31 -3.17,-0.61 -4.67,-0.98 l -0.18,0.07 c -1.33,1.07 -2.9,2.02 -4.54,2.8"
         id="path286" />
      <path
         class="cls-16"
         d="m 80.05,123.08 v 0.06 c 0,0 0,-0.06 0,-0.06 z"
         id="path288" />
      <path
         class="cls-10"
         d="m 71.72,117.73 c -0.99,0.63 -2.04,1.27 -3.08,1.97 l 0.06,0.12 c 1.02,0.33 2.1,0.59 3.12,0.79 4.25,0.93 8.68,1.56 13.14,1.76 h 0.12 c -0.58,-4.55 -2.12,-8.04 -4.64,-10.41 l -0.18,0.07 c -2.79,1.9 -5.63,3.8 -8.54,5.7"
         id="path290" />
      <path
         class="cls-16"
         d="m 84.96,122.37 h 0.12 c 0,0 -0.12,0 -0.12,0 z"
         id="path292" />
      <path
         class="cls-3"
         d="m 59.69,98.64 c 4.95,0.49 9.53,2.13 13.79,4.98 6.21,4.17 10.28,9.91 12.31,17.16 0.2,0.59 0.31,1.08 0.49,1.7 l 0.05,-0.03 7.44,-3.14 c 0.23,-0.13 0.47,-0.19 0.76,-0.33 l 1.93,-0.85 C 94.49,109.55 90.32,102.37 83.93,96.47 78.03,91.03 71.09,88.03 63.11,87.53 Z"
         id="path294" />
      <path
         class="cls-5"
         d="m 87.45,122.93 0.27,0.06 c 2.17,0.88 4.45,1.52 6.73,2.05 0.9,0.15 1.74,0.3 2.63,0.39 l 0.05,-0.18 c 0.1,-2.11 -0.09,-4.14 -0.63,-6.16 l -0.18,0.07 c -0.7,0.26 -1.35,0.59 -2.05,0.91 -2.17,0.92 -4.39,1.84 -6.62,2.81"
         id="path296" />
      <path
         class="cls-6"
         d="m 96.95,126.81 -0.18,-0.05 c -0.24,-0.05 -0.54,-0.16 -0.78,-0.21 l -2.49,10.47 c -3.9,7.4 -9.15,13.59 -15.82,18.57 -3.36,2.52 -7.18,3.91 -11.44,4.24 0.13,0.35 0.26,0.77 0.4,1.13 0.77,-0.09 1.48,-0.23 2.19,-0.38 l 0.12,-0.06 2.77,-0.7 c 0.12,-0.07 0.23,-0.13 0.35,-0.13 0.12,-0.06 0.23,-0.07 0.35,-0.13 l 0.77,-0.27 c 1.29,-0.47 2.52,-0.99 3.63,-1.63 7.59,-3.99 13.33,-9.77 17.23,-17.3 0.33,-0.61 0.61,-1.28 0.88,-1.95 1.43,-3.41 2.06,-7.28 2.03,-11.6"
         id="path298" />
      <path
         class="cls-2"
         d="m 93.5,137.02 2.49,-10.47 -9.79,-2.84 c 0.04,6.36 -1.9,12.01 -5.89,16.84 -4.62,5.57 -10.45,8.71 -17.63,9.38 l 3.56,9.9 c 4.27,-0.33 8.08,-1.72 11.44,-4.25 6.66,-4.98 11.92,-11.16 15.82,-18.57"
         id="path300" />
      <polygon
         class="cls-16"
         points="85.19,123.81 85.19,123.74 85.01,123.81 "
         id="polygon302" />
      <path
         class="cls-10"
         d="m 85.19,123.81 h -0.18 c -4.36,1.12 -8.66,2.35 -12.95,3.64 -1.24,0.34 -2.47,0.75 -3.65,1.09 v 0.12 c 1.28,0.73 2.55,1.47 3.77,2.21 3.28,1.93 6.55,3.79 9.83,5.66 l 0.06,-0.12 c 2.09,-3.25 3.13,-7.49 3.12,-12.6"
         id="path304" />
      <path
         class="cls-16"
         d="m 82.01,136.58 c 0,-0.12 0.05,-0.18 0.05,-0.18 l -0.05,0.12 v 0.06"
         id="path306" />
      <path
         class="cls-16"
         d="m 78.91,124.38 c 0.06,-0.06 0.12,-0.06 0.24,-0.07 h -0.24 c 0,0 0,0.07 0,0.07 z"
         id="path308" />
      <path
         class="cls-12"
         d="m 78.91,124.38 v -0.06 c 0,0 -6.95,0.24 -6.95,0.24 -3.45,0.06 -6.89,0.24 -10.16,0.36 v 0.12 c 1.82,0.96 3.58,1.92 5.22,3 l 0.18,-0.07 c 1.59,-0.54 3.23,-1.08 4.82,-1.55 2.29,-0.74 4.59,-1.42 6.88,-2.04"
         id="path310" />
      <path
         class="cls-16"
         d="m 61.81,125.04 v -0.12 c 0,0 0,0.12 0,0.12 z"
         id="path312" />
      <polygon
         class="cls-16"
         points="81.14,137.34 81.27,137.39 81.32,137.33 "
         id="polygon314" />
      <path
         class="cls-10"
         d="m 81.27,137.39 -0.12,-0.06 c -2.92,-1.88 -5.89,-3.64 -8.93,-5.45 -1.64,-0.96 -3.28,-1.93 -4.92,-2.89 h -0.24 c -0.94,0.28 -1.7,0.61 -2.46,1.05 v 0.18 c 0,0 0.06,1.56 0.06,1.56 l 0.11,0.22 c 2.37,4.78 5.03,9.09 7.91,13.19 l 0.12,0.18 0.18,-0.07 c 3.38,-2.04 6.2,-4.66 8.28,-7.92"
         id="path316" />
      <polygon
         class="cls-16"
         points="61,127.41 60.88,127.3 60.94,127.48 "
         id="polygon318" />
      <path
         class="cls-7"
         d="m 61,127.41 -0.06,0.06 c 0.43,5.51 0.87,11.2 1.13,16.89 h 0.12 c 0.56,-4.35 1,-8.69 1.32,-13.14 l -0.15,-0.35 c -0.53,-1.54 -1.32,-2.48 -2.36,-3.46"
         id="path320" />
      <path
         class="cls-16"
         d="m 62.07,144.37 h 0.12 c 0,0 -0.12,0 -0.12,0 z"
         id="path322" />
      <polygon
         class="cls-16"
         points="62.04,126.66 62.16,126.53 62.04,126.48 "
         id="polygon324" />
      <path
         class="cls-7"
         d="m 62.16,126.53 -0.11,0.12 c 0.45,0.88 0.95,1.77 1.4,2.65 h 0.18 c 0.7,-0.33 1.29,-0.65 1.99,-0.98 l -0.06,-0.12 c -0.97,-0.69 -2.18,-1.25 -3.39,-1.68"
         id="path326" />
      <path
         class="cls-10"
         d="m 64.54,133.54 h -0.06 c -0.41,5.18 -1.07,10.01 -2.11,14.48 0,0.18 0.01,0.3 0.07,0.3 3.99,0.34 7.18,-0.43 9.61,-2.38 l -0.06,-0.12 c -2.64,-3.93 -5.1,-8.05 -7.45,-12.29"
         id="path328" />
      <path
         class="cls-5"
         d="m 62.02,151.46 -0.12,0.06 c -1.08,2.98 -2.11,6.02 -3.07,9.17 l 0.06,0.12 c 1.8,0.54 4.01,0.7 6.61,0.43 V 161 c -0.96,-3.39 -2.14,-6.59 -3.5,-9.54"
         id="path330" />
      <path
         class="cls-5"
         d="m 23.44,124.4 c 0.18,1.84 0.42,3.55 0.72,5.33 h 0.18 c 2.81,-1.29 5.56,-2.58 8.25,-3.92 0.29,-0.13 0.53,-0.26 0.76,-0.38 -0.24,-0.05 -0.47,-0.13 -0.76,-0.21 -2.36,-0.69 -4.53,-1.25 -6.63,-1.97 -1.58,-0.54 -2.4,-0.57 -2.52,0.98"
         id="path332" />
      <path
         class="cls-2"
         d="m 24.19,121.63 c 0,0.12 -0.07,0.34 0.13,0.42 0.2,0.08 9,2.27 9,2.27 -0.23,-6.6 2.01,-12.32 6.65,-17.17 4.65,-4.79 10.39,-7.33 17.21,-7.57 l 0.99,-0.46 -4.71,-10.64 c -9.58,3.1 -17.41,8.66 -23.55,16.74 -3.75,4.93 -5.64,10.4 -5.73,16.41"
         id="path334" />
      <path
         class="cls-9"
         d="m 33.31,124.3 c 0.29,0.05 0.54,0.1 0.77,0.09 0.03,-0.84 0.12,-1.62 0.21,-2.41 0.47,-3.5 1.5,-6.48 3.08,-8.87 0.23,-0.25 0.4,-0.49 0.63,-0.8 v -0.06 c 0,0 0.11,-0.12 0.11,-0.12 l 0.06,-0.06 0.06,-0.12 0.06,-0.06 0.06,-0.06 0.06,-0.06 0.06,-0.06 4.87,-5.09 0.06,-0.06 c 0.12,-0.06 0.23,-0.13 0.29,-0.25 l 4.76,-3.17 0.18,-0.07 c 0.06,-0.06 0.17,-0.13 0.29,-0.19 l 0.12,-0.06 c 0.41,-0.25 0.87,-0.45 1.4,-0.71 0.06,0 0.12,-0.06 0.23,-0.13 l 0.23,-0.13 c 0.7,-0.32 1.47,-0.59 2.23,-0.92 l 3.11,-1.07 c 0.18,-0.07 0.19,-0.05 0.47,-0.14 0.13,-0.04 0.29,-0.13 0.47,-0.14 -6.83,0.24 -12.57,2.78 -17.21,7.57 -4.65,4.85 -6.88,10.57 -6.65,17.17"
         id="path336" />
      <path
         class="cls-14"
         d="m 35.02,124.73 0.26,-0.02 1.19,-0.04 c 0.42,-0.02 0.83,-0.03 1.24,-0.1 h 0.06 c 0,0 0.06,0 0.06,0 l 2.73,-10.36 c -0.06,-0.06 -0.12,-0.12 -0.24,-0.11 l -0.37,-0.23 c -0.48,-0.28 -0.97,-0.57 -1.45,-0.79 l -0.06,0.12 c -1.92,2.77 -3.09,6.17 -3.44,10.39 -0.02,0.21 0,0.3 0.01,0.78"
         id="path338" />
      <path
         class="cls-10"
         d="m 46.44,117.48 c -0.12,-0.06 -0.24,-0.11 -0.37,-0.23 -0.91,-0.45 -1.76,-0.96 -2.67,-1.47 h -0.06 c -0.18,-0.11 -0.36,-0.23 -0.55,-0.34 l -1.88,-1.07 c -0.12,-0.06 -0.24,-0.11 -0.36,-0.17 l -2.73,10.36 0.65,-0.02 h 0.12 c 0.3,-0.07 0.59,-0.08 0.89,-0.15 1.36,-0.11 2.67,-0.27 4.02,-0.56 h 0.18 c 3.43,-0.67 6.43,-1.55 9.06,-2.73 l -0.06,-0.06 c -0.19,-0.17 -0.43,-0.29 -0.61,-0.4 l -5.64,-3.16 z"
         id="path340" />
      <path
         class="cls-14"
         d="m 58.4,100.79 0.05,-0.18 c -0.41,0.01 -0.77,0.09 -1.12,0.16 -3.18,0.95 -6.11,2.08 -8.86,3.43 l 0.07,0.18 c 0.26,0.59 0.57,1.12 0.89,1.65 0.07,0.24 0.19,0.41 0.32,0.59 1.92,-1.21 3.97,-2.24 6.13,-3.1 0.64,-0.26 1.14,-0.56 1.87,-0.9 l 0.36,-0.08"
         id="path342" />
      <path
         class="cls-10"
         d="m 52.34,111.15 0.06,0.12 2.83,4.4 c 0.19,0.35 0.44,0.7 0.69,1.06 l 0.12,0.18 0.12,-0.06 c 0.04,-0.42 0.09,-0.84 0.13,-1.2 l 1.05,-8.99 c 0.05,-0.18 0.02,-0.23 0.07,-0.41 l 0.02,-0.19 0.3,-1.63 c 0.02,-0.12 0.05,-0.19 0.06,-0.41 l 0.03,-0.2 c 0.04,-0.42 0.15,-0.85 0.25,-1.27 l -0.36,0.08 c -0.7,0.31 -1.21,0.61 -1.87,0.86 -2.17,0.86 -4.22,1.93 -6.13,3.13 0.06,0.12 0.13,0.24 0.19,0.35"
         id="path344" />
      <path
         class="cls-10"
         d="m 49.94,106.97 c 0.07,0.18 0.19,0.35 0.32,0.59"
         id="path346" />
      <polygon
         class="cls-16"
         points="56.18,117.08 56.17,116.84 56.05,116.9 "
         id="polygon348" />
      <path
         class="cls-10"
         d="m 48.99,107.12 c -2.73,1.72 -5.28,3.79 -7.63,6.21 0.18,0.11 0.36,0.23 0.55,0.34 1.58,1.03 3.22,1.99 4.86,2.95 2.43,1.42 4.91,2.77 7.4,4.12 0.06,0 0.12,0 0.24,0.05 0.65,-0.02 1.12,-0.16 1.29,-0.64 -0.01,-0.36 -0.08,-0.54 -0.08,-0.66 -1.22,-2.66 -2.56,-5.2 -3.9,-7.73"
         id="path350" />
      <path
         class="cls-14"
         d="m 47.55,104.83 -0.18,0.07 c -3.2,1.85 -5.98,4.17 -8.2,6.95 l 0.06,0.18 c 0.49,0.28 0.97,0.63 1.52,0.97 0.18,0.11 0.36,0.23 0.61,0.34 2.35,-2.42 4.89,-4.5 7.63,-6.21"
         id="path352" />
      <line
         class="cls-14"
         x1="48.990002"
         y1="107.12"
         x2="48.93"
         y2="107.06"
         id="line354" />
      <path
         class="cls-16"
         d="m 58.79,105.22 h -0.12 c 0,0 0.12,0 0.12,0 z"
         id="path356" />
      <path
         class="cls-7"
         d="m 58.74,105.02 -0.07,0.2 c -0.69,3.93 -1.27,7.91 -1.72,12.01 v 0.18 c 0.38,2.27 1.22,4.04 2.57,5.19 l 0.06,-0.06 c -0.02,-5.7 -0.29,-11.43 -0.79,-17.29"
         id="path358" />
      <polygon
         class="cls-16"
         points="59.58,122.54 59.52,122.6 59.59,122.72 "
         id="polygon360" />
      <path
         class="cls-12"
         d="m 54.81,122.11 -0.18,0.07 c -3.89,0.92 -7.97,1.78 -12.1,2.52 3.81,0.05 7.85,0.03 12.01,-0.06 1.49,0 2.72,-0.28 3.66,-0.67 l -0.06,-0.12 c -1.03,-0.57 -2.18,-1.19 -3.33,-1.74"
         id="path362" />
      <polygon
         class="cls-16"
         points="58.32,123.91 58.14,123.85 58.2,123.97 "
         id="polygon364" />
      <path
         class="cls-7"
         d="m 56.15,121.28 v 0.18 c 0.56,0.52 1.17,0.98 1.96,1.31 -0.2,-0.71 -0.46,-1.31 -0.78,-1.83 -0.38,-0.77 -0.8,-0.63 -1.18,0.34"
         id="path366" />
      <path
         class="cls-7"
         d="m 58.75,125.93 -0.12,-0.06 c -1.45,1.01 -2.96,2.03 -4.53,2.98 l 0.06,0.12 c 1.02,0.38 1.98,0.59 2.82,0.56 l 0.05,-0.12 c 0.91,-1.17 1.46,-2.33 1.72,-3.48"
         id="path368" />
      <polygon
         class="cls-16"
         points="58.74,125.81 58.63,125.88 58.75,125.93 "
         id="polygon370" />
      <path
         class="cls-7"
         d="m 57.6,125.49 v -0.12 c -5.95,0.09 -11.76,0.29 -17.52,0.49 v 0.12 c 4.15,1.3 8.34,2.17 12.47,2.75 l 0.18,-0.07 c 1.69,-1.02 3.26,-2.1 4.88,-3.17"
         id="path372" />
      <path
         class="cls-16"
         d="m 40.08,125.99 v -0.12 c 0,0 0,0.12 0,0.12 z"
         id="path374" />
      <polygon
         class="cls-1"
         points="59.5,126.93 59.67,126.86 59.61,126.86 "
         id="polygon376" />
      <polygon
         class="cls-16"
         points="59.61,126.86 59.55,126.75 59.5,126.93 "
         id="polygon378" />
      <path
         class="cls-12"
         d="m 59.67,126.86 -0.17,0.07 c -0.67,1.23 -1.4,2.51 -2.07,3.73 v 0.18 c 1.13,5 2.2,9.95 3.33,14.95 0.08,-2.88 0.09,-5.77 0,-8.46 -0.15,-2.7 -0.31,-5.39 -0.4,-8.09 -0.1,-1.08 -0.3,-1.85 -0.68,-2.38"
         id="path380" />
      <path
         class="cls-10"
         d="m 56.06,130.71 v -0.12 c -1.09,-0.38 -2.22,-0.58 -3.48,-0.72 v 0.12 c -4.54,2.68 -8.89,5.6 -13.01,8.62 v 0.18 c 2.08,3.17 5.02,5.53 8.64,7.02 l 0.05,-0.18 c 2.92,-4.97 5.54,-9.92 7.8,-14.93"
         id="path382" />
      <path
         class="cls-10"
         d="m 51.27,129.74 v -0.12 c -5.28,-1.2 -10.55,-2.33 -15.94,-3.34 l -0.05,0.18 c 0.06,5.04 1.32,8.84 3.67,11.4 h 0.18 c 3.88,-2.9 7.89,-5.57 12.14,-8.12"
         id="path384" />
      <polygon
         class="cls-16"
         points="35.28,126.27 35.28,126.45 35.33,126.27 "
         id="polygon386" />
      <polygon
         class="cls-16"
         points="56.54,132.61 56.49,132.8 56.55,132.79 "
         id="polygon388" />
      <path
         class="cls-10"
         d="m 56.55,132.79 h -0.06 c -2.58,4.36 -5.04,8.77 -7.5,13.23 l 0.06,0.12 c 2.87,2.06 6.76,3.01 11.64,2.9 v -0.18 c -1.38,-5.29 -2.76,-10.71 -4.14,-16.07"
         id="path390" />
      <path
         class="cls-16"
         d="m 60.69,149.04 v -0.18 c 0,0 0,0.18 0,0.18 z"
         id="path392" />
      <path
         class="cls-3"
         d="m 40.64,141.88 c -0.12,-0.06 -0.18,-0.17 -0.31,-0.23 -0.68,-0.7 -1.3,-1.4 -1.86,-2.16 -2.37,-3.28 -3.83,-7.61 -4.32,-13 h -0.18 c -0.41,0.2 -0.88,0.4 -1.35,0.53 -2.93,1.18 -5.8,2.49 -8.6,3.84 0.65,3.16 1.58,6.07 2.8,8.67 1.99,4.25 4.44,7.95 7.47,11.15 5.56,5.93 13.41,9.5 23.44,10.59 l 0.14,-0.46 c 1.36,-3.71 2.27,-7.07 3.04,-10.64 -4.16,-0.09 -8,-0.98 -11.56,-2.54 -3.26,-1.51 -6.19,-3.45 -8.7,-5.76"
         id="path394" />
      <polygon
         class="cls-11"
         points="41.98,133.51 48.48,132.81 45,138.4 78.2,117.45 80.26,112.75 75.18,112.56 "
         id="polygon396" />
      <polygon
         class="cls-5"
         points="40.53,133.43 47.03,132.73 43.56,138.32 76.75,117.37 78.82,112.67 78.78,112.62 73.73,112.49 "
         id="polygon398" />
      <path
         class="cls-13"
         d="m 62.68,124.98 c 0.1,-0.63 0.05,-1.16 -0.33,-1.78 -0.35,-0.56 -0.8,-0.84 -1.44,-1.07 -0.57,-0.13 -1.12,0 -1.63,0.32 -0.5,0.32 -0.81,0.72 -0.94,1.3 -0.12,0.71 -0.02,1.21 0.33,1.77 0.38,0.61 0.78,0.92 1.44,1.07 0.61,0.19 1.13,0.14 1.64,-0.18 0.5,-0.32 0.83,-0.81 0.93,-1.44"
         id="path400" />
      <path
         class="cls-15"
         d="m 410.32,143.59 -0.78,-4.05 v -6.04 l -0.35,-1.64 0.69,-2.07 -0.69,-2.16 0.52,-2.24 -0.6,-1.55 -0.26,-2.5 1.04,-1.38 -0.78,-1.64 -0.35,-1.9 -1.38,-1.81 0.17,-1.04 -0.78,-1.64 -3.28,-1.81 h -2.07 l -1.29,-0.78 -3.8,-0.69 -2.16,0.95 -1.04,-0.43 -1.12,1.12 -2.67,-0.09 -1.29,1.03 -1.04,-0.52 -1.73,2.16 1.29,3.54 -0.6,1.12 0.95,2.85 1.72,-1.38 4.83,-1.04 0.6,0.69 3.54,-1.12 1.21,0.6 1.55,2.67 0.26,0.26 v 3.19 l -0.43,0.6 -4.83,0.17 -1.12,0.95 -1.98,-0.78 -3.28,1.81 -0.69,0.69 -1.64,0.95 -1.29,2.67 0.17,1.81 -1.03,0.52 v 3.62 l 0.78,1.9 -0.34,1.03 1.81,3.36 1.72,0.35 0.17,1.55 2.59,0.43 1.12,1.12 1.55,-0.26 2.41,-1.38 2.16,-0.52 0.34,-1.81 0.6,0.52 0.78,-1.21 1.38,0.86 0.17,1.55 0.17,2.07 2.67,-0.09 3.1,-1.64 1.55,0.35 1.03,-1.9 v 0 z m -8.8,-8.97 -3.54,1.81 -1.47,0.34 -2.41,-2.59 0.86,-2.59 2.24,-1.47 3.54,-0.35 1.29,3.02 -0.52,1.81 v 0 z"
         id="path402" />
      <path
         class="cls-8"
         d="m 446.72,133.06 -0.78,-1.38 0.52,-1.72 v -4.14 l -0.86,-3.45 -0.09,-2.24 0.17,-1.03 -1.29,-0.26 -0.09,-0.52 -1.47,-3.1 h -0.86 l -0.69,-1.21 -1.81,-0.95 -5.61,-0.86 -2.67,0.35 -1.81,1.21 -1.73,1.29 -0.34,-0.34 -0.43,-5.69 0.09,-3.62 1.03,-1.47 -1.12,-2.59 0.17,-3.36 -0.78,-1.9 0.78,-4.05 h -1.64 l -3.45,0.52 -5.09,0.43 1.72,1.72 v 0.43 l -0.43,0.26 0.6,5.52 -0.69,1.98 0.6,9.4 -0.35,6.3 -0.26,6.47 0.69,5.26 -0.69,2.41 -0.35,8.37 0.09,1.98 -1.29,3.19 1.04,1.21 1.38,0.78 7.76,0.17 -0.17,-3.11 0.52,-0.34 1.47,1.21 1.29,-0.52 0.26,1.29 2.85,-0.09 1.81,0.26 2.5,-1.21 1.29,-0.52 0.69,-1.21 1.47,0.35 2.33,-3.02 0.52,-1.55 1.9,-3.28 1.29,-3.62 v 0 z m -8.8,-7.85 -0.26,1.29 -1.47,1.55 1.38,1.64 -0.6,1.72 -0.69,3.54 -1.72,0.52 -0.52,1.73 -1.38,1.12 -1.81,0.26 -3.8,-1.29 -0.17,-3.8 1.04,-0.95 -1.04,-1.64 -0.09,-1.47 1.12,-1.12 -0.78,-3.19 0.95,-2.76 0.09,-1.73 2.07,-0.69 3.19,0.35 1.98,0.95 1.38,3.36 1.12,0.6 v 0 z"
         id="path404" />
      <polygon
         class="cls-4"
         points="471.38,110.98 467.42,109.69 466.9,110.29 463.97,110.12 462.5,110.38 458.88,111.93 454.57,115.21 454.39,117.19 452.67,120.47 452.58,123.49 452.06,128.32 452.32,129.96 451.55,131.68 451.8,135.91 452.5,138.07 452.84,138.93 453.87,141.34 455.26,142.64 455.69,142.21 455.94,142.9 457.33,144.02 458.96,144.28 460,145.48 463.79,146.95 464.48,146.35 465,146.86 465.78,146.78 467.5,145.74 468.28,146.69 470.61,145.66 472.77,146.26 476.82,144.71 476.3,142.29 475.87,137.55 474.49,136.08 472.85,136.08 469.49,137.55 467.24,137.2 465.52,137.46 464.4,136.86 463.1,136.17 463.1,134.01 461.9,134.01 461.47,131.6 462.42,129.96 460.78,128.32 460.95,125.39 461.12,123.92 461.9,121.94 462.59,120.21 464.83,119.87 465.61,118.57 469.75,119 473.89,120.56 473.89,119.35 475.35,117.02 477.42,111.41 474.14,110.98 "
         id="polygon406" />
      <path
         class="cls-11"
         d="m 313.6,149.28 -2.33,-0.09 -0.86,-1.47 -1.29,0.26 -1.38,0.09 -4.4,-4.4 -1.21,-3.19 -0.17,-1.04 -1.38,-2.42 0.35,-1.29 0.17,-5.26 -0.43,-1.55 0.78,-1.55 v -5.09 l 1.98,-4.05 0.86,-0.6 0.86,-2.07 1.29,-0.26 3.97,-2.85 5.61,-0.86 v 0.26 l 1.38,-0.69 1.38,0.86 1.29,-0.95 4.23,2.59 2.07,3.11 0.09,1.9 0.86,0.69 -0.43,2.07 0.86,2.93 v 1.12 l 0.34,2.85 -0.34,2.76 -0.95,0.52 -4.83,0.26 -1.21,0.86 -3.36,-0.86 -3.02,0.52 -4.4,-0.17 0.09,3.88 0.6,1.64 1.21,1.04 0.26,-0.35 2.5,1.81 1.55,-0.6 0.78,0.78 3.19,-1.64 0.78,1.03 h 0.09 l 1.38,-1.29 0.86,0.52 h 0.78 l 1.55,-1.47 h 1.47 l 1.98,5.78 -0.17,1.98 -0.52,1.21 -4.83,1.12 -2.33,-0.35 -0.35,-0.17 -1.21,1.47 -3.71,-0.52 -2.33,1.21 m 0.52,-29.35 -2.07,0.34 -1.29,1.29 -0.6,3.54 0.95,0.26 7.59,-0.26 0.6,-0.52 v -0.17 l -0.09,-1.98 H 318 l 0.34,-1.64 -0.95,-0.52 -3.28,-0.34 m -91.68,29.33 -2.33,-0.09 -0.86,-1.47 -1.29,0.26 -1.38,0.09 -4.4,-4.4 -1.21,-3.19 -0.17,-1.04 -1.38,-2.42 0.34,-1.29 0.17,-5.26 -0.43,-1.55 0.78,-1.55 v -5.09 l 1.98,-4.05 0.86,-0.6 0.86,-2.07 1.29,-0.26 3.97,-2.85 5.61,-0.86 v 0.26 l 1.38,-0.69 1.38,0.86 1.29,-0.95 4.23,2.59 2.07,3.11 0.09,1.9 0.86,0.69 -0.43,2.07 0.86,2.93 v 1.12 l 0.34,2.85 -0.34,2.76 -0.95,0.52 -4.83,0.26 -1.21,0.86 -3.36,-0.86 -3.02,0.52 -4.4,-0.17 0.09,3.88 0.6,1.64 1.21,1.04 0.26,-0.35 2.5,1.81 1.55,-0.6 0.78,0.78 3.19,-1.64 0.78,1.03 h 0.09 l 1.38,-1.29 0.86,0.52 h 0.78 l 1.55,-1.47 h 1.47 l 1.98,5.78 -0.17,1.98 -0.52,1.21 -4.83,1.12 -2.33,-0.35 -0.35,-0.17 -1.21,1.47 -3.71,-0.52 -2.33,1.21 m 0.53,-29.35 -2.07,0.34 -1.29,1.29 -0.6,3.54 0.95,0.26 7.59,-0.26 0.6,-0.52 v -0.17 l -0.09,-1.98 h -1.21 l 0.35,-1.64 -0.95,-0.52 -3.28,-0.34 m 17.34,28.55 1.55,-9.83 -0.35,-1.12 v -0.86 l 0.6,-0.6 -0.69,-0.95 0.95,-3.19 -0.52,-4.23 v -2.85 l 0.52,-9.06 -1.21,-3.36 1.29,-2.5 4.05,-0.34 h 3.62 v 2.42 h 0.86 l -0.42,3.94 3.01,-1.79 1.73,-1.98 1.55,0.86 2.76,-1.04 1.12,-0.6 2.16,0.17 1.12,1.64 -1.04,4.4 -0.95,3.45 -4.14,-0.35 -1.72,0.78 -1.12,-0.69 -3.11,1.04 -1.04,1.55 v 1.29 l -0.6,0.6 0.86,0.52 -1.47,1.9 1.29,2.93 -1.21,1.47 0.52,1.21 -0.52,6.38 0.95,0.86 -0.35,2.41 1.04,0.78 -1.72,3.71 -2.42,0.78 -6.99,0.26 m 10.31,-32.55 -0.18,0.11 h 0.17 v -0.11 m -0.52,-3.94 0.09,0.09 v -0.09 h -0.09 m 36.49,36.4 -0.52,-5 v -2.16 l 1.04,-2.24 -0.26,-1.21 0.09,-5.61 -0.09,-2.5 0.43,-1.72 -0.69,-0.35 -0.17,-3.45 0.35,-1.55 -1.38,-0.86 -1.55,0.86 -1.04,-0.95 -2.24,0.34 -2.5,1.29 -0.6,2.76 c -0.09,0 0.69,2.85 0.69,2.85 l -0.69,1.72 0.6,3.02 -0.78,3.97 -0.6,0.86 0.52,1.21 -0.34,1.73 1.04,3.19 -2.33,1.81 h -3.11 l -2.16,0.52 -0.6,0.35 -1.64,0.09 0.52,-5.95 0.69,-3.88 -0.78,-1.21 0.95,-1.9 v -4.31 l -1.21,-2.33 1.04,-1.04 0.52,-4.83 -1.04,-3.11 v -2.42 l 0.6,-0.86 -0.69,-3.45 4.74,-1.21 3.1,0.09 1.38,1.12 -0.69,2.41 v 0.69 l 2.93,-1.98 2.07,-0.69 2.67,-0.6 1.29,0.95 h 0.52 l 4.74,0.69 v 1.64 l 1.38,1.12 1.12,3.36 1.55,0.95 -0.35,5.35 1.04,1.38 -0.6,1.98 0.52,2.67 0.35,2.24 -0.6,1.98 0.86,1.55 -1.04,1.64 0.17,3.02 0.35,2.59 -4.4,1.29 -2.41,-0.26 -2.76,2.33 m -121.45,0.02 -0.52,-5 v -2.16 l 1.03,-2.24 -0.26,-1.21 0.09,-5.61 -0.09,-2.5 0.43,-1.72 -0.69,-0.35 -0.17,-3.45 0.34,-1.55 -1.38,-0.86 -1.55,0.86 -1.03,-0.95 -2.24,0.34 -2.5,1.29 -0.6,2.76 c -0.09,0 0.69,2.85 0.69,2.85 l -0.69,1.72 0.6,3.02 -0.78,3.97 -0.6,0.86 0.52,1.21 -0.35,1.73 1.04,3.19 -2.33,1.81 h -3.11 l -2.16,0.52 -0.6,0.35 -1.64,0.09 0.52,-5.95 0.69,-3.88 -0.78,-1.21 0.95,-1.9 v -4.31 l -1.21,-2.33 1.04,-1.04 0.52,-4.83 -1.03,-3.11 v -2.42 l 0.6,-0.86 -0.69,-3.45 4.74,-1.21 3.11,0.09 1.38,1.12 -0.69,2.41 v 0.69 l 2.93,-1.98 2.07,-0.69 2.67,-0.6 1.29,0.95 h 0.52 l 4.74,0.69 v 1.64 l 1.38,1.12 1.12,3.36 1.55,0.95 -0.35,5.35 1.03,1.38 -0.6,1.98 0.52,2.67 0.34,2.24 -0.6,1.98 0.86,1.55 -1.04,1.64 0.17,3.02 0.34,2.59 -4.4,1.29 -2.41,-0.26 -2.76,2.33 m 182.98,-0.76 -4.05,-1.29 -2.07,-1.64 -2.93,-1.29 -1.29,-4.92 -0.09,-3.1 0.09,-3.36 0.52,-11.13 -0.52,-1.47 -3.02,1.12 -2.07,-0.86 -1.64,0.09 -0.35,-5.95 1.21,-1.81 2.16,-0.52 h 4.14 l 0.34,-4.14 0.26,-0.26 -0.78,-1.47 0.52,-1.9 0.35,-3.8 1.64,-0.86 6.12,0.69 v 1.04 l 0.77,0.34 -0.17,2.42 -0.34,4.4 -0.95,3.36 0.6,0.69 1.47,-0.52 2.33,0.6 1.55,-0.6 2.16,0.6 H 357 l 0.26,2.76 -0.95,1.47 -0.43,3.28 -3.71,0.43 -3.1,0.09 -2.5,-0.34 -0.6,0.6 0.52,1.47 -0.69,6.73 0.09,6.04 0.69,1.9 1.29,1.04 h 1.64 l 0.69,0.69 1.64,-0.26 1.81,-1.12 2.24,-1.81 2.16,0.86 0.52,4.83 0.86,2.07 -0.78,1.81 -4.83,1.47 -0.35,0.26 -3.02,0.95 h -1.47 l -0.95,0.35 m -152.68,-0.03 -4.05,-1.29 -2.07,-1.64 -2.93,-1.29 -1.29,-4.92 -0.09,-3.1 0.09,-3.36 0.52,-11.13 -0.52,-1.47 -3.02,1.12 -2.07,-0.86 -1.64,0.09 -0.35,-5.95 1.21,-1.81 2.16,-0.52 h 4.14 l 0.35,-4.14 0.26,-0.26 -0.78,-1.47 0.52,-1.9 0.34,-3.8 1.64,-0.86 6.12,0.69 v 1.04 l 0.78,0.34 -0.17,2.42 -0.35,4.4 -0.95,3.36 0.6,0.69 1.47,-0.52 2.33,0.6 1.55,-0.6 2.16,0.6 h 3.02 l 0.26,2.76 -0.95,1.47 -0.43,3.28 -3.71,0.43 -3.11,0.09 -2.5,-0.34 -0.6,0.6 0.52,1.47 -0.69,6.73 0.09,6.04 0.69,1.9 1.29,1.04 h 1.64 l 0.69,0.69 1.64,-0.26 1.81,-1.12 2.24,-1.81 2.16,0.86 0.52,4.83 0.86,2.07 -0.78,1.81 -4.83,1.47 -0.34,0.26 -3.02,0.95 h -1.47 l -0.95,0.35 m -64.44,-0.55 -0.35,-9.4 -0.17,-3.02 0.86,-1.21 -0.43,-5.69 0.69,-7.16 -1.64,-1.21 -1.38,0.6 -1.55,0.09 h -2.5 l -0.78,-6.3 1.29,-1.47 h 2.24 l 0.86,-0.86 2.42,0.34 0.95,-0.86 0.69,0.6 3.71,-0.43 5.35,0.6 -1.29,2.24 0.43,4.23 -0.6,3.88 1.12,1.47 -1.03,1.72 0.17,5.78 0.17,2.24 -0.86,2.16 1.03,0.78 -0.69,2.76 v 6.12 l -0.78,1.21 -7.94,0.78 m 248.2,-15.69 -4.8,-0.32 -1.62,-0.43 -1.24,0.43 -1.13,-0.38 -2.8,0.38 -0.86,-0.54 -0.32,0.43 -0.38,-0.22 -0.32,0.22 -1.02,0.16 -0.97,-0.16 -0.75,-0.97 -0.27,-2.37 0.22,-0.54 -0.38,-1.29 0.59,-1.02 2.53,-0.22 0.43,0.48 0.81,-0.16 1.67,0.49 0.65,-0.59 1.02,0.65 1.35,-0.43 0.86,0.43 3.24,-0.43 1.4,0.43 0.81,-0.32 1.67,0.22 0.05,0.92 -0.32,0.59 0.11,1.67 0.38,1.4 -0.59,1.51 m -247.09,-26.84 -0.43,-5.43 -0.34,-3.8 -0.52,-0.95 1.55,-1.64 4.66,0.78 h 2.59 l 0.17,6.56 -0.09,3.88 -7.59,0.6"
         id="path408" />
    </g>
  </g>
</svg>
