<svg width="560" height="140" viewBox="157 154 560 140" xmlns="http://www.w3.org/2000/svg" xmlns:xlink="http://www.w3.org/1999/xlink"><defs><linearGradient x1="0%" y1="19.118%" x2="124.858%" y2="134.732%" id="c"><stop stop-color="#FFCC25" offset="0%"/><stop stop-color="#F19123" offset="100%"/></linearGradient><path d="M52.168 81.547v-9.071c0-.707-.14-1.815-.35-3.53-.28-1.511-.42-2.72-.42-3.527V51.811c-.071-2.72-.28-8.467-.631-17.136 0-3.527 0-6.854-.07-10.181-4.131.707-8.052 1.21-11.763 1.714H32.98c-.49 0-1.19.201-2.17.707 0 2.62.21 6.955.7 13.003v8.87l-.63.805c-3.291.909-5.953 1.312-7.984 1.312-.84-.909-1.19-3.53-1.05-7.662l.561-16.531c-.07-.303-.35-.504-.7-.807h-2.241l-.84.202-.63.302c-3.292.808-5.323 1.211-6.163 1.11-.35 0-.63 0-.91-.1l-4.902-.202c-2.45-.1-4.131.302-4.972 1.007-.07.302-.07 1.009-.07 2.117L2.1 50.299c.07.505.07 1.512.07 2.924 0 1.512 0 2.822-.07 3.73l-.21 6.753c0 .404-.07 1.108-.21 2.017-.14.906-.21 1.51-.21 1.915V78.22C1.26 81.95.77 88.603 0 98.28l.14 1.916.14 1.814c.42.303.98.404 1.61.404.42 0 1.191-.202 2.381-.506 1.05-.403 1.821-.604 2.311-.604 1.19 0 3.081-.101 5.812-.202.42 0 .91.1 1.47.403.63.202 1.121.302 1.471.302h6.232c-.63-8.668-.91-15.724-.91-21.166 0-2.522.07-3.73 2.66-4.436 1.26-.303 3.152-.505 5.673-.505 1.75 0 2.45.202 2.731 1.413.14.603.21 1.613.21 3.022 0 5.546-.07 9.376-.28 11.594-.35 5.24-.56 7.458-.56 6.552 0 1.713.28 2.922.91 3.83h2.311c.49 0 1.33-.304 2.45-1.009 2.031-1.108 2.1-1.108 4.902-1.411l1.47-.202 1.751-.504c.63-.201 1.05-.402 1.12-.503.14.101.35.101.701.101l1.61.2 2.801.101c1.61 0 2.521-.704 2.591-2.217l-1.54-15.12zm59.784 17.64h-6.232c-1.05 0-3.291.604-6.862 1.713-2.451.907-4.621 1.312-6.512 1.312-.42 0-.77 0-.98-.1-.211-.708-.56-2.825-1.05-6.452-.351-2.217-.772-4.638-1.402-7.158-.14-.604-.77-.906-1.82-.906-.49 0-1.26.1-2.171.302-.77.1-2.1.402-2.941.402l-2.31-.201c-1.26-.2-2.171-.302-2.801-.302-1.121 0-1.751.403-1.961 1.31a119.45 119.45 0 0 0-1.961 11.694l-6.932-.202c-2.1-.1-4.412-.1-7.003-.1h-6.722V98.38c3.571-13.81 5.812-22.68 6.722-26.511l.91-3.628c3.152-12.197 4.342-17.136 6.653-29.333a487.71 487.71 0 0 1 2.8-13.607c.63-.303 1.401-.504 2.382-.504l10.713.302h4.832c2.801-.606 4.552-.908 5.182-.908.56 0 1.33.302 2.38.807 1.821 7.56 3.151 13.104 3.922 16.732.77 3.629 1.4 6.654 1.82 8.972l2.101 8.568c.07.303 1.12 5.14 3.011 14.413l.98 4.536c.84 2.42 1.4 4.032 1.751 4.84l.84 3.627c.49 1.916.84 3.529 1.121 4.84.28 1.31.49 2.42.7 3.124l.42.806c.28.505.42.908.42 1.21v2.52zM86.254 67.032c-.91-5.14-1.751-9.777-2.591-14.01-.07-.607-.35-1.312-.91-2.117h-1.051l-.84 2.922c-1.75 6.15-2.871 10.081-3.501 11.795-.07.604-.07 1.309-.07 2.117.49.503 1.33.705 2.45.705h4.132c1.05 0 1.89-.504 2.38-1.412zm43.118-42.234c.35 0 .63 0 .771.1.07-.1-.14-.1-.77-.1zm32.491.906h-1.61c-.63 0-1.61.302-2.941 1.008-1.12.303-3.221.404-6.232.404-4.202 0-6.372 0-6.442.101v24.795c-.28.707-.631 1.01-.98 1.01-.631 0-1.822-1.916-3.502-5.848-1.75-3.83-4.131-9.676-7.282-17.639-.49-1.311-1.401-4.233-2.731-4.636-.07.1-.491.201-1.4.403l-3.713.704c-3.71.605-6.652 1.01-8.962 1.312-1.12 28.224-2.661 52.213-4.622 72.07.49.202.98.303 1.54.303l.981-.101 4.831-1.007h10.295V80.135c.069-.302 0-1.006-.141-2.116l-.21-2.117c0-1.007.28-1.712.77-2.016h1.33c6.513 11.995 11.345 21.168 13.655 28.528.21.1.49.1.84.1 1.962 0 3.712-.707 7.843-2.419l2.031-.908c.91-.202 2.24-.604 3.992-1.209h.63c.63 0 1.68-.1 2.03-1.411V25.704zm10.348-2.218c1.89 1.11 3.921 1.715 6.022 1.715 3.921 0 10.223-2.117 11.974-5.243.91-1.51 1.33-4.032 1.33-7.458-.28-6.15-1.47-9.678-6.092-11.29A21.9 21.9 0 0 0 178.233 0c-4.201 0-8.123 2.117-10.294 6.15-1.12 2.016-1.68 4.133-1.68 6.35 0 4.334 2.1 8.669 5.952 10.986zm19.257 60.883c-1.191 0-1.891-.302-2.101-1.007-.63-2.016-.91-5.343-.91-9.98 0-1.714 0-3.023.07-4.133 0-1.107 0-1.814.07-2.318l.42-20.764c1.19-.203 2.1-.606 2.8-1.21-.21-2.016-.35-4.938-.42-8.668-.07-.403-.07-1.211-.07-2.52l-.07-2.42c0-.908-.56-1.411-1.75-1.411-.63-.1-3.781-.403-6.303-.403h-1.12c-8.893.101-14.285.303-16.175.503v17.136h1.26c1.19.303 1.82 1.211 1.89 2.722l.35 7.259c-.21 4.132-.42 10.38-.63 18.948-.07 1.815-.28 4.335-.63 7.562-.49 1.21-1.4 2.016-2.8 2.317l-.49.302v4.133c.209 2.319.279 5.141.35 8.367-.071.302-.071.806-.071 1.412 0 1.309.14 2.016.42 2.218 0-.303 1.961-.707 5.883-1.312l16.806-.301c.98 0 2.31-.303 4.06-1.01v-8.77c0-.905.071-1.914.28-3.224.14-1.513.21-2.62.21-3.226-.28-.101-.7-.202-1.33-.202zm45.85-6.35c0 17.337-11.975 24.092-29.41 24.092-2.03 0-6.933-.606-14.566-1.915-.21-.302-.35-.808-.35-1.312 0-.301.21-1.006.56-1.915l.56-1.613c1.402-5.946 2.732-12.598 3.993-19.958h3.08l1.26.909c.63.503 1.12.806 1.541 1.006 3.852 1.11 5.882 1.715 6.232 1.715 1.751 0 3.432-1.513 3.432-3.831s-1.47-4.737-4.412-7.257c-.35-.302-.91-.808-1.68-1.311-3.642-2.822-4.832-3.932-6.163-5.847-1.47-3.93-2.17-7.056-2.17-9.575 0-8.77 2.31-14.113 6.722-18.548 2.521-2.42 5.182-4.032 9.453-6.35 5.392-1.916 6.933-2.117 13.024-2.117h3.502c1.61 0 2.45.908 2.45 2.622 0 .806 0 1.51-.07 2.218-.07.705-.07 1.51-.07 2.318v4.233c.49 5.745.77 9.072.77 9.878v1.412l-.49 1.007-1.82-.303c-.98-.1-1.89-.302-2.661-.403-.77-.1-1.4-.2-1.89-.2-1.191 0-2.38.402-3.572 1.208-1.61.908-2.38 2.016-2.38 3.427 0 1.715 1.19 3.429 3.571 5.14 1.26.91 2.8 2.22 4.551 3.932 4.692 4.536 7.003 10.282 7.003 17.338zm58.524 21.168h-6.232c-1.05 0-3.291.604-6.862 1.713-2.451.907-4.622 1.312-6.512 1.312-.421 0-.77 0-.981-.1-.21-.708-.56-2.825-1.05-6.452-.35-2.217-.77-4.638-1.4-7.158-.141-.604-.771-.906-1.821-.906-.49 0-1.26.1-2.171.302-.77.1-2.1.402-2.941.402l-2.31-.201c-1.262-.2-2.172-.302-2.802-.302-1.12 0-1.75.403-1.96 1.31-.77 3.528-1.47 7.46-1.96 11.694l-6.934-.202c-2.1-.1-4.41-.1-7.002-.1h-6.723V98.38c3.572-13.81 5.813-22.68 6.723-26.511l.91-3.628c3.152-12.197 4.342-17.136 6.652-29.333.631-3.326 1.54-7.862 2.802-13.607.63-.303 1.4-.504 2.38-.504l10.714.302h4.831c2.802-.606 4.552-.908 5.182-.908.56 0 1.33.302 2.381.807 1.821 7.56 3.152 13.104 3.922 16.732.77 3.629 1.4 6.654 1.82 8.972l2.101 8.568c.07.303 1.12 5.14 3.01 14.413l.981 4.536c.84 2.42 1.4 4.032 1.751 4.84l.84 3.627c.49 1.916.84 3.529 1.12 4.84.28 1.31.49 2.42.7 3.124l.421.806c.28.505.42.908.42 1.21v2.52zm-25.699-32.155c-.49.908-1.33 1.412-2.38 1.412h-4.132c-1.12 0-1.96-.202-2.45-.705 0-.808 0-1.513.07-2.117.63-1.714 1.75-5.645 3.5-11.795l.841-2.922h1.05c.56.805.84 1.51.91 2.117.84 4.233 1.681 8.87 2.591 14.01zm74.27 32.971c0 1.307-.555 1.91-1.735 1.91-.555 0-1.388-.1-2.43-.302a8.4 8.4 0 0 0-2.498-.401l-8.538 1.304c-.346 0-1.04-.1-2.082-.4.209-.704.278-1.408.278-2.111 0-1.407-.486-2.11-1.388-2.11-.208 0-.972.502-2.36 1.508l-2.707 1.809c-1.25.703-3.332 1.003-6.177 1.003-6.108 0-9.925-3.315-15.478-11.451a10.452 10.452 0 0 1-1.457-3.116c-1.18-5.524-1.805-9.14-1.875-10.95-1.04-6.027-1.596-13.962-1.596-23.808 0-10.95.347-16.777 1.735-23.307.278-1.204 2.43-.702 3.818-.601l2.013.3 4.372.502h9.023v1.609c0 .3-.208 1.103-.555 2.51-.209 1.006-.417 1.909-.555 2.813l-.278 2.714c-.555 5.523-.902 9.944-.902 14.767 0 8.439.208 10.446 2.776 14.968 1.318 2.31 2.637 3.415 3.956 3.415 1.041 0 2.36-2.01 3.262-4.12.486-1.103.763-1.808.833-2.31 1.32-8.438 1.875-15.068 1.735-19.89l-.416-10.648c0-.502-.07-1.207-.278-2.01a8.235 8.235 0 0 1-.278-2.01v-2.41l16.38-3.617c.765-.301 2.36-.502 2.985 0l-.346 8.84-.348 8.841v13.764c0 .3-.069.802-.208 1.507-.139.602-.208 1.104-.208 1.405l-.07 10.85c0 3.416.208 9.142.556 17.178.138 1.908.347 3.918.555 6.027.347 2.31.486 4.32.486 6.028z" id="b"/><filter x="-.4%" y="-1.5%" width="101.7%" height="105.9%" filterUnits="objectBoundingBox" id="a"><feOffset dx="3" dy="3" in="SourceAlpha" result="shadowOffsetOuter1"/><feColorMatrix values="0 0 0 0 0 0 0 0 0 0 0 0 0 0 0 0 0 0 1 0" in="shadowOffsetOuter1"/></filter><linearGradient x1="0%" y1="0%" x2="165.36%" y2="229.599%" id="f"><stop stop-color="#F79C1E" offset="0%"/><stop stop-color="#F35F00" offset="100%"/></linearGradient><path d="M385.831 74.686l-.98 9.299c-.419 3.942-.628 7.38-.628 10.31 0 2.729.14 5.155.49 7.075h-10.91c-2.867.304-6.014.71-9.51 1.013h-.77c-.698 0-1.258-.102-1.608-.304L350.866 104h-3.286l1.049-41.14-.63-26.484c-.49-3.233-.699-5.457-.63-6.671v-2.426h10.07c2.448 0 4.407-.1 5.875-.404.769-.202 1.539-.505 2.377-.81 1.189-.303 2.028-.505 2.518-.505l1.818.404-.21 2.832C368.21 53.156 368 56.492 368 71.35c0 4.346.28 5.055 2.308 5.055.77 0 1.468 0 2.028-.101l13.496-1.618zm58.725 25.776h-6.224c-1.048 0-3.286.605-6.852 1.718-2.448.909-4.615 1.313-6.504 1.313-.42 0-.769 0-.979-.1-.21-.707-.56-2.83-1.049-6.47-.349-2.224-.77-4.65-1.398-7.176-.14-.606-.77-.909-1.818-.909-.49 0-1.259.101-2.168.303-.77.101-2.099.404-2.937.404l-2.308-.202c-1.259-.202-2.168-.303-2.797-.303-1.119 0-1.748.404-1.958 1.313a120.119 120.119 0 0 0-1.959 11.726l-6.922-.202c-2.098-.1-4.406-.1-6.994-.1h-6.713v-2.123c3.567-13.85 5.805-22.745 6.713-26.586l.91-3.637c3.146-12.231 4.336-17.184 6.643-29.415a489.8 489.8 0 0 1 2.797-13.646c.63-.305 1.399-.507 2.378-.507l10.7.304h4.824c2.798-.607 4.546-.91 5.175-.91.56 0 1.329.303 2.378.808 1.818 7.583 3.147 13.142 3.916 16.78.769 3.64 1.398 6.671 1.818 8.996l2.098 8.592c.07.305 1.118 5.156 3.006 14.455l.98 4.548c.84 2.426 1.399 4.043 1.748 4.852l.84 3.639c.489 1.92.839 3.539 1.118 4.852.28 1.314.49 2.426.7 3.134l.419.808c.28.505.419.91.419 1.214v2.527zm-25.664-32.246c-.908-5.154-1.748-9.805-2.587-14.05-.07-.606-.35-1.313-.909-2.122h-1.049l-.84 2.932c-1.748 6.166-2.867 10.108-3.496 11.825-.07.608-.07 1.315-.07 2.123.49.507 1.329.709 2.447.709h4.126c1.05 0 1.889-.507 2.378-1.417zm43.06-42.353c.35 0 .63 0 .769.101.07-.1-.139-.1-.768-.1zm32.448.911h-1.608c-.63 0-1.608.304-2.937 1.01-1.12.303-3.218.404-6.224.404-4.196 0-6.365 0-6.433.101v24.866c-.28.708-.63 1.01-.98 1.01-.63 0-1.818-1.918-3.496-5.86-1.748-3.842-4.126-9.705-7.272-17.69-.49-1.314-1.4-4.245-2.729-4.65-.07.1-.489.202-1.397.405l-3.707.708a284.77 284.77 0 0 1-8.95 1.314c-1.12 28.302-2.658 52.36-4.617 72.271.49.202.98.303 1.54.303l.978-.1 4.825-1.01h10.28v-18.5c.07-.302 0-1.009-.14-2.122l-.21-2.123c0-1.01.28-1.718.77-2.021h1.329c6.503 12.03 11.328 21.227 13.635 28.605.21.102.49.102.84.102 1.957 0 3.706-.708 7.832-2.427l2.028-.908c.91-.202 2.237-.606 3.986-1.214h.63c.629 0 1.677-.101 2.027-1.414v-71.06zM549 62.556c0 14.253-4.476 23.147-10.21 28.2-2.867 2.53-6.713 5.056-11.398 7.583-.63.201-1.609.404-2.799.505l-8.04 2.83c-8.881 1.516-14.336 2.326-16.505 2.326h-1.398c-.35-.911-.559-1.82-.559-2.73.63-8.896.91-14.252.91-15.97V71.147c0-.707.139-1.818.419-3.334.209-1.517.35-2.628.35-3.337V45.98l-.98-17.083c-.14-2.224.42-3.337 1.749-3.337h19.16l6.014 1.619c7.762 1.92 13.916 6.368 18.601 13.341.91 2.123 1.4 3.438 1.538 4.044C548.371 52.55 549 55.58 549 62.556zm-19.44-2.022c0-4.549-3.078-8.693-6.994-10.309-.35-.1-.839-.1-1.398-.1h-.49c-.42.605-.77 1.716-.979 3.334-.07.505-.07 1.012-.07 1.517 0 .504 0 1.01-.07 1.516l-.14 3.537c-.279 6.166-.42 9.705-.42 10.613 0 3.135.56 4.65 1.75 4.65 1.746 0 6.013-4.952 7.622-9.097.769-2.123 1.188-3.943 1.188-5.661z" id="e"/><filter x="-.7%" y="-1.9%" width="103%" height="107.6%" filterUnits="objectBoundingBox" id="d"><feOffset dx="3" dy="3" in="SourceAlpha" result="shadowOffsetOuter1"/><feColorMatrix values="0 0 0 0 0 0 0 0 0 0 0 0 0 0 0 0 0 0 1 0" in="shadowOffsetOuter1"/></filter></defs><g fill="none" fill-rule="evenodd"><path d="M159.28 289.82a.576.576 0 0 1-.18-.42v-19.8c0-.16.06-.3.18-.42s.26-.18.42-.18h6.6c1.24 0 2.335.265 3.285.795.95.53 1.69 1.27 2.22 2.22.53.95.795 2.045.795 3.285 0 1.24-.26 2.335-.78 3.285-.52.95-1.26 1.69-2.22 2.22-.96.53-2.06.795-3.3.795h-2.7c-.2 0-.3.1-.3.3v7.5c0 .16-.06.3-.18.42s-.26.18-.42.18h-3c-.16 0-.3-.06-.42-.18zm6.87-12.42c.62 0 1.125-.195 1.515-.585.39-.39.585-.895.585-1.515 0-.62-.195-1.125-.585-1.515-.39-.39-.895-.585-1.515-.585h-2.55c-.2 0-.3.1-.3.3v3.6c0 .2.1.3.3.3h2.55zm12.705 12.3c-.89-.42-1.595-1-2.115-1.74a6.245 6.245 0 0 1-1.02-2.235c-.2-.83-.3-1.905-.3-3.225s.1-2.395.3-3.225c.2-.83.54-1.575 1.02-2.235.52-.74 1.225-1.32 2.115-1.74.89-.42 1.855-.63 2.895-.63s2.005.21 2.895.63c.89.42 1.595 1 2.115 1.74.48.66.82 1.405 1.02 2.235.2.83.3 1.905.3 3.225s-.1 2.395-.3 3.225c-.2.83-.54 1.575-1.02 2.235-.52.74-1.225 1.32-2.115 1.74-.89.42-1.855.63-2.895.63s-2.005-.21-2.895-.63zm4.05-3.435c.29-.11.535-.295.735-.555.18-.26.305-.62.375-1.08.07-.46.105-1.17.105-2.13s-.035-1.67-.105-2.13c-.07-.46-.195-.82-.375-1.08-.2-.26-.445-.445-.735-.555-.29-.11-.675-.165-1.155-.165-.46 0-.84.055-1.14.165-.3.11-.55.295-.75.555-.18.26-.305.62-.375 1.08-.07.46-.105 1.17-.105 2.13s.035 1.67.105 2.13c.07.46.195.82.375 1.08.2.26.45.445.75.555.3.11.68.165 1.14.165.48 0 .865-.055 1.155-.165zm10.425-13.935a.576.576 0 0 1-.18-.42v-2.61c0-.16.06-.3.18-.42s.26-.18.42-.18h6.72c.14 0 .255.05.345.15.09.1.135.21.135.33v16.62c0 .2.1.3.3.3h3.3c.16 0 .3.06.42.18s.18.26.18.42v2.7c0 .16-.06.3-.18.42s-.26.18-.42.18h-11.1c-.16 0-.3-.06-.42-.18a.576.576 0 0 1-.18-.42v-2.7c0-.16.06-.3.18-.42s.26-.18.42-.18h3.3c.2 0 .3-.1.3-.3v-12.99c0-.2-.1-.3-.3-.3h-3c-.16 0-.3-.06-.42-.18zm16.5 6.3a.576.576 0 0 1-.18-.42v-2.61c0-.16.06-.3.18-.42s.26-.18.42-.18h6.72c.14 0 .255.05.345.15.09.1.135.21.135.33v10.32c0 .2.1.3.3.3h3.3c.16 0 .3.06.42.18s.18.26.18.42v2.7c0 .16-.06.3-.18.42s-.26.18-.42.18h-11.1c-.16 0-.3-.06-.42-.18a.576.576 0 0 1-.18-.42v-2.7c0-.16.06-.3.18-.42s.26-.18.42-.18h3.3c.2 0 .3-.1.3-.3v-6.69c0-.2-.1-.3-.3-.3h-3c-.16 0-.3-.06-.42-.18zm3.705-5.895a.467.467 0 0 1-.135-.345v-3.24c0-.12.045-.23.135-.33.09-.1.205-.15.345-.15h3.24c.14 0 .255.05.345.15.09.1.135.21.135.33v3.24c0 .14-.045.255-.135.345a.467.467 0 0 1-.345.135h-3.24a.467.467 0 0 1-.345-.135zm18.495 13.29c.34.27.77.405 1.29.405s.95-.135 1.29-.405c.34-.27.51-.645.51-1.125 0-.16.06-.3.18-.42s.26-.18.42-.18h2.7c.16 0 .3.06.42.18s.18.26.18.42c0 1.02-.255 1.945-.765 2.775-.51.83-1.2 1.48-2.07 1.95a5.93 5.93 0 0 1-2.865.705c-1.04 0-1.995-.23-2.865-.69-.87-.46-1.56-1.1-2.07-1.92-.51-.82-.765-1.74-.765-2.76v-5.97c0-.2-.1-.3-.3-.3h-2.94c-.16 0-.3-.06-.42-.18a.576.576 0 0 1-.18-.42v-2.4c0-.16.06-.3.18-.42s.26-.18.42-.18h2.94c.2 0 .3-.1.3-.3v-4.59c0-.16.06-.3.18-.42s.26-.18.42-.18h2.7c.16 0 .3.06.42.18s.18.26.18.42v4.59c0 .2.1.3.3.3h5.1c.16 0 .3.06.42.18s.18.26.18.42v2.4c0 .16-.06.3-.18.42s-.26.18-.42.18h-5.1c-.2 0-.3.1-.3.3v5.91c0 .48.17.855.51 1.125zm10.8-7.395a.576.576 0 0 1-.18-.42v-2.61c0-.16.06-.3.18-.42s.26-.18.42-.18h6.72c.14 0 .255.05.345.15.09.1.135.21.135.33v10.32c0 .2.1.3.3.3h3.3c.16 0 .3.06.42.18s.18.26.18.42v2.7c0 .16-.06.3-.18.42s-.26.18-.42.18h-11.1c-.16 0-.3-.06-.42-.18a.576.576 0 0 1-.18-.42v-2.7c0-.16.06-.3.18-.42s.26-.18.42-.18h3.3c.2 0 .3-.1.3-.3v-6.69c0-.2-.1-.3-.3-.3h-3c-.16 0-.3-.06-.42-.18zm3.705-5.895a.467.467 0 0 1-.135-.345v-3.24c0-.12.045-.23.135-.33.09-.1.205-.15.345-.15h3.24c.14 0 .255.05.345.15.09.1.135.21.135.33v3.24c0 .14-.045.255-.135.345a.467.467 0 0 1-.345.135h-3.24a.467.467 0 0 1-.345-.135zm11.955 17.085a.576.576 0 0 1-.18-.42v-20.13c0-.16.06-.3.18-.42s.26-.18.42-.18h2.7c.16 0 .3.06.42.18s.18.26.18.42v10.8c0 .08.035.13.105.15.07.02.135 0 .195-.06l4.56-4.77c.1-.14.2-.24.3-.3.1-.06.25-.09.45-.09h3.09c.2 0 .355.06.465.18.11.12.165.26.165.42 0 .16-.05.29-.15.39l-5.67 5.7c-.14.14-.21.28-.21.42 0 .16.08.32.24.48l5.79 6.42c.1.14.15.28.15.42 0 .16-.06.295-.18.405a.64.64 0 0 1-.45.165h-3.24a.68.68 0 0 1-.45-.15c-.12-.1-.25-.23-.39-.39l-4.47-5.1c-.04-.06-.1-.08-.18-.06-.08.02-.12.07-.12.15v4.95c0 .16-.06.3-.18.42s-.26.18-.42.18h-2.7c-.16 0-.3-.06-.42-.18zm31.89-11.31a.576.576 0 0 1-.18-.42v-2.4c0-.16.06-.3.18-.42s.26-.18.42-.18h3.3c.2 0 .3-.1.3-.3v-.6c0-1.02.255-1.95.765-2.79a5.44 5.44 0 0 1 2.085-1.98c.88-.48 1.83-.72 2.85-.72h2.7c.16 0 .3.06.42.18s.18.26.18.42v2.7c0 .16-.06.3-.18.42s-.26.18-.42.18h-2.7c-.5 0-.925.155-1.275.465-.35.31-.525.705-.525 1.185v.54c0 .2.1.3.3.3h4.5c.16 0 .3.06.42.18s.18.26.18.42v2.4c0 .16-.06.3-.18.42s-.26.18-.42.18h-4.5c-.2 0-.3.1-.3.3v10.41c0 .16-.06.3-.18.42s-.26.18-.42.18H295c-.16 0-.3-.06-.42-.18a.576.576 0 0 1-.18-.42v-10.41c0-.2-.1-.3-.3-.3h-3.3c-.16 0-.3-.06-.42-.18zm29.22-3.33c.12.12.18.26.18.42v13.8c0 .16-.06.3-.18.42s-.26.18-.42.18h-1.5c-.26 0-.44-.07-.54-.21-.06-.08-.13-.19-.21-.33a1.14 1.14 0 0 0-.27-.33.516.516 0 0 0-.33-.12c-.1 0-.22.04-.36.12-.14.08-.28.17-.42.27-.36.28-.75.505-1.17.675-.42.17-.97.255-1.65.255-1.62 0-2.9-.495-3.84-1.485-.94-.99-1.41-2.345-1.41-4.065v-9.18c0-.16.06-.3.18-.42s.26-.18.42-.18h2.7c.16 0 .3.06.42.18s.18.26.18.42v8.88c0 .66.2 1.17.6 1.53.4.36.95.54 1.65.54s1.25-.175 1.65-.525c.4-.35.6-.825.6-1.425v-9c0-.16.06-.3.18-.42s.26-.18.42-.18h2.7c.16 0 .3.06.42.18zm-10.83-2.76a.576.576 0 0 1-.18-.42v-2.7c0-.16.06-.3.18-.42s.26-.18.42-.18h2.7c.16 0 .3.06.42.18s.18.26.18.42v2.7c0 .16-.06.3-.18.42s-.26.18-.42.18h-2.7c-.16 0-.3-.06-.42-.18zm6 0a.576.576 0 0 1-.18-.42v-2.7c0-.16.06-.3.18-.42s.26-.18.42-.18h2.7c.16 0 .3.06.42.18s.18.26.18.42v2.7c0 .16-.06.3-.18.42s-.26.18-.42.18h-2.7c-.16 0-.3-.06-.42-.18zm18.15 6.375c-.36-.27-.83-.405-1.41-.405-.78 0-1.425.2-1.935.6-.51.4-.765 1-.765 1.8v8.61c0 .16-.06.3-.18.42s-.26.18-.42.18h-2.7c-.16 0-.3-.06-.42-.18a.576.576 0 0 1-.18-.42v-13.8c0-.16.06-.3.18-.42s.26-.18.42-.18h1.5c.16 0 .285.035.375.105.09.07.215.195.375.375.12.16.23.28.33.36.1.08.22.12.36.12.18 0 .35-.035.51-.105.16-.07.35-.185.57-.345.42-.26.82-.465 1.2-.615.38-.15.89-.225 1.53-.225 1.5 0 2.725.485 3.675 1.455.95.97 1.425 2.235 1.425 3.795 0 .16-.06.3-.18.42s-.26.18-.42.18h-2.7c-.16 0-.3-.06-.42-.18a.576.576 0 0 1-.18-.42c0-.48-.18-.855-.54-1.125zm31.215 11.31c-.39.15-.925.225-1.605.225-.92 0-1.77-.205-2.55-.615a5.887 5.887 0 0 1-2.01-1.755c-.48-.66-.8-1.365-.96-2.115-.16-.75-.24-1.865-.24-3.345 0-1.46.085-2.57.255-3.33.17-.76.485-1.47.945-2.13.54-.78 1.19-1.37 1.95-1.77.76-.4 1.61-.6 2.55-.6.62 0 1.13.095 1.53.285.4.19.65.285.75.285.32 0 .48-.23.48-.69v-5.28c0-.16.06-.3.18-.42s.26-.18.42-.18h2.7c.16 0 .3.06.42.18s.18.26.18.42v20.13c0 .16-.06.3-.18.42s-.26.18-.42.18h-1.5c-.14 0-.28-.07-.42-.21-.1-.1-.21-.225-.33-.375-.12-.15-.23-.225-.33-.225-.16 0-.39.11-.69.33-.36.24-.735.435-1.125.585zm-3.015-4.425c.3.58.94.87 1.92.87s1.62-.29 1.92-.87c.16-.3.26-.66.3-1.08.04-.42.06-1.12.06-2.1s-.02-1.68-.06-2.1c-.04-.42-.14-.78-.3-1.08-.3-.58-.94-.87-1.92-.87s-1.62.29-1.92.87c-.16.3-.26.66-.3 1.08-.04.42-.06 1.12-.06 2.1s.02 1.68.06 2.1c.04.42.14.78.3 1.08zm13.71-7.05a.576.576 0 0 1-.18-.42v-2.61c0-.16.06-.3.18-.42s.26-.18.42-.18h6.72c.14 0 .255.05.345.15.09.1.135.21.135.33v10.32c0 .2.1.3.3.3h3.3c.16 0 .3.06.42.18s.18.26.18.42v2.7c0 .16-.06.3-.18.42s-.26.18-.42.18h-11.1c-.16 0-.3-.06-.42-.18a.576.576 0 0 1-.18-.42v-2.7c0-.16.06-.3.18-.42s.26-.18.42-.18h3.3c.2 0 .3-.1.3-.3v-6.69c0-.2-.1-.3-.3-.3h-3c-.16 0-.3-.06-.42-.18zm3.705-5.895a.467.467 0 0 1-.135-.345v-3.24c0-.12.045-.23.135-.33.09-.1.205-.15.345-.15h3.24c.14 0 .255.05.345.15.09.1.135.21.135.33v3.24c0 .14-.045.255-.135.345a.467.467 0 0 1-.345.135h-3.24a.467.467 0 0 1-.345-.135zm14.94 16.965c-.89-.42-1.595-1-2.115-1.74a6.245 6.245 0 0 1-1.02-2.235c-.2-.83-.3-1.905-.3-3.225s.1-2.395.3-3.225c.2-.83.54-1.575 1.02-2.235.52-.74 1.225-1.32 2.115-1.74.89-.42 1.855-.63 2.895-.63 1.86 0 3.3.45 4.32 1.35.58.5 1.03 1.145 1.35 1.935.32.79.48 1.655.48 2.595 0 .18-.045.325-.135.435a.458.458 0 0 1-.375.165h-2.76c-.34 0-.53-.16-.57-.48-.08-.74-.29-1.28-.63-1.62-.32-.32-.88-.48-1.68-.48-.92 0-1.55.24-1.89.72-.18.26-.305.62-.375 1.08-.07.46-.105 1.17-.105 2.13 0 .98.03 1.7.09 2.16.06.46.19.81.39 1.05.2.26.45.445.75.555.3.11.68.165 1.14.165.78 0 1.33-.13 1.65-.39.18-.16.32-.365.42-.615.1-.25.18-.635.24-1.155.04-.28.23-.42.57-.42h2.76c.16 0 .285.055.375.165.09.11.135.255.135.435 0 .84-.12 1.615-.36 2.325a5.01 5.01 0 0 1-1.05 1.815c-.52.56-1.185.99-1.995 1.29-.81.3-1.725.45-2.745.45-1.04 0-2.005-.21-2.895-.63zm13.425.12a.576.576 0 0 1-.18-.42v-20.13c0-.16.06-.3.18-.42s.26-.18.42-.18h2.7c.16 0 .3.06.42.18s.18.26.18.42v5.4c0 .2.05.365.15.495a.5.5 0 0 0 .42.195c.06 0 .33-.115.81-.345.48-.23 1.07-.345 1.77-.345 1.62 0 2.9.495 3.84 1.485.94.99 1.41 2.345 1.41 4.065v9.18c0 .16-.06.3-.18.42s-.26.18-.42.18h-2.7c-.16 0-.3-.06-.42-.18a.576.576 0 0 1-.18-.42v-8.88c0-.64-.195-1.145-.585-1.515-.39-.37-.945-.555-1.665-.555-.7 0-1.25.175-1.65.525-.4.35-.6.825-.6 1.425v9c0 .16-.06.3-.18.42s-.26.18-.42.18h-2.7c-.16 0-.3-.06-.42-.18z" fill="#30343E"/><g transform="translate(157 158)"><use fill="#000" filter="url(#a)" xlink:href="#b"/><use fill="url(#c)" xlink:href="#b"/></g><g transform="translate(157 158)"><use fill="#000" filter="url(#d)" xlink:href="#e"/><use fill="url(#f)" xlink:href="#e"/></g></g></svg>