<svg xmlns="http://www.w3.org/2000/svg" xmlns:xlink="http://www.w3.org/1999/xlink" viewBox="0 0 170 46" preserveAspectRatio="xMinYMin slice"><defs><path id="a" d="M1.6 1h166.3v43.8H1.6z"/></defs><clipPath id="b"><use xlink:href="#a" overflow="visible"/></clipPath><path clip-path="url(#b)" d="M148.1 13.7h-14.3v5.1h2.8c1.7 0 2.3.8 2.3 2.8v14.1c0 2.1-.6 2.8-2.3 2.8h-2.8v5.1H154v-5.1h-3.6c-1.6 0-2.2-.8-2.2-2.8v-7.5c0-6.5 2.4-10.9 5.8-10.9-1.3 1.6-1.6 2.5-1.6 3.6 0 2.6 1.9 4.5 4.4 4.5 3.2 0 5.2-2.2 5.2-5.8 0-3.9-2.6-6.7-6.2-6.7-3.2 0-4.9 1.1-8 5.1l.3-4.3zM112.6 25c.3-4.6 2.4-7.2 6-7.2 3.7 0 6.1 2.8 6 7.2h-12zm21.5 4.8c.1-.6.1-1.4.1-1.8 0-9.3-6-15.3-15.5-15.3s-15.6 6.3-15.6 16c0 9.9 6.1 15.9 16.3 15.9 8 0 13.5-4.4 14.4-11.4h-6c-1.1 3.9-3.8 6-7.5 6-4.7 0-7.1-3.1-7.6-9.5h21.4zM94.2 3.1h-5.6c0 2.7-.4 4.5-1.5 6.6-1.4 2.7-2.9 3.8-6.6 4.7V19h4.4v17.7c0 5.2 3.1 8 9.1 8 5.3 0 8.2-2.8 8.2-8v-5.6H98V36c0 2.5-.6 3.5-2 3.5-1.3 0-1.8-.9-1.8-3.2V19h7.6v-5.1h-7.6V3.1zM76.9 13.7H62.7v5.1h2.6c1.7 0 2.3.8 2.3 2.8v9.5c0 3-.3 4-1.2 5.4-1 1.3-2.6 2.1-4.3 2.1-3.6 0-4.7-1.5-4.7-6.5V13.7h-14v5.1h2.4c1.7 0 2.3.8 2.3 2.8v13.8c0 6.1 3.3 9.3 9.6 9.3 4 0 6.6-1.4 9.8-5.3v4.2h14.3v-5.1H79c-1.7 0-2.3-.8-2.3-2.8v-22zM40.8 1.8H26.6v5.1h2.7c1.7 0 2.3.8 2.3 2.8v26c0 2.1-.6 2.8-2.3 2.8h-2.7v5.1h19.2v-5.1H43c-1.7 0-2.3-.8-2.3-2.8V1.8zM15.4 13.7v-3.4c0-2.6.1-3.1.6-4.1.4-.8 1.2-1.4 1.8-1.4.3 0 .6.1 1.1.4-.7 1.2-.9 2-.9 2.8 0 1.9 1.4 3.3 3.3 3.3 2.1 0 3.8-1.8 3.8-4.1 0-3.8-3-6.2-7.5-6.2-3.6 0-6.9 1.3-8.8 3.4-1.7 1.9-2.1 3.4-2.3 8.5-.1.2-.1.5-.1.9H1.6v5.1h4.9v16.9c0 2.1-.6 2.8-2.3 2.8H1.6v5.1h20.1v-5.1H18c-1.7 0-2.3-.8-2.3-2.8v-17h7v-5.1h-7.3zM162.3 33.7c-3.1 0-5.6 2.5-5.6 5.6 0 3.1 2.5 5.6 5.6 5.6 3.1 0 5.6-2.5 5.6-5.6 0-3.1-2.5-5.6-5.6-5.6"/></svg>