<svg id="Ebene_1" data-name="Ebene 1" xmlns="http://www.w3.org/2000/svg" viewBox="0 0 382.81 72.4"><defs><style>.cls-1{fill:#03347c;}.cls-1,.cls-2,.cls-3{fill-rule:evenodd;}.cls-2{fill:#056a9c;}.cls-3{fill:#cd061e;}</style></defs><title>img</title><g id="Nachrichten"><g id="_Gruppe_" data-name="&lt;Gruppe&gt;"><path class="cls-1" d="M163.79,31.11c1-1.24.1-3.35.1-4.74,0-2.59-.24-5-.39-7.59-.13-2.17-.81-4.28-.65-6.54.08-1.11.23-3.74-1.59-3.72-2.43,0-6.67-3.27-2.65-5,3.15-1.35,7.68-3.84,10.17.1.65,1,.16,3.17.32,4.53.27,2.3.21,4.83.31,7.19.17,4-.29,8.15.11,11.9.24,2.22.32,4.53.39,6.73s1.34,3.83,1,6.09c-.16,1-.13,7,.43,6.95a16.69,16.69,0,0,0,.32,6.48c.29,1.15,1.27,7.62.81,8.11-1.07,1.13.91,2.46,1.87,2.7,1.22.3,3.55,1.41,2,2.86a4.5,4.5,0,0,1-1.91,1c-1.18.32-1.59,1-2.72,1.39-1.49.56-3-.49-4.12-.2.35-.09-2.53-1.52-1.42-2.55-.33-.49,0-2.73-.93-2.34s-1.82.7-2.8,1.18c-2.06,1-4,.41-6.16-.13-3.16-.8-4.38-2.13-6.75-4.5-2-2.6-3.37-8.58-3.37-12.88,0-2.72,1-8.76,2.89-12.26.33-1.2,3.59-3.61,4.34-4.26,2.72-.74,7.86-2.1,10.42-.47m-1.9,28.4c1.6-.35,3-1.22,3.31-2,.55-1.23.17-3.31.17-4.78a43.37,43.37,0,0,0-.39-5.05c-.49-4.27,1.24-13.61-5.87-12.69-1.66.21-2,1-3.41,1.47.23,1.47-1.35,1.84-1.66,3.21-.23,1-1.89,3.24-1.27,4-1,1.31-.53,3.33-.91,4.84A53.81,53.81,0,0,0,153,54.24c.05-.47.32.68.41.74s2.27,5.47,3.3,4.31c.16,1.53,3.85.74,4.74.22"/><path class="cls-1" d="M358.35,50.31c-1.54-1-6.85-2.59-6.27,1.29a30,30,0,0,0,.89,4.76c.69,2.21,1.92,3.15,2.83,5.11,1.63,0,3.13,2,5.16,2.19.73,1,4.41.4,5.66,0,.85-.27,3-1.62,3.06-2.35a15.56,15.56,0,0,0,4.92-4.15c2.84-3.66,4.1-9.59,3.74-14.16-.16-2-1.07-3.46,1.9-2.38,2.38.86,2.81,4.33,2.47,6.59-.37,2.44.12,4.54-1,6.83-.65,1.36-1.22,2.76-1.86,4.24-1.45,3.36-5,6.88-7.79,8.88a16.35,16.35,0,0,1-8.44,2.35c-4.56,0-7.28-2.08-10.79-4.33-1.25-.8-6.13-5.26-5.07-7.34a13.23,13.23,0,0,1-1-1.81c-.23-1-.26-2-.46-2.95-.32-1.57.25-3.11-1-4.14-1.44-1.21-1.87-3.86.11-4.84,2.19-1.08,2.12-2.21,2.91-3.85,1-2.08,2.27-8.49,5.1-9.12a7.22,7.22,0,0,1,9.6-.06c.69.59,5.46,8.53,3.86,9,.47,2.43-1,9.72-3.24,11-.16-.05-5.59.37-5.3-.81m-2.86-12.43c-.89,1.25-2.84,5.21-2.11,6.66a14.12,14.12,0,0,1,5.56-.34c1.32-2.05,2.65-6,1-7.82s-2.91-.64-4.43,1.51"/><path class="cls-1" d="M179.9,42.73c-1.91-.55-2.5-4.71-.5-5.18,1-.24,4.1.18,4-1.57,1.09-.22,2.66-3.38,3.41-4.37,1.92-2.56,4-5.49,7.51-5.25,1.88.13,4-.09,5.51,1.12,4.54,3.73,4.51,10,2.4,15.24a53.52,53.52,0,0,0-2,5.74c-1,3.7-5.66-.08-7.36-.45-1.38-.3-5.68-1.65-6.8-2.66-1.27,2.44-.47,7.55.91,10.13,1.16,2.18,3.55,5,6.19,5.56a4.84,4.84,0,0,0,5.13-2.2c3.12-.17,3.48,2.56,1.95,4.61-2.16,2.89-4.24,3.9-7.71,3.32-2.69-.45-8-2.32-8.75-5.46-2.4.3-3.25-6.78-3.82-8s0-3.83-.18-5.37a8.31,8.31,0,0,1,.16-2.83c.11-.77-.24-1.7,0-2.38m15.59-9.84c-1.86-.31-3.85,1.89-4.86,2.9-1.51,1.51-3.65,3.95-.37,5.06,2.33.79,5.68,3.23,6.33-.67.27-1.6,1.27-6.88-1.1-7.29"/><path class="cls-1" d="M123,38.38c1.19-1.14,4.65-5.17,6.45-4.34,1.86-1.6,6.48-.12,7.6,1.69,4.3,1.12,4.37,8.46,4.3,11.54-.15,6.43-3.33,12.16-5.08,18.21-.55,1.89.67,1.56,1.64,3.11.75,1.2.25,2.42-1,3.21-2,1.31-5.38-.26-7.48-.77,0-.29-.8-.82-1.06-1.67-.65-2.09.75-2.46,1.48-3.93.38-.75.82-.4,1-1.47a18.58,18.58,0,0,1,1-2.94c1.08-2.88,2.3-5.45,2.8-8.48a38.28,38.28,0,0,0,.3-5c.09-2.22-.62-3.55-.87-5.69.21-.46-1.9-2.74-2.85-2.87-2.42-.33-5.63,2.82-6.1,5.19-1.51.15-1.59,6.23-2.56,6.28-.08,4.25.26,8.53-.16,12.77.26,0,.34-.17.24-.43,0,0,.78,1.67.2,1.53a2.78,2.78,0,0,1-.79,3.66c-2.43,2-4.68-.49-5.8-2.26,0-.78,1.1-4.29.48-4.54-.05,0,.49-10,.43-11.26a16,16,0,0,0-.58-1.66c-.29-1,.33-3.06.48-4.13a34.67,34.67,0,0,0,.58-7c-.13-1.64-.79-3.28-.44-4.91.47-.1,1.18-.39,1.26-.86a6.48,6.48,0,0,0,2,0c3.92-.51,3.12,4.71,2.49,7"/><path class="cls-1" d="M281.41,63.25c3.41,1.72,1.08,5.23-1.47,6-.89.28-3.27.73-4-.34-.69-.69-.73-2.58-1.28-3.72-1.08,1.28-9.49,2.39-9.43,1.87-2.31,1.36-7.31-2.3-8.24-3.94a20.89,20.89,0,0,1-2.73-11.29,12.72,12.72,0,0,1,1.12-5.73A35.9,35.9,0,0,0,257.6,42c2.37-6,10.11-4.43,14.6-2.78a13.54,13.54,0,0,0,.33-4.85c.73-1.27,2.69-.77,3.84-.84,3.31,1.7,1.38,5.61,2,8.74.22,1,.35,9.93.8,9.82-.49,1.8.26,4.31.57,6.18.11.68,1.8,4.76,1.63,5M271.72,45.7c-3-2.33-5.57-3.29-8.44-.2-.84.91-3.4,5.69-2.34,6.68-1.19,3.14.74,8,3.75,9.22a7.41,7.41,0,0,0,4.39,0A13.6,13.6,0,0,0,272.43,60c1.35-1.35,1.05-5.4,1-7.23a13.86,13.86,0,0,0-1-5.25c-.17-.36-.83-1.42-.67-1.84"/><path class="cls-1" d="M321.63,11.72c.16.89.3,10.68-.58,11,1,4.43-.1,10.36-.2,15,2.9-1.75,4.64-4.18,8.12-5.17,1.83-.52,3.08.26,4.84.46,2.08.24,2.32,1.18,3.82,2.53,2.63,2.37,2.21,8.5,2.1,11.64a105.44,105.44,0,0,1-1.7,14.9c-.67,3.77.05,2.48,2.88,4.09,2.58,1.47,2.09,3.29.51,5.17a6.73,6.73,0,0,1-3.58-.42c-2.42-1-4.52.19-6.52-1.39-2.6-2.06,1.45-8.3,1.53-11.12A82.79,82.79,0,0,1,334,48.85c.43-3.1.45-8.27-2.06-10.4-2.83-2.39-4.54,1.44-7,2.59a9,9,0,0,0-2.28,4c-.48,1.48-1.75,2.91-2.08,4.55a24.6,24.6,0,0,0-.82,5.14c0,1.53-.61,8-.33,9.06a9.07,9.07,0,0,1,.2,3.57c-.31,1.78-2.06,2.45-3.69,2.21-4.52-.67-2.11-7.69-2.2-10.48a52.94,52.94,0,0,1,.82-10.71c.53-2.85.19-7.24.39-10.26.29-4.42.64-9.36.51-13.35,0-1.38.1-9.75.06-9.75.71-1.86,1.11-3.36-.7-4.4a2.36,2.36,0,0,1-2.24-.51c-.8-.93-1.5-1.4-1.36-2.91.16-1.79,4.42-2.32,4.41-1.76a16.64,16.64,0,0,0,3.71-.38c-.11.61,2,.89,2.17.95,1.81.56,1.93,5.44.11,5.69"/><path class="cls-1" d="M109.94,29.6c-1.26,5.15-3.06,10.67-3.13,16.07-.64,0-.83,2.18-.75,3s-.45,4.58-.95,4.8.15,5.16,0,6c-.56,2.44-2.9,2.36-4.88,1.66-3.62-1.27-1.31-5.37-1.2-7.28.07-1.23,1.28-10.77,2-11,1.56-.53,1.19-9.19,1.6-10.58.56-1.91.33-4,2.74-4.78,1.84-.62,3.71.63,4.66,2.14"/><path class="cls-1" d="M242.16,41.86a7.69,7.69,0,0,1,.19,2.09c1,1.75,1.72,3.34,2.67,5,1.55,2.73,2.51,5.1,3.83,7.86,3.08,6.45-1.46,13.54-8.53,14.18-5.11.46-10.69-.7-14.77-4.05a4.17,4.17,0,0,1-1.14-4.79c.57-1.48,1-3.18,2.09-4.37,1.42-1.52,3.72-.45,4.77,1a2.5,2.5,0,0,1,.42,3c-.29.83.23,1.79-.08,2.37.12-.06,2.69,1.48,3.87,1.32.71-.1,5.89.27,5.74-1.47,4.27-.41.46-9.85-.64-11.5-3.21-4.84-7.71-14.75-2.31-19.39a10.75,10.75,0,0,0,1.22-2.22A8.86,8.86,0,0,0,242,29.36a20.11,20.11,0,0,1,7.1.6c2.45.74,7.17,4.33,4.06,7.39-2.41,0-2,0-4-1-1.22-.62-1.79-1.28-3.69-1.07a2.62,2.62,0,0,0-1.82.88,16.28,16.28,0,0,0-1.48,2.5c-.05.32.13,3.23,0,3.24"/><path class="cls-1" d="M214.87,30.64c2.65-.47,3.51,4.23,3.51,6,2.3-3.67,4.8-7.23,9.4-6.34a4.79,4.79,0,0,1,2.89,1.86c1.22,1.65.34,2.06.28,3.8-2.64,1.95-5.53-1.17-7.68,1.21-3.13,3.49-4.12,8.58-5.08,13a47.16,47.16,0,0,0-.95,15c.24,1.9,1.11,4.79-.42,6.31a3.35,3.35,0,0,1-3.34.78c-.14-.22-2.64-.94-2.13-1-1.06-.78-1.31-3.93-.46-5.55.13-2.06.42-5.32.42-7.28,0-2.72.27-7.3.55-10.14.31-3.13-.27-5.89-.18-8.71,1.47-.25-2.23-4.27-2.22-4.43-2.44-2.94,2.72-6,5.41-4.51"/><path class="cls-1" d="M287.7,61.73c-.25-2.64-2.23-5.38-2-8,0-.3-.35-4.25-.12-4-.62-.36,1.64-7.83,1.55-7.83a20,20,0,0,1,4.37-9.53c1.75-1.78,3.09-4.57,5.72-5.43a9.43,9.43,0,0,1,9.17,2.25c1.54,1.59,4.58,3.77,4.14,6.74-.22,1.5-1.42,2.51-2.53,3.4a3.36,3.36,0,0,1-2.28,3.3c-1.82.9-1.81-.53-3.44-.87a7.41,7.41,0,0,1-.43-1.74c.17-.9,1.15-1.52,1.44-2.4,1.11-3.44-1.26-6.21-4.74-4.83-2.61,1-4.08,5.3-5.08,7.88a27.82,27.82,0,0,0-1.87,8.64c0,.9-.76,6.57.46,7,.05,1.39,1.08,3.76,2.09,4.31.85.46,2.48.82,3.2,1.48,3.08-.92,4.52-5.66,7.51-5.42,3.77.31-.13,6.18-1.2,7.52-.06,2.73-8,4.74-7.93,3.3-3.71-.08-5.3-3.63-8-5.72"/><path class="cls-2" d="M50.81,46.14c-4.3-1.81-9.23-3.4-14.61-1.17-2.91,1.21-4.91,3.39-7.06,5.5a12,12,0,0,0-.87,8.11,12.91,12.91,0,0,0,13.52,9.76c.92-.07,1.94,0,2.77-.07,1.58-.18,2.68-1.09,4-1.53.78-.26,1.37,0,2-.39,1.39-.73,2-2.44,3.77-2.64.84-1.11.78-2.63,1.54-3.78C55.41,55,55.06,50.83,50.81,46.14ZM36.19,56.33a1,1,0,0,0,0,.39,2.48,2.48,0,0,1-.09,1.1l0,.14a1.62,1.62,0,0,0-.06.39.75.75,0,0,0,0,.1,1.3,1.3,0,0,1,.09.38,3.73,3.73,0,0,1,0,.52,1.63,1.63,0,0,0,0,.52.94.94,0,0,0,.18.27,1,1,0,0,1,.3.57A1.4,1.4,0,0,1,35.74,62a1.62,1.62,0,0,1-.68.13h-.63l-.24,0-.11-.22,0-.09L34,61.73a1,1,0,0,0-.14-.24l-.11-.13v-.22a2,2,0,0,1,.07-.28l0-.1a2.48,2.48,0,0,0,0-.31.91.91,0,0,1,.08-.39,2,2,0,0,0,.07-.36A4.18,4.18,0,0,0,34,59c0-.17,0-.33,0-.5v-.13a7.82,7.82,0,0,1-.07-1c0-.24,0-.46,0-.7a6.86,6.86,0,0,0,0-.87,1.93,1.93,0,0,1,.39-1.53l.09-.1L34.6,54a2.37,2.37,0,0,0,.61-.1l.12,0,.17,0a3.37,3.37,0,0,1,.83.46l.08.06.19.15-.07.23,0,.1a1.48,1.48,0,0,1-.18.34c-.1.15-.16.25-.15.35A1.48,1.48,0,0,1,36.19,56.33Zm.42-5-.06.15-.18.11c-.43.12-.69.21-1,.31l-.11,0-.2,0a2.15,2.15,0,0,1-1.31-.79L33.69,51v-.17a2.14,2.14,0,0,0,0-.34v-.36l.1-.18A1.75,1.75,0,0,1,34,49.8c.12-.09.17-.13.19-.2l0-.15.16-.13a1.41,1.41,0,0,1,.62-.14,2.77,2.77,0,0,1,.82.16,2.21,2.21,0,0,0,.35.1l.1,0,.12-.06,0,.08h.09l0,.13,0,.09a1.91,1.91,0,0,1,.19.83A2,2,0,0,1,36.61,51.37Zm7.87,3.78a1.26,1.26,0,0,1-1.33.88,1.37,1.37,0,0,1-.67-.15l-1-.16c-.63.06-.74.38-.74.68a1.36,1.36,0,0,0,.06.37,1,1,0,0,1,.19.3h.41v.27a5,5,0,0,1,.73.52c.15.12.28.25.41.38l.07.07h.18l.15.18a1.54,1.54,0,0,0,.56.44l.18.1.09.06.08.13c.07.19.12.32.16.45a2.85,2.85,0,0,0,.26.63h.12v.16l.08.11-.08.08c0,.17,0,.33,0,.49a4,4,0,0,0,0,.45v.16l-.12.17a.88.88,0,0,0-.29.54l0,.1-.1.12a6.23,6.23,0,0,1-.61.42,2.35,2.35,0,0,0-.71.56l-.09.13-.2.07h-.1a.8.8,0,0,0-.36.12l-.08.06-.18.14-.2-.12-.08,0h0a1.24,1.24,0,0,0-.27,0,2,2,0,0,1-.43,0,3.06,3.06,0,0,1-.56-.05A6.94,6.94,0,0,1,39,63.8a5.21,5.21,0,0,0-.76-.22l-.16,0-.15-.16-.13-.22A2.44,2.44,0,0,1,37.37,62a1.14,1.14,0,0,1,0-.14v-.09l.08-.14c.12-.17.2-.27.26-.34a.77.77,0,0,0,.18-.36l0-.13.14-.12a2.12,2.12,0,0,1,1-.29,1,1,0,0,1,.78.34l.07.08a.63.63,0,0,1,.2.36l0,.08,0,.08a.64.64,0,0,1-.15.3.94.94,0,0,0,0,.21.19.19,0,0,0,0,.08l.09,0,.2,0a2.61,2.61,0,0,1,.38,0,1.18,1.18,0,0,1,.3,0l.19-.12.08-.06a1.26,1.26,0,0,1,.44-.28l.11,0,0-.07a2.53,2.53,0,0,0,.23-.5.82.82,0,0,0,0-.2.75.75,0,0,0-.06-.29,4.5,4.5,0,0,1-.87-.76h-.21l-.19-.2-.05,0a1.42,1.42,0,0,1-.25-.23,3.38,3.38,0,0,1-1.68-1.46l-.28-.38-.1-.13v-.21a.67.67,0,0,0,0-.14.4.4,0,0,0-.05-.19l0-.09v-.19a2.57,2.57,0,0,1,.43-1.17,2.74,2.74,0,0,1,.37-.43l.1-.09a.47.47,0,0,1,.22-.27l.11-.08.12-.08.26-.16a1.34,1.34,0,0,1,.63-.18h.11a1.65,1.65,0,0,1,.9-.2h.25a3.08,3.08,0,0,1,.82.17,2.13,2.13,0,0,0,.51.12h.11l.11,0,.16,0a1.45,1.45,0,0,1,.91.78h.13l0,.24.09.19Zm6.27-.09a.48.48,0,0,1-.33-.13l-.14,0-.47,0-.86,0a6.72,6.72,0,0,1,0,1.26l.05.56V57l-.1.44-.06,1.53.11.34,0,.14,0,.18-.14.28v.24a5.26,5.26,0,0,0,.1,1.33,4.91,4.91,0,0,1,0,1.92l0,.09-.1.14a1.49,1.49,0,0,1-1,.46,1.13,1.13,0,0,1-.68-.22,1.31,1.31,0,0,1-.47-1.36,1.24,1.24,0,0,0,0-.34,2,2,0,0,1,0-.67l0-.11c.07-.33.1-.5,0-.67l-.09-.16.05-.23a.66.66,0,0,0,0-.55l0-.08a1.44,1.44,0,0,1,0-.83h0l-.29-.2.2-.28.08-.12.06-.08L46.59,58l.14-.22.09-.14a1.52,1.52,0,0,1,0-.66v-.1a.78.78,0,0,0,0-.5l-.07-.11L46.53,56l.24-.19,0,0a6,6,0,0,1,0-.92l-.22,0a2.2,2.2,0,0,1-.74-.17l-.06,0,0,0a1.52,1.52,0,0,1-.24-.35,1.42,1.42,0,0,0-.12-.21L45.28,54l-.13-.18.11-.19,0-.08v-.1l0-.21.17-.12.07,0,.12-.1a.79.79,0,0,1,.55-.27h0a1.08,1.08,0,0,1,.43.08,1.55,1.55,0,0,1,0-.35.92.92,0,0,0,0-.13c0-.16,0-.32,0-.49A5.05,5.05,0,0,0,46.6,51l-.11-.65,0-.19.14-.19,0,0a4.41,4.41,0,0,0,0-.52c0-.35,0-.82.52-.83a.86.86,0,0,1,.32.06h.27a4.15,4.15,0,0,1,.58,0h.07l.07,0a1.75,1.75,0,0,1,.59,1.77v.08a.49.49,0,0,1-.29.85,2.38,2.38,0,0,0,0,.32v.12a5,5,0,0,1,0,.84h.08l.53,0,.25,0h.2l.49,0h.06l.06,0a1.35,1.35,0,0,1,.6,1.53.49.49,0,0,1-.33.84Z"/><path class="cls-3" d="M12.26,24.25l.1-.23a.3.3,0,0,0,0-.22,1.92,1.92,0,0,1,0-.23,8.3,8.3,0,0,1-.06-1.17v-.22a6.51,6.51,0,0,0-.14-1.74H12.1l-.61-.11a2.79,2.79,0,0,0-.5-.07.38.38,0,0,0-.18,0l-.11.08a1,1,0,0,1-.27.16l-.87.35L9.22,21,9,21.25c-.14.14-.21.22-.23.31l0,.2-.22.16a.54.54,0,0,0-.17.08,1.37,1.37,0,0,0-.29.48,2,2,0,0,1-.22.41,2,2,0,0,1,.06.61.78.78,0,0,1-.07.31.59.59,0,0,0,0,.22,2.1,2.1,0,0,0,0,.26c0,.17.05.26.06.35a1.59,1.59,0,0,1,0,.52.68.68,0,0,0,.11.58,3.3,3.3,0,0,0,1.31,1.12l.23.14H10l.37,0,.25,0,.13,0a.86.86,0,0,1,.29-.06h.14l.37,0a2.7,2.7,0,0,1,.56-.36l.23-.13a4,4,0,0,0-.06-2.06Zm12-3.9v-.05L24,20.15a4.77,4.77,0,0,0-.55-.33,1.59,1.59,0,0,0-.71-.16,2.6,2.6,0,0,0-.48,0,5,5,0,0,0-2,1.05,6.32,6.32,0,0,1-.21.66,3.82,3.82,0,0,0-.37,1.69,3.5,3.5,0,0,1,.21.33,2.85,2.85,0,0,0,.51.7,1.73,1.73,0,0,0,1.11.36,4.88,4.88,0,0,0,2.56-.81,1.26,1.26,0,0,0,0-.33l0-.15.06-.2a4.34,4.34,0,0,0,.21-2.4ZM35.8,5.06c-.52-.4-1.77-.43-2.87-1-2-1.1-4-2.76-6.26-3.39C16.92-2,13.17,4.41,6.05,8.71c-2.89,4.47-6.5,10.39-6,16.7C.7,33.63,5.56,40.89,11.79,43.94c2.28-.07,3.79,1.1,5.74,1,.52,0,.79-.68,1.57-.78.56-.08,1.35.35,1.83.26,2.1-.4,4.24-1.62,6.78-1.57,3.87-1.36,4.9-3.49,7.57-6.52,1.41-1.61,3.38-2.87,4.43-4.44a41.82,41.82,0,0,0,3.66-7.56C44.66,17.85,39.9,8.25,35.8,5.06ZM17.74,29.66a1.34,1.34,0,0,1-.43.64,3.45,3.45,0,0,0-.28.3l-.08.11-.17.09-.2,0a1.36,1.36,0,0,0-.84.38l-.09.11-.18.09a3.17,3.17,0,0,1-.74.1,2.21,2.21,0,0,1-1.39-.47,4.15,4.15,0,0,1-1-1.25h0a4.59,4.59,0,0,0-1,.15,6.31,6.31,0,0,1-1.09.18,3.62,3.62,0,0,1-1.46-.35,6.9,6.9,0,0,0-.72-.26l-.09,0a1.1,1.1,0,0,1-.72-.41L7.22,29l-.09,0-.1,0-.17-.06-.14-.19A1.84,1.84,0,0,0,6.28,28a3.46,3.46,0,0,1-.49-.62,1.78,1.78,0,0,1-.23-.55l-.05-.16a.83.83,0,0,0-.24-.38l-.14-.11L5.07,26c0-1.16-.08-2-.18-2.79v-.13c.06-.3.11-.56.16-.82a4.12,4.12,0,0,1,1.3-2.77,1.42,1.42,0,0,1,.5-.55A5.17,5.17,0,0,1,8.56,18a7.4,7.4,0,0,0,.87-.37l.11-.06h.18a3.07,3.07,0,0,0,.46,0,9.25,9.25,0,0,0,1.1-.09l.66-.08c0-.19,0-.39,0-.62v-.18a4,4,0,0,1,.16-1.27h0l-.23-.15.07-.26,0-.13a3.69,3.69,0,0,0,.06-1.48,4.9,4.9,0,0,1,.07-1.86L12,11.27H11.5l-.08,0h-.12l-.1,0h-.08l-.07,0a1.2,1.2,0,0,0-.64-.18h-.32L10,10.84l-.05-.09c-.68-1.26-.32-1.92.1-2.25l.11-.09.2,0c.27,0,.46.06.65.09a4.8,4.8,0,0,0,.81.1H12a2.06,2.06,0,0,0,.62-.25,1.67,1.67,0,0,1,.8-.27,1.24,1.24,0,0,1,.36.06l.12,0,.12.12a2.18,2.18,0,0,0,.5.49l.29.23,0,0,0,.06A2.38,2.38,0,0,1,15,10.93a2,2,0,0,0-.1.95l.06.21-.12.25-.07.07s0,.06,0,.36a2.13,2.13,0,0,1,.06.66,1.69,1.69,0,0,1-.08.37,1.31,1.31,0,0,0-.06.19,2.69,2.69,0,0,0,0,.36v.14c0,.46.05.91.06,1.37A3.54,3.54,0,0,1,14.66,17a1.09,1.09,0,0,0,.06.67,5,5,0,0,1,.09,1.82,8.09,8.09,0,0,0,0,.81,8,8,0,0,0,.13,1.09,8.22,8.22,0,0,1,.15,1.35v.12L15,23l-.05.08a6.1,6.1,0,0,1,.17,1.15,4.23,4.23,0,0,0,.2,1.19l0,.12,0,.18a1.83,1.83,0,0,0,0,.72v.12a2.23,2.23,0,0,1,0,.83,1.77,1.77,0,0,1,.24.63h.5a2,2,0,0,1,1.41.43A1.17,1.17,0,0,1,17.74,29.66Zm11.45-2,0,.11,0,.22-.21.07-.1,0a11.94,11.94,0,0,1-3.42.41h-.15l-.18-.09L25,28.38a.46.46,0,0,0-.28-.16h-.1l-.23,0-.1-.21,0-.1-.11-.26a4.57,4.57,0,0,0-.28-.58,4.29,4.29,0,0,1-1.52.26H21.09l-.71,0h-.14l-.17-.08L20,27.2a6.58,6.58,0,0,0-1.28-.76l-.17-.07-.13-.2c-.06-.19-.12-.26-.2-.28l-.19,0-.16-.19h0l0-.09-.12-.31a1.33,1.33,0,0,0-.31-.58l-.11-.09-.07-.19c0-.21-.09-.37-.13-.52a3.16,3.16,0,0,1-.16-.9,1.62,1.62,0,0,1,.1-.51.87.87,0,0,0,.06-.22v-.07a1.79,1.79,0,0,1,0-.55c0-.08,0-.17,0-.25a2,2,0,0,0,0-.28V20.9l.13-.19a.74.74,0,0,0,.26-.38,3,3,0,0,1,.24-.77A5.48,5.48,0,0,1,18,19a3.44,3.44,0,0,0,.37-.58l.08-.17.22-.12.1,0,.14,0a.21.21,0,0,0,.11-.08,3.12,3.12,0,0,1,.94-.63,4.14,4.14,0,0,1,.92-.29c.17,0,.2-.07.2-.07l.11-.16.24-.09A4.33,4.33,0,0,0,22,16.7a4.39,4.39,0,0,1,.84-.11,1.92,1.92,0,0,1,.58.09,2.1,2.1,0,0,1,.38.17h0a2.22,2.22,0,0,1,.85-1.2l.09-.08L25,15.4l.24.14.11.06.32.16a1.71,1.71,0,0,1,.94.74,2,2,0,0,1,.18.46,1.82,1.82,0,0,0,.21.49l.11.16v.26a3.47,3.47,0,0,0-.09.63,1.09,1.09,0,0,1-.09.61.33.33,0,0,0,0,.18,3,3,0,0,1,0,.4,7.59,7.59,0,0,1-.06.83,3.83,3.83,0,0,0,0,1.32l0,.19-.1.24-.07.08c0,.15,0,.33,0,.5a5.14,5.14,0,0,1,0,1.12,1,1,0,0,1-.13.44.14.14,0,0,0,0,.15,1.19,1.19,0,0,1,.16.67v.11l-.05.12a.54.54,0,0,0,.4.14h.13l.29,0,.15,0,.42-.09,0,.42h0a1.41,1.41,0,0,1,1,1.42A2.47,2.47,0,0,1,29.18,27.71Zm9.58.11c0,.21,0,.42,0,.65v.19l-.2.26a1.29,1.29,0,0,0-.36.78l0,.14L38,30a8.14,8.14,0,0,1-.81.56,3.19,3.19,0,0,0-1,.82l-.11.16-.24.08H35.6a1.06,1.06,0,0,0-.43.16l-.1.08-.21.17-.23-.14-.1-.06a.22.22,0,0,0-.12,0,2.12,2.12,0,0,0-.35.05,2.54,2.54,0,0,1-.52.05,3.81,3.81,0,0,1-.84-.1,9.41,9.41,0,0,1-1.24-.39,7.64,7.64,0,0,0-1.09-.35l-.17,0L30,30.85l-.18-.31a3.64,3.64,0,0,1-.61-1.73v-.22l.09-.2a6.62,6.62,0,0,0,.73-1.79l0-.13,0-.15.16-.15a2.73,2.73,0,0,1,1.28-.39A1.33,1.33,0,0,1,33,27.13a2.71,2.71,0,0,1-.23,1l-.07.2a1.07,1.07,0,0,0-.06.34c0,.23.08.28.19.32h.1l.29,0a3.77,3.77,0,0,1,.48,0,1.33,1.33,0,0,1,.47.08,1.39,1.39,0,0,0,.3-.19l.11-.09a1.6,1.6,0,0,1,.59-.38l.18,0,.08-.16a3.63,3.63,0,0,0,.32-.73,1.45,1.45,0,0,0,0-.31,1.38,1.38,0,0,0-.13-.57,6.76,6.76,0,0,1-1.25-1.15h-.21l-.33-.25-.13-.12a2.15,2.15,0,0,1-.35-.35A8.81,8.81,0,0,1,30,21.38l-.1-.14V21a1,1,0,0,0,0-.23.84.84,0,0,0-.1-.38l-.05-.1v-.16a3.61,3.61,0,0,1,.57-1.67,3.3,3.3,0,0,1,.49-.59h0l.07-.06.08-.08a1.16,1.16,0,0,1,.32-.48l0,0,.07-.07a.74.74,0,0,0,.13-.17,1.87,1.87,0,0,1,.45-.51,2.43,2.43,0,0,1,1.35-.4h.95a2.62,2.62,0,0,0,1-.14l.13-.05.19,0A2,2,0,0,1,36.74,17h.14v.27l.1.23-.13.05a1.59,1.59,0,0,1-1.69,1.16,2,2,0,0,1-.79-.15c-.93.45-1.41,1-1.4,1.73a1.87,1.87,0,0,0,.09.54l.26.28a7.35,7.35,0,0,1,.67.76h.55l0,.33a7,7,0,0,1,1.1.82c.2.18.39.37.57.56l.13.13h.21l.22.24a2.42,2.42,0,0,0,.82.71l.26.17.1.07.09.14c.1.25.16.44.22.63a4.11,4.11,0,0,0,.45,1l.08.12,0,.19C38.81,27.36,38.78,27.59,38.76,27.82Z"/><path class="cls-1" d="M71,40.18c5-3.52,9-6.17,13.43-9.33C86.32,29.51,88.57,28,91,28.19s4.74,2.6,3.86,5.13c-.43,1.24-2.09,1.72-3.3,1.49s-1.91.49-3.11.89a35.09,35.09,0,0,0-5.74,3c-3.35,1.92-7.57,4.43-11.45,6.7,1.91,2.58,4.92,4.05,7.49,5.85,2.75,1.93,5.41,4.11,8.21,5.94A38.18,38.18,0,0,1,91.24,60c1.2,1,1.65,2.22,3.23,2.81,1.9.71,5.73,1.71,5.66,4.38-.1,3.59-3.94,4.17-6.08,2a6.15,6.15,0,0,0-3.5-1.8c-1.21-.95-2.08-2.25-3.35-3.12-2.91-2-6.07-3.6-9-5.67a50.51,50.51,0,0,0-8.15-5c-.68,1.47-.65,4.19-.65,7.13,0,1,0,3.8.53,4.28a2.58,2.58,0,0,1,.69,3.08c-.82,2.18-3.07,3.49-5.26,2.42-2.43-1.19-3.82-2.13-3.08-5a35.25,35.25,0,0,0,1-10.06A11.61,11.61,0,0,1,63.52,52C63.88,50.11,62,49,62,46.2c0-1.35,1.95-2.58,2-3.88.13-2,.19-3.33.21-5.33,0-3.7.14-7.6.14-11.3s-.25-7.18-.15-10.87A32.43,32.43,0,0,0,64,10c-.18-1.42-.39-1-1.61-1a15.3,15.3,0,0,1-2-.07c-1.22-.13-2.63-.36-2.88-1.77C57.23,5.56,58.63,4.57,60,4.23A16.37,16.37,0,0,1,64,4.1c1.48,0,2.75-.64,4.22-.36a6,6,0,0,1,3.29,1.9c1,1.29,1,1.9,1,3.33,0,3.4-.23,7.08-.48,10.48-.5,6.94-.7,13.75-1,20.73"/><path class="cls-3" d="M117.83,13.62c-.46.57-.52,1.37-1,1.91a7.21,7.21,0,0,1-2.14,1.19c-.37.15-.68,0-1.1.09a9.62,9.62,0,0,1-2.2.59c-.44,0-1-.1-1.46-.12a6.86,6.86,0,0,1-6.6-5.91,6.38,6.38,0,0,1,.91-4.24c.73-1.22,2.43-2,4-2.51,3-.88,5.48.24,7.65,1.44A9.24,9.24,0,0,1,117.83,13.62Z"/></g></g></svg>