<svg xmlns="http://www.w3.org/2000/svg" viewBox="0 0 602 258"><path fill="#8bca8a" d="M209.72 59.92l-77.1 44.52a7.7 7.7 0 01-11.56-6.7V8.73a7.7 7.7 0 0111.56-6.67l77.1 44.51a7.7 7.7 0 010 13.36"/><path fill="#eb1923" d="M89.66 130.09l-77.1 44.51A7.7 7.7 0 011 167.93V78.91a7.7 7.7 0 0111.56-6.67l77.1 44.5a7.7 7.7 0 010 13.35"/><path fill="#211e1e" d="M19.3 59.92l77.12 44.52a7.7 7.7 0 0011.55-6.7V8.73a7.7 7.7 0 00-11.55-6.67L19.3 46.56a7.72 7.72 0 000 13.36m469.61 161.7c0 2.16.62 3.8 1.84 4.9 1.21 1.12 2.9 1.67 5.1 1.67 4.57 0 6.84-2.23 6.84-6.66 0-4.64-2.31-6.96-6.93-6.96-2.2 0-3.88.6-5.07 1.78-1.18 1.18-1.78 2.94-1.78 5.27m-2.52 26.17c0 1.67.69 2.94 2.1 3.8 1.41.87 3.42 1.3 6.05 1.3 3.93 0 6.85-.58 8.73-1.77 1.9-1.16 2.83-2.75 2.83-4.76 0-1.68-.52-2.84-1.56-3.48-1.02-.65-2.96-.97-5.82-.97h-5.6c-2.13 0-3.79.5-4.97 1.52-1.18 1-1.76 2.47-1.76 4.36M511 211.73v2.96l-5.72.67a10.07 10.07 0 012.03 6.18c0 3.01-1.04 5.43-3.1 7.23-2.07 1.82-4.9 2.72-8.5 2.72-.92 0-1.79-.07-2.6-.23-2 1.05-2.98 2.38-2.98 3.97a2 2 0 001.04 1.87c.69.4 1.89.6 3.56.6h5.47c3.36 0 5.91.7 7.71 2.11 1.8 1.41 2.7 3.46 2.7 6.14 0 3.43-1.37 6.04-4.13 7.84-2.73 1.78-6.72 2.68-12 2.68-4.03 0-7.14-.76-9.33-2.26a7.27 7.27 0 01-3.28-6.37c0-1.87.6-3.5 1.8-4.87a9.28 9.28 0 015.08-2.79 4.88 4.88 0 01-2-1.65 4.92 4.92 0 01.1-5.58 9.37 9.37 0 012.86-2.45 8.41 8.41 0 01-3.9-3.35 9.9 9.9 0 01-1.52-5.42c0-3.37 1.02-5.98 3.05-7.82 2.01-1.83 4.9-2.75 8.61-2.75 1.62 0 3.07.2 4.38.57zm-39.56 30.87v-19.97c0-2.5-.56-4.4-1.7-5.63-1.15-1.23-2.95-1.87-5.39-1.87-3.23 0-5.6.88-7.1 2.63s-2.25 4.62-2.25 8.64v16.2h-4.67v-30.87h3.79l.76 4.23h.23a9.73 9.73 0 014.02-3.55 13.2 13.2 0 015.79-1.25c3.7 0 6.5.9 8.4 2.7 1.86 1.8 2.8 4.66 2.8 8.61v20.13zm-52.13-30.87v20.04c0 2.5.56 4.4 1.71 5.63 1.15 1.25 2.95 1.85 5.38 1.85 3.23 0 5.6-.88 7.1-2.65 1.48-1.76 2.23-4.64 2.23-8.64v-16.23h4.68v30.89h-3.86l-.67-4.15h-.25a9.53 9.53 0 01-4 3.5c-1.7.8-3.64 1.2-5.81 1.2-3.76 0-6.58-.89-8.45-2.67-1.87-1.8-2.8-4.64-2.8-8.57v-20.2zm-13.87-.57c1.38 0 2.61.12 3.7.35l-.65 4.34a16.09 16.09 0 00-3.38-.42c-2.51 0-4.65 1-6.4 3.04a11.05 11.05 0 00-2.67 7.56v16.57h-4.68v-30.87h3.85l.54 5.71h.23c1.13-2 2.53-3.54 4.13-4.64a9.35 9.35 0 015.33-1.64m-28.37 31.44v-19.97c0-2.5-.56-4.4-1.71-5.63-1.15-1.23-2.95-1.87-5.38-1.87-3.25 0-5.63.9-7.11 2.66-1.5 1.77-2.24 4.66-2.24 8.69v16.12h-4.68v-43.83h4.68v13.27c0 1.6-.1 2.93-.23 3.97h.28a9.4 9.4 0 013.93-3.5 12.6 12.6 0 015.8-1.28c3.78 0 6.62.9 8.51 2.68 1.89 1.8 2.84 4.64 2.84 8.56v20.13zm-39.57-39.24c0-.97.24-1.67.74-2.12.5-.42 1.1-.63 1.8-.63.68 0 1.28.21 1.8.63.53.45.77 1.15.77 2.12 0 .94-.24 1.64-.77 2.1-.52.46-1.12.69-1.8.69-.7 0-1.3-.23-1.8-.69-.5-.46-.74-1.16-.74-2.1m-10.73 0c0-.97.23-1.67.74-2.12.5-.42 1.1-.63 1.78-.63.72 0 1.34.21 1.85.63.52.45.78 1.15.78 2.12 0 .94-.26 1.64-.78 2.1-.5.46-1.13.69-1.85.69-.69 0-1.29-.23-1.78-.69-.51-.46-.74-1.16-.74-2.1m5.5 35.94c2.93 0 5.2-.8 6.87-2.38 1.67-1.6 2.5-3.83 2.5-6.7v-2.8l-4.67.2c-3.73.12-6.4.7-8.05 1.73-1.64 1.02-2.47 2.61-2.47 4.78 0 1.7.51 2.98 1.54 3.85 1.02.9 2.45 1.32 4.28 1.32m10.57 3.3l-.92-4.4h-.23c-1.55 1.95-3.08 3.25-4.6 3.94a14.01 14.01 0 01-5.73 1.03c-3.07 0-5.47-.78-7.2-2.37-1.75-1.57-2.61-3.8-2.61-6.74 0-6.23 4.99-9.49 14.96-9.79l5.24-.18v-1.9c0-2.44-.53-4.22-1.57-5.37-1.04-1.16-2.7-1.72-5-1.72-2.57 0-5.48.77-8.73 2.36l-1.43-3.58a21.14 21.14 0 015-1.94 21.4 21.4 0 015.45-.7c3.68 0 6.4.8 8.18 2.43 1.77 1.64 2.67 4.27 2.67 7.86v21.07zm-33.26 0v-19.97c0-2.5-.58-4.4-1.73-5.63-1.14-1.23-2.94-1.87-5.38-1.87-3.23 0-5.59.88-7.09 2.63s-2.26 4.62-2.26 8.64v16.2h-4.67v-30.87h3.8l.77 4.23h.2a9.78 9.78 0 014.05-3.55 13.17 13.17 0 015.77-1.25c3.72 0 6.53.9 8.4 2.7 1.87 1.8 2.82 4.66 2.82 8.61v20.13zM279 211.16c1.36 0 2.6.12 3.69.35l-.66 4.34c-1.27-.28-2.4-.42-3.38-.42-2.5 0-4.63 1-6.4 3.04a11.05 11.05 0 00-2.67 7.56v16.57h-4.68v-30.87h3.87l.53 5.71h.23c1.14-2 2.52-3.54 4.14-4.64a9.27 9.27 0 015.33-1.64m-22.51 31.44h-22.96v-41.18h22.96v4.25H238.3v13.27h17.07v4.24H238.3v15.15h18.18zm-48.12-31.44c1.36 0 2.6.12 3.7.35l-.66 4.34c-1.27-.28-2.4-.42-3.39-.42-2.49 0-4.62 1-6.4 3.04a11.05 11.05 0 00-2.67 7.56v16.57h-4.67v-30.87h3.86l.53 5.71h.23c1.15-2 2.52-3.54 4.14-4.64a9.27 9.27 0 015.33-1.64m-34.08-7.8c0-.97.24-1.67.74-2.12.5-.42 1.1-.63 1.78-.63.7 0 1.3.21 1.82.63.5.45.77 1.15.77 2.12 0 .94-.26 1.64-.77 2.1-.52.46-1.12.69-1.82.69-.69 0-1.29-.23-1.78-.69-.5-.46-.74-1.16-.74-2.1m-10.75 0c0-.97.25-1.67.76-2.12.5-.42 1.1-.63 1.78-.63.7 0 1.33.21 1.85.63.52.45.76 1.15.76 2.12 0 .94-.24 1.64-.76 2.1-.52.46-1.14.69-1.85.69-.69 0-1.29-.23-1.78-.69-.51-.46-.76-1.16-.76-2.1m-.28 8.37v20.04c0 2.5.58 4.4 1.73 5.63 1.14 1.23 2.93 1.85 5.38 1.85 3.23 0 5.6-.88 7.07-2.65 1.5-1.76 2.25-4.64 2.25-8.64v-16.23h4.67v30.87h-3.86l-.67-4.13h-.25a9.49 9.49 0 01-3.99 3.5c-1.7.79-3.63 1.2-5.82 1.2-3.76 0-6.56-.89-8.43-2.67-1.87-1.78-2.81-4.64-2.81-8.57v-20.2zm-10.02 3.63h-7.87v27.24h-4.68v-27.24h-5.52v-2.1l5.52-1.7v-1.72c0-7.59 3.32-11.38 9.95-11.38 1.64 0 3.55.33 5.76.99l-1.22 3.75c-1.8-.58-3.34-.88-4.62-.88-1.77 0-3.07.58-3.92 1.77-.85 1.18-1.27 3.05-1.27 5.64v2h7.87zm427.66-31.86h-8.8v-18.85c0-2.3-.4-4.06-1.17-5.24-.78-1.14-2.01-1.73-3.69-1.73-2.24 0-3.88.83-4.9 2.47-1.01 1.66-1.54 4.4-1.54 8.17v15.18H552v-32.26h6.73l1.18 4.13h.5a8.92 8.92 0 013.73-3.47 12.07 12.07 0 015.63-1.26c4.83 0 8.1 1.57 9.83 4.73h.76a8.88 8.88 0 013.83-3.5c1.69-.82 3.58-1.23 5.7-1.23 3.66 0 6.42.94 8.3 2.8 1.87 1.88 2.81 4.9 2.81 9.02v21.04h-8.82v-18.85c0-2.3-.4-4.06-1.18-5.24-.78-1.14-2-1.73-3.67-1.73-2.16 0-3.78.76-4.84 2.3-1.07 1.55-1.6 3.98-1.6 7.34zm-45.17 0l-1.18-4.12h-.46a9.35 9.35 0 01-4.02 3.48c-1.73.81-3.7 1.22-5.91 1.22-3.8 0-6.66-1-8.58-3.04-1.92-2.03-2.9-4.95-2.9-8.77v-21.03h8.81v18.85c0 2.33.42 4.07 1.25 5.24.83 1.16 2.14 1.74 3.96 1.74 2.47 0 4.23-.83 5.32-2.47 1.1-1.64 1.66-4.37 1.66-8.18v-15.18h8.8v32.26zm-31.99-32.86c1.2 0 2.19.1 2.98.25l-.67 8.26c-.7-.2-1.57-.28-2.59-.28-2.8 0-5 .72-6.56 2.15-1.57 1.44-2.37 3.47-2.37 6.07v16.4h-8.8v-32.25h6.67l1.3 5.42h.43c1-1.8 2.36-3.26 4.05-4.38a10.12 10.12 0 015.56-1.64m-30.36 26.43c1.53 0 3.39-.33 5.54-1.02v6.56a19.93 19.93 0 01-8.08 1.47c-3.53 0-6.09-.88-7.7-2.67-1.6-1.78-2.4-4.44-2.4-8v-15.55h-4.21v-3.74l4.85-2.93 2.52-6.81h5.63v6.86h9.03v6.62h-9.03v15.54c0 1.26.35 2.17 1.06 2.77.7.6 1.64.9 2.79.9m-22.96 6.43h-8.8v-18.85c0-2.3-.4-4.06-1.24-5.24-.82-1.14-2.15-1.73-3.95-1.73-2.45 0-4.23.81-5.34 2.46-1.1 1.65-1.64 4.37-1.64 8.18v15.18h-8.8v-32.26h6.71l1.2 4.13h.48a9.45 9.45 0 014.06-3.54c1.73-.8 3.69-1.19 5.87-1.19 3.74 0 6.6 1 8.54 3.04 1.94 2.03 2.91 4.96 2.91 8.78zm-51.62-26.61a5.6 5.6 0 00-4.4 1.78c-1.05 1.18-1.65 2.86-1.81 5.03h12.35c-.04-2.17-.6-3.85-1.7-5.03a5.82 5.82 0 00-4.44-1.78m1.23 27.19c-5.18 0-9.24-1.43-12.17-4.3-2.93-2.87-4.4-6.92-4.4-12.18 0-5.4 1.37-9.58 4.06-12.53 2.7-2.96 6.44-4.43 11.2-4.43 4.58 0 8.12 1.3 10.66 3.89 2.55 2.59 3.82 6.19 3.82 10.78v4.25h-20.82c.1 2.5.84 4.46 2.22 5.87 1.4 1.4 3.33 2.1 5.84 2.1a24.05 24.05 0 0010.94-2.54v6.81a20.2 20.2 0 01-4.94 1.71c-1.75.4-3.88.57-6.4.57m-21.28-.58h-25.48v-5.2l14.94-20.33h-14.04v-6.73h24.06v5.72l-14.55 19.83h15.07zm-30.97-9.58c0 3.31-1.16 5.84-3.46 7.56-2.29 1.73-5.73 2.6-10.32 2.6a32.4 32.4 0 01-6-.48c-1.66-.32-3.19-.77-4.64-1.4v-7.26c1.63.76 3.48 1.41 5.53 1.92 2.04.53 3.84.8 5.41.8 3.2 0 4.78-.94 4.78-2.8a2.3 2.3 0 00-.63-1.67 8.8 8.8 0 00-2.19-1.48 51.76 51.76 0 00-4.16-1.9 26.63 26.63 0 01-5.47-2.9 7.98 7.98 0 01-2.53-3.03 9.8 9.8 0 01-.8-4.24 7.65 7.65 0 013.33-6.65c2.22-1.57 5.38-2.35 9.45-2.35 3.89 0 7.66.85 11.35 2.53l-2.67 6.35a49.37 49.37 0 00-4.51-1.7 14.33 14.33 0 00-4.3-.67c-2.6 0-3.9.71-3.9 2.1 0 .8.42 1.49 1.25 2.07.83.56 2.66 1.43 5.5 2.56a25.96 25.96 0 015.54 2.85 8.52 8.52 0 012.6 3.07c.56 1.15.84 2.53.84 4.12m-44.37-17.03c-1.87 0-3.34.6-4.38 1.78-1.07 1.18-1.67 2.86-1.83 5.03h12.37c-.06-2.17-.62-3.85-1.72-5.03a5.77 5.77 0 00-4.44-1.78m1.25 27.19c-5.2 0-9.26-1.43-12.19-4.3-2.93-2.87-4.38-6.92-4.38-12.18 0-5.4 1.34-9.58 4.04-12.53 2.72-2.96 6.44-4.43 11.23-4.43 4.55 0 8.1 1.3 10.63 3.89 2.55 2.59 3.82 6.19 3.82 10.78v4.25H297c.1 2.5.84 4.46 2.22 5.87 1.37 1.4 3.33 2.1 5.82 2.1 1.94 0 3.8-.2 5.52-.6 1.73-.4 3.53-1.06 5.42-1.94v6.81a20.08 20.08 0 01-4.92 1.71c-1.77.4-3.9.57-6.4.57m-39.02-7c2.26 0 3.9-.66 4.96-1.96 1.04-1.33 1.6-3.53 1.71-6.67v-.96c0-3.47-.53-5.94-1.6-7.44-1.06-1.5-2.81-2.26-5.21-2.26-1.96 0-3.5.83-4.57 2.5-1.1 1.66-1.64 4.08-1.64 7.26 0 3.17.56 5.55 1.66 7.14a5.36 5.36 0 004.7 2.38m-3.1 7c-3.79 0-6.75-1.46-8.92-4.4-2.17-2.95-3.25-7.03-3.25-12.23 0-5.31 1.1-9.42 3.3-12.37 2.2-2.96 5.24-4.44 9.1-4.44 4.06 0 7.17 1.58 9.3 4.74h.28c-.44-2.4-.65-4.55-.65-6.44V138.6h8.82v44.92h-6.74l-1.7-4.2h-.38c-2.01 3.18-5.05 4.77-9.16 4.77M243 183.5h-8.8v-18.85c0-2.3-.41-4.06-1.24-5.24-.83-1.14-2.15-1.73-3.95-1.73-2.47 0-4.26.81-5.35 2.46-1.1 1.65-1.64 4.37-1.64 8.18v15.18h-8.8v-32.26h6.72l1.18 4.13h.5a9.35 9.35 0 014.05-3.54c1.71-.8 3.67-1.19 5.86-1.19 3.76 0 6.62 1 8.54 3.04 1.96 2.03 2.93 4.96 2.93 8.78zm-46.07 0l-1.18-4.12h-.46a9.3 9.3 0 01-4 3.48c-1.75.81-3.71 1.22-5.93 1.22-3.8 0-6.66-1-8.58-3.04-1.92-2.03-2.87-4.95-2.87-8.77v-21.03h8.8v18.85c0 2.33.4 4.07 1.23 5.24.83 1.16 2.16 1.74 3.96 1.74 2.47 0 4.23-.83 5.34-2.47 1.1-1.64 1.64-4.37 1.64-8.18v-15.18h8.8v32.26zM144 165.13v11h5.84c2.45 0 4.27-.49 5.45-1.42 1.17-.95 1.77-2.4 1.77-4.34 0-3.5-2.5-5.24-7.52-5.24zm0-7.11h5.2c2.42 0 4.19-.37 5.26-1.13 1.1-.74 1.64-1.98 1.64-3.7 0-1.63-.6-2.8-1.78-3.5-1.18-.7-3.05-1.04-5.6-1.04H144zm-8.95-16.71h13.15c5.96 0 10.32.85 13.02 2.56 2.7 1.7 4.06 4.4 4.06 8.11 0 2.53-.6 4.6-1.78 6.22a7.02 7.02 0 01-4.71 2.9v.29c2.66.62 4.6 1.73 5.78 3.35 1.18 1.64 1.77 3.81 1.77 6.53 0 3.85-1.4 6.84-4.17 9-2.78 2.15-6.56 3.24-11.32 3.24h-15.8zm0 0"/><path fill="#f0cf02" d="M19.3 200.24l77.12 44.51a7.7 7.7 0 0011.55-6.68v-89.03a7.7 7.7 0 00-11.55-6.67L19.3 186.88a7.72 7.72 0 000 13.36"/></svg>