<?xml version="1.0" encoding="UTF-8" standalone="no"?>
<!-- Generator: Adobe Illustrator 19.2.1, SVG Export Plug-In . SVG Version: 6.00 Build 0)  -->

<svg
   version="1.1"
   id="layer"
   x="0px"
   y="0px"
   viewBox="0 0 599.92731 209.81032"
   xml:space="preserve"
   sodipodi:docname="logo_kuppelkucker.svg"
   width="599.92731"
   height="209.81032"
   inkscape:version="1.2.2 (b0a8486541, 2022-12-01)"
   xmlns:inkscape="http://www.inkscape.org/namespaces/inkscape"
   xmlns:sodipodi="http://sodipodi.sourceforge.net/DTD/sodipodi-0.dtd"
   xmlns="http://www.w3.org/2000/svg"
   xmlns:svg="http://www.w3.org/2000/svg"><defs
   id="defs66" /><sodipodi:namedview
   id="namedview64"
   pagecolor="#ffffff"
   bordercolor="#000000"
   borderopacity="0.25"
   inkscape:showpageshadow="2"
   inkscape:pageopacity="0.0"
   inkscape:pagecheckerboard="0"
   inkscape:deskcolor="#d1d1d1"
   showgrid="false"
   inkscape:zoom="1.2039877"
   inkscape:cx="203.49045"
   inkscape:cy="312.71083"
   inkscape:window-width="1854"
   inkscape:window-height="1011"
   inkscape:window-x="0"
   inkscape:window-y="0"
   inkscape:window-maximized="1"
   inkscape:current-layer="layer" />
<style
   type="text/css"
   id="style2">
	.st0{fill:url(#SVGID_1_);}
	.st1{fill:#AED4EE;}
	.st2{fill:#DBF0FD;}
	.st3{fill:none;stroke:#000000;stroke-width:3.5127;}
	.st4{fill:#B3B3B3;}
	.st5{fill:#66B8E0;stroke:#1E181A;stroke-width:0.907;}
	.st6{fill:#FFFFFF;stroke:#FFFFFF;stroke-width:1.8139;}
	.st7{fill:#E6353B;}
	.st8{fill:#B6B5B9;}
	.st9{fill:#FFCE33;}
	.st10{fill:#FFFFFF;stroke:#1E181A;stroke-width:3.6277;}
	.st11{fill:none;stroke:#1E181A;stroke-width:3.6277;}
	.st12{fill:none;stroke:#000000;stroke-width:3.6277;}
	.st13{fill:#FFFFFF;}
</style>
<linearGradient
   id="SVGID_1_"
   gradientUnits="userSpaceOnUse"
   x1="149.5528"
   y1="426.08981"
   x2="149.5528"
   y2="232.9493"
   gradientTransform="matrix(1,0,0,-1,-21.791252,436.1)">
	<stop
   offset="0"
   style="stop-color:#FFFFFF"
   id="stop4" />
	<stop
   offset="0.25"
   style="stop-color:#F2FAFE"
   id="stop6" />
	<stop
   offset="0.68"
   style="stop-color:#E1F3FD"
   id="stop8" />
	<stop
   offset="1"
   style="stop-color:#DBF0FD"
   id="stop10" />
</linearGradient>
<path
   class="st0"
   d="M 32.808749,202.6 9.4087488,202.3 c -0.4,-19.7 5.7000002,-43.7 12.4000002,-63.5 l 1.3,0.1 c -2.4,27.5 20,34 21.8,45.6 1.8,11.6 -12.1,18.1 -12.1,18.1 z M 139.00875,179.8 c 0,0 -8.4,-12.4 -21.3,-7.5 v -4.9 c 0,0 8.4,-9.8 23.5,9.6 0,0 6.4,-46.3 -10.5,-67.3 0,0 -8.7,-8.5 -19,-5 0,0 2.4,-7.000004 -7.1,-14.600004 l 1.3,-9.899996 -22.000002,-4.4 -1.6,8.4 c 0,0 -10.799999,-0.6 -16.899999,1.2 l -4.7,-5.9 -0.7,-1 c 0,0 24.499999,-35.7 76.700001,-68.5 l 1.3,5 c 5.4,35.9 29.5,51.3 29.5,51.3 16.8,11.6 21,20.199996 21,20.199996 0,0 -10.8,15.300004 -20.3,35.200004 0,0 -14.5,36.4 -13.6,54.4 l 1.2,20.3 -16.6,-16.5 z m 25.7,21.6 c 0,0 -13,-55.4 29.8,-109.500004 0,0 19.4,15.900004 31.2,45.200004 0,0 -22.9,21.5 -18.7,66.1 z m 50.9,0 c 0,0 -6,-36.5 13.1,-57 0,0 11.3,18.7 17.6,57.7 l -30.6,-0.9 z"
   id="path13"
   style="fill:url(#SVGID_1_)" />
<path
   class="st1"
   d="m 261.90875,203.4 c 0,0 12.3,-125.9 -18.6,-194.8 0,0 45.9,41.3 40.5,194 z"
   id="path15" />
<path
   class="st2"
   d="m 252.80875,203.1 c 0,0 -4.7,-107.600004 -59.8,-166.5 0,0 64.2,64.8 68.8,166.8 z"
   id="path17" />
<path
   class="st3"
   d="m 307.20875,202.9 h -166.3"
   id="path19" />
<path
   class="st4"
   d="m 312.20875,105.4 -1.2,18.4 c 0,1.3 -0.5,2.4 -1.3,3.5 -1.1,1.4 -2.6,2.1 -4.6,2 -2.3,-0.1 -4,-1.2 -5.3,-3.1 -0.9,-1.5 -1.4,-3.1 -1.3,-4.8 0.5,-6.5 1.3,-16.2 2.5,-29.200004 1.3,-12.899996 2,-22.699996 2.5,-29.099996 0.1,-1.6 0.8,-3 2,-4.1 1.3,-1 2.8,-1.5 4.5,-1.4 1.8,0.1 3.3,0.8 4.3,2 1.1,1.3 1.6,2.8 1.5,4.4 -0.1,2.6 -0.5,6.1 -1,10.6 l -1.3,10.6 c 2.3,-1.8 10.3,-9.4 24.3,-22.9 1.5,-1.4 3,-2 4.8,-1.9 1.8,0.1 3.1,0.8 4.3,2 1.3,1.3 1.8,2.8 1.6,4.4 -0.1,1.9 -3.9,6.4 -11.3,13.5 -5.5,5.3 -11.3,10.399996 -17.3,15.499996 l 9,9.600004 c 3.5,3.8 6.8,6.8 9.5,9.1 1.5,1.1 3,2.1 4.8,2.8 3.1,1.1 4.5,3.1 4.4,6 -0.1,1.3 -0.5,2.5 -1.4,3.5 -1.1,1.5 -2.8,2.3 -4.6,2.1 -4.1,-0.3 -9.4,-3.3 -15.8,-9.1 -1.8,-1.8 -6.3,-6.4 -13.1,-14 z m 83.9,14.6 c -1.5,2.5 -3.3,4.7 -5.5,6.5 -2.8,2.1 -5.7,3.5 -8.8,3.9 -6,0.6 -10.6,0 -13.7,-1.9 -6.7,-4.1 -10.8,-12 -12.1,-23.8 -0.1,-1.1 -0.3,-2.9 -0.4,-5.100004 -0.3,-2.3 -0.4,-4 -0.5,-5.1 -0.1,-0.9 -0.3,-2.3 -0.4,-4.1 l -0.4,-4.1 c -0.3,-1.899996 -0.1,-3.599996 0.4,-5.399996 0.6,-2.4 1.8,-3.5 3.4,-3.8 1.3,-0.3 2.5,0.1 3.5,0.8 1.1,0.8 1.9,1.8 2,3.1 0.1,1.3 0.4,3.3 0.6,5.899996 0.3,2.6 0.5,4.6 0.6,6 0.1,1.1 0.3,2.8 0.4,5 0.1,2.300004 0.3,3.900004 0.4,5.000004 0.4,3.5 1.3,6.8 2.4,9.8 1.4,3.5 3.1,5.9 5.3,7.1 1,0.6 3.4,0.8 7.1,0.4 6.3,-0.6 9.8,-6.4 10.6,-17.4 0.5,-5.800004 0.1,-13.500004 -1,-23.5 -0.1,-1.4 0.1,-2.6 0.8,-4 0.9,-1.8 2.3,-2.8 4.3,-3 1.6,-0.1 2.9,0.3 3.8,1.4 0.8,0.8 1.1,1.8 1.3,2.8 1.1,9.3 1.5,16.499996 1.3,21.899996 -0.5,8.100004 -2.3,15.100004 -5.5,20.800004 z m 23.2,-20.500004 c -0.4,0 -1.4,-0.1 -3,-0.3 -0.1,3.300004 -0.2,8.800004 -0.2,16.300004 0,1.3 -0.4,2.3 -1.3,3.1 -0.9,0.9 -2,1.4 -3.3,1.4 -1.4,0 -2.5,-0.5 -3.4,-1.4 -1,-0.9 -1.4,-2 -1.4,-3.3 v -9.9 c 0,-3.8 0.3,-9.100004 0.6,-16.300004 0.4,-7.399996 0.6,-12.799996 0.6,-16.399996 0,-6.1 1.8,-9.1 5.1,-8.9 0.8,-0.3 1.9,-0.4 3.3,-0.5 1.4,-0.1 3.1,-0.3 5.1,-0.3 4.6,0 9,1.5 13,4.5 4.5,3.4 6.8,7.4 6.8,12.3 0,6 -2.4,10.899996 -7.3,14.399996 -4.3,3.1 -9.4,4.6 -15.3,4.6 z m 1.8,-26.799996 h -2 c -0.6,0 -1.1,0 -1.5,0.1 0,1.1 0,2.8 0,5 -0.1,2.6 -0.3,6.7 -0.7,12.299996 1.1,0.2 2,0.3 2.4,0.3 3.6,0 6.8,-0.9 9.1,-2.6 2.6,-1.899996 3.9,-4.299996 3.9,-7.399996 0,-2 -1.3,-3.8 -3.6,-5.4 -2.4,-1.6 -4.9,-2.3 -7.6,-2.3 z m 34.2,35.4 c -0.4,-0.1 -1.4,-0.3 -2.9,-0.7 -0.6,3.3 -1.4,8.6 -2.5,16.1 -0.2,1.3 -0.8,2.3 -1.8,3 -1,0.8 -2.1,1.1 -3.5,0.9 -1.3,-0.2 -2.4,-0.8 -3.1,-1.8 -0.8,-1 -1,-2.1 -0.9,-3.4 l 1.4,-9.8 c 0.5,-3.6 1.5,-9 3,-16.000004 1.5,-7.2 2.4,-12.499996 3,-16.099996 0.9,-6 3,-8.8 6.4,-8 h 3.4 c 1.5,0.1 3.1,0.3 5.3,0.6 4.6,0.6 8.8,2.8 12.3,6.3 4,4 5.8,8.399996 5,13.099996 -0.9,6 -3.9,10.500004 -9.1,13.300004 -4.6,2.6 -9.9,3.4 -15.6,2.6 z m 5.5,-26.2 -2,-0.3 c -0.6,-0.1 -1.1,-0.1 -1.5,-0.1 l -0.8,4.999996 c -0.5,2.6 -1.3,6.6 -2.4,12.1 1.1,0.3 1.9,0.5 2.3,0.5 3.6,0.5 6.8,0 9.4,-1.4 2.8,-1.5 4.4,-3.8 4.9,-6.9 0.3,-2 -0.8,-4 -2.9,-5.899996 -2.1,-1.9 -4.6,-3 -7.3,-3.4 z m 57.6,-7 c -0.5,0 -1,0 -1.5,-0.1 -3.9,-0.9 -7.6,-1.2 -11.2,-1 -1.8,0.1 -3.7,0.4 -5.7,0.8 -2,0.4 -4.2,0.9 -6.4,1.6 0.2,3.1 0.3,7.8 0.4,13.999996 1.3,-0.2 5.9,-0.9 13.8,-2 4.5,-0.7 7.3,-1.1 8.5,-1.1 1.4,-0.1 2.6,0.3 3.6,1.2 1.1,0.8 1.6,2 1.7,3.4 0.2,2.8 -1.3,4.5 -4.3,5 -1.9,0.3 -4.7,0.6 -8.4,1.2 -3.3,0.6 -8.4,1.3 -15.1,2.200004 -0.1,3 0,5.4 0.1,7.3 0.1,4.6 0.6,7.3 1.1,7.9 0.3,0.3 1.8,0.4 4.5,0.2 1.4,-0.1 3.6,-0.2 6.6,-0.5 3,-0.2 5.1,-0.4 6.6,-0.5 0.5,0 1.1,-0.1 2,-0.3 0.9,-0.1 1.5,-0.3 2,-0.3 1.4,0 2.5,0.3 3.5,1 1.1,0.9 1.8,2 1.9,3.6 0.1,2.6 -1.3,4.4 -3.9,5 -2.4,0.6 -7.3,1.1 -14.8,1.5 -7.8,0.5 -12.8,-0.4 -15.3,-2.3 -2.6,-2.1 -4.3,-7 -4.6,-14.6 -0.1,-3.1 -0.1,-7.9 0,-14.300004 0.1,-6.4 0.1,-11.099996 -0.1,-14.299996 -0.1,-0.8 -0.3,-2 -0.6,-3.6 -0.4,-1.6 -0.5,-2.8 -0.6,-3.6 -0.3,-3.5 1.4,-5.4 4.6,-5.6 1,0 2,0.3 2.9,0.8 2.6,-0.8 5.3,-1.4 7.6,-1.9 2.4,-0.5 4.8,-0.8 6.9,-0.9 5.9,-0.3 10.8,0.1 14.4,1.4 2.1,0.8 3.4,2.3 3.5,4.4 0,1.3 -0.4,2.4 -1.1,3.4 -0.9,1.1 -2.1,1.8 -3.5,1.9 z m 44.1,34.7 c -2.8,1.1 -7.2,2 -13.1,2.7 -5.4,0.7 -9.9,0.9 -13.3,0.8 -5.8,-0.3 -8.6,-2.9 -8.4,-8 0,0.4 0.4,-3.3 1.1,-11.200004 1,-10.199996 1.9,-21.599996 2.4,-34.199996 0,-1.4 0.5,-2.5 1.5,-3.4 1,-0.9 2.1,-1.3 3.5,-1.3 1.4,0.1 2.5,0.6 3.5,1.6 0.9,1 1.3,2.2 1.3,3.5 -0.6,12.6 -1.5,24.2 -2.5,34.699996 -0.4,1.9 -0.8,4.8 -1.1,8.600004 5.5,0.2 12.8,-0.9 21.7,-3.1 0.5,-0.1 1.1,-0.2 1.5,-0.2 1.5,0.1 2.6,0.7 3.5,1.8 0.8,1 1.1,2.1 1.1,3.3 -0.1,2 -1.3,3.5 -3.3,4.3 h 0.6 z m -142.5,88.3 c -1.4,2.4 -3.2,4.5 -5.3,6.3 -2.6,2.1 -5.5,3.4 -8.5,3.8 -5.8,0.7 -10.2,0.1 -13.2,-1.8 -6.5,-3.9 -10.4,-11.6 -11.8,-22.9 -0.1,-1.1 -0.3,-2.7 -0.4,-4.9 -0.1,-2.2 -0.3,-3.8 -0.4,-4.9 -0.1,-0.9 -0.3,-2.2 -0.4,-3.9 l -0.5,-3.9 c -0.3,-1.8 -0.1,-3.5 0.4,-5.1 0.6,-2.2 1.8,-3.4 3.3,-3.6 1.3,-0.2 2.4,0.1 3.4,0.8 1.1,0.7 1.8,1.8 1.9,3.1 l 0.6,5.8 c 0.3,2.6 0.4,4.5 0.6,5.8 0.1,1.1 0.3,2.8 0.4,4.9 0.1,2.3 0.3,3.8 0.4,4.9 0.4,3.5 1.1,6.6 2.3,9.5 1.4,3.4 3,5.8 5,6.9 1,0.6 3.3,0.8 6.9,0.4 5.9,-0.6 9.4,-6.1 10.3,-16.6 0.4,-5.4 0.1,-12.9 -1,-22.5 -0.1,-1.3 0,-2.5 0.6,-3.8 0.9,-1.6 2.1,-2.6 4,-2.8 1.5,-0.1 2.8,0.3 3.6,1.3 0.6,0.8 1,1.8 1.1,2.8 1,9 1.4,16 1.1,21.2 -0.4,7.9 -2.1,14.6 -5.3,20.2 z m 131.6,-49.6 c -0.5,0 -0.9,0 -1.4,-0.1 -3.8,-0.8 -7.3,-1.1 -10.8,-1 -1.7,0.1 -3.5,0.4 -5.5,0.8 -2,0.4 -4,0.9 -6.2,1.6 0.2,3.1 0.3,7.5 0.4,13.5 1.3,-0.1 5.7,-0.8 13.3,-1.9 4.3,-0.6 7.1,-1 8.2,-1 1.4,0 2.6,0.4 3.6,1.1 1,0.9 1.6,1.9 1.6,3.4 0.1,2.8 -1.3,4.4 -4.1,4.9 l -8.1,1.1 c -3.1,0.6 -8,1.3 -14.5,2.1 0,2.9 0,5.3 0.1,7 0.3,4.5 0.6,7 1.3,7.6 0.3,0.4 1.8,0.4 4.4,0.3 l 6.4,-0.4 c 2.9,-0.3 5,-0.4 6.4,-0.5 0.5,0 1.1,-0.1 2,-0.3 0.9,-0.3 1.5,-0.4 2,-0.4 1.4,0 2.5,0.3 3.5,1 1.1,0.8 1.8,2 1.9,3.5 0.1,2.6 -1.1,4.1 -3.8,4.9 -2.3,0.5 -6.9,1 -14.1,1.4 -7.4,0.4 -12.3,-0.4 -14.6,-2.3 -2.5,-2.1 -4,-6.8 -4.4,-14.1 -0.1,-3.1 -0.1,-7.6 0,-13.8 0.1,-6.2 0.1,-10.8 0,-13.8 0,-0.8 -0.1,-2 -0.5,-3.5 -0.3,-1.5 -0.5,-2.8 -0.5,-3.5 -0.1,-3.5 1.4,-5.3 4.5,-5.5 1,0 2,0.3 2.9,0.8 2.6,-0.8 5.1,-1.4 7.5,-1.9 2.4,-0.4 4.6,-0.8 6.8,-0.9 5.8,-0.3 10.4,0.1 13.9,1.3 2.1,0.8 3.3,2.1 3.4,4.1 0.1,1.3 -0.3,2.3 -1,3.3 -0.9,1.1 -2,1.8 -3.4,1.9 z m -83.8,12.3 c -2.1,-0.1 -3.5,-1.3 -4.4,-3.5 -0.4,-1.1 -0.8,-1.7 -1.3,-1.9 -0.3,-0.2 -1.2,-0.3 -2.7,-0.4 -2.9,-0.2 -6.3,1.9 -10.3,6.2 -5.6,6 -8.5,11.7 -8.8,17.1 -0.1,2.4 0.6,4.6 2.2,6.5 1.6,1.8 3.5,2.8 5.8,2.9 2.3,0.1 4.6,-0.4 6.9,-1.5 0.8,-0.4 2.6,-1.5 5.4,-3.1 1.8,-1.1 3.2,-1.6 4.1,-1.6 1.4,0 2.5,0.6 3.4,1.6 0.9,0.9 1.3,2 1.2,3.3 0,1.3 -0.6,2.5 -1.9,3.4 -6.5,4.9 -13,7.3 -19.5,6.9 -5.1,-0.3 -9.3,-2.4 -12.6,-6.3 -3.1,-3.8 -4.6,-8.1 -4.4,-13 0.4,-7.6 4.1,-15.3 11.3,-22.9 6,-6.5 12,-9.5 17.9,-9.3 1,0 1.9,0.1 2.8,0.3 0.9,0 1.5,0.3 2.1,0.4 1.1,-1 2.3,-1.4 3.8,-1.3 2.4,0.1 3.8,1.5 4.1,4.1 0.3,1.9 0.4,4.1 0.3,6.6 0,1.1 -0.4,2.1 -1.1,3 -0.9,1.1 -2.1,1.6 -3.8,1.6 z m 42.5,43.8 c -2,0 -3.6,-1 -4.6,-2.9 -1.3,-2.4 -3.2,-5.1 -5.7,-8.3 l -6.2,-7.9 c -2.1,1.5 -3.8,2.7 -5.1,3.5 -0.3,3.6 -0.4,7 -0.4,10.3 0,1.5 -0.5,2.7 -1.5,3.7 -1,1 -2.3,1.5 -3.8,1.5 -3.6,0 -5.5,-2.1 -5.5,-6.5 0,-2 0.2,-5 0.5,-9.1 0.3,-4 0.5,-7.1 0.5,-9.1 0,-3.8 0.1,-8 0.2,-12.8 0.1,-4.8 0.2,-9 0.2,-12.8 0,-1.1 -0.1,-2.4 -0.2,-3.9 -0.1,-1.5 -0.2,-2.8 -0.2,-3.9 0,-1.5 0.5,-2.8 1.5,-3.6 1,-0.9 2.3,-1.4 3.8,-1.4 1.6,0 2.8,0.5 3.8,1.5 1,1 1.6,2.3 1.6,3.8 0,1.1 0.1,2.5 0.3,4 0.1,1.5 0.3,2.9 0.3,4 0,3.1 0,6.8 -0.3,11 -0.1,4 -0.1,7.6 -0.1,10.8 3.5,-2.8 8.9,-7.6 16,-14.8 1.1,-1.1 2.5,-1.8 3.9,-1.8 1.5,0 2.8,0.5 3.9,1.6 1.1,1 1.6,2.3 1.6,3.6 0,1.1 -0.5,2.4 -1.5,3.4 -3,3.4 -6.6,7 -10.9,10.8 l 8.1,10.4 c 3.9,5.1 5.9,8.6 5.9,10.4 0,1.5 -0.5,2.6 -1.6,3.6 -1.1,1.1 -2.4,1.5 -3.9,1.5 z m 84,3.9 c -1.2,-0.1 -2.3,-0.6 -3.3,-1.6 -6.5,-6.8 -13.9,-11.7 -22,-14.7 0,6.6 -0.1,10.3 -0.1,11 0,1.3 -0.5,2.4 -1.5,3.2 -0.9,0.8 -2.1,1.1 -3.5,1.1 -1.4,-0.1 -2.4,-0.6 -3.3,-1.6 -0.9,-1 -1.3,-2.1 -1.1,-3.4 0.1,-1.8 0.3,-4.3 0.5,-7.6 l 0.5,-7.6 1.6,-27.5 c 0.1,-1.5 0.6,-2.9 1.6,-4 1.3,-1.5 2.9,-2.1 5,-1.9 l 8.5,1.1 c 3.3,0.5 5.9,1.4 8,2.6 9.5,5.4 14,11.8 13.6,18.9 -0.1,2.9 -1.3,5.5 -3.5,7.6 -2.1,2.1 -5.3,3.9 -9.4,5.3 5.9,3.6 10.1,7.4 13,11 0.8,0.9 1.1,2 1,3.1 0,1.3 -0.6,2.4 -1.6,3.3 -0.9,0.9 -2.1,1.3 -3.4,1.1 z m -19.5,-44.1 c -0.2,0 -1.5,-0.2 -4,-0.5 l -1,18.1 1.5,0.1 c 5.6,0.3 9.7,-0.2 12.5,-1.4 1.2,-0.5 2.3,-1.3 3.3,-2.2 1,-1 1.5,-1.8 1.6,-2.3 0.1,-2.6 -1.3,-5.1 -4.4,-7.6 -2.9,-2.4 -6,-3.9 -9.4,-4.4 z m -237.9,21.6 2.9,17.5 c 0.2,1.3 0.1,2.4 -0.5,3.6 -0.7,1.6 -2,2.5 -3.9,2.8 -2.2,0.4 -4.1,-0.3 -5.6,-1.9 -1.2,-1.3 -1.9,-2.6 -2.2,-4.3 -1,-6.3 -2.4,-15.5 -4.1,-27.9 -1.8,-12.4 -3.1,-21.8 -4.1,-27.9 -0.3,-1.6 0,-3 1,-4.3 1,-1.3 2.1,-2.1 3.9,-2.4 1.6,-0.3 3.1,0 4.4,1 1.3,0.9 2,2.1 2.3,3.6 0.4,2.5 0.9,5.9 1.3,10.1 0.5,5 0.9,8.4 1.1,10.1 1.6,-2.3 7.5,-11.1 17.6,-26.8 1,-1.6 2.4,-2.6 4,-2.9 1.5,-0.4 3,0 4.4,0.9 1.4,0.9 2.1,2.1 2.4,3.8 0.3,1.6 -2.3,6.6 -7.6,15 -4,6.1 -8.3,12.3 -12.9,18.3 l 10.5,7 c 4.1,2.6 7.8,4.8 10.9,6.4 1.6,0.8 3.3,1.3 5,1.5 3.1,0.4 4.9,2 5.4,4.6 0.3,1.1 0,2.4 -0.5,3.6 -0.8,1.6 -2.1,2.6 -3.9,3 -4,0.6 -9.6,-1.1 -16.8,-5.3 -2.3,-1.3 -7.4,-4.8 -15.5,-10.4 z"
   id="path21" />
<path
   class="st5"
   d="m 310.20875,100.8 -1.2,18.4 c -0.1,1.3 -0.5,2.5 -1.3,3.5 -1.1,1.4 -2.8,2.1 -4.6,1.9 -2.4,-0.1 -4.1,-1.2 -5.3,-3.1 -1,-1.5 -1.4,-3.1 -1.3,-4.8 0.4,-6.5 1.1,-16.2 2.4,-29.200004 1.1,-12.899996 2,-22.699996 2.4,-29.099996 0.1,-1.6 0.8,-3 2,-4.1 1.3,-1.1 2.8,-1.6 4.5,-1.5 1.8,0.1 3.1,0.8 4.3,2 1,1.3 1.5,2.7 1.4,4.3 -0.3,2.6 -0.5,6.2 -1.1,10.6 -0.6,5.2 -1.1,8.7 -1.3,10.6 2.1,-1.8 10.1,-9.4 24.2,-22.9 1.4,-1.4 3,-2 4.8,-1.9 1.6,0.1 3,0.8 4.3,2 1.1,1.3 1.6,2.8 1.6,4.4 -0.1,1.9 -3.9,6.3 -11.3,13.5 -5.5,5.3 -11.3,10.5 -17.3,15.499996 l 9,9.600004 c 3.5,3.8 6.6,6.8 9.5,9.1 1.4,1.3 2.9,2.1 4.6,2.8 3,1.3 4.5,3.3 4.3,6 -0.1,1.3 -0.6,2.5 -1.4,3.6 -1.3,1.5 -2.8,2.3 -4.6,2.1 -4.3,-0.3 -9.5,-3.3 -15.8,-9.1 -1.9,-1.6 -6.3,-6.4 -13.3,-14 z m 82.4,16.4 c -1.4,2.5 -3.3,4.7 -5.5,6.5 -2.8,2.2 -5.7,3.5 -8.8,3.9 -6,0.7 -10.6,0.1 -13.7,-1.8 -6.8,-4.1 -10.8,-12 -12.1,-23.9 -0.3,-1.1 -0.4,-2.900004 -0.5,-5.100004 -0.1,-2.3 -0.4,-4 -0.5,-5.1 -0.1,-0.9 -0.3,-2.3 -0.4,-4.1 -0.1,-1.899996 -0.4,-3.099996 -0.4,-4.099996 -0.3,-1.9 -0.1,-3.6 0.4,-5.4 0.6,-2.4 1.8,-3.5 3.4,-3.8 1.3,-0.3 2.5,0.1 3.5,0.8 1.1,0.8 1.9,1.8 2,3.1 0.1,1.3 0.4,3.3 0.6,5.9 l 0.6,5.899996 c 0.1,1.1 0.3,2.9 0.4,5 0.1,2.3 0.3,4 0.4,5.100004 0.4,3.5 1.3,6.8 2.4,9.8 1.4,3.5 3.1,5.9 5.1,7.1 1,0.6 3.4,0.8 7.1,0.4 6.1,-0.6 9.8,-6.5 10.6,-17.400004 0.4,-5.6 0.1,-13.5 -1.1,-23.399996 -0.1,-1.4 0.1,-2.6 0.8,-4 0.9,-1.8 2.3,-2.8 4.3,-3 1.6,-0.3 2.9,0.3 3.8,1.4 0.8,0.8 1.1,1.8 1.3,2.8 1.1,9.3 1.5,16.499996 1.3,21.899996 -0.4,8.100004 -2.3,15.000004 -5.5,20.800004 z m 24.5,-21.400004 c -0.4,0 -1.4,-0.1 -3,-0.3 -0.1,3.3 -0.2,8.800004 -0.2,16.300004 0,1.3 -0.5,2.3 -1.4,3.2 -0.9,0.9 -2,1.4 -3.4,1.4 -1.4,0 -2.5,-0.5 -3.4,-1.4 -0.9,-0.9 -1.4,-2 -1.4,-3.2 v -9.9 c 0,-3.700004 0.3,-9.100004 0.6,-16.3 0.4,-7.3 0.6,-12.8 0.8,-16.3 0,-6.3 1.8,-9.1 5.1,-8.9 0.8,-0.3 1.9,-0.4 3.3,-0.5 1.4,-0.1 3.1,-0.3 5.1,-0.3 4.6,0 8.9,1.5 13,4.5 4.5,3.4 6.8,7.4 6.8,12.3 0,6 -2.4,10.899996 -7.3,14.399996 -4.3,3.1 -9.4,4.8 -15.3,4.8 z M 418.80875,69 c -0.8,0 -1.4,0 -2,0 -0.6,0 -1.1,0 -1.5,0.1 0,1.1 0,2.8 0,5 -0.1,2.6 -0.3,6.7 -0.7,12.299996 1.2,0.2 2,0.3 2.4,0.3 3.7,0 6.8,-0.899996 9.2,-2.599996 2.6,-1.9 3.9,-4.3 3.9,-7.4 0,-2 -1.3,-3.8 -3.8,-5.4 -2.3,-1.5 -4.8,-2.3 -7.5,-2.3 z m 34.5,35.7 c -0.4,-0.1 -1.4,-0.3 -2.9,-0.7 -0.6,3.3 -1.4,8.6 -2.5,16.1 -0.2,1.3 -0.8,2.3 -1.8,3 -1,0.8 -2.1,1.1 -3.5,0.9 -1.3,-0.1 -2.4,-0.8 -3.1,-1.8 -0.7,-1 -1,-2.1 -0.9,-3.4 l 1.4,-9.8 c 0.5,-3.6 1.5,-8.9 3,-16.000004 1.5,-7.099996 2.5,-12.499996 3,-15.999996 0.9,-6 3,-8.8 6.4,-8 0.8,-0.1 2,-0.1 3.4,0 1.4,0.1 3.1,0.4 5.1,0.6 4.6,0.6 8.7,2.8 12.3,6.3 4,4 5.7,8.4 5,13.099996 -0.9,6 -3.9,10.5 -9.2,13.400004 -4.6,2.5 -9.9,3.4 -15.7,2.6 z m 5.5,-26.3 -2,-0.3 c -0.6,-0.1 -1.1,-0.1 -1.5,-0.1 -0.2,1.1 -0.4,2.8 -0.8,5 -0.4,2.6 -1.2,6.599996 -2.4,12.099996 1.2,0.4 2,0.6 2.4,0.6 3.6,0.5 6.8,0.1 9.5,-1.3 2.8,-1.5 4.5,-3.8 4.9,-6.8 0.3,-1.999996 -0.7,-3.899996 -2.9,-5.799996 -2.1,-1.8 -4.6,-2.9 -7.4,-3.3 z m 57.3,-5.4 c -0.5,0 -1,0 -1.5,-0.2 -3.9,-0.8 -7.6,-1.2 -11.2,-1 -1.8,0.1 -3.7,0.3 -5.7,0.7 -2,0.4 -4.2,0.9 -6.4,1.6 0.3,3.1 0.4,7.8 0.5,13.999996 1.4,-0.2 5.9,-0.8 13.8,-2 4.5,-0.699996 7.4,-1.099996 8.6,-1.099996 1.4,-0.1 2.6,0.3 3.6,1.199996 1.1,0.8 1.6,2 1.8,3.4 0.3,2.9 -1.3,4.5 -4.3,5.1 l -8.4,1.1 c -3.3,0.6 -8.3,1.3 -15,2.3 0,3.000004 0.1,5.500004 0.1,7.300004 0.3,4.6 0.6,7.3 1.3,7.9 0.4,0.3 1.9,0.4 4.5,0.3 1.5,0 3.8,-0.3 6.6,-0.4 3,-0.3 5.1,-0.4 6.6,-0.4 0.5,0 1.1,-0.1 2.1,-0.3 0.9,-0.1 1.6,-0.3 2,-0.3 1.4,0 2.6,0.3 3.6,1 1.1,0.9 1.8,2 1.9,3.6 0.1,2.6 -1.1,4.3 -3.9,5 -2.4,0.6 -7.3,1 -14.6,1.5 -7.8,0.4 -12.8,-0.4 -15.3,-2.4 -2.6,-2.1 -4.1,-7 -4.6,-14.6 -0.1,-3.1 -0.1,-7.900004 0,-14.300004 0.1,-6.399996 0.1,-11.099996 0,-14.299996 0,-0.8 -0.1,-2 -0.5,-3.6 -0.3,-1.6 -0.5,-2.8 -0.5,-3.6 -0.1,-3.6 1.4,-5.5 4.8,-5.6 1,0 2,0.3 2.9,0.8 2.8,-0.8 5.4,-1.5 7.8,-1.9 2.5,-0.5 4.8,-0.8 7,-0.9 6,-0.3 10.8,0.1 14.4,1.4 2.3,0.8 3.4,2.1 3.5,4.4 0.1,1.3 -0.3,2.4 -1,3.4 -0.9,1.1 -2,1.8 -3.5,1.9 z m 44.1,32.7 c -2.8,1.1 -7.2,2 -13.1,2.7 -5.4,0.7 -9.8,0.9 -13.2,0.8 -5.8,-0.3 -8.6,-2.9 -8.3,-8 0,0.4 0.4,-3.300004 1.2,-11.200004 1,-10.199996 1.9,-21.599996 2.4,-34.199996 0,-1.4 0.5,-2.5 1.5,-3.4 0.9,-0.9 2.1,-1.3 3.5,-1.3 1.4,0.1 2.5,0.6 3.5,1.6 0.9,1 1.3,2.2 1.3,3.5 -0.6,12.6 -1.4,24.2 -2.5,34.699996 -0.4,1.9 -0.8,4.8 -1.1,8.6 5.5,0.2 12.8,-0.9 21.7,-3.1 0.5,-0.1 1,-0.2 1.5,-0.2 1.5,0.1 2.6,0.7 3.5,1.8 0.8,1 1.1,2.100004 1.1,3.300004 -0.1,2 -1.3,3.5 -3.3,4.3 h 0.3 z m -142.6,87.8 c -1.4,2.4 -3.2,4.5 -5.3,6.3 -2.6,2.1 -5.4,3.4 -8.4,3.8 -5.8,0.7 -10.1,0.1 -13.3,-1.8 -6.4,-3.9 -10.4,-11.6 -11.6,-22.9 -0.1,-1.1 -0.3,-2.7 -0.4,-4.9 -0.1,-2.2 -0.3,-3.8 -0.4,-4.9 -0.1,-0.9 -0.3,-2.2 -0.4,-3.9 l -0.4,-3.9 c -0.3,-1.8 0,-3.5 0.4,-5.1 0.6,-2.2 1.8,-3.4 3.4,-3.6 1.3,-0.2 2.4,0.1 3.5,0.8 1.1,0.7 1.8,1.8 2,3.1 0.3,1.3 0.4,3.2 0.6,5.7 0.3,2.6 0.5,4.5 0.6,5.8 0.1,1.1 0.3,2.7 0.5,4.8 0.1,2.2 0.3,3.8 0.4,4.8 0.4,3.4 1.3,6.6 2.4,9.4 1.4,3.4 3,5.7 5,6.9 1.1,0.6 3.4,0.8 7,0.4 6,-0.6 9.4,-6.2 10.3,-16.7 0.5,-5.4 0.1,-13 -1,-22.6 -0.1,-1.3 0.1,-2.5 0.8,-3.8 0.9,-1.7 2.3,-2.6 4.1,-2.9 1.6,-0.2 2.8,0.3 3.8,1.3 0.8,0.8 1.1,1.6 1.3,2.6 1,8.9 1.5,15.9 1.3,21 -0.4,7.9 -2.1,14.5 -5.3,20.2 z m 131.6,-49.6 c -0.5,0 -0.9,0 -1.4,-0.1 -3.8,-0.8 -7.3,-1.1 -10.8,-0.9 -1.7,0.1 -3.5,0.3 -5.5,0.7 -1.9,0.4 -4,0.9 -6.2,1.6 0.1,3 0.3,7.5 0.4,13.5 1.3,-0.2 5.6,-0.8 13.3,-2 4.3,-0.7 7,-1 8.1,-1.1 1.3,-0.1 2.5,0.3 3.5,1.1 1,0.8 1.5,1.9 1.6,3.3 0.1,2.7 -1.3,4.3 -4.1,4.8 -1.9,0.1 -4.5,0.5 -8.1,1 -3.3,0.5 -8.1,1.3 -14.5,2 0,2.9 0,5.3 0.1,7 0.3,4.4 0.6,7 1.1,7.5 0.3,0.3 1.6,0.3 4.3,0.1 l 6.4,-0.5 c 2.8,-0.3 4.9,-0.4 6.3,-0.5 0.4,0 1.1,-0.1 2,-0.4 0.9,-0.3 1.5,-0.4 1.9,-0.4 1.3,-0.1 2.5,0.3 3.4,1 1.1,0.8 1.6,1.9 1.8,3.4 0.1,2.5 -1.1,4.1 -3.8,4.8 -2.3,0.5 -7,1 -14.1,1.4 -7.5,0.4 -12.4,-0.4 -14.6,-2.3 -2.6,-2.1 -4.1,-6.9 -4.5,-14.1 -0.1,-3.1 -0.3,-7.6 -0.1,-13.8 0.2,-6.2 0.1,-10.8 -0.1,-13.8 0,-0.9 -0.3,-2 -0.5,-3.5 -0.4,-1.6 -0.5,-2.8 -0.5,-3.5 -0.3,-3.5 1.3,-5.3 4.5,-5.5 1,-0.1 1.9,0.1 2.8,0.6 2.6,-0.9 5.1,-1.5 7.4,-1.9 2.4,-0.5 4.5,-0.8 6.6,-0.9 5.8,-0.4 10.4,0.1 13.9,1.3 2.1,0.6 3.3,2.1 3.4,4.1 0,1.1 -0.4,2.3 -1.1,3.1 -0.9,1.1 -2,1.6 -3.4,1.8 z m -83.8,12.3 c -2.1,-0.1 -3.5,-1.3 -4.4,-3.5 -0.4,-1.1 -0.8,-1.7 -1.3,-1.9 -0.3,-0.3 -1.2,-0.4 -2.7,-0.4 -2.8,-0.3 -6.3,1.9 -10.3,6.1 -5.5,5.9 -8.5,11.6 -8.8,17 -0.1,2.5 0.6,4.6 2.3,6.5 1.7,1.9 3.5,2.8 5.9,2.9 2.3,0.1 4.6,-0.4 7,-1.5 0.9,-0.4 2.6,-1.5 5.4,-3.1 1.9,-1.1 3.3,-1.6 4.1,-1.6 1.4,0 2.5,0.6 3.4,1.6 0.9,1 1.3,2 1.3,3.3 0,1.3 -0.6,2.5 -1.9,3.4 -6.5,4.9 -13,7.3 -19.5,6.9 -5.1,-0.3 -9.3,-2.4 -12.6,-6.3 -3.1,-3.8 -4.6,-8.1 -4.4,-13 0.4,-7.6 4.1,-15.3 11.3,-22.8 6,-6.5 11.9,-9.5 17.9,-9.3 1,0 1.9,0.1 2.8,0.3 0.9,0.1 1.5,0.3 2.1,0.4 1.1,-0.9 2.3,-1.4 3.8,-1.3 2.4,0.1 3.8,1.5 4.1,4.1 0.3,1.9 0.4,4.1 0.3,6.6 0,1.1 -0.5,2.1 -1.1,3 -1,1.1 -2.3,1.8 -3.9,1.6 z m 42.5,43.8 c -2,0 -3.6,-1 -4.6,-2.9 -1.3,-2.4 -3.2,-5.1 -5.7,-8.3 l -6.2,-7.9 c -2.1,1.5 -3.8,2.8 -5.1,3.5 -0.3,3.6 -0.4,7 -0.4,10.3 0,1.5 -0.5,2.8 -1.5,3.8 -1,1 -2.3,1.5 -3.8,1.5 -3.8,0 -5.5,-2.1 -5.5,-6.5 0,-2 0.1,-5 0.4,-9.1 0.3,-4 0.4,-7.1 0.4,-9.1 0,-3.8 0,-8 0.1,-12.8 0.1,-4.8 0.1,-9 0.1,-12.8 0,-1.1 -0.1,-2.4 -0.3,-3.9 -0.1,-1.5 -0.3,-2.8 -0.3,-3.9 0,-1.5 0.5,-2.6 1.5,-3.6 1,-1 2.3,-1.4 3.9,-1.4 1.6,0 2.8,0.5 3.8,1.5 1,1 1.5,2.1 1.5,3.6 0,1.1 0,2.5 0.1,4 0.1,1.6 0.1,3 0.1,4.1 0,3.1 -0.1,6.8 -0.3,11 -0.1,4 -0.3,7.6 -0.3,10.8 3.5,-2.8 8.9,-7.6 16,-14.8 1.1,-1.1 2.4,-1.6 3.9,-1.6 1.4,0 2.6,0.5 3.8,1.6 1.1,1.1 1.6,2.4 1.6,3.8 0,1.3 -0.5,2.4 -1.5,3.5 -3.1,3.4 -6.8,6.9 -10.9,10.6 l 8,10.3 c 3.9,5.1 5.8,8.6 5.8,10.4 0,1.4 -0.6,2.6 -1.8,3.6 -1.2,1 -2.5,1.5 -3.9,1.5 z m 84,4 c -1.3,-0.1 -2.3,-0.6 -3.3,-1.6 -6.5,-6.8 -13.9,-11.7 -22,-14.7 -0.1,6.6 -0.2,10.3 -0.3,11 -0.1,1.3 -0.6,2.4 -1.5,3.2 -1,0.8 -2.1,1.3 -3.5,1.2 -1.4,-0.1 -2.5,-0.6 -3.3,-1.5 -0.9,-1 -1.3,-2.1 -1.2,-3.4 0.1,-1.7 0.3,-4.3 0.5,-7.6 0.2,-3.4 0.4,-6 0.5,-7.7 l 1.6,-27.5 c 0.1,-1.5 0.6,-2.9 1.6,-4 1.3,-1.5 2.9,-2.1 4.9,-1.9 l 8.5,1.1 c 3.2,0.5 5.8,1.4 8,2.8 9.4,5.4 14,11.8 13.6,18.9 -0.2,3 -1.3,5.5 -3.5,7.8 -2.2,2.1 -5.3,3.9 -9.5,5.3 5.8,3.6 10.2,7.4 13,11 0.8,0.9 1.1,2 1,3.1 -0.1,1.3 -0.6,2.3 -1.6,3.1 -1,0.9 -2.1,1.3 -3.4,1.1 z m -19.5,-44.2 c -0.2,-0.1 -1.5,-0.3 -4,-0.5 l -1,18 1.5,0.1 c 5.6,0.3 9.7,-0.3 12.5,-1.5 1.2,-0.5 2.3,-1.3 3.3,-2.3 1,-1 1.5,-1.6 1.6,-2.1 0.1,-2.6 -1.3,-5.1 -4.4,-7.6 -3,-2.5 -6.1,-3.9 -9.5,-4.4 z m -237.9,21.6 2.9,17.6 c 0.2,1.1 0,2.4 -0.5,3.5 -0.7,1.5 -2,2.5 -3.9,2.8 -2.2,0.4 -4.1,-0.1 -5.6,-1.8 -1.2,-1.3 -1.9,-2.6 -2.2,-4.1 -1,-6.3 -2.4,-15.5 -4.1,-27.9 -1.7,-12.4 -3.1,-21.8 -4.1,-27.9 -0.3,-1.5 0.1,-3 1,-4.3 0.9,-1.4 2.2,-2.1 3.9,-2.4 1.7,-0.3 3.1,0 4.4,1 1.4,0.9 2.1,2.1 2.4,3.6 0.5,2.5 0.9,5.9 1.4,10.1 0.5,5 1,8.4 1.3,10.1 1.6,-2.3 7.5,-11.1 17.8,-26.9 1.1,-1.6 2.5,-2.6 4.1,-2.9 1.6,-0.3 3.1,0.1 4.5,1 1.4,0.9 2.3,2.1 2.5,3.8 0.3,1.8 -2.3,6.8 -7.6,15 -4,6.1 -8.3,12.1 -12.8,18.3 l 10.6,7 c 4.1,2.6 7.8,4.9 10.9,6.5 1.6,0.8 3.3,1.3 5,1.5 3.1,0.4 5,2 5.4,4.6 0.3,1.1 0,2.4 -0.5,3.6 -0.8,1.6 -2.1,2.6 -3.9,3 -4,0.6 -9.5,-1.1 -16.8,-5.3 -2.1,-1.3 -7.4,-4.8 -15.5,-10.4 z"
   id="path23" />
<path
   class="st6"
   d="m 135.40875,161.2 c 0,0 1.6,-42.2 -13.6,-48.5 0,0 -9.1,-4.8 -20.9,2.3 -11.800002,7 -16.500002,-11.6 -15.100002,-13.1 1.4,-1.6 1.4,-10.900004 -1.5,-10.400004 -2.9,0.4 -11.999999,-3.9 -25.999999,3.1 -14.2,7.000004 -14.7,15.400004 -42.4,13.200004 0,0 1.9,12.3 14.9,15 12.9,2.7 0,0 0,0 0,0 -5.4,8.6 -16.3,5.7 0,0 9.5,6.3 19.3,3.7 9.8,-2.6 0,0 0,0 0,0 -12.3,16.9 13.6,42.3 0,0 11.8,15 -2.3,27.7 l 105.100001,0.5 c 0,0 -15,-16.3 -19,-20.9 0,0 -16.6,-2.5 -20.7,0.9 -4.1,3.4 0,-17.2 0.7,-18.6 0.8,-1.4 10.3,-11.4 24.3,-2.8 z"
   id="path25" />
<path
   class="st7"
   d="m 44.808749,203 5.4,-6.2 4.6,5.2"
   id="path27" />
<path
   class="st4"
   d="m 84.708748,95.399996 c 0,0 -18.999999,-3.7 -36.799999,9.000004 -17.8,12.7 -21.8,10.3 -24.2,9.1 0,0 6.9,6 9.4,5.4 0,0 -10.2,10.5 -12.3,12 0,0 15.3,-0.8 17.5,-1.6 0,0 -10.9,16.6 10,39.3 0,0 10.6,13.5 10,26.5 l 9,6 39.300001,0.9 c 0,0 2.4,-8.8 -1.5,-18.1 l -15.900002,-3.8 -16.399999,-4 -15.9,-13.4 -3.3,-5.2 12.2,-6.8 11.599999,-26.3 8.9,-7.9 z"
   id="path29" />
<path
   class="st7"
   d="m 120.40875,189.5 -2.2,12.2 9.9,0.2 z"
   id="path31" />
<path
   class="st8"
   d="m 116.50875,182.5 c 0,0 10.5,-4.1 20.6,6.7 10.1,10.9 12.8,11.7 12.8,11.7 v 0.8 l -20.5,-0.1 z"
   id="path33" />
<path
   class="st9"
   d="m 72.308749,130.5 4.999999,-3.6 c 0,0 11,2.4 22.700002,-3.1 11.6,-5.5 26.9,-7.9 25.9,11.4 -1,19.3 4.1,21.2 6.9,25.8 0,0 -8.8,-5.1 -17.4,0.5 -8.6,5.6 -4.8,14.3 -5,16.3 -0.3,2 -4.1,24.4 -28.800002,8.6 -24.699999,-15.9 -27.699999,-21.8 -29.299999,-22.5 -1.6,-0.8 -1.1,-8.6 2.5,-9.5 0,0 8.3,0 11.9,-12 3.6,-11.9 5.3,-12.1 5.3,-12.1 z"
   id="path35" />
<path
   class="st7"
   d="m 89.008748,173.9 c 0,0 8.4,-4.5 10.5,-3.9 2.100002,0.6 -0.3,7.7 -0.6,7.9 -0.3,0.2 -9.9,-4 -9.9,-4 z"
   id="path37" />
<ellipse
   class="st10"
   cx="65.508751"
   cy="115.1"
   rx="14.7"
   ry="14.5"
   id="ellipse39" />
<circle
   class="st10"
   cx="92.508751"
   cy="106.2"
   r="12.2"
   id="circle41" />
<path
   class="st11"
   d="m 79.908748,121.1 c 0,0 23.000002,-6.6 29.300002,-9.4 6.3,-2.7 26,-7.3 26.6,51.4 0,0 -11.2,-11.8 -25.4,1.2 0,0 -26.600002,9.4 -44.700001,-8.1 0,0 13.999999,16.4 30.899999,23 0,0 7.000002,4.6 4.900002,-10.3"
   id="path43" />
<path
   class="st12"
   d="m 51.208749,92.999996 9.7,-7 M 88.408748,82.7 l 11.2,3"
   id="path45" />
<ellipse
   cx="66.208748"
   cy="116.89999"
   rx="5.0999999"
   ry="5.3000002"
   id="ellipse47" />
<circle
   class="st13"
   cx="63.108753"
   cy="114.7"
   r="2.5"
   id="circle49" />
<path
   d="m 96.508748,107.8 c 0.8,2.8 -0.9,5.7 -3.6,6.4 -2.7,0.7 -5.5,-1 -6.3,-3.9 -0.8,-2.9 0.9,-5.8 3.6,-6.5 2.8,-0.7 5.6,1.1 6.3,4 z"
   id="path51" />
<circle
   class="st13"
   cx="88.108757"
   cy="107.80001"
   r="2.5"
   id="circle53" />
<path
   class="st12"
   d="m 91.108748,93.599996 c -15.4,-7.3 -33.799999,0.9 -33.799999,0.9 -24.5,21.200004 -42.3,13.000004 -42.3,13.000004 3.3,13 15.7,15.1 15.7,15.1 -1.5,6 -15.4,6.6 -15.4,6.6 5.7,3.6 18.4,2.7 18.4,2.7 -9.4,26 9.1,33.3 16,47.2 6.9,13.9 -6,23 -6,23 l 109.100001,0.8 c -1.2,-0.2 -20.7,-21.1 -25.5,-24.5 -4.8,-3.4 -15.9,2.3 -15.9,2.3 m -46.900001,21.1 -13.1,-11.3 m 59.800001,-26.6 c 0,0 -0.5,26.1 1.1,37.2 m 1.4,-21.3 16.1,22"
   id="path55" />
<path
   d="m 249.10875,188.1 c -1.9,-9.9 -5.1,-23.6 -10.6,-38.7 -10.8,-30.2 -30.4,-66.2 -65.1,-89.1 70.8,46.9 80.8,143.3 80.8,143.5 l -2.8,0.3 c 0.1,-0.1 -0.4,-6.1 -2.3,-16 z"
   id="path57" />
<path
   d="m 258.90875,186.4 c -1.2,-10 -3.5,-24.2 -7.9,-40.5 -8.7,-32.7 -25.4,-74.2 -57.8,-109.6 65.5,71.8 69.8,165.8 69.8,165.9 l -2.8,0.1 c 0.1,0 0,-5.9 -1.3,-15.9 z m 23.9,17.5 c 0,0 0.2,-4.7 0.2,-12.8 0,-19.1 -0.9,-57 -7,-94.700004 -6.1,-37.699996 -17.5,-75.099996 -38,-93.299996 21.4,19.1 34.6,54.9 40.8,92.799996 6.2,37.800004 7.1,75.900004 7.1,95.000004 0,8 -0.2,12.8 -0.2,12.8 l -2.8,-0.1 z"
   id="path59" />
<path
   d="m 204.40875,87.699996 12.7,-20.599996 47.6,-21.9 h 29.2 l -28.4,2.8 -46.7,21.6 -14.3,18.099996 m 20.6,30.300004 9.5,-19.800004 40.4,-9.4 12.6,-0.6 -12.3,3.4 -39.8,9.300004 z m 13.5,29.9 9.9,-15.1 32.5,-5.6 9.7,0.4 -9.6,2.4 -31,5.3 -11.6,12.5 z m -85.2,34.2 c 0,-20.3 5.9,-53.8 35,-95.600004 -28.8,41.400004 -32.2,75.900004 -32.2,95.600004 0,9.9 1.5,16.5 2.3,19.2 l 0.4,1.3 -2.6,0.9 c 0,-0.1 -2.6,-7.7 -2.6,-21.3 h -0.3 z m 52.1,9.5 c 0,-13.1 2.8,-36.4 20.3,-54.6 -16.8,17.4 -17.5,41.9 -17.5,54.6 0,3 0.2,5.5 0.3,7.3 0.2,1.8 0.3,2.6 0.3,2.6 l -2.8,0.5 c 0.1,-0.1 -0.6,-4.1 -0.6,-10.4 z M 16.708749,138.2 C 4.9087488,169.6 3.7087488,193.9 3.6087488,200.5 H 91.008748 v 3.6 H 0.10874877 l -0.1,-1.8 c 0,-0.3 -0.8,-27.7 12.90000023,-64.6 z M 134.80875,0 c -21.6,12.7 -40.900002,27 -57.600002,42.8 -18.999999,17.8 -34.699999,37.6 -47.099999,58.9 l 5.1,-1.6 C 54.108749,68.9 81.408748,30.9 134.80875,0 m 18.5,52.2 c -29.7,16.8 -39.5,45.599996 -41.4,51 l -1,-5.200004 c 4.4,-9.8 16.3,-31.299996 42.4,-45.799996"
   id="path61" />
</svg>
