<?xml version="1.0" encoding="UTF-8" standalone="no"?>
<svg
   width="2135.1001"
   height="332.20001"
   viewBox="0 0 2135.1001 332.20001"
   fill="none"
   version="1.1"
   id="svg20"
   sodipodi:docname="Dein Spiegel.svg"
   inkscape:version="1.1 (c68e22c387, 2021-05-23)"
   xmlns:inkscape="http://www.inkscape.org/namespaces/inkscape"
   xmlns:sodipodi="http://sodipodi.sourceforge.net/DTD/sodipodi-0.dtd"
   xmlns="http://www.w3.org/2000/svg"
   xmlns:svg="http://www.w3.org/2000/svg">
  <defs
     id="defs24" />
  <sodipodi:namedview
     id="namedview22"
     pagecolor="#ffffff"
     bordercolor="#666666"
     borderopacity="1.0"
     inkscape:pageshadow="2"
     inkscape:pageopacity="0.0"
     inkscape:pagecheckerboard="0"
     showgrid="false"
     fit-margin-top="10"
     fit-margin-left="10"
     fit-margin-right="10"
     fit-margin-bottom="10"
     inkscape:zoom="0.43061633"
     inkscape:cx="1104.2312"
     inkscape:cy="214.80839"
     inkscape:window-width="1920"
     inkscape:window-height="1017"
     inkscape:window-x="-8"
     inkscape:window-y="-8"
     inkscape:window-maximized="1"
     inkscape:current-layer="svg20" />
  <path
     d="m 539.58306,302.3 -83.4,-43 -71.1,12.5 -164.7,29 -39.1,6.9 C 36.583061,333.2 15.583061,214.1 15.583061,214.1 l -3.5,-20 C -8.9169389,75 135.78306,49.5 135.78306,49.5 l 203.8,-35.9 c 144.7,-25.5 165.7,93.6 165.7,93.6 z"
     fill="#ffffff"
     id="path2" />
  <path
     d="m 539.60006,302.3 -83.4,-43 -71.1,12.5 -164.7,29 -39.1,6.9 C 36.600061,333.2 15.600061,214.1 15.600061,214.1 l -3.5,-20 C -8.8999389,75 135.80006,49.5 135.80006,49.5 l 203.8,-35.9 c 144.7,-25.5 165.7,93.6 165.7,93.6 z m -415.8,-151 c 15.9,-2.8 24.1,3.8 27.7,24.3 4.5,25.5 -2.9,33.1 -18,35.8 l -7.7,1.4 -10.6,-60 z m -31.899999,98 43.399999,-7.7 c 48,-8.5 63.5,-33.5 55.9,-76.5 -8.2,-46.6 -35.7,-50.9 -70.6,-44.7 -13.8,2.4 -38.199999,7.3 -49.699999,9.5 z M 244.00006,150.7 c 6.5,-1.1 10.2,1.9 11.4,10.8 l -20,3.5 c -0.6,-9.9 2.3,-13.2 8.6,-14.3 z m 51.9,25.5 c -5.4,-44.7 -21.3,-56.7 -55.5,-50.7 -33.5,5.9 -47,26.1 -41.1,59.4 6.5,36.9 24.7,43.9 56.9,38.2 13.9,-2.4 32.4,-8.7 45.6,-16.2 l -11.2,-24.3 c -10.9,5.3 -24.9,10.2 -35.2,12 -9.1,1.7 -13.4,0.6 -16.3,-8.4 z m 52.4,27.9 -16.2,-91.8 -37.6,6.6 16.2,91.8 z m -17.3,-97.9 -4.9,-27.5 -37.6,6.6 4.9,27.5 z m 13.5,3.9 16.2,91.8 37.6,-6.6 -10.5,-59.8 c 2.8,-2.5 6.5,-4.7 10.6,-5.4 5.7,-1 8.9,1 10.3,9.1 l 9.3,52.6 37.6,-6.6 -11,-62.5 c -4.1,-23.2 -17.6,-29.3 -36,-26.1 -10.4,1.8 -20.9,7 -30.5,16.5 l -2.8,-8.4 z"
     fill="#e64415"
     id="path4" />
  <path
     d="m 635.80006,322.1 c -19.3,0 -34.4,-15.1 -34.4,-34.4 v -70.9 h 61.7 v 53.3 h 67.1 v -85.2 h -128.4 V 44.4 c 0,-19.3 15.1,-34.4 34.4,-34.4 h 120.8 c 19.3,0 34.4,15.1 34.4,34.4 v 57.9 h -61.7 V 62 h -66.3 v 71.7 h 128.4 v 153.9 c 0,19.3 -15.1,34.4 -34.4,34.4 h -121.6"
     fill="#42ccb3"
     id="path6" />
  <path
     d="m 980.20006,62 h -69.2 v 81.4 h 69.2 z m -155.2,260.1 v -52 h 24.3 v -208 h -24.3 v -52 h 182.50004 c 19.3,0 34.4,15.1 34.4,34.4 v 116.6 c 0,19.3 -15.1,34.4 -34.4,34.4 h -96.50004 v 74.7 h 23.9 v 52 z"
     fill="#fdc2d9"
     id="path8" />
  <path
     d="m 1070.6001,322.1 v -52 h 24.3 v -208 h -24.3 v -52 h 109.9 v 52 h -23.9 v 208 h 23.9 v 52 z"
     fill="#f5de00"
     id="path10" />
  <path
     d="m 1209.2001,322.1 v -52 h 24.3 v -208 h -24.3 v -52 h 212.7 v 90.6 h -59.6 V 62.1 h -67.1 v 70.8 h 90.2 v 50.3 h -90.2 V 270 h 67.1 v -52.9 h 59.6 V 322 h -212.7"
     fill="#b6e047"
     id="path12" />
  <path
     d="m 1490.3001,322.1 c -19.3,0 -34.4,-15.1 -34.4,-34.4 V 44.4 c 0,-19.3 15.1,-34.4 34.4,-34.4 h 122.1 c 19.3,0 34.4,15.1 34.4,34.4 v 58.3 h -61.7 V 62 h -67.5 v 208 h 67.5 v -78.4 h -39.8 v -50.7 h 101.5 v 181.2 z"
     fill="#32c6ff"
     id="path14" />
  <path
     d="m 1680.1001,322.1 v -52 h 24.3 v -208 h -24.3 v -52 h 212.7 v 90.6 h -59.6 V 62.1 h -67.1 v 70.8 h 90.2 v 50.3 h -90.2 V 270 h 67.1 v -52.9 h 59.6 V 322 h -212.7"
     fill="#fbb900"
     id="path16" />
  <path
     d="m 1922.5001,322.1 v -52 h 24.3 v -208 h -24.3 v -52 h 112 v 52 h -26 v 208 h 59.1 v -67.9 h 57.5 v 120 z"
     fill="#a3bdea"
     id="path18" />
</svg>
