<?xml version="1.0" encoding="UTF-8" standalone="no"?>

<svg
   xmlns:svg="http://www.w3.org/2000/svg"
   xmlns="http://www.w3.org/2000/svg"
   version="1.0"
   width="1133.8583"
   height="287.71652"
   id="svg2">
  <defs
     id="defs4" />
  <g
     transform="translate(1847.4682,485.66353)"
     id="layer1">
    <g
       transform="matrix(0.4684663,0,0,0.4684663,-946.5586,-107.45051)"
       id="g6815">
      <path
         d="M -1845.5931,-270.69857 L -1411.2812,-270.69857 L -1411.2812,-729.82059 L -1845.5931,-729.82059 L -1845.5931,-270.69857 z"
         id="path3016"
         style="fill:#ffffff;fill-opacity:1;fill-rule:nonzero;stroke:none" />
      <path
         d="M -1587.7812,-711.15625 L -1722.9375,-650.03125 L -1722.9375,-534.78125 L -1772.25,-534.78125 L -1772.25,-430.1875 L -1721.0938,-430.1875 L -1721.0938,-410.75 L -1739.8438,-420.90625 L -1829.1562,-358.4375 L -1703.5,-297.09375 L -1623.4375,-356.125 L -1623.4375,-429.03125 L -1573.9062,-429.03125 L -1573.9062,-358.65625 L -1486.4062,-296.65625 L -1428.5625,-392.90625 L -1476,-421.84375 L -1476,-635.6875 L -1587.7812,-711.15625 z M -1622.2812,-619.96875 L -1574.5938,-588.03125 L -1574.5938,-532.9375 L -1622.2812,-532.9375 L -1622.2812,-619.96875 z"
         id="path3132"
         style="fill:#e30613;fill-opacity:1;fill-rule:nonzero;stroke:none" />
      <path
         d="M -1671.5,-572.25 C -1693.2473,-572.33896 -1714.8095,-553.65702 -1716.5938,-523.90625 L -1755.4688,-523.84375 C -1758.5445,-521.44374 -1752.25,-519.50002 -1752.25,-519.5 L -1601.0625,-519.5 C -1601.0625,-519.5 -1594.9937,-521.84876 -1597.8438,-523.84375 L -1704.6562,-523.84375 C -1704.0873,-548.56038 -1675.0839,-574.36913 -1650.8125,-550.3125 C -1650.7649,-550.26531 -1650.7038,-550.23507 -1650.6562,-550.1875 C -1647.5747,-547.69032 -1641.0981,-529.20148 -1639.8438,-529.4375 C -1637.6381,-529.8425 -1643.9015,-541.96251 -1643.0312,-542.5625 L -1641.8438,-543.4375 C -1641.0338,-543.0925 -1640.0414,-541.4125 -1638.7812,-539.6875 C -1636.9824,-537.22749 -1635.7881,-532.18502 -1634.8438,-532.5 C -1633.5299,-532.9427 -1633.1804,-547.35857 -1641.7812,-557.78125 C -1641.923,-557.95302 -1642.0408,-558.14299 -1642.1875,-558.3125 L -1642.2188,-558.28125 C -1650.5794,-567.81964 -1661.0637,-572.2073 -1671.5,-572.25 z M -1672.0625,-568.09375 C -1664.642,-568.18215 -1657.0051,-565.77635 -1649.9688,-560.25 L -1652.6875,-557.28125 C -1675.2776,-575.35633 -1707.4392,-554.74391 -1708.5938,-523.84375 L -1712.2812,-523.84375 C -1711.5215,-548.58495 -1692.5781,-567.84934 -1672.0625,-568.09375 z M -1638.6562,-546.59375 C -1637.5619,-546.59375 -1636.6564,-545.72003 -1636.6562,-544.625 C -1636.6562,-543.51499 -1637.562,-542.62501 -1638.6562,-542.625 C -1639.7519,-542.625 -1640.6564,-543.51502 -1640.6562,-544.625 C -1640.6562,-545.72 -1639.752,-546.59374 -1638.6562,-546.59375 z"
         id="path3140"
         style="fill:#ffffff;fill-opacity:1;fill-rule:nonzero;stroke:none" />
      <path
         d="M -1748.0312,-515.875 C -1732.2811,-499.43493 -1705.3438,-493.4375 -1705.3438,-493.4375 C -1696.3137,-478.85745 -1678.1562,-467.5 -1678.1562,-467.5 L -1678.1562,-442.3125 C -1695.0164,-433.47747 -1689.3894,-418.86874 -1688.625,-420.96875 C -1687.5593,-423.89377 -1687.166,-425.41123 -1678.0312,-430.03125 L -1678.0312,-427.46875 L -1674.8125,-427.46875 L -1674.8125,-464.75 L -1671.5625,-461.75 L -1671.5625,-427.46875 L -1668.0938,-427.46875 L -1668.0938,-436.71875 C -1635.9179,-451.76381 -1663.4688,-470.53125 -1663.4688,-470.53125 L -1668.4375,-474.6875 L -1668.4375,-484.875 L -1671.4375,-484.875 L -1671.4375,-477.21875 L -1675.1562,-480.34375 L -1675.1562,-485 L -1678.0312,-484.875 L -1678.0312,-482.78125 L -1686.5938,-489.96875 C -1630.5835,-486.72873 -1605.0312,-515.875 -1605.0312,-515.875 L -1748.0312,-515.875 z M -1699.3438,-492.28125 L -1692.375,-490.3125 L -1676.4062,-475.9375 L -1662.7812,-465.3125 C -1652.1313,-456.40245 -1654.7927,-446.69627 -1668.2188,-440.90625 L -1668.4062,-445.25 C -1653.3762,-451.70002 -1664.8125,-461.5625 -1664.8125,-461.5625 C -1664.8125,-461.56249 -1698.9534,-488.51624 -1699.3438,-492.28125 z M -1668.3125,-459.65625 C -1668.3125,-459.65625 -1658.938,-453.39002 -1668.3125,-448.875 L -1668.3125,-459.65625 z M -1678.25,-437.71875 L -1678.3125,-433.75 L -1683.3125,-430.84375 C -1688.3825,-424.81373 -1684.9688,-432.59375 -1684.9688,-432.59375 C -1684.9687,-432.59374 -1680.5,-437.67375 -1678.25,-437.71875 z"
         id="path3152"
         style="fill:#ffffff;fill-opacity:1;fill-rule:nonzero;stroke:none" />
      <path
         d="M -1692.5649,-416.22777 C -1678.7792,-429.47283 -1654.0291,-420.95279 -1652.0347,-416.22777 L -1692.5649,-416.22777 z"
         id="path3160"
         style="fill:#ffffff;fill-opacity:1;fill-rule:nonzero;stroke:none" />
      <path
         d="M -1695.2013,-413.2142 L -1649.5411,-413.2142 C -1647.9655,-411.47419 -1648.4311,-409.68918 -1648.4311,-409.68918 L -1696.3557,-409.68918 C -1696.4757,-411.12919 -1695.2013,-413.2142 -1695.2013,-413.2142"
         id="path3164"
         style="fill:#ffffff;fill-opacity:1;fill-rule:nonzero;stroke:none" />
      <path
         d="M -1845.5931,-270.69857 L -1411.2812,-270.69857 L -1411.2812,-729.82059 L -1845.5931,-729.82059 L -1845.5931,-270.69857 z"
         id="path3298"
         style="fill:none;stroke:#000000;stroke-width:3.75001645;stroke-linecap:butt;stroke-linejoin:miter;stroke-miterlimit:4;stroke-dasharray:none;stroke-opacity:1" />
      <path
         d="M -1376.5111,-270.69857 L 419.74684,-270.69857 L 419.74684,-729.82059 L -1376.5111,-729.82059 L -1376.5111,-270.69857 z"
         id="path3300"
         style="fill:#ffffff;fill-opacity:1;fill-rule:nonzero;stroke:none" />
      <path
         d="M -1049.38,-682.37238 L -1074.6557,-475.19147 C -1080.4302,-431.37628 -1087.6602,-388.04109 -1120.2103,-355.19094 C -1147.6149,-327.29082 -1186.2406,-317.39077 -1219.5108,-317.39077 C -1252.7665,-317.39077 -1288.8111,-327.29082 -1308.8356,-355.19094 C -1332.7157,-388.04109 -1328.5013,-431.37628 -1322.7112,-475.19147 L -1297.4511,-682.37238 L -1223.6808,-682.37238 L -1247.3509,-487.38652 C -1253.1865,-443.12133 -1256.9209,-394.77612 -1209.2963,-394.77612 C -1161.6705,-394.77612 -1152.6405,-443.12133 -1146.7905,-487.38652 L -1123.1204,-682.37238 L -1049.38,-682.37238"
         id="path3312"
         style="fill:#e30613;fill-opacity:1;fill-rule:nonzero;stroke:none" />
      <path
         d="M -965.63046,-527.99326 L -964.88046,-527.99326 C -945.30597,-553.82338 -923.96028,-564.68342 -899.15017,-564.68342 C -871.26445,-564.68342 -848.94435,-551.10836 -839.05991,-520.29823 C -822.07983,-549.29336 -794.11971,-564.68342 -767.79519,-564.68342 C -718.81938,-564.68342 -706.92492,-526.17825 -713.95935,-472.94302 L -733.35384,-326.07737 L -801.91974,-326.07737 L -787.39968,-436.11786 C -784.26406,-459.92296 -778.33964,-498.99813 -807.28977,-498.99813 C -838.86431,-498.99813 -844.66993,-463.52298 -848.20995,-436.76286 L -862.82001,-326.07737 L -931.38471,-326.07737 L -916.77585,-436.76286 C -913.38463,-462.51797 -908.19461,-501.81815 -938.63034,-501.81815 C -969.08048,-501.81815 -974.2705,-462.51797 -977.67612,-436.76286 L -992.28618,-326.07737 L -1060.8653,-326.07737 L -1030.3107,-557.52839 L -961.73045,-557.52839 L -965.63046,-527.99326"
         id="path3324"
         style="fill:#e30613;fill-opacity:1;fill-rule:nonzero;stroke:none" />
      <path
         d="M -549.84543,-497.85813 C -559.52107,-504.57816 -573.62114,-509.06318 -585.30559,-509.06318 C -593.12122,-509.06318 -606.99568,-505.02816 -608.52569,-493.37311 C -610.5957,-477.68304 -589.71561,-475.44803 -580.61117,-473.21302 C -549.57543,-465.59299 -527.83973,-447.65291 -533.44976,-405.08272 C -541.49099,-344.24245 -591.18561,-318.90734 -635.69021,-318.90734 C -663.12593,-318.90734 -688.92604,-328.40238 -709.97054,-345.60746 L -677.60039,-402.84771 C -665.24154,-391.17766 -643.47584,-379.52261 -626.57017,-379.52261 C -618.00573,-379.52261 -604.76127,-384.45763 -603.09567,-397.01269 C -600.74126,-414.93776 -621.77135,-415.83777 -642.30584,-422.5578 C -662.84033,-429.27783 -682.59602,-441.83288 -677.16599,-483.06806 C -669.68036,-539.60331 -623.54016,-564.75842 -581.68997,-564.75842 C -559.86548,-564.75842 -538.53538,-560.70841 -519.9953,-549.92336 L -549.84543,-497.85813"
         id="path3328"
         style="fill:#e30613;fill-opacity:1;fill-rule:nonzero;stroke:none" />
      <path
         d="M -358.22979,-482.0255 C -367.19983,-491.02554 -378.29988,-498.21057 -391.46993,-498.21057 C -417.79565,-498.21057 -441.72015,-473.94046 -445.92017,-442.02032 C -450.31579,-408.76518 -433.44012,-385.38007 -405.20999,-385.38007 C -393.17994,-385.38007 -379.24548,-391.2301 -368.90983,-401.11514 L -378.04547,-331.87484 C -394.27555,-322.8898 -411.37562,-318.83978 -427.93569,-318.83978 C -485.13035,-318.83978 -526.21613,-369.645 -517.02049,-439.32031 C -507.24044,-513.49564 -453.0458,-564.75086 -392.47554,-564.75086 C -376.66547,-564.75086 -361.4398,-560.26584 -349.09535,-551.2658 L -358.22979,-482.0255"
         id="path3332"
         style="fill:#e30613;fill-opacity:1;fill-rule:nonzero;stroke:none" />
      <path
         d="M -231.91363,-683.11039 L -252.59932,-527.5447 L -251.83372,-527.5447 C -232.67803,-552.90981 -211.90354,-564.68486 -185.15782,-564.68486 C -136.16761,-564.68486 -117.58313,-525.72969 -125.30756,-467.10943 L -143.93764,-326.07881 L -212.50354,-326.07881 L -196.93348,-444.20433 C -193.36346,-471.15945 -193.07786,-498.99957 -220.57358,-498.99957 C -247.6937,-498.99957 -260.03815,-471.15945 -263.59377,-444.20433 L -279.19384,-326.07881 L -347.75854,-326.07881 L -300.47833,-683.11039 L -231.91363,-683.11039"
         id="path3336"
         style="fill:#e30613;fill-opacity:1;fill-rule:nonzero;stroke:none" />
      <path
         d="M 12.575447,-493.21855 C 40.295569,-493.21855 53.285627,-469.62345 49.58001,-441.57332 C 45.769994,-412.63819 26.73551,-390.3781 -1.0002125,-390.3781 C -28.720335,-390.3781 -41.874793,-412.63819 -38.064776,-441.57332 C -34.36036,-469.62345 -15.144675,-493.21855 12.575447,-493.21855 M 131.28597,-557.52383 L 62.720068,-557.52383 L 59.675655,-534.37873 C 48.095604,-554.73382 26.179907,-564.69386 4.0554098,-564.69386 C -53.050442,-564.69386 -100.07505,-507.69361 -108.74509,-442.02332 C -117.41513,-376.35303 -84.730582,-318.91778 -27.62473,-318.91778 C -5.1402308,-318.91778 19.849879,-329.31283 34.895546,-352.38293 L 35.645549,-352.38293 L 32.179934,-326.07281 L 100.76144,-326.07281 L 131.28597,-557.52383"
         id="path3348"
         style="fill:#e30613;fill-opacity:1;fill-rule:nonzero;stroke:none" />
      <path
         d="M 233.43282,-557.52527 L 217.20275,-434.44973 C 213.34833,-405.2596 216.60275,-384.58951 244.68287,-384.58951 C 272.74739,-384.58951 281.46303,-405.2596 285.31745,-434.44973 L 301.56312,-557.52527 L 370.14342,-557.52527 L 351.82774,-418.72966 C 341.7633,-342.46932 293.80749,-318.91922 236.01283,-318.91922 C 178.20258,-318.91922 136.47239,-342.46932 146.53684,-418.72966 L 164.86812,-557.52527 L 233.43282,-557.52527"
         id="path3352"
         style="fill:#e30613;fill-opacity:1;fill-rule:nonzero;stroke:none" />
      <path
         d="M -997.97661,-611.29751 L -1007.6522,-592.77243 L -1024.8411,-592.77243 L -978.62652,-682.96783 L -965.98207,-682.96783 L -947.86199,-592.77243 L -965.27646,-592.77243 L -968.92088,-611.29751 L -997.97661,-611.29751 z M -976.96091,-657.21271 L -977.18651,-657.21271 L -991.21098,-625.27757 L -971.35209,-625.27757 L -976.96091,-657.21271 z"
         id="path3364"
         style="fill:#e30613;fill-opacity:1;fill-rule:nonzero;stroke:none" />
      <path
         d="M -918.80026,-592.76799 L -935.10593,-592.76799 L -921.86027,-680.63837 L -899.67577,-680.63837 C -882.1557,-680.63837 -871.83565,-673.28834 -874.83566,-653.36825 C -877.65568,-634.72317 -888.66572,-625.63313 -905.7502,-625.63313 L -913.85024,-625.63313 L -918.80026,-592.76799 z M -911.70583,-639.8532 L -908.37461,-639.8532 C -898.73017,-639.8532 -893.18014,-642.0582 -891.45574,-653.48826 C -889.76013,-664.78331 -895.71576,-666.41831 -904.8202,-666.41831 L -907.70021,-666.41831 L -911.70583,-639.8532"
         id="path3368"
         style="fill:#e30613;fill-opacity:1;fill-rule:nonzero;stroke:none" />
      <path
         d="M -865.01842,-636.81718 C -861.314,-661.40229 -841.09271,-682.97239 -816.68821,-682.97239 C -792.2837,-682.97239 -778.57364,-661.40229 -782.27806,-636.81718 C -786.05807,-611.64707 -806.23256,-590.43698 -830.63827,-590.43698 C -855.04398,-590.43698 -868.81404,-611.64707 -865.01842,-636.81718 M -848.05395,-637.52218 C -850.06395,-624.23213 -841.96272,-607.32705 -828.08826,-607.32705 C -814.2282,-607.32705 -801.02814,-624.23213 -799.03373,-637.52218 C -796.88812,-651.72725 -804.92816,-666.06731 -819.23822,-666.06731 C -833.54828,-666.06731 -845.90834,-651.72725 -848.05395,-637.52218"
         id="path3372"
         style="fill:#e30613;fill-opacity:1;fill-rule:nonzero;stroke:none" />
      <path
         d="M -749.87071,-592.76799 L -766.17638,-592.76799 L -755.18074,-665.71331 L -772.04081,-665.71331 L -769.7908,-680.63837 L -719.76498,-680.63837 L -722.01499,-665.71331 L -738.87506,-665.71331 L -749.87071,-592.76799 z"
         id="path3376"
         style="fill:#e30613;fill-opacity:1;fill-rule:nonzero;stroke:none" />
      <path
         d="M -662.53553,-646.02278 L -657.3155,-680.62793 L -641.01103,-680.62793 L -654.25549,-592.77255 L -670.56116,-592.77255 L -664.63554,-632.04272 L -694.81567,-632.04272 L -700.7257,-592.77255 L -717.04577,-592.77255 L -703.78571,-680.62793 L -687.49564,-680.62793 L -692.70126,-646.02278 L -662.53553,-646.02278 z"
         id="path3380"
         style="fill:#e30613;fill-opacity:1;fill-rule:nonzero;stroke:none" />
      <path
         d="M -602.22326,-665.71775 L -605.13327,-646.36766 L -579.18316,-646.36766 L -581.43317,-631.4576 L -607.38328,-631.4576 L -610.9689,-607.68249 L -584.01318,-607.68249 L -586.26319,-592.77243 L -629.52338,-592.77243 L -616.27892,-680.62781 L -573.01873,-680.62781 L -575.26874,-665.71775 L -602.22326,-665.71775 z"
         id="path3384"
         style="fill:#e30613;fill-opacity:1;fill-rule:nonzero;stroke:none" />
      <path
         d="M -507.57645,-680.63381 L -487.50636,-680.63381 L -525.33652,-640.08864 L -498.98081,-592.76343 L -519.9365,-592.76343 L -540.71099,-632.2736 L -540.93659,-632.2736 L -546.89102,-592.76343 L -563.19669,-592.76343 L -549.95103,-680.63381 L -533.64656,-680.63381 L -539.24098,-643.58365 L -539.00218,-643.58365 L -507.57645,-680.63381 z"
         id="path3388"
         style="fill:#e30613;fill-opacity:1;fill-rule:nonzero;stroke:none" />
      <path
         d="M -458.80343,-665.71775 L -461.72904,-646.36766 L -435.76333,-646.36766 L -438.01334,-631.4576 L -463.96345,-631.4576 L -467.54787,-607.68249 L -440.60895,-607.68249 L -442.84336,-592.77243 L -486.10355,-592.77243 L -472.85909,-680.62781 L -429.5989,-680.62781 L -431.84891,-665.71775 L -458.80343,-665.71775 z"
         id="path3392"
         style="fill:#e30613;fill-opacity:1;fill-rule:nonzero;stroke:none" />
      <path
         d="M -406.734,-682.96639 L -394.97395,-682.96639 L -360.2038,-621.55611 L -359.97939,-621.55611 L -351.06816,-680.62637 L -334.76368,-680.62637 L -348.27934,-591.01598 L -360.03939,-591.01598 L -394.80835,-652.44125 L -395.03395,-652.44125 L -404.03399,-592.77099 L -420.32406,-592.77099 L -406.734,-682.96639 z"
         id="path3396"
         style="fill:#e30613;fill-opacity:1;fill-rule:nonzero;stroke:none" />
      <path
         d="M -1376.5111,-270.69857 L 419.74684,-270.69857 L 419.74684,-729.82059 L -1376.5111,-729.82059 L -1376.5111,-270.69857 z"
         id="path3398"
         style="fill:none;stroke:#000000;stroke-width:3.75001645;stroke-linecap:butt;stroke-linejoin:miter;stroke-miterlimit:4;stroke-dasharray:none;stroke-opacity:1" />
    </g>
  </g>
</svg>
